<svg xmlns="http://www.w3.org/2000/svg" height="300" width="600"><defs><clipPath id="a" clipPathUnits="userSpaceOnUse"><path style="marker:none" d="M228.46 29.202h833.574V319.49c-330.237 0-408.683 175.77-833.574 175.77z" color="#000" overflow="visible" fill="#babdb6"/></clipPath><clipPath id="b" clipPathUnits="userSpaceOnUse"><path style="marker:none" color="#bebebe" overflow="visible" fill="#bebebe" stroke-width="2" d="M26.85 220.75h3.825v6.375H26.85z"/></clipPath><clipPath id="c" clipPathUnits="userSpaceOnUse"><path style="marker:none" color="#bebebe" overflow="visible" fill="#bebebe" stroke-width="2" d="M26.966 221.33h2.898v5.216h-2.898z"/></clipPath><clipPath id="d" clipPathUnits="userSpaceOnUse"><path style="marker:none" color="#bebebe" overflow="visible" fill="#bebebe" stroke-width="2" d="M26.999 221.502h1.876v4.873h-1.876z"/></clipPath></defs><g transform="matrix(2 0 0 2 149.175 -260.804)"><g transform="matrix(.2967 0 0 .2967 -114.583 123.556)" clip-path="url(#a)"><g transform="matrix(4 0 0 4 172 -591)"><path style="marker:none" color="#bebebe" overflow="visible" fill="none" d="M20 276h16v16H20z"/><rect ry=".379" rx=".385" y="279" x="23.062" height="2" width="2" style="marker:none" color="#000" overflow="visible"/><rect style="marker:none" width="2" height="2" x="27.062" y="279" rx=".385" ry=".379" color="#000" overflow="visible"/><rect ry=".379" rx=".385" y="279" x="31.062" height="2" width="2" style="marker:none" color="#000" overflow="visible"/><rect style="marker:none" width="2" height="2" x="23.062" y="283.016" rx=".385" ry=".379" color="#000" overflow="visible"/><rect ry=".379" rx=".385" y="283.016" x="27.062" height="2" width="2" style="marker:none" color="#000" overflow="visible"/><rect style="marker:none" width="2" height="2" x="31.062" y="283.016" rx=".385" ry=".379" color="#000" overflow="visible"/><rect ry=".379" rx=".385" y="287" x="23.062" height="2" width="2" style="marker:none" color="#000" overflow="visible"/><rect style="marker:none" width="2" height="2" x="27.062" y="287" rx=".385" ry=".379" color="#000" overflow="visible"/><rect ry=".379" rx=".385" y="287" x="31.062" height="2" width="2" style="marker:none" color="#000" overflow="visible"/></g><path d="M239.06 57.414h800.88V108.9s-4.029-10.606-11.1-10.96L249 99c-4.596-.354-9.94 5.5-9.94 5.5z" style="marker:none" color="#000" overflow="visible" fill="#fff"/><path style="marker:none" color="#000" overflow="visible" fill="#fff" stroke="#3584e4" stroke-width="3.372" d="M240.001 58.15h800.743v599.998H240.001z"/><path d="M1039.199 109.003c0-5.898-4.781-10.68-10.68-10.68H250.52c-5.898 0-10.68 4.782-10.68 10.68" fill="none" stroke="#3584e4" stroke-width="2.373" stroke-linecap="round"/><text style="line-height:0%;-inkscape-font-specification:'Cantarell Bold';text-align:center" x="628.846" y="86.187" font-weight="700" font-family="Cantarell" letter-spacing="0" word-spacing="0" text-anchor="middle" fill="#3584e4" transform="translate(11)"><tspan x="628.846" y="86.187" style="line-height:1.25" font-size="21.262">14:30</tspan></text><text style="line-height:0%;-inkscape-font-specification:'Cantarell Bold';text-align:start" x="238.059" y="86.187" font-weight="700" font-family="Cantarell" letter-spacing="0" word-spacing="0" fill="#3584e4" transform="translate(11)"><tspan x="238.059" y="86.187" style="line-height:1.25" font-size="21.262">Activities</tspan></text><path style="marker:none" color="#000" overflow="visible" opacity=".706" fill="none" d="M733.912 129.896h32.362v32.362h-32.362z"/></g><g fill="#3584e4"><path d="M169.928 144.76h.997l1.191-1.203.22.006v4.414h-.191l-1.22-1.21h-.997z" style="marker:none" color="#bebebe" overflow="visible"/><path transform="matrix(.3147 0 0 .3147 164.287 75.292)" clip-path="url(#b)" d="M27.178 220.396a1.275 1.275 0 00-.889 2.19 1.91 1.91 0 010 2.703 1.276 1.276 0 101.805 1.805 4.466 4.466 0 000-6.313 1.275 1.275 0 00-.916-.385z" style="line-height:normal;font-variant-ligatures:normal;font-variant-position:normal;font-variant-caps:normal;font-variant-numeric:normal;font-variant-alternates:normal;font-feature-settings:normal;text-indent:0;text-align:start;text-decoration-line:none;text-decoration-style:solid;text-decoration-color:#000;text-transform:none;text-orientation:mixed;white-space:normal;shape-padding:0;isolation:auto;mix-blend-mode:normal;solid-color:#000;solid-opacity:1" color="#000" font-weight="400" font-family="sans-serif" overflow="visible"/><path transform="matrix(.69232 0 0 .69232 154.87 -9.273)" clip-path="url(#c)" d="M27.186 221.098a.58.58 0 00-.405.996 2.606 2.606 0 010 3.687.58.58 0 10.82.82 3.769 3.769 0 000-5.328.58.58 0 00-.415-.175z" style="line-height:normal;font-variant-ligatures:normal;font-variant-position:normal;font-variant-caps:normal;font-variant-numeric:normal;font-variant-alternates:normal;font-feature-settings:normal;text-indent:0;text-align:start;text-decoration-line:none;text-decoration-style:solid;text-decoration-color:#000;text-transform:none;text-orientation:mixed;white-space:normal;shape-padding:0;isolation:auto;mix-blend-mode:normal;solid-color:#000;solid-opacity:1" color="#000" font-weight="400" font-family="sans-serif" overflow="visible"/><path transform="matrix(1.06996 0 0 1.06996 145.453 -93.84)" clip-path="url(#d)" d="M27.188 221.305a.375.375 0 00-.262.644 2.811 2.811 0 010 3.977.376.376 0 10.531.531 3.564 3.564 0 000-5.039.375.375 0 00-.27-.113z" style="line-height:normal;font-variant-ligatures:normal;font-variant-position:normal;font-variant-caps:normal;font-variant-numeric:normal;font-variant-alternates:normal;font-feature-settings:normal;text-indent:0;text-align:start;text-decoration-line:none;text-decoration-style:solid;text-decoration-color:#000;text-transform:none;text-orientation:mixed;white-space:normal;shape-padding:0;isolation:auto;mix-blend-mode:normal;solid-color:#000;solid-opacity:1" color="#000" font-weight="400" font-family="sans-serif" overflow="visible" opacity=".35"/><path d="M179.975 143.477a.401.401 0 00-.219.056 2.813 2.813 0 00-1.306 3.158 2.812 2.812 0 002.709 2.082 2.811 2.811 0 002.714-2.074 2.813 2.813 0 00-1.297-3.161.401.401 0 10-.404.693 2.003 2.003 0 01.927 2.258 2.002 2.002 0 01-1.939 1.482 2.002 2.002 0 01-1.934-1.487c-.235-.878.145-1.8.933-2.256a.401.401 0 00-.184-.751z" style="line-height:normal;font-variant-ligatures:normal;font-variant-position:normal;font-variant-caps:normal;font-variant-numeric:normal;font-variant-alternates:normal;font-feature-settings:normal;text-indent:0;text-align:start;text-decoration-line:none;text-decoration-style:solid;text-decoration-color:#000;text-transform:none;text-orientation:mixed;white-space:normal;shape-padding:0;isolation:auto;mix-blend-mode:normal;solid-color:#000;solid-opacity:1;marker:none" color="#000" font-weight="400" font-family="sans-serif" overflow="visible"/><path d="M181.157 142.749a.401.401 0 00-.395.407v2.006a.401.401 0 10.802 0v-2.006a.401.401 0 00-.407-.407z" style="line-height:normal;font-variant-ligatures:normal;font-variant-position:normal;font-variant-caps:normal;font-variant-numeric:normal;font-variant-alternates:normal;font-feature-settings:normal;text-indent:0;text-align:start;text-decoration-line:none;text-decoration-style:solid;text-decoration-color:#000;text-transform:none;text-orientation:mixed;white-space:normal;shape-padding:0;isolation:auto;mix-blend-mode:normal;solid-color:#000;solid-opacity:1" color="#000" font-weight="400" font-family="sans-serif" overflow="visible"/><path d="M162.635 143.189a.71.71 0 00-.702.702v1.806c0 .382.32.702.702.702h.05l-.313.627-.289.577h3.712l-.289-.577-.313-.627h.05a.71.71 0 00.702-.702v-1.806a.71.71 0 00-.702-.702zm.1.802h2.408v1.605h-2.408z" style="line-height:normal;-inkscape-font-specification:Sans;text-indent:0;text-align:start;text-decoration-line:none;text-transform:none;marker:none" color="#bebebe" font-weight="400" font-family="Sans" overflow="visible"/><path d="M163.538 146.8v1.605h.802V146.8zM161.531 148.405v.802h4.816v-.802z" style="line-height:normal;font-variant-ligatures:normal;font-variant-position:normal;font-variant-caps:normal;font-variant-numeric:normal;font-variant-alternates:normal;font-feature-settings:normal;text-indent:0;text-align:start;text-decoration-line:none;text-decoration-style:solid;text-decoration-color:#000;text-transform:none;text-orientation:mixed;white-space:normal;shape-padding:0;isolation:auto;mix-blend-mode:normal;solid-color:#000;solid-opacity:1;marker:none" color="#bebebe" font-weight="400" font-family="sans-serif" overflow="visible"/><path style="marker:none" d="M190.033 146.132l-1.505 1.504-1.504-1.504z" color="#000" overflow="visible"/></g><rect ry="0" rx="0" y="151.228" x="64.907" height="1.5" width="21.75" style="marker:none" fill="#3584e4"/></g><path d="M537.875 175.526c-196.155 0-223.373 104.707-475.75 104.707" style="marker:none" color="#000" overflow="visible" fill="none" stroke="#3584e4" stroke-width=".5" stroke-dasharray="1,2"/><path style="marker:none" d="M298.886 49.43l-10.061 10.06h-86.433a8.73 8.73 0 00-8.752 8.753v193.548c0 4.85 3.901 8.78 8.752 8.78H397.58c4.851 0 8.78-3.93 8.78-8.78V68.243c0-4.85-3.929-8.752-8.78-8.752h-88.66z" color="#000" overflow="visible" fill="#3584e4"/></svg>