<svg xmlns="http://www.w3.org/2000/svg" width="600" height="300"><g transform="translate(25 15)" fill="#3584e4"><circle cx="315" cy="105" r="35" opacity=".5"/><circle cx="245" cy="105" r="35" opacity=".5"/><circle cx="280" cy="95" r="35" opacity=".5"/></g><path d="M270 109a15 15 0 0115 15v72a3 3 0 003 3h1a3 3 0 003-3v-8a14 14 0 0114-14 14 14 0 0114 14v8a3 3 0 003 3h1a3 3 0 003-3v-8a14 14 0 0114-14 14 14 0 0114 14v8a3 3 0 003 3h1a3 3 0 003-3v-1a14 14 0 0114-14 14 14 0 0114 14v74a30 30 0 01-30 30h-80a48.284 48.284 0 01-34.142-14.142l-47.511-47.511a13.61 13.61 0 01-1.264-17.79l.834-1.113a12.198 12.198 0 0116.754-2.675l28.04 19.63A7.81 7.81 0 00255 229V124a15 15 0 0115-15z" opacity=".05"/><path d="M270 105a15 15 0 0115 15v72a3 3 0 003 3h1a3 3 0 003-3v-83a14 14 0 0114-14 14 14 0 0114 14v83a3 3 0 003 3h1a3 3 0 003-3v-73a14 14 0 0114-14 14 14 0 0114 14v73a3 3 0 003 3h1a3 3 0 003-3v-1a14 14 0 0114-14 14 14 0 0114 14v74a30 30 0 01-30 30h-80a48.284 48.284 0 01-34.142-14.142l-45.71-45.71a15.812 15.812 0 01-1.029-21.229l.042-.051a14.582 14.582 0 0120.344-2.14l23.762 18.926A7.229 7.229 0 00255 225V120a15 15 0 0115-15z" fill="#f6f5f4"/><path d="M196.258 219.491c-1.993 5.044-.093 11.674 3.742 15.509l45.857 45.857A48.284 48.284 0 00280 295h80c16.569 0 30-13.431 30-30v-10c0 16.569-13.431 30-30 30h-80a48.284 48.284 0 01-34.143-14.143l-46.564-46.74a13.61 13.61 0 01-3.035-4.626z" fill="#deddda"/><defs id="defs5677"><clipPath clipPathUnits="userSpaceOnUse" id="a"><rect y="-101.694" x="508.542" height="80.287" width="271.154" rx="0" ry="0" fill="#1a5fb4" stroke-width="2.793" stroke-linecap="round" id="rect5674"/></clipPath></defs></svg>