<svg xmlns="http://www.w3.org/2000/svg" width="600" height="300"><g transform="translate(25 15)"><circle style="opacity:.5;fill:#3584e4;fill-opacity:1;stroke:none;stroke-width:2.89323;stroke-linecap:round;stroke-linejoin:round" cx="315" cy="105" r="35"/><circle style="opacity:.5;fill:#3584e4;fill-opacity:1;stroke:none;stroke-width:2.89323;stroke-linecap:round;stroke-linejoin:round" cx="245" cy="105" r="35"/><circle style="opacity:.5;fill:#3584e4;fill-opacity:1;stroke:none;stroke-width:2.89323;stroke-linecap:round;stroke-linejoin:round" cx="280" cy="95" r="35"/></g><path style="opacity:.05;fill:#000;stroke:none;stroke-width:1px;stroke-linecap:butt;stroke-linejoin:miter;stroke-opacity:1" d="M440 104a15 15 45 0 1 15 15v72a3 3 45 0 0 3 3h1a3 3 135 0 0 3-3v-8a14 14 135 0 1 14-14 14 14 45 0 1 14 14v8a3 3 45 0 0 3 3h1a3 3 135 0 0 3-3v-8a14 14 135 0 1 14-14 14 14 45 0 1 14 14v8a3 3 45 0 0 3 3h1a3 3 135 0 0 3-3v-1a14 14 135 0 1 14-14 14 14 45 0 1 14 14v74a30 30 135 0 1-30 30h-80a48.284 48.284 22.5 0 1-34.142-14.142l-47.511-47.511a13.61 13.61 85.935 0 1-1.264-17.79l.834-1.113a12.198 12.198 170.931 0 1 16.754-2.675l28.04 19.63A7.81 7.81 152.496 0 0 425 224V119a15 15 135 0 1 15-15z" transform="translate(-170 5)"/><path style="fill:#f6f5f4;stroke:none;stroke-width:1px;stroke-linecap:butt;stroke-linejoin:miter;stroke-opacity:1" d="M440 100a15 15 45 0 1 15 15v72a3 3 45 0 0 3 3h1a3 3 135 0 0 3-3v-83a14 14 135 0 1 14-14 14 14 45 0 1 14 14v83a3 3 45 0 0 3 3h1a3 3 135 0 0 3-3v-73a14 14 135 0 1 14-14 14 14 45 0 1 14 14v73a3 3 45 0 0 3 3h1a3 3 135 0 0 3-3v-1a14 14 135 0 1 14-14 14 14 45 0 1 14 14v74a30 30 135 0 1-30 30h-80a48.284 48.284 22.5 0 1-34.142-14.142l-45.71-45.71a15.812 15.812 87.226 0 1-1.029-21.229l.042-.051a14.582 14.582 173.995 0 1 20.344-2.14l23.762 18.926A7.229 7.229 154.27 0 0 425 220V115a15 15 135 0 1 15-15z" transform="translate(-170 5)"/><path style="fill:#deddda;stroke:none;stroke-width:1px;stroke-linecap:butt;stroke-linejoin:miter;stroke-opacity:1" d="M366.258 214.491c-1.993 5.044-.093 11.674 3.742 15.509l45.857 45.857A48.284 48.284 0 0 0 450 290h80c16.569 0 30-13.431 30-30v-10c0 16.569-13.431 30-30 30h-80a48.284 48.284 0 0 1-34.143-14.143l-46.564-46.74a13.61 13.61 0 0 1-3.035-4.626z" transform="translate(-170 5)"/></svg>