<svg xmlns="http://www.w3.org/2000/svg" xmlns:xlink="http://www.w3.org/1999/xlink" width="600" height="300"><defs><linearGradient id="a"><stop offset="0" stop-color="#1c71d8"/><stop offset="1" stop-color="#33d17a"/></linearGradient><linearGradient xlink:href="#a" id="b" x1="114.955" y1="150.56" x2="497.629" y2="150.56" gradientUnits="userSpaceOnUse"/></defs><path d="M343.412 6.958L264.768 85.6a16 16 0 01-22.627 0l-41.083-41.083a16 16 0 00-22.628 0l-58.789 58.79a16 16 90 000 22.627l41.083 41.083a16 16 90 010 22.627l-23.096 23.097a16 16 90 000 22.627l58.789 58.79a16 16 180 0022.627 0L343.27 169.932a16 16 180 0122.627 0l45.625 45.625a16 16 180 0022.627 0l58.79-58.79a16.015 16.015 90.027 00.01-22.637L366.028 6.969a15.985 15.985.027 00-22.616-.011z" fill="url(#b)"/><rect width="324.179" height="195.739" x="145.536" y="48.014" rx="26.854" ry="26.854" fill="#c0bfbc"/><path d="M169.965 153.585l-8.563-8.563 8.563-8.563m-8.563 8.563h17.126m265.533 8.563l8.563-8.563-8.563-8.563m8.563 8.563h-17.126" stroke-width="5.138" fill="none" stroke="#fff" stroke-linecap="round"/></svg>