<svg xmlns="http://www.w3.org/2000/svg" width="600" height="300"><rect width="378.596" height="228.596" x="118.18" y="30.621" rx="31.362" ry="31.362" fill="#c0bfbc"/><path d="M346.108 106.622a30.326 30.326 0 01-30.325 30.325 30.326 30.326 0 01-30.326-30.325 30.326 30.326 0 0130.326-30.326 30.326 30.326 0 0130.325 30.326zm-38.782-13.768a30.326 30.326 0 01-30.325 30.326 30.326 30.326 0 01-30.326-30.326A30.326 30.326 0 01277 62.528a30.326 30.326 0 0130.325 30.326zm-39.078 9.105a30.326 30.326 0 01-30.326 30.326 30.326 30.326 0 01-30.325-30.326 30.326 30.326 0 0130.325-30.326 30.326 30.326 0 0130.326 30.326z" fill="#3584e4"/><g fill="#f6f5f4"><path style="font-variation-settings:normal;marker:none" d="M225.967 151.804v57.492a5.046 5.046 0 01-8.33 3.832l-19.918-17.073a14.993 14.993 0 00-20.359.782 13.86 13.86 0 001.48 17.902l28.98 40.202a60.624 60.624 0 0049.178 25.173h77.579a31.031 31.031 0 0031.031-31.032v-79.906a11.299 11.299 0 00-11.299-11.299h-.675a11.299 11.299 0 00-11.3 11.3 6.696 6.696 0 01-7.757 5.43 7.758 7.758 0 01-7.758-7.758v-6.982a11.299 11.299 0 00-11.299-11.299h-.676a11.299 11.299 0 00-11.299 11.299v3.879a7.758 7.758 0 01-7.757 7.758 7.758 7.758 0 01-7.758-7.758v-3.879a11.299 11.299 0 00-11.3-11.299h-.675a11.299 11.299 0 00-11.299 11.299v3.879a7.758 7.758 0 01-7.758 7.758 7.758 7.758 0 01-7.758-7.758v-11.942a11.637 11.637 0 00-11.636-11.637 11.637 11.637 0 00-11.637 11.637z" fill="#000" fill-opacity=".102"/><path d="M225.967 97.165v107.493a5.046 5.046 0 01-8.33 3.83l-19.918-17.072a14.993 14.993 0 00-20.359.782 13.86 13.86 0 001.48 17.902l28.98 40.202a60.624 60.624 0 0049.178 25.173h77.579a31.031 31.031 0 0031.031-31.031v-79.906a11.299 11.299 0 00-11.299-11.3h-.675a11.299 11.299 0 00-11.3 11.3 6.696 6.696 0 01-7.757 5.43 7.758 7.758 0 01-7.758-7.758v-58.982A11.299 11.299 0 00315.52 91.93h-.676a11.299 11.299 0 00-11.299 11.3v55.878a7.758 7.758 0 01-7.757 7.758 7.758 7.758 0 01-7.758-7.758v-67.88a11.299 11.299 0 00-11.3-11.299h-.675a11.299 11.299 0 00-11.299 11.3v67.878a7.758 7.758 0 01-7.758 7.758 7.758 7.758 0 01-7.758-7.758V97.165a11.637 11.637 0 00-11.636-11.636 11.637 11.637 0 00-11.637 11.636z"/><path d="M175.207 196.788a13.86 13.86 0 003.632 13.312l28.982 40.203a60.624 60.624 0 0049.177 25.172h77.579a31.031 31.031 0 0031.03-31.031v-6.866a31.031 31.031 0 01-31.03 30.916h-77.58a60.624 60.624 0 01-49.176-25.173l-28.982-40.203a13.86 13.86 0 01-3.632-6.33z" fill="#deddda"/></g><g transform="rotate(-90 365.01 274.153)"><circle cx="494.793" cy="31.016" r="24.109" fill="#1c71d8"/><path d="M485.25 31.5l10-10 10 10m-10-10v20" fill="none" stroke="#fff" stroke-width="6" stroke-linecap="round"/></g><g transform="matrix(0 -1 -1 0 526.613 639.162)"><circle cx="494.793" cy="31.016" r="24.109" fill="#1c71d8"/><path d="M485.25 31.5l10-10 10 10m-10-10v20" fill="none" stroke="#fff" stroke-width="6" stroke-linecap="round"/></g><path d="M324.012 94.633a12 12 0 00-4.352 2.101 14.565 14.565 0 017.03 12.463v53.475a8.075 8.075 0 005.515 10 7.235 7.235 0 009.32-1.272 8.075 8.075 0 01-2.949-8.728v-53.475c0-8.043-6.52-14.564-14.564-14.564zm38.79 61.31a12 12 0 00-4.353 2.1 14.564 14.564 0 017.031 12.465v67.672c0 22.091-17.908 40-40 40h11.887c22.092 0 40-17.909 40-40v-67.672c0-8.044-6.52-14.565-14.564-14.565z" opacity=".546" fill="#fff"/><path d="M335.898 94.633a12 12 0 00-4.351 2.101 14.565 14.565 0 017.03 12.463v53.475a8.075 8.075 0 005.515 10 7.235 7.235 0 009.32-1.272 8.075 8.075 0 01-2.95-8.728v-53.475c0-8.043-6.52-14.564-14.564-14.564zm38.791 61.31a12 12 0 00-4.353 2.1 14.564 14.564 0 017.031 12.465v67.672c0 22.091-17.908 40-40 40h11.887c22.091 0 40-17.909 40-40v-67.672c0-8.044-6.52-14.565-14.565-14.565z" opacity=".32" fill="#fff"/><path d="M347.785 94.633a12 12 0 00-4.351 2.101 14.565 14.565 0 017.029 12.463v53.475a8.075 8.075 0 005.516 10 7.235 7.235 0 009.32-1.272 8.075 8.075 0 01-2.95-8.728v-53.475c0-8.043-6.52-14.564-14.564-14.564zm38.791 61.31a12 12 0 00-4.353 2.1 14.564 14.564 0 017.03 12.465v67.672c0 22.091-17.908 40-40 40h11.888c22.091 0 40-17.909 40-40v-67.672c0-8.044-6.521-14.565-14.565-14.565z" opacity=".101" fill="#fff"/></svg>