<svg xmlns="http://www.w3.org/2000/svg" xmlns:xlink="http://www.w3.org/1999/xlink" width="600" height="300"><defs><linearGradient id="a"><stop style="stop-color:#1c71d8;stop-opacity:1" offset="0"/><stop style="stop-color:#33d17a;stop-opacity:1" offset="1"/></linearGradient><linearGradient xlink:href="#a" id="b" x1="114.955" y1="150.56" x2="497.629" y2="150.56" gradientUnits="userSpaceOnUse"/></defs><path d="M343.412 6.958 264.768 85.6a16 16 0 0 1-22.627 0l-41.083-41.083a16 16 0 0 0-22.628 0l-58.789 58.79a16 16 90 0 0 0 22.627l41.083 41.083a16 16 90 0 1 0 22.627l-23.096 23.097a16 16 90 0 0 0 22.627l58.789 58.79a16 16 180 0 0 22.627 0L343.27 169.932a16 16 180 0 1 22.627 0l45.625 45.625a16 16 180 0 0 22.627 0l58.79-58.79a16.015 16.015 90.027 0 0 .01-22.637L366.028 6.969a15.985 15.985.027 0 0-22.616-.011z" fill="#e66100" style="fill-opacity:1;fill:url(#b)"/><rect width="324.179" height="195.739" x="145.536" y="48.014" rx="26.854" ry="26.854" fill="#c0bfbc"/><path d="m169.965 153.585-8.563-8.563 8.563-8.563m-8.563 8.563h17.126M444.061 153.585l8.563-8.563-8.563-8.563m8.563 8.563h-17.126" stroke-width="5.138" fill="none" stroke="#fff" stroke-linecap="round"/></svg>