<svg xmlns="http://www.w3.org/2000/svg" width="600" height="300"><path d="M343.412 6.958L264.768 85.6a16 16 0 01-22.627 0l-41.083-41.083a16 16 0 00-22.628 0l-58.789 58.79a16 16 90 000 22.627l41.083 41.083a16 16 90 010 22.627l-23.096 23.097a16 16 90 000 22.627l58.789 58.79a16 16 180 0022.627 0L343.27 169.932a16 16 180 0122.627 0l45.625 45.625a16 16 180 0022.627 0l58.79-58.79a16.015 16.015 90.027 00.01-22.637L366.028 6.969a15.985 15.985.027 00-22.616-.011z" fill="#e66100"/><rect width="324.179" height="195.739" x="145.536" y="48.014" rx="26.854" ry="26.854" fill="#c0bfbc"/><g fill="none" stroke="#fff" stroke-width="6" stroke-linecap="round"><path d="M169.965 153.585l-8.563-8.563 8.563-8.563M161.402 145.022h17.126" stroke-width="5.13762"/></g><g fill="none" stroke="#fff" stroke-width="6" stroke-linecap="round"><path d="M444.061 153.585l8.563-8.563-8.563-8.563M452.624 145.022h-17.126" stroke-width="5.13762"/></g></svg>