<?xml version="1.0" encoding="UTF-8" standalone="no"?>
<svg
   xmlns:dc="http://purl.org/dc/elements/1.1/"
   xmlns:cc="http://creativecommons.org/ns#"
   xmlns:rdf="http://www.w3.org/1999/02/22-rdf-syntax-ns#"
   xmlns:svg="http://www.w3.org/2000/svg"
   xmlns="http://www.w3.org/2000/svg"
   xmlns:sodipodi="http://sodipodi.sourceforge.net/DTD/sodipodi-0.dtd"
   xmlns:inkscape="http://www.inkscape.org/namespaces/inkscape"
   width="600"
   height="300"
   version="1.1"
   id="svg12"
   sodipodi:docname="leftright-fg.svg"
   inkscape:version="1.0.2 (e86c870879, 2021-01-15)">
  <metadata
     id="metadata18">
    <rdf:RDF>
      <cc:Work
         rdf:about="">
        <dc:format>image/svg+xml</dc:format>
        <dc:type
           rdf:resource="http://purl.org/dc/dcmitype/StillImage" />
      </cc:Work>
    </rdf:RDF>
  </metadata>
  <defs
     id="defs16">
    <inkscape:path-effect
       effect="fillet_chamfer"
       id="path-effect66"
       is_visible="true"
       lpeversion="1"
       satellites_param="F,0,0,1,0,15,0,1 @ F,0,0,1,0,15,0,1 @ F,0,0,1,0,3,0,1 @ F,0,0,1,0,3,0,1 @ F,0,0,1,0,14,0,1 @ F,0,0,1,0,14,0,1 @ F,0,0,1,0,3,0,1 @ F,0,0,1,0,3,0,1 @ F,0,0,1,0,14,0,1 @ F,0,0,1,0,14,0,1 @ F,0,0,1,0,3,0,1 @ F,0,0,1,0,3,0,1 @ F,0,0,1,0,14,0,1 @ F,0,0,1,0,14,0,1 @ F,0,0,1,0,30,0,1 @ F,0,0,1,0,20,0,1 @ F,0,0,1,0,11.804374,0,1 @ F,0,0,1,0,11.804374,0,1 @ F,0,0,1,0,15,0,1"
       unit="px"
       method="auto"
       mode="F"
       radius="0"
       chamfer_steps="1"
       flexible="false"
       use_knot_distance="true"
       apply_no_radius="true"
       apply_with_radius="true"
       only_selected="false"
       hide_knots="false" />
    <inkscape:path-effect
       effect="fillet_chamfer"
       id="path-effect64"
       is_visible="true"
       lpeversion="1"
       satellites_param="F,0,0,1,0,15,0,1 @ F,0,0,1,0,15,0,1 @ F,0,0,1,0,3,0,1 @ F,0,0,1,0,3,0,1 @ F,0,0,1,0,14,0,1 @ F,0,0,1,0,14,0,1 @ F,0,0,1,0,3,0,1 @ F,0,0,1,0,3,0,1 @ F,0,0,1,0,14,0,1 @ F,0,0,1,0,14,0,1 @ F,0,0,1,0,3,0,1 @ F,0,0,1,0,3,0,1 @ F,0,0,1,0,14,0,1 @ F,0,0,1,0,14,0,1 @ F,0,0,1,0,30,0,1 @ F,0,0,1,0,20,0,1 @ F,0,0,1,0,11.804374,0,1 @ F,0,0,1,0,11.804374,0,1 @ F,0,0,1,0,15,0,1"
       unit="px"
       method="auto"
       mode="F"
       radius="0"
       chamfer_steps="1"
       flexible="false"
       use_knot_distance="true"
       apply_no_radius="true"
       apply_with_radius="true"
       only_selected="false"
       hide_knots="false" />
    <inkscape:path-effect
       effect="fillet_chamfer"
       id="path-effect724"
       is_visible="true"
       lpeversion="1"
       satellites_param="F,0,0,1,0,15,0,1 @ F,0,0,1,0,15,0,1 @ F,0,0,1,0,3,0,1 @ F,0,0,1,0,3,0,1 @ F,0,0,1,0,14,0,1 @ F,0,0,1,0,14,0,1 @ F,0,0,1,0,3,0,1 @ F,0,0,1,0,3,0,1 @ F,0,0,1,0,14,0,1 @ F,0,0,1,0,14,0,1 @ F,0,0,1,0,3,0,1 @ F,0,0,1,0,3,0,1 @ F,0,0,1,0,14,0,1 @ F,0,0,1,0,14,0,1 @ F,0,0,1,0,30,0,1 @ F,0,0,1,0,20,0,1 @ F,0,0,1,0,11.804374,0,1 @ F,0,0,1,0,11.804374,0,1 @ F,0,0,1,0,15,0,1"
       unit="px"
       method="auto"
       mode="F"
       radius="0"
       chamfer_steps="1"
       flexible="false"
       use_knot_distance="true"
       apply_no_radius="true"
       apply_with_radius="true"
       only_selected="false"
       hide_knots="false" />
    <inkscape:path-effect
       effect="fillet_chamfer"
       id="path-effect705"
       is_visible="true"
       lpeversion="1"
       satellites_param="F,0,0,1,0,15,0,1 @ F,0,0,1,0,15,0,1 @ F,0,0,1,0,3,0,1 @ F,0,0,1,0,3,0,1 @ F,0,0,1,0,14,0,1 @ F,0,0,1,0,14,0,1 @ F,0,0,1,0,3,0,1 @ F,0,0,1,0,3,0,1 @ F,0,0,1,0,14,0,1 @ F,0,0,1,0,14,0,1 @ F,0,0,1,0,3,0,1 @ F,0,0,1,0,3,0,1 @ F,0,0,1,0,14,0,1 @ F,0,0,1,0,14,0,1 @ F,0,0,1,0,30,0,1 @ F,0,0,1,0,20,0,1 @ F,0,0,1,0,11.804374,0,1 @ F,0,0,1,0,11.804374,0,1 @ F,0,0,1,0,15,0,1"
       unit="px"
       method="auto"
       mode="F"
       radius="0"
       chamfer_steps="1"
       flexible="false"
       use_knot_distance="true"
       apply_no_radius="true"
       apply_with_radius="true"
       only_selected="false"
       hide_knots="false" />
    <inkscape:path-effect
       effect="fillet_chamfer"
       id="path-effect1792"
       is_visible="true"
       lpeversion="1"
       satellites_param="F,0,0,1,0,15,0,1 @ F,0,0,1,0,15,0,1 @ F,0,0,1,0,3,0,1 @ F,0,0,1,0,3,0,1 @ F,0,0,1,0,14,0,1 @ F,0,0,1,0,14,0,1 @ F,0,0,1,0,3,0,1 @ F,0,0,1,0,3,0,1 @ F,0,0,1,0,14,0,1 @ F,0,0,1,0,14,0,1 @ F,0,0,1,0,3,0,1 @ F,0,0,1,0,3,0,1 @ F,0,0,1,0,14,0,1 @ F,0,0,1,0,14,0,1 @ F,0,0,1,0,30,0,1 @ F,0,0,1,0,20,0,1 @ F,0,0,1,0,11.804374,0,1 @ F,0,0,1,0,11.804374,0,1 @ F,0,0,1,0,15,0,1"
       unit="px"
       method="auto"
       mode="F"
       radius="0"
       chamfer_steps="1"
       flexible="false"
       use_knot_distance="true"
       apply_no_radius="true"
       apply_with_radius="true"
       only_selected="false"
       hide_knots="false" />
    <inkscape:path-effect
       effect="fillet_chamfer"
       id="path-effect1794"
       is_visible="true"
       lpeversion="1"
       satellites_param="F,0,0,1,0,15,0,1 @ F,0,0,1,0,15,0,1 @ F,0,0,1,0,3,0,1 @ F,0,0,1,0,3,0,1 @ F,0,0,1,0,14,0,1 @ F,0,0,1,0,14,0,1 @ F,0,0,1,0,3,0,1 @ F,0,0,1,0,3,0,1 @ F,0,0,1,0,14,0,1 @ F,0,0,1,0,14,0,1 @ F,0,0,1,0,3,0,1 @ F,0,0,1,0,3,0,1 @ F,0,0,1,0,14,0,1 @ F,0,0,1,0,14,0,1 @ F,0,0,1,0,30,0,1 @ F,0,0,1,0,20,0,1 @ F,0,1,1,0,13.804306,0,1 @ F,0,0,1,0,13.804306,0,1 @ F,0,0,1,0,15,0,1"
       unit="px"
       method="auto"
       mode="F"
       radius="0"
       chamfer_steps="1"
       flexible="false"
       use_knot_distance="true"
       apply_no_radius="true"
       apply_with_radius="true"
       only_selected="false"
       hide_knots="false" />
  </defs>
  <sodipodi:namedview
     pagecolor="#ffffff"
     bordercolor="#666666"
     borderopacity="1"
     objecttolerance="10"
     gridtolerance="10"
     guidetolerance="10"
     inkscape:pageopacity="0"
     inkscape:pageshadow="2"
     inkscape:window-width="1920"
     inkscape:window-height="1011"
     id="namedview14"
     showgrid="false"
     inkscape:zoom="2.0458271"
     inkscape:cx="402.28046"
     inkscape:cy="90.868048"
     inkscape:window-x="0"
     inkscape:window-y="0"
     inkscape:window-maximized="1"
     inkscape:current-layer="svg12"
     inkscape:object-paths="true"
     inkscape:snap-intersection-paths="true"
     inkscape:snap-smooth-nodes="true"
     inkscape:snap-midpoints="true"
     inkscape:snap-bbox="true"
     inkscape:bbox-paths="true"
     inkscape:bbox-nodes="true"
     inkscape:document-rotation="0">
    <inkscape:grid
       type="xygrid"
       id="grid42" />
  </sodipodi:namedview>
  <g
     id="g84"
     transform="translate(20)">
    <circle
       style="opacity:0.5;fill:#3584e4;fill-opacity:1;stroke:none;stroke-width:2.89323;stroke-linecap:round;stroke-linejoin:round"
       id="circle79"
       cx="315"
       cy="105"
       r="35" />
    <circle
       style="opacity:0.5;fill:#3584e4;fill-opacity:1;stroke:none;stroke-width:2.89323;stroke-linecap:round;stroke-linejoin:round"
       id="path75"
       cx="245"
       cy="105"
       r="35" />
    <circle
       style="opacity:0.5;fill:#3584e4;fill-opacity:1;stroke:none;stroke-width:2.89323;stroke-linecap:round;stroke-linejoin:round"
       id="circle77"
       cx="280"
       cy="95"
       r="35" />
  </g>
  <g
     id="g1790"
     transform="translate(-175,-10)">
    <path
       style="opacity:0.05;fill:#000000;stroke:none;stroke-width:1px;stroke-linecap:butt;stroke-linejoin:miter;stroke-opacity:1"
       d="m 440,104 a 15,15 45 0 1 15,15 v 72 a 3,3 45 0 0 3,3 h 1 a 3,3 135 0 0 3,-3 v -8 a 14,14 135 0 1 14,-14 14,14 45 0 1 14,14 v 8 a 3,3 45 0 0 3,3 h 1 a 3,3 135 0 0 3,-3 l 0,-8 a 14,14 135 0 1 14,-14 14,14 45 0 1 14,14 v 8 a 3,3 45 0 0 3,3 h 1 a 3,3 135 0 0 3,-3 v -1 a 14,14 135 0 1 14,-14 14,14 45 0 1 14,14 v 74 a 30,30 135 0 1 -30,30 h -80 a 48.284271,48.284271 22.5 0 1 -34.14214,-14.14214 l -47.51091,-47.51091 a 13.610558,13.610558 85.934949 0 1 -1.26433,-17.79045 l 0.83476,-1.113 a 12.197746,12.197746 170.93096 0 1 16.75314,-2.67414 l 28.041,19.6287 A 7.8098334,7.8098334 152.49601 0 0 425,224 V 119 a 15,15 135 0 1 15,-15 z"
       id="path1784"
       sodipodi:nodetypes="cccccccccccccccccccc"
       inkscape:path-effect="#path-effect1792"
       inkscape:original-d="m 425,104 h 30 v 90 h 7 v -25 h 28 v 25 h 7 v -25 h 28 v 25 h 7 v -18 h 28 V 294 H 430 l -70,-70 15,-20 50,35 z" />
    <path
       style="fill:#f6f5f4;stroke:none;stroke-width:1px;stroke-linecap:butt;stroke-linejoin:miter;stroke-opacity:1"
       d="m 440,100 a 15,15 45 0 1 15,15 v 72 a 3,3 45 0 0 3,3 h 1 a 3,3 135 0 0 3,-3 v -83 a 14,14 135 0 1 14,-14 14,14 45 0 1 14,14 v 83 a 3,3 45 0 0 3,3 h 1 a 3,3 135 0 0 3,-3 v -73 a 14,14 135 0 1 14,-14 14,14 45 0 1 14,14 v 73 a 3,3 45 0 0 3,3 h 1 a 3,3 135 0 0 3,-3 v -1 a 14,14 135 0 1 14,-14 14,14 45 0 1 14,14 v 74 a 30,30 135 0 1 -30,30 h -80 a 48.284271,48.284271 22.5 0 1 -34.14214,-14.14214 l -46.09674,-46.09674 a 14.549955,14.549955 88.493606 0 1 -0.52653,-20.02178 14.766937,14.766937 175.69156 0 1 19.83706,-1.4945 l 23.8977,17.79617 A 7.5320238,7.5320238 153.33717 0 0 425,220 V 115 a 15,15 135 0 1 15,-15 z"
       id="path1786"
       sodipodi:nodetypes="cccccccccccccccccccc"
       inkscape:original-d="m 425,100 h 30 v 90 h 7 V 90 h 28 v 100 h 7 v -90 h 28 v 90 h 7 v -18 h 28 V 290 H 430 l -70,-70 18,-20 47,35 z"
       inkscape:path-effect="#path-effect1794" />
    <path
       id="path1788"
       style="fill:#deddda;fill-opacity:1;stroke:none;stroke-width:1px;stroke-linecap:butt;stroke-linejoin:miter;stroke-opacity:1"
       d="m 366.38672,684.47266 a 14.549955,14.549955 0 0 0 3.375,15.28906 l 46.0957,46.0957 A 48.284271,48.284271 0 0 0 450,760 h 80 a 30,30 0 0 0 30,-30 v -10 a 30,30 0 0 1 -30,30 h -80 a 48.284271,48.284271 0 0 1 -34.14258,-14.14258 l -46.0957,-46.0957 a 14.549955,14.549955 0 0 1 -3.375,-5.28906 z"
       transform="translate(0,-470)" />
  </g>
</svg>
