<svg xmlns="http://www.w3.org/2000/svg" xmlns:xlink="http://www.w3.org/1999/xlink" width="600" height="300"><defs><linearGradient id="b"><stop offset="0" stop-color="#f6d32d"/><stop offset=".182" stop-color="#f9f06b"/><stop offset=".795" stop-color="#e5a50a"/><stop offset="1" stop-color="#f6d32d"/></linearGradient><linearGradient gradientUnits="userSpaceOnUse" y2="196" x2="64" y1="225.608" x1="82" id="M" xlink:href="#a"/><linearGradient xlink:href="#b" id="B" gradientUnits="userSpaceOnUse" gradientTransform="translate(804 -220.033)" x1="216" y1="144" x2="360" y2="144"/><linearGradient xlink:href="#b" id="z" gradientUnits="userSpaceOnUse" gradientTransform="translate(804 -220.033)" x1="64" y1="280" x2="240" y2="280"/><linearGradient y2="408.599" x2="543.341" y1="441.731" x1="529.288" gradientTransform="translate(-461.557 -35.819)" gradientUnits="userSpaceOnUse" id="X" xlink:href="#c"/><linearGradient id="s"><stop offset="0" stop-color="#949390"/><stop offset="1" stop-color="#767579"/></linearGradient><linearGradient xlink:href="#b" id="y" gradientUnits="userSpaceOnUse" gradientTransform="translate(804 -220.033)" x1="352" y1="256" x2="448" y2="256"/><linearGradient xlink:href="#d" id="A" gradientUnits="userSpaceOnUse" gradientTransform="translate(828 -220.033)" x1="317.666" y1="211.334" x2="341.571" y2="187.429"/><linearGradient id="d"><stop offset="0" stop-color="#68676b"/><stop offset=".733" stop-color="#949390"/><stop offset="1" stop-color="#8b8a87"/></linearGradient><linearGradient xlink:href="#e" id="C" gradientUnits="userSpaceOnUse" gradientTransform="translate(961.714 -317.176) scale(.85714)" x1="165.737" y1="323.267" x2="134.779" y2="207.729"/><linearGradient id="e"><stop offset="0" stop-color="#191622"/><stop offset="1" stop-color="#424048"/></linearGradient><linearGradient xlink:href="#e" id="D" gradientUnits="userSpaceOnUse" gradientTransform="translate(804 -220.033)" x1="165.737" y1="323.267" x2="134.779" y2="207.729"/><linearGradient xlink:href="#f" id="E" gradientUnits="userSpaceOnUse" gradientTransform="translate(804 -220.033)" x1="144.906" y1="245.525" x2="159.094" y2="298.475"/><linearGradient id="f"><stop offset="0" stop-color="#2e3436"/><stop offset="1" stop-color="#555753"/></linearGradient><linearGradient xlink:href="#e" id="F" gradientUnits="userSpaceOnUse" gradientTransform="translate(804 -220.033)" x1="144.906" y1="245.525" x2="159.094" y2="298.475"/><linearGradient xlink:href="#e" id="G" gradientUnits="userSpaceOnUse" gradientTransform="matrix(.75 0 0 .75 978 -288.032)" x1="144.906" y1="245.525" x2="159.094" y2="298.475"/><linearGradient xlink:href="#e" id="H" gradientUnits="userSpaceOnUse" gradientTransform="translate(1117.143 -127.462) scale(.57143)" x1="165.737" y1="323.267" x2="134.779" y2="207.729"/><linearGradient xlink:href="#e" id="I" gradientUnits="userSpaceOnUse" gradientTransform="matrix(.5 0 0 .5 1128 -108.033)" x1="144.906" y1="245.525" x2="159.094" y2="298.475"/><linearGradient id="g"><stop offset="0" stop-color="#2dc0af"/><stop offset="1" stop-color="#5ed9cb"/></linearGradient><linearGradient id="r"><stop offset="0" stop-color="#555753"/><stop offset="1" stop-color="#2e3436"/></linearGradient><linearGradient y2="408.599" x2="543.341" y1="441.731" x1="529.288" gradientTransform="rotate(-120 320.2 508.254)" gradientUnits="userSpaceOnUse" id="W" xlink:href="#g"/><linearGradient xlink:href="#b" id="v" gradientUnits="userSpaceOnUse" gradientTransform="translate(804 -220.033)" x1="216" y1="144" x2="360" y2="144"/><linearGradient xlink:href="#b" id="w" gradientUnits="userSpaceOnUse" gradientTransform="translate(804 -220.033)" x1="64" y1="280" x2="240" y2="280"/><linearGradient gradientUnits="userSpaceOnUse" y2="276" x2="64" y1="246.969" x1="45.999" id="L" xlink:href="#h"/><linearGradient xlink:href="#b" id="u" gradientUnits="userSpaceOnUse" gradientTransform="translate(804 -220.033)" x1="352" y1="256" x2="448" y2="256"/><linearGradient id="h"><stop offset="0" stop-color="#613583"/><stop offset="1" stop-color="#a347ba"/></linearGradient><linearGradient id="a"><stop offset="0" stop-color="#e5a50a"/><stop offset="1" stop-color="#f6d32d"/></linearGradient><linearGradient gradientUnits="userSpaceOnUse" y2="256.785" x2="28" y1="225.608" x1="45.999" id="N" xlink:href="#i"/><linearGradient id="i"><stop offset="0" stop-color="#1a5fb4"/><stop offset="1" stop-color="#3584e4"/></linearGradient><linearGradient gradientUnits="userSpaceOnUse" y2="216" x2="100" y1="246.393" x1="82.001" id="O" xlink:href="#j"/><linearGradient id="j"><stop offset="0" stop-color="#c64600"/><stop offset="1" stop-color="#ff7800"/></linearGradient><linearGradient gradientUnits="userSpaceOnUse" y2="215.216" x2="28" y1="215.215" x1="63.999" id="P" xlink:href="#k"/><linearGradient id="k"><stop offset="0" stop-color="#26a269"/><stop offset="1" stop-color="#33d17a"/></linearGradient><linearGradient gradientUnits="userSpaceOnUse" y2="258" x2="100" y1="257.074" x1="64.499" id="Q" xlink:href="#l"/><linearGradient id="l"><stop offset="0" stop-color="#a51d2d"/><stop offset="1" stop-color="#e01b24"/></linearGradient><linearGradient id="m"><stop offset="0" stop-color="#fff"/><stop offset="1" stop-color="#fff" stop-opacity="0"/></linearGradient><linearGradient y2="244" x2="0" y1="252" x1="56" gradientTransform="translate(42.443 122.181)" gradientUnits="userSpaceOnUse" id="V" xlink:href="#m"/><linearGradient id="q"><stop offset="0" stop-color="#fdfacf"/><stop offset=".4" stop-color="#f9f06b"/><stop offset="1" stop-color="#e5a50a"/></linearGradient><linearGradient xlink:href="#n" id="S" x1="85" y1="107.162" x2="85" y2="86" gradientUnits="userSpaceOnUse" gradientTransform="translate(-6 176)"/><linearGradient id="n"><stop offset="0" stop-color="#eef4fc"/><stop offset="1" stop-color="#fff"/></linearGradient><linearGradient y2="196" x2="56" y1="239.25" x1="32" gradientTransform="translate(42.443 122.181)" gradientUnits="userSpaceOnUse" id="T" xlink:href="#o"/><linearGradient id="o"><stop offset="0" stop-color="#c061cb"/><stop offset="1" stop-color="#8f58c8"/></linearGradient><linearGradient y2="220" x2="80" y1="260" x1="64" gradientTransform="translate(42.443 122.181)" gradientUnits="userSpaceOnUse" id="U" xlink:href="#p"/><linearGradient id="p"><stop offset="0" stop-color="#2dc0af"/><stop offset="1" stop-color="#3584e4"/></linearGradient><linearGradient id="c"><stop offset="0" stop-color="#f9f06b"/><stop offset="1" stop-color="#f6d32d"/></linearGradient><radialGradient xlink:href="#q" id="R" gradientUnits="userSpaceOnUse" gradientTransform="matrix(.347 0 0 .34223 -33.506 42.518)" cx="280.994" cy="488.848" fx="280.994" fy="488.848" r="224"/><radialGradient xlink:href="#r" id="K" gradientUnits="userSpaceOnUse" gradientTransform="translate(-1492 -220)" cx="343.875" cy="308.125" fx="343.875" fy="308.125" r="8"/><radialGradient xlink:href="#r" id="J" cx="343.875" cy="308.125" fx="343.875" fy="308.125" r="8" gradientUnits="userSpaceOnUse" gradientTransform="translate(916 -220)"/><radialGradient xlink:href="#s" id="x" cx="128" cy="384.952" fx="128" fy="384.952" r="80" gradientUnits="userSpaceOnUse" gradientTransform="matrix(.525 0 0 .3675 60.8 242.53)"/><clipPath clipPathUnits="userSpaceOnUse" id="t"><rect width="1024.868" height="444.11" x="846.789" y="-85.228" rx="53.101" ry="53.036" fill="#3584e4" stroke-width="1.707" stroke-linejoin="round"/></clipPath></defs><g clip-path="url(#t)" transform="translate(-495.745 89.896) scale(.58544)"><rect width="1024.868" height="435.569" x="846.789" y="-153.552" rx="53.101" ry="53.036" fill="#3584e4"/></g><g transform="translate(-955.98 2318.22) scale(.4016)"><rect style="font-variation-settings:normal;marker:none" width="520" height="480" x="2440" y="-5744.01" rx="63.718" ry="64.686" fill-opacity=".102"/><rect style="font-variation-settings:normal;marker:none" width="520" height="480" x="2440" y="-5757.48" rx="63.718" ry="64.686" fill="#f6f5f4"/><path style="font-variation-settings:normal;marker:none" d="M2503.719-5757.48c-35.3 0-63.719 28.849-63.719 64.685v95.315h520v-95.315c0-35.836-28.419-64.685-63.719-64.685z" fill="#deddda"/><path style="line-height:normal;font-variant-ligatures:normal;font-variant-position:normal;font-variant-caps:normal;font-variant-numeric:normal;font-variant-alternates:normal;font-variant-east-asian:normal;font-feature-settings:normal;font-variation-settings:normal;text-indent:0;text-align:start;text-decoration-line:none;text-decoration-style:solid;text-decoration-color:#000;text-transform:none;text-orientation:mixed;white-space:normal;shape-padding:0;shape-margin:0;inline-size:0;isolation:auto;mix-blend-mode:normal;solid-color:#000;solid-opacity:1" d="M2859.975-5703.48a6 6 0 00-4.217 1.757 6 6 0 000 8.485l15.758 15.758-15.758 15.758a6 6 0 000 8.484 6 6 0 008.484 0l15.758-15.758 15.758 15.758a6 6 0 008.484 0 6 6 0 000-8.484l-15.758-15.758 15.758-15.758a6 6 0 000-8.484 6 6 0 00-4.267-1.758 6 6 0 00-4.217 1.757L2880-5685.965l-15.758-15.757a6 6 0 00-4.267-1.758z" color="#000" font-weight="400" font-family="sans-serif" overflow="visible" fill="#fff"/><path style="font-variation-settings:normal;marker:none" fill="#c0bfbc" d="M2440-5602.441h520v4.961h-520z"/></g><path style="mix-blend-mode:normal" d="M466.074 231.414c20.784-12.465 36.28-33.45 42.076-56.982 5.797-23.532 1.822-49.314-10.793-70.006-12.997-21.32-34.497-36.705-58.049-44.997-23.551-8.291-49.07-9.873-73.937-7.624-43.712 3.952-86.301 19.71-122.059 45.162-35.757 25.452-64.592 60.532-82.64 100.54L54.73 198.575c31.598-58.176 80.696-106.7 139.239-137.612 58.543-30.913 126.303-44.092 192.165-37.377 23.985 2.445 47.93 7.54 69.733 17.832 21.801 10.292 41.43 26.056 53.81 46.742 14.437 24.12 18.147 54.403 9.962 81.296-8.185 26.892-28.138 49.972-53.565 61.96z" fill="#fff" fill-opacity=".209"/><g transform="translate(71.957 44.148) scale(.2071)"><rect style="marker:none" width="96" height="112" x="1156" y="-20.033" rx="48" ry="48" fill="url(#u)"/><rect style="marker:none" width="144" height="160" x="1020" y="-156.033" rx="72" ry="72" fill="url(#v)"/><rect style="marker:none" width="176" height="192" x="868" y="-36.033" rx="88" ry="88" fill="url(#w)"/><path style="line-height:normal;font-variant-ligatures:normal;font-variant-position:normal;font-variant-caps:normal;font-variant-numeric:normal;font-variant-alternates:normal;font-feature-settings:normal;text-indent:0;text-align:start;text-decoration-line:none;text-decoration-style:solid;text-decoration-color:#000;text-transform:none;text-orientation:mixed;white-space:normal;shape-padding:0;isolation:auto;mix-blend-mode:normal;solid-color:#000;solid-opacity:1" d="M1077.373-106.66l-160 160 45.254 45.254 160-160z" color="#000" font-weight="400" font-family="sans-serif" overflow="visible" fill="none" stroke="#f5ce17" stroke-width="32"/><path style="line-height:normal;font-variant-ligatures:normal;font-variant-position:normal;font-variant-caps:normal;font-variant-numeric:normal;font-variant-alternates:normal;font-feature-settings:normal;text-indent:0;text-align:start;text-decoration-line:none;text-decoration-style:solid;text-decoration-color:#000;text-transform:none;text-orientation:mixed;white-space:normal;shape-padding:0;isolation:auto;mix-blend-mode:normal;solid-color:#000;solid-opacity:1" d="M80 224v128c0 17.673-14.327 32-32 32H32v32h192v-32h-16c-17.673 0-32-14.327-32-32V224z" color="#000" font-weight="400" font-family="sans-serif" overflow="visible" fill="url(#x)" transform="translate(828 -204.033)"/><path style="marker:none" fill="#68676b" d="M860 179.967h192v32H860z"/><path d="M1140 99.967l64-64 64 64" fill="none" stroke="#424048" stroke-width="24"/><circle r="48" cy="35.967" cx="1204" style="marker:none" fill="url(#y)"/><path style="marker:none" d="M1260 68c13.255 0 24 10.745 24 24v48l-24 24h-24V92c0-13.255 10.745-24 24-24z" fill="#7a8599"/><path style="line-height:normal;font-variant-ligatures:normal;font-variant-position:normal;font-variant-caps:normal;font-variant-numeric:normal;font-variant-alternates:normal;font-feature-settings:normal;text-indent:0;text-align:start;text-decoration-line:none;text-decoration-style:solid;text-decoration-color:#000;text-transform:none;text-orientation:mixed;white-space:normal;shape-padding:0;isolation:auto;mix-blend-mode:normal;solid-color:#000;solid-opacity:1" d="M1077.373-114.66l-160 160 45.254 45.254 160-160z" color="#000" font-weight="400" font-family="sans-serif" overflow="visible" fill="none" stroke="#f9f06b" stroke-width="32"/><circle style="marker:none" cx="956" cy="59.967" r="88" fill="url(#z)"/><circle style="marker:none" cx="956" cy="51.967" r="88" fill="#f9f06b"/><path d="M1221 43.967l-128-128" fill="none" stroke="url(#A)" stroke-width="40"/><circle style="marker:none" cx="1092" cy="-76.033" r="72" fill="url(#B)"/><circle style="marker:none" cx="1092" cy="-84.033" r="72" fill="#f9f06b"/><circle r="48" cy="27.967" cx="1204" style="marker:none" fill="#f9f06b"/><circle style="marker:none" cx="1092" cy="-84.033" fill="url(#C)" r="48"/><circle style="marker:none" cx="956" cy="51.967" r="56" fill="url(#D)"/><circle style="marker:none" cx="956" cy="51.967" r="32" fill="url(#E)"/><circle style="marker:none" cx="956" cy="51.967" r="32" fill="url(#F)"/><circle style="marker:none" cx="1092" cy="-84.033" r="24" fill="url(#G)"/><circle style="marker:none" cx="1204" cy="27.967" fill="url(#H)" r="32"/><circle style="marker:none" cx="1204" cy="27.967" r="16" fill="url(#I)"/><circle r="8" style="marker:none" cx="1260" cy="92" fill="url(#J)"/><path style="marker:none" d="M1148 68c-13.255 0-24 10.745-24 24v48l24 24h24V92c0-13.255-10.745-24-24-24z" fill="#7a8599"/><circle r="8" style="marker:none" cx="-1148" cy="92" transform="scale(-1 1)" fill="url(#K)"/></g><g fill="#f6f5f4"><path style="font-variation-settings:normal;marker:none" d="M421.39 113.197V224.69a5.046 5.046 0 01-8.33 3.832l-19.918-17.073a14.993 14.993 0 00-20.359.782 13.86 13.86 0 001.48 17.902l28.98 40.202a60.624 60.624 0 0049.178 25.173H530a31.031 31.031 0 0031.031-31.032V184.57a11.299 11.299 0 00-11.298-11.298h-.676a11.299 11.299 0 00-11.3 11.298A6.696 6.696 0 01530 190a7.758 7.758 0 01-7.758-7.758v-6.982a11.299 11.299 0 00-11.299-11.299h-.676a11.299 11.299 0 00-11.298 11.299v3.879a7.758 7.758 0 01-7.758 7.758 7.758 7.758 0 01-7.758-7.758v-3.879a11.299 11.299 0 00-11.3-11.299h-.675a11.299 11.299 0 00-11.299 11.299v3.879a7.758 7.758 0 01-7.758 7.758 7.758 7.758 0 01-7.758-7.758v-65.942a11.637 11.637 0 00-11.636-11.637 11.637 11.637 0 00-11.637 11.637z" fill="#000" fill-opacity=".102"/><path d="M421.39 110.205v111.492a5.046 5.046 0 01-8.33 3.831l-19.918-17.072a14.993 14.993 0 00-20.359.782 13.86 13.86 0 001.48 17.902l28.98 40.202a60.624 60.624 0 0049.178 25.173H530a31.031 31.031 0 0031.031-31.032v-79.906a11.299 11.299 0 00-11.298-11.299h-.676a11.299 11.299 0 00-11.3 11.3 6.696 6.696 0 01-7.757 5.43 7.758 7.758 0 01-7.758-7.758v-6.982a11.299 11.299 0 00-11.299-11.3h-.676a11.299 11.299 0 00-11.298 11.3v3.879a7.758 7.758 0 01-7.758 7.758 7.758 7.758 0 01-7.758-7.758v-3.88a11.299 11.299 0 00-11.3-11.298h-.675a11.299 11.299 0 00-11.299 11.299v3.879a7.758 7.758 0 01-7.758 7.758 7.758 7.758 0 01-7.758-7.758v-65.942a11.637 11.637 0 00-11.636-11.637 11.637 11.637 0 00-11.637 11.637z"/><path d="M370.63 213.828a13.86 13.86 0 003.632 13.311l28.982 40.203a60.624 60.624 0 0049.177 25.172H530a31.031 31.031 0 0031.031-31.03v-6.867A31.031 31.031 0 01530 285.533h-77.579a60.624 60.624 0 01-49.177-25.173l-28.982-40.203a13.86 13.86 0 01-3.632-6.33z" fill="#deddda"/></g><path d="M520.865 85.467v12.01l-10.402 6.006-10.402-6.006v-12.01l10.402-6.006z" fill="#3d3846"/><path d="M489.66 79.462v24.02" fill="none" stroke="#33d17a" stroke-width="20.803"/><path d="M510.463 115.494l-20.803-12.011" fill="none" stroke="#3584e4" stroke-width="20.803"/><path d="M510.463 115.494l20.803-12.012" fill="none" stroke="#a347ba" stroke-width="20.803"/><path d="M531.266 79.46v24.022" fill="none" stroke="#e01b24" stroke-width="20.803"/><path d="M531.266 79.46l-20.804-12.01" fill="none" stroke="#ff7800" stroke-width="20.803"/><path d="M489.66 79.462l20.802-12.012" fill="none" stroke="#f6d32d" stroke-width="20.803"/><path d="M64 295.57c9.941 0 18-8.06 18-18a18 18 0 00-7.744-14.766l-9.258-5.442-.998-.576a419.435 419.435 0 01-8.534-4.96A18 18 0 0146 236v41.568c0 9.941 8.059 18 18 18zm-17.934-19.452c.024-.283.065-.562.102-.842-.04.28-.074.56-.102.842zm.938-4.412c.026-.075.045-.154.072-.229l.004-.002-.076.23z" fill="url(#L)" transform="translate(473.48 -44.905) scale(.57787)"/><path d="M64 176.432c-9.941 0-18 8.059-18 18a18 18 0 007.744 14.765l9.258 5.442.998.576a419.435 419.435 0 018.534 4.96A18 18 0 0182 236v-41.568c0-9.941-8.059-18-18-18zm17.934 19.45c-.024.284-.065.563-.102.843.04-.28.074-.56.102-.842zm-.938 4.413c-.026.075-.045.153-.072.228l-.004.002.076-.23z" fill="url(#M)" transform="translate(473.48 -44.905) scale(.57787)"/><path d="M12.412 265.785c4.97 8.61 15.98 11.559 24.588 6.588a18 18 0 008.916-14.09l.083-10.737v-1.153c-.03-3.185-.017-6.864.03-9.87a18 18 0 018.97-16.11l-9 5.195-18 10.393-4.068 2.349-4.93 2.846c-8.61 4.97-11.56 15.98-6.589 24.589zm7.878-25.257c.257-.12.52-.224.78-.333a19.02 19.02 0 00-.78.333zm4.29-1.394c.078-.015.156-.038.234-.052l.004.002-.238.05z" fill="url(#N)" transform="translate(473.48 -44.905) scale(.57787)"/><path d="M115.588 206.216c-4.97-8.61-15.98-11.559-24.588-6.588a18 18 0 00-8.916 14.089l-.083 10.738v1.153c.03 3.185.017 6.864-.03 9.87a18 18 0 01-8.97 16.11l9-5.196L100 236l4.068-2.349 4.93-2.846c8.61-4.971 11.56-15.98 6.589-24.589zm-7.878 25.257c-.257.12-.52.224-.78.333.262-.105.522-.216.78-.333zm-4.29 1.394c-.078.015-.156.037-.234.051l-.004-.002c.08-.015.158-.032.238-.049z" fill="url(#O)" transform="translate(473.48 -44.905) scale(.57787)"/><path d="M12.412 206.216c-4.97 8.61-2.02 19.618 6.588 24.588a18 18 0 0016.66.677l9.34-5.297.998-.576a419.443 419.443 0 018.563-4.91A18 18 0 0173 220.412l-9-5.197-18.001-10.392-4.068-2.349-4.93-2.846c-8.61-4.971-19.619-2.021-24.59 6.588zm25.812-5.805c.233.162.454.337.678.509a18.002 18.002 0 00-.678-.51zm3.352 3.018c.052.06.11.115.162.176v.004l-.162-.18z" fill="url(#P)" transform="translate(473.48 -44.905) scale(.57787)"/><path d="M115.588 265.785c4.97-8.61 2.02-19.618-6.588-24.589a18 18 0 00-16.66-.676L83 245.817l-.998.576a419.416 419.416 0 01-8.563 4.91A18 18 0 0155 251.59l9 5.196 18.001 10.393 4.068 2.349 4.93 2.846c8.61 4.97 19.619 2.021 24.59-6.588zm-25.812 5.805c-.233-.162-.454-.337-.678-.509.222.175.448.345.678.51zm-3.352-3.018c-.052-.06-.11-.116-.162-.177v-.004l.162.182z" fill="url(#Q)" transform="translate(473.48 -44.905) scale(.57787)"/><path d="M500.061 85.467v12.01l10.402 6.006 10.402-6.006v-12.01l-10.402-6.006z" fill="#241f31"/><g transform="translate(374.586 -95.412) scale(.57742)"><path style="marker:none" fill="#f5c211" d="M20 192h88v88H20z"/><path style="marker:none" fill="#f6d32d" d="M126 236l-62 62-62-62 62-62z"/><circle cy="236" cx="64" style="marker:none" fill="url(#R)" r="48"/><path d="M90 244a20 20 0 00-18.158 11.668A15.003 15.003 0 0065 254c-7.89.009-14.424 6.129-14.95 14.002L50 268c-4.1 0-7.618 2.47-9.162 6H40v4c0 5.523 4.477 10 10 10h56a12 12 0 0012-12v-4h-.707a12 12 0 00-7.328-7.313A22.4 22.4 0 00110 264c0-11.046-8.954-20-20-20z" fill="#dceafa"/><path d="M90 240a20 20 0 00-18.158 11.668A15.003 15.003 0 0065 250c-7.89.009-14.424 6.129-14.95 14.002L50 264c-5.523 0-10 4.477-10 10s4.477 10 10 10h56a12 12 0 0012-12 12 12 0 00-8.035-11.313A22.4 22.4 0 00110 260c0-11.046-8.954-20-20-20z" fill="url(#S)"/></g><g color="#000" font-weight="400" font-family="sans-serif" fill-rule="evenodd"><path style="line-height:normal;font-variant-ligatures:normal;font-variant-position:normal;font-variant-caps:normal;font-variant-numeric:normal;font-variant-alternates:normal;font-feature-settings:normal;text-indent:0;text-align:start;text-decoration-line:none;text-decoration-style:solid;text-decoration-color:#000;text-transform:none;text-orientation:mixed;white-space:normal;shape-padding:0;isolation:auto;mix-blend-mode:normal;solid-color:#000;solid-opacity:1" d="M168.357 117.83c-9.284-5.879-9.097 60.653 6.018 52.739l25.263-14.587c8.42-4.862 8.42-17.015 0-21.878l-25.263-14.585a12.633 12.633 0 00-6.018-1.689z" overflow="visible" fill="#2dc0af"/><path style="line-height:normal;font-variant-ligatures:normal;font-variant-position:normal;font-variant-caps:normal;font-variant-numeric:normal;font-variant-alternates:normal;font-feature-settings:normal;text-indent:0;text-align:start;text-decoration-line:none;text-decoration-style:solid;text-decoration-color:#000;text-transform:none;text-orientation:mixed;white-space:normal;shape-padding:0;isolation:auto;mix-blend-mode:normal;solid-color:#000;solid-opacity:1" d="M78.82 304.187c-8.98-.21-16.375 7.01-16.377 15.994v41.9c16.21 38.843 21.356 21.45 32 32v-46.187l40 23.094 16-27.713-64-36.95a16.002 16.002 0 00-7.623-2.138z" overflow="visible" fill="url(#T)" transform="translate(106.131 -151.485) scale(.78947)"/><path style="line-height:normal;font-variant-ligatures:normal;font-variant-position:normal;font-variant-caps:normal;font-variant-numeric:normal;font-variant-alternates:normal;font-feature-settings:normal;text-indent:0;text-align:start;text-decoration-line:none;text-decoration-style:solid;text-decoration-color:#000;text-transform:none;text-orientation:mixed;white-space:normal;shape-padding:0;isolation:auto;mix-blend-mode:normal;solid-color:#000;solid-opacity:1" d="M110.82 322.662a16.002 16.002 0 00-16.377 15.994v36.95a16.002 16.002 0 0024 13.856l32-18.474a16.002 16.002 0 000-27.713l-32-18.475a16.002 16.002 0 00-7.623-2.138z" overflow="visible" fill="url(#U)" transform="translate(106.131 -151.485) scale(.78947)"/><path style="line-height:normal;font-variant-ligatures:normal;font-variant-position:normal;font-variant-caps:normal;font-variant-numeric:normal;font-variant-alternates:normal;font-feature-settings:normal;text-indent:0;text-align:start;text-decoration-line:none;text-decoration-style:solid;text-decoration-color:#000;text-transform:none;text-orientation:mixed;white-space:normal;shape-padding:0;isolation:auto;mix-blend-mode:normal;solid-color:#000;solid-opacity:1" d="M62.46 320.812c-.04 12.106-.006 24.214-.017 36.32v36.95a16.002 16.002 0 0024 13.857l32-18.477a16.002 16.002 0 000-27.712l-32-18.475a16.002 16.002 0 00-1.174-.602c-5.392-3.139-10.852-6.166-16.168-9.43-3.984-2.83-6.487-7.559-6.64-12.431z" overflow="visible" opacity=".2" fill="url(#V)" transform="translate(106.131 -151.485) scale(.78947)"/><path d="M118.056 389.61c10.815-6.191 21.588-12.456 32.386-18.676 7.049-3.897 10.06-13.432 6.472-20.653-1.64-3.746-4.936-6.356-8.47-8.215-8.542-3.355-19.517 1.811-21.503 11.106-.582 1.252-.51 2.562-.498 3.96-.047 6.672.097 13.35-.082 20.018-.49 5.194-3.7 10.008-8.305 12.46z" style="line-height:normal;font-variant-ligatures:normal;font-variant-position:normal;font-variant-caps:normal;font-variant-numeric:normal;font-variant-alternates:normal;font-feature-settings:normal;text-indent:0;text-align:start;text-decoration-line:none;text-decoration-style:solid;text-decoration-color:#000;text-transform:none;text-orientation:mixed;white-space:normal;shape-padding:0;isolation:auto;mix-blend-mode:normal;solid-color:#000;solid-opacity:1" overflow="visible" fill="url(#W)" transform="translate(106.131 -151.485) scale(.78947)"/><path style="line-height:normal;font-variant-ligatures:normal;font-variant-position:normal;font-variant-caps:normal;font-variant-numeric:normal;font-variant-alternates:normal;font-feature-settings:normal;text-indent:0;text-align:start;text-decoration-line:none;text-decoration-style:solid;text-decoration-color:#000;text-transform:none;text-orientation:mixed;white-space:normal;shape-padding:0;isolation:auto;mix-blend-mode:normal;solid-color:#000;solid-opacity:1" d="M62.462 356.697c-.045 12.46-.007 24.923-.02 37.385-.148 8.052 6.604 15.427 14.651 15.931 4.064.453 7.972-1.097 11.35-3.228 7.176-5.72 8.19-17.808 1.133-24.175-.794-1.13-1.964-1.723-3.18-2.411-5.755-3.377-11.61-6.59-17.296-10.08-4.253-3.022-6.817-8.209-6.638-13.422z" overflow="visible" fill="url(#X)" transform="translate(106.131 -151.485) scale(.78947)"/></g></svg>