<svg xmlns="http://www.w3.org/2000/svg" xmlns:xlink="http://www.w3.org/1999/xlink" width="600" height="300"><defs><linearGradient gradientUnits="userSpaceOnUse" y2="258" x2="100" y1="257.074" x1="64.499" id="W" xlink:href="#j"/><linearGradient id="j"><stop offset="0" stop-color="#a51d2d"/><stop offset="1" stop-color="#e01b24"/></linearGradient><linearGradient id="a"><stop offset="0" stop-color="#f6d32d"/><stop offset=".182" stop-color="#f9f06b"/><stop offset=".795" stop-color="#e5a50a"/><stop offset="1" stop-color="#f6d32d"/></linearGradient><linearGradient xlink:href="#a" id="H" gradientUnits="userSpaceOnUse" gradientTransform="translate(804 -220.033)" x1="216" y1="144" x2="360" y2="144"/><linearGradient xlink:href="#a" id="F" gradientUnits="userSpaceOnUse" gradientTransform="translate(804 -220.033)" x1="64" y1="280" x2="240" y2="280"/><linearGradient id="v"><stop offset="0" stop-color="#949390"/><stop offset="1" stop-color="#767579"/></linearGradient><linearGradient xlink:href="#a" id="E" gradientUnits="userSpaceOnUse" gradientTransform="translate(804 -220.033)" x1="352" y1="256" x2="448" y2="256"/><linearGradient xlink:href="#b" id="G" gradientUnits="userSpaceOnUse" gradientTransform="translate(828 -220.033)" x1="317.666" y1="211.334" x2="341.571" y2="187.429"/><linearGradient id="b"><stop offset="0" stop-color="#68676b"/><stop offset=".733" stop-color="#949390"/><stop offset="1" stop-color="#8b8a87"/></linearGradient><linearGradient xlink:href="#c" id="I" gradientUnits="userSpaceOnUse" gradientTransform="translate(961.714 -317.176) scale(.85714)" x1="165.737" y1="323.267" x2="134.779" y2="207.729"/><linearGradient id="c"><stop offset="0" stop-color="#191622"/><stop offset="1" stop-color="#424048"/></linearGradient><linearGradient xlink:href="#c" id="J" gradientUnits="userSpaceOnUse" gradientTransform="translate(804 -220.033)" x1="165.737" y1="323.267" x2="134.779" y2="207.729"/><linearGradient xlink:href="#d" id="K" gradientUnits="userSpaceOnUse" gradientTransform="translate(804 -220.033)" x1="144.906" y1="245.525" x2="159.094" y2="298.475"/><linearGradient id="d"><stop offset="0" stop-color="#2e3436"/><stop offset="1" stop-color="#555753"/></linearGradient><linearGradient xlink:href="#c" id="L" gradientUnits="userSpaceOnUse" gradientTransform="translate(804 -220.033)" x1="144.906" y1="245.525" x2="159.094" y2="298.475"/><linearGradient xlink:href="#c" id="M" gradientUnits="userSpaceOnUse" gradientTransform="matrix(.75 0 0 .75 978 -288.032)" x1="144.906" y1="245.525" x2="159.094" y2="298.475"/><linearGradient xlink:href="#c" id="N" gradientUnits="userSpaceOnUse" gradientTransform="translate(1117.143 -127.462) scale(.57143)" x1="165.737" y1="323.267" x2="134.779" y2="207.729"/><linearGradient xlink:href="#c" id="O" gradientUnits="userSpaceOnUse" gradientTransform="matrix(.5 0 0 .5 1128 -108.033)" x1="144.906" y1="245.525" x2="159.094" y2="298.475"/><linearGradient id="x"><stop offset="0" stop-color="#555753"/><stop offset="1" stop-color="#2e3436"/></linearGradient><linearGradient xlink:href="#a" id="B" gradientUnits="userSpaceOnUse" gradientTransform="translate(804 -220.033)" x1="216" y1="144" x2="360" y2="144"/><linearGradient xlink:href="#a" id="C" gradientUnits="userSpaceOnUse" gradientTransform="translate(804 -220.033)" x1="64" y1="280" x2="240" y2="280"/><linearGradient gradientUnits="userSpaceOnUse" y2="276" x2="64" y1="246.969" x1="45.999" id="R" xlink:href="#e"/><linearGradient xlink:href="#a" id="A" gradientUnits="userSpaceOnUse" gradientTransform="translate(804 -220.033)" x1="352" y1="256" x2="448" y2="256"/><linearGradient gradientUnits="userSpaceOnUse" y2="196" x2="64" y1="225.608" x1="82" id="S" xlink:href="#f"/><linearGradient id="f"><stop offset="0" stop-color="#e5a50a"/><stop offset="1" stop-color="#f6d32d"/></linearGradient><linearGradient gradientUnits="userSpaceOnUse" y2="256.785" x2="28" y1="225.608" x1="45.999" id="T" xlink:href="#g"/><linearGradient id="g"><stop offset="0" stop-color="#1a5fb4"/><stop offset="1" stop-color="#3584e4"/></linearGradient><linearGradient gradientUnits="userSpaceOnUse" y2="216" x2="100" y1="246.393" x1="82.001" id="U" xlink:href="#h"/><linearGradient id="h"><stop offset="0" stop-color="#c64600"/><stop offset="1" stop-color="#ff7800"/></linearGradient><linearGradient gradientUnits="userSpaceOnUse" y2="215.216" x2="28" y1="215.215" x1="63.999" id="V" xlink:href="#i"/><linearGradient id="i"><stop offset="0" stop-color="#26a269"/><stop offset="1" stop-color="#33d17a"/></linearGradient><linearGradient id="p"><stop offset="0" stop-color="#fff" stop-opacity=".663"/><stop offset="1" stop-color="#fff" stop-opacity="0"/></linearGradient><linearGradient id="e"><stop offset="0" stop-color="#613583"/><stop offset="1" stop-color="#a347ba"/></linearGradient><linearGradient id="o"><stop offset="0" stop-color="#57e389"/><stop offset="1" stop-color="#3584e4"/></linearGradient><linearGradient id="w"><stop offset="0" stop-color="#fdfacf"/><stop offset=".4" stop-color="#f9f06b"/><stop offset="1" stop-color="#e5a50a"/></linearGradient><linearGradient xlink:href="#k" id="Y" x1="85" y1="107.162" x2="85" y2="86" gradientUnits="userSpaceOnUse" gradientTransform="translate(-6 176)"/><linearGradient id="k"><stop offset="0" stop-color="#eef4fc"/><stop offset="1" stop-color="#fff"/></linearGradient><linearGradient id="l"><stop offset="0" stop-color="#a51d2d"/><stop offset=".034" stop-color="#ed333b"/><stop offset=".071" stop-color="#c01c28"/><stop offset=".928" stop-color="#c01c28"/><stop offset=".964" stop-color="#ed333b"/><stop offset="1" stop-color="#c01c28"/></linearGradient><linearGradient gradientTransform="translate(0 12)" xlink:href="#l" id="aj" x1="8" y1="264" x2="120" y2="264" gradientUnits="userSpaceOnUse"/><linearGradient xlink:href="#k" id="ac" gradientUnits="userSpaceOnUse" gradientTransform="translate(-6 176)" x1="85" y1="107.162" x2="85" y2="86"/><linearGradient id="s"><stop offset="0" stop-color="#d81d25"/><stop offset="1" stop-color="#f66151"/></linearGradient><linearGradient id="m"><stop offset="0" stop-color="#16529c"/><stop offset="1" stop-color="#236ac0"/></linearGradient><linearGradient id="n"><stop offset="0" stop-color="#2166bb"/><stop offset="1" stop-color="#40a1c8"/></linearGradient><linearGradient xlink:href="#m" id="Z" gradientUnits="userSpaceOnUse" gradientTransform="translate(-1232 16)" x1="90" y1="268" x2="100" y2="268"/><linearGradient xlink:href="#n" id="aa" gradientUnits="userSpaceOnUse" gradientTransform="rotate(-90 -552 845)" x1="1" y1="215" x2="1" y2="171"/><linearGradient xlink:href="#o" id="y" x1="846.789" y1="64.232" x2="1871.657" y2="64.232" gradientUnits="userSpaceOnUse"/><linearGradient xlink:href="#p" id="z" x1="159.484" y1="167.058" x2="603.279" y2="147.333" gradientUnits="userSpaceOnUse"/><linearGradient xlink:href="#q" id="ad" gradientUnits="userSpaceOnUse" gradientTransform="matrix(.5 0 0 .5 3965.5 3116.805)" x1="116.205" y1="238" x2="600.205" y2="-316.08"/><linearGradient id="q"><stop offset="0" stop-color="#b2d1e9"/><stop offset=".136" stop-color="#c0c6cd"/><stop offset=".453" stop-color="#d2dee8"/><stop offset=".72" stop-color="#bfc5ce"/><stop offset=".937" stop-color="#dbe2e8"/><stop offset="1" stop-color="#e4e6e8"/></linearGradient><linearGradient xlink:href="#r" id="ae" gradientUnits="userSpaceOnUse" gradientTransform="translate(-246.017 -371.377)" x1="99.846" y1="91.301" x2="431.139" y2="91.301"/><linearGradient id="r"><stop offset="0" stop-color="#f6d32d"/><stop offset="1" stop-color="#f9f06b"/></linearGradient><linearGradient y2="-180" x2="336" y1="62" x1="336" gradientTransform="matrix(.25 0 0 .25 8 225)" gradientUnits="userSpaceOnUse" id="ai" xlink:href="#s"/><linearGradient id="t"><stop offset="0" stop-color="#a51d2d"/><stop offset="1" stop-color="#ce1921"/></linearGradient><linearGradient id="u"><stop offset="0" stop-color="#fff"/><stop offset="1" stop-color="#c4c5c3"/></linearGradient><linearGradient y2="-68" x2="415.5" y1="-68" x1="320.5" gradientTransform="translate(115.032 109.18) scale(.25263)" gradientUnits="userSpaceOnUse" id="ah" xlink:href="#t"/><radialGradient xlink:href="#u" id="af" gradientUnits="userSpaceOnUse" gradientTransform="matrix(1 0 0 1.00007 0 -.007)" cx="273.943" cy="67.198" fx="273.943" fy="67.198" r="56"/><radialGradient xlink:href="#v" id="D" cx="128" cy="384.952" fx="128" fy="384.952" r="80" gradientUnits="userSpaceOnUse" gradientTransform="matrix(.525 0 0 .3675 60.8 242.53)"/><radialGradient xlink:href="#w" id="ab" gradientUnits="userSpaceOnUse" gradientTransform="matrix(.347 0 0 .34223 -33.506 42.518)" cx="280.994" cy="488.848" fx="280.994" fy="488.848" r="224"/><radialGradient xlink:href="#x" id="P" cx="343.875" cy="308.125" fx="343.875" fy="308.125" r="8" gradientUnits="userSpaceOnUse" gradientTransform="translate(916 -220)"/><radialGradient xlink:href="#x" id="Q" gradientUnits="userSpaceOnUse" gradientTransform="translate(-1492 -220)" cx="343.875" cy="308.125" fx="343.875" fy="308.125" r="8"/><radialGradient xlink:href="#w" id="X" gradientUnits="userSpaceOnUse" gradientTransform="matrix(.347 0 0 .34223 -33.506 42.518)" cx="280.994" cy="488.848" fx="280.994" fy="488.848" r="224"/><clipPath clipPathUnits="userSpaceOnUse" id="ag"><path style="marker:none" d="M64-148h64l64-64 64 64h192c17.728 0 32 14.272 32 32v288c0 17.728-14.272 32-32 32H256l-64-64-64 64H64c-17.728 0-32-14.272-32-32v-288c0-17.728 14.409-34.199 32-32z" fill="none" stroke="#000" stroke-width="4" stroke-linecap="round" stroke-linejoin="round"/></clipPath><clipPath clipPathUnits="userSpaceOnUse" id="ak"><path fill="#949390" stroke-width="16" stroke-linecap="round" stroke-linejoin="round" stroke-dashoffset="11.2" d="M208 4h96v48h-96z"/></clipPath></defs><rect width="1024.868" height="435.569" x="846.789" y="-153.552" rx="42.703" ry="50.648" fill="url(#y)" transform="matrix(.58544 0 0 .4936 -495.745 115.794)"/><g transform="translate(-955.98 2318.22) scale(.4016)"><rect style="font-variation-settings:normal;marker:none" width="520" height="480" x="2440" y="-5744.01" rx="63.718" ry="64.686" fill-opacity=".102"/><rect style="font-variation-settings:normal;marker:none" width="520" height="480" x="2440" y="-5757.48" rx="63.718" ry="64.686" fill="#f6f5f4"/><path style="font-variation-settings:normal;marker:none" d="M2503.719-5757.48c-35.3 0-63.719 28.849-63.719 64.685v95.315h520v-95.315c0-35.836-28.419-64.685-63.719-64.685z" fill="#deddda"/><path style="line-height:normal;font-variant-ligatures:normal;font-variant-position:normal;font-variant-caps:normal;font-variant-numeric:normal;font-variant-alternates:normal;font-variant-east-asian:normal;font-feature-settings:normal;font-variation-settings:normal;text-indent:0;text-align:start;text-decoration-line:none;text-decoration-style:solid;text-decoration-color:#000;text-transform:none;text-orientation:mixed;white-space:normal;shape-padding:0;shape-margin:0;inline-size:0;isolation:auto;mix-blend-mode:normal;solid-color:#000;solid-opacity:1" d="M2859.975-5703.48a6 6 0 00-4.217 1.757 6 6 0 000 8.485l15.758 15.758-15.758 15.758a6 6 0 000 8.484 6 6 0 008.484 0l15.758-15.758 15.758 15.758a6 6 0 008.484 0 6 6 0 000-8.484l-15.758-15.758 15.758-15.758a6 6 0 000-8.484 6 6 0 00-4.267-1.758 6 6 0 00-4.217 1.757L2880-5685.965l-15.758-15.757a6 6 0 00-4.267-1.758z" color="#000" font-weight="400" font-family="sans-serif" overflow="visible" fill="#77767b"/><path style="font-variation-settings:normal;marker:none" fill="#c0bfbc" d="M2440-5602.441h520v4.961h-520z"/></g><path style="mix-blend-mode:normal" d="M466.074 231.414c20.784-12.465 36.28-33.45 42.076-56.982 5.797-23.532 1.822-49.314-10.793-70.006-12.997-21.32-34.497-36.705-58.049-44.997-23.551-8.291-49.07-9.873-73.937-7.624-43.712 3.952-86.301 19.71-122.059 45.162-35.757 25.452-64.592 60.532-82.64 100.54L54.73 198.575c31.598-58.176 80.696-106.7 139.239-137.612 58.543-30.913 126.303-44.092 192.165-37.377 23.985 2.445 47.93 7.54 69.733 17.832 21.801 10.292 41.43 26.056 53.81 46.742 14.437 24.12 18.147 54.403 9.962 81.296-8.185 26.892-28.138 49.972-53.565 61.96z" fill="url(#z)"/><g transform="translate(71.957 -165.852) scale(.2071)"><rect style="marker:none" width="96" height="112" x="1156" y="-20.033" rx="48" ry="48" fill="url(#A)"/><rect style="marker:none" width="144" height="160" x="1020" y="-156.033" rx="72" ry="72" fill="url(#B)"/><rect style="marker:none" width="176" height="192" x="868" y="-36.033" rx="88" ry="88" fill="url(#C)"/><path style="line-height:normal;font-variant-ligatures:normal;font-variant-position:normal;font-variant-caps:normal;font-variant-numeric:normal;font-variant-alternates:normal;font-feature-settings:normal;text-indent:0;text-align:start;text-decoration-line:none;text-decoration-style:solid;text-decoration-color:#000;text-transform:none;text-orientation:mixed;white-space:normal;shape-padding:0;isolation:auto;mix-blend-mode:normal;solid-color:#000;solid-opacity:1" d="M1077.373-106.66l-160 160 45.254 45.254 160-160z" color="#000" font-weight="400" font-family="sans-serif" overflow="visible" fill="none" stroke="#f5ce17" stroke-width="32"/><path style="line-height:normal;font-variant-ligatures:normal;font-variant-position:normal;font-variant-caps:normal;font-variant-numeric:normal;font-variant-alternates:normal;font-feature-settings:normal;text-indent:0;text-align:start;text-decoration-line:none;text-decoration-style:solid;text-decoration-color:#000;text-transform:none;text-orientation:mixed;white-space:normal;shape-padding:0;isolation:auto;mix-blend-mode:normal;solid-color:#000;solid-opacity:1" d="M80 224v128c0 17.673-14.327 32-32 32H32v32h192v-32h-16c-17.673 0-32-14.327-32-32V224z" color="#000" font-weight="400" font-family="sans-serif" overflow="visible" fill="url(#D)" transform="translate(828 -204.033)"/><path style="marker:none" fill="#68676b" d="M860 179.967h192v32H860z"/><path d="M1140 99.967l64-64 64 64" fill="none" stroke="#424048" stroke-width="24"/><circle r="48" cy="35.967" cx="1204" style="marker:none" fill="url(#E)"/><path style="marker:none" d="M1260 68c13.255 0 24 10.745 24 24v48l-24 24h-24V92c0-13.255 10.745-24 24-24z" fill="#7a8599"/><path style="line-height:normal;font-variant-ligatures:normal;font-variant-position:normal;font-variant-caps:normal;font-variant-numeric:normal;font-variant-alternates:normal;font-feature-settings:normal;text-indent:0;text-align:start;text-decoration-line:none;text-decoration-style:solid;text-decoration-color:#000;text-transform:none;text-orientation:mixed;white-space:normal;shape-padding:0;isolation:auto;mix-blend-mode:normal;solid-color:#000;solid-opacity:1" d="M1077.373-114.66l-160 160 45.254 45.254 160-160z" color="#000" font-weight="400" font-family="sans-serif" overflow="visible" fill="none" stroke="#f9f06b" stroke-width="32"/><circle style="marker:none" cx="956" cy="59.967" r="88" fill="url(#F)"/><circle style="marker:none" cx="956" cy="51.967" r="88" fill="#f9f06b"/><path d="M1221 43.967l-128-128" fill="none" stroke="url(#G)" stroke-width="40"/><circle style="marker:none" cx="1092" cy="-76.033" r="72" fill="url(#H)"/><circle style="marker:none" cx="1092" cy="-84.033" r="72" fill="#f9f06b"/><circle r="48" cy="27.967" cx="1204" style="marker:none" fill="#f9f06b"/><circle style="marker:none" cx="1092" cy="-84.033" fill="url(#I)" r="48"/><circle style="marker:none" cx="956" cy="51.967" r="56" fill="url(#J)"/><circle style="marker:none" cx="956" cy="51.967" r="32" fill="url(#K)"/><circle style="marker:none" cx="956" cy="51.967" r="32" fill="url(#L)"/><circle style="marker:none" cx="1092" cy="-84.033" r="24" fill="url(#M)"/><circle style="marker:none" cx="1204" cy="27.967" fill="url(#N)" r="32"/><circle style="marker:none" cx="1204" cy="27.967" r="16" fill="url(#O)"/><circle r="8" style="marker:none" cx="1260" cy="92" fill="url(#P)"/><path style="marker:none" d="M1148 68c-13.255 0-24 10.745-24 24v48l24 24h24V92c0-13.255-10.745-24-24-24z" fill="#7a8599"/><circle r="8" style="marker:none" cx="-1148" cy="92" transform="scale(-1 1)" fill="url(#Q)"/></g><path d="M520.865-144.533v12.01l-10.402 6.006-10.402-6.006v-12.01l10.402-6.006z" fill="#3d3846"/><path d="M489.66-150.538v24.02" fill="none" stroke="#33d17a" stroke-width="20.803"/><path d="M510.463-114.506l-20.803-12.011" fill="none" stroke="#3584e4" stroke-width="20.803"/><path d="M510.463-114.506l20.803-12.012" fill="none" stroke="#a347ba" stroke-width="20.803"/><path d="M531.266-150.54v24.022" fill="none" stroke="#e01b24" stroke-width="20.803"/><path d="M531.266-150.54l-20.804-12.01" fill="none" stroke="#ff7800" stroke-width="20.803"/><path d="M489.66-150.538l20.802-12.012" fill="none" stroke="#f6d32d" stroke-width="20.803"/><path d="M64 295.57c9.941 0 18-8.06 18-18a18 18 0 00-7.744-14.766l-9.258-5.442-.998-.576a419.435 419.435 0 01-8.534-4.96A18 18 0 0146 236v41.568c0 9.941 8.059 18 18 18zm-17.934-19.452c.024-.283.065-.562.102-.842-.04.28-.074.56-.102.842zm.938-4.412c.026-.075.045-.154.072-.229l.004-.002-.076.23z" fill="url(#R)" transform="translate(473.48 -274.905) scale(.57787)"/><path d="M64 176.432c-9.941 0-18 8.059-18 18a18 18 0 007.744 14.765l9.258 5.442.998.576a419.435 419.435 0 018.534 4.96A18 18 0 0182 236v-41.568c0-9.941-8.059-18-18-18zm17.934 19.45c-.024.284-.065.563-.102.843.04-.28.074-.56.102-.842zm-.938 4.413c-.026.075-.045.153-.072.228l-.004.002z" fill="url(#S)" transform="translate(473.48 -274.905) scale(.57787)"/><path d="M12.412 265.785c4.97 8.61 15.98 11.559 24.588 6.588a18 18 0 008.916-14.09l.083-10.737v-1.153c-.03-3.185-.017-6.864.03-9.87a18 18 0 018.97-16.11l-9 5.195-18 10.393-4.068 2.349-4.93 2.846c-8.61 4.97-11.56 15.98-6.589 24.589zm7.878-25.257c.257-.12.52-.224.78-.333a19.02 19.02 0 00-.78.333zm4.29-1.394c.078-.015.156-.038.234-.052l.004.002z" fill="url(#T)" transform="translate(473.48 -274.905) scale(.57787)"/><path d="M115.588 206.216c-4.97-8.61-15.98-11.559-24.588-6.588a18 18 0 00-8.916 14.089l-.083 10.738v1.153c.03 3.185.017 6.864-.03 9.87a18 18 0 01-8.97 16.11l9-5.196L100 236l4.068-2.349 4.93-2.846c8.61-4.971 11.56-15.98 6.589-24.589zm-7.878 25.257c-.257.12-.52.224-.78.333.262-.105.522-.216.78-.333zm-4.29 1.394c-.078.015-.156.037-.234.051l-.004-.002c.08-.015.158-.032.238-.049z" fill="url(#U)" transform="translate(473.48 -274.905) scale(.57787)"/><path d="M12.412 206.216c-4.97 8.61-2.02 19.618 6.588 24.588a18 18 0 0016.66.677l9.34-5.297.998-.576a419.443 419.443 0 018.563-4.91A18 18 0 0173 220.412l-9-5.197-18.001-10.392-4.068-2.349-4.93-2.846c-8.61-4.971-19.619-2.021-24.59 6.588zm25.812-5.805c.233.162.454.337.678.509a18.002 18.002 0 00-.678-.51zm3.352 3.018c.052.06.11.115.162.176v.004z" fill="url(#V)" transform="translate(473.48 -274.905) scale(.57787)"/><path d="M115.588 265.785c4.97-8.61 2.02-19.618-6.588-24.589a18 18 0 00-16.66-.676L83 245.817l-.998.576a419.416 419.416 0 01-8.563 4.91A18 18 0 0155 251.59l9 5.196 18.001 10.393 4.068 2.349 4.93 2.846c8.61 4.97 19.619 2.021 24.59-6.588zm-25.812 5.805c-.233-.162-.454-.337-.678-.509.222.175.448.345.678.51zm-3.352-3.018c-.052-.06-.11-.116-.162-.177v-.004l.162.182z" fill="url(#W)" transform="translate(473.48 -274.905) scale(.57787)"/><path d="M500.061-144.533v12.01l10.402 6.006 10.402-6.006v-12.01l-10.402-6.006z" fill="#241f31"/><g transform="translate(374.586 -305.412) scale(.57742)"><path style="marker:none" fill="#f5c211" d="M20 192h88v88H20z"/><path style="marker:none" fill="#f6d32d" d="M126 236l-62 62-62-62 62-62z"/><circle cy="236" cx="64" style="marker:none" fill="url(#X)" r="48"/><path d="M90 244a20 20 0 00-18.158 11.668A15.003 15.003 0 0065 254c-7.89.009-14.424 6.129-14.95 14.002L50 268c-4.1 0-7.618 2.47-9.162 6H40v4c0 5.523 4.477 10 10 10h56a12 12 0 0012-12v-4h-.707a12 12 0 00-7.328-7.313A22.4 22.4 0 00110 264c0-11.046-8.954-20-20-20z" fill="#dceafa"/><path d="M90 240a20 20 0 00-18.158 11.668A15.003 15.003 0 0065 250c-7.89.009-14.424 6.129-14.95 14.002L50 264c-5.523 0-10 4.477-10 10s4.477 10 10 10h56a12 12 0 0012-12 12 12 0 00-8.035-11.313A22.4 22.4 0 00110 260c0-11.046-8.954-20-20-20z" fill="url(#Y)"/></g><path d="M-1176 177a60 60 0 0160 60 60 60 0 01-60 60 60 60 0 01-60-60 60 60 0 0160-60z" style="marker:none" fill="url(#Z)" transform="matrix(.75 0 0 .75 1070 -284)"/><path style="marker:none" d="M-1176 177a60 60 0 00-60 60 60 60 0 0060 60z" fill="url(#aa)" transform="matrix(.75 0 0 .75 1070 -284)"/><path style="marker:none" d="M233-107.75a45 45 0 01-45 45 45 45 0 01-45-45 45 45 0 0145-45 45 45 0 0145 45z" fill="#40a1c8"/><path style="marker:none" d="M161.003-107a27 47.25 0 005.878 28.688 33 20.25 0 00-7.397 5.37A45 45 0 01143.006-107z" fill="#49bbb0"/><path d="M188-83v20.25a45 45 0 01-10.033-1.134 27 47.25 0 01-11.086-14.427A33 20.25 0 01188-83z" style="marker:none" fill="#378bde"/><path d="M214.997-107a27 47.25 0 01-5.878 28.689 33 20.25 0 017.397 5.37A45 45 0 00232.994-107z" style="marker:none" fill="#266ec6"/><path style="marker:none" d="M188-107v44.25a45 45 0 0010.033-1.134A27 47.25 0 00214.997-107z" fill="#378bde"/><path style="marker:none" d="M188-83v20.25a45 45 0 0010.033-1.134 27 47.25 0 0011.086-14.427A33 20.25 0 00188-83z" fill="#266ec6"/><path d="M209.119-78.312a27 47.25 0 01-11.086 14.428 45 45 0 0018.483-9.058 33 20.25 0 00-7.397-5.37z" style="marker:none" fill="#1e62b5"/><path d="M188-152.75a45 45 0 00-45 45 45 45 0 00.006.75H188z" fill="#53d795"/><path d="M177.97-151.618a45 45 0 00-18.488 9.057 33 20.25 0 007.4 5.372 27 47.25 0 0111.088-14.429z" fill="#72e99a"/><path d="M188-152.75a45 45 0 00-10.03 1.132A27 47.25 0 00161-107.75a27 47.25 0 00.003.75H188z" fill="#49bbb0"/><path d="M188-152.75a45 45 0 00-10.03 1.132 27 47.25 0 00-11.087 14.429A33 20.25 0 00188-132.5z" fill="#53d795"/><path d="M188-152.75a45 45 0 0145 45 45 45 0 01-.006.75H188z" fill="#378bde"/><path d="M198.03-151.618a45 45 0 0118.488 9.057 33 20.25 0 01-7.4 5.372 27 47.25 0 00-11.088-14.429z" fill="#40a1c8"/><path d="M188-152.75a45 45 0 0110.03 1.132A27 47.25 0 01215-107.75a27 47.25 0 01-.003.75H188z" fill="#40a1c8"/><path d="M188-152.75a45 45 0 0110.03 1.132 27 47.25 0 0111.087 14.429A33 20.25 0 01188-132.5z" fill="#49bbb0"/><g transform="translate(475.245 -46.271) scale(.57742)"><path style="marker:none" fill="#f5c211" d="M20 192h88v88H20z"/><path style="marker:none" fill="#f6d32d" d="M126 236l-62 62-62-62 62-62z"/><circle cy="236" cx="64" style="marker:none" fill="url(#ab)" r="48"/><path d="M90 244a20 20 0 00-18.158 11.668A15.003 15.003 0 0065 254c-7.89.009-14.424 6.129-14.95 14.002L50 268c-4.1 0-7.618 2.47-9.162 6H40v4c0 5.523 4.477 10 10 10h56a12 12 0 0012-12v-4h-.707a12 12 0 00-7.328-7.313A22.4 22.4 0 00110 264c0-11.046-8.954-20-20-20z" fill="#dceafa"/><path d="M90 240a20 20 0 00-18.158 11.668A15.003 15.003 0 0065 250c-7.89.009-14.424 6.129-14.95 14.002L50 264c-5.523 0-10 4.477-10 10s4.477 10 10 10h56a12 12 0 0012-12 12 12 0 00-8.035-11.313A22.4 22.4 0 00110 260c0-11.046-8.954-20-20-20z" fill="url(#ac)"/></g><path d="M440 104a15 15 45 0115 15v72a3 3 45 003 3h1a3 3 135 003-3v-8a14 14 135 0114-14 14 14 45 0114 14v8a3 3 45 003 3h1a3 3 135 003-3v-8a14 14 135 0114-14 14 14 45 0114 14v8a3 3 45 003 3h1a3 3 135 003-3v-1a14 14 135 0114-14 14 14 45 0114 14v74a30 30 135 01-30 30h-80a48.284 48.284 22.5 01-34.142-14.142l-47.511-47.511a13.61 13.61 85.935 01-1.264-17.79l.834-1.113a12.198 12.198 170.931 0116.754-2.675l28.04 19.63A7.81 7.81 152.496 00425 224V119a15 15 135 0115-15z" opacity=".05"/><path d="M440 100a15 15 45 0115 15v72a3 3 45 003 3h1a3 3 135 003-3v-8a14 14 135 0114-14 14 14 45 0114 14v8a3 3 45 003 3h1a3 3 135 003-3v-8a14 14 135 0114-14 14 14 45 0114 14v8a3 3 45 003 3h1a3 3 135 003-3v-1a14 14 135 0114-14 14 14 45 0114 14v74a30 30 135 01-30 30h-80a48.284 48.284 22.5 01-34.142-14.142L370.02 230.02a15.483 15.483 87.465 01-.925-20.886l.454-.542a14.172 14.172 174.194 0119.681-2.002l24.024 19.08A7.242 7.242 154.229 00425 220V115a15 15 135 0115-15z" fill="#f6f5f4"/><path d="M366.266 214.74c-1.993 5.045.075 11.54 3.91 15.375l45.681 45.742A48.284 48.284 0 00450 290h80c16.569 0 30-13.431 30-30v-10c0 16.569-13.431 30-30 30h-80a48.284 48.284 0 01-34.143-14.143l-46.556-46.492a13.61 13.61 0 01-3.035-4.625z" fill="#e5e4e2"/><g><path style="marker:none" overflow="visible" fill="none" d="M373.634 6.563h68v68h-68z"/><path transform="translate(-3839.71 -3396.418) scale(1.0625)" d="M3997.354 3204.805a30 30 0 00-14.819 4h-7.035c-2.216 0-4 1.784-4 4v7.033a30 30 0 00-4 14.967 30 30 0 004 14.967v7.033c0 2.216 1.784 4 4 4h7.031a30 30 0 0014.969 4 30 30 0 0014.963-4h7.037c2.216 0 4-1.784 4-4v-7.035a30 30 0 004-14.965 30 30 0 00-4-14.965v-7.035c0-2.216-1.784-4-4-4h-7.037a30 30 0 00-14.963-4 30 30 0 00-.146 0z" style="font-variation-settings:normal;marker:none" fill="url(#ad)"/><g transform="translate(368.111 37.814) scale(.14111)"><ellipse style="marker:none" cx="280.076" cy="19.474" rx="195.765" ry="195.771"/><ellipse ry="180.712" rx="180.706" cy="19.475" cx="280.076" style="marker:none" fill="#2a2a3b"/><ellipse style="marker:none" cx="19.475" cy="-280.076" rx="165.647" ry="165.653" transform="rotate(90)" fill="url(#ae)"/><ellipse style="marker:none" cx="280.076" cy="19.475" rx="75.294" ry="75.299"/><ellipse style="font-variation-settings:normal;marker:none" cx="265.491" cy="91.306" rx="60.235" ry="60.239" transform="rotate(-15)" fill="url(#af)"/></g><path style="marker:none" d="M386.384 62.875a1.062 1.082 0 01-1.063 1.082 1.062 1.082 0 01-1.062-1.082 1.062 1.082 0 011.062-1.082 1.062 1.082 0 011.063 1.082zm44.625 0a1.062 1.082 0 01-1.063 1.082 1.062 1.082 0 01-1.062-1.082 1.062 1.082 0 011.062-1.082 1.062 1.082 0 011.063 1.082zm0-44.625a1.062 1.082 0 01-1.063 1.082 1.062 1.082 0 01-1.062-1.082 1.062 1.082 0 011.062-1.082 1.062 1.082 0 011.063 1.082zm-44.625 0a1.062 1.082 0 01-1.063 1.082 1.062 1.082 0 01-1.062-1.082 1.062 1.082 0 011.062-1.082 1.062 1.082 0 011.063 1.082z"/></g><g><path style="marker:none" overflow="visible" fill="none" d="M243 8h96v96h-96z"/><g clip-path="url(#ag)" transform="translate(243 56.75) scale(.1875)"><path d="M256 124h160v-272h96v384H256l-64-64-64 64H0V124h128l64-64z" style="marker:none" fill="#cdab8f"/><path style="marker:none" d="M0 123.975l128 .05V-148H0z" fill="#55a7eb"/><path d="M144-164v272l48-48 64 64.058h144L416 108v-256H256l-64-64z" fill="#2ec27e"/><path d="M399.898-147.89v238c0 10.027-9.373 17.948-16.949 17.948H256L192 44.59l-39.375 39.535L152-211.942h-24V108l-128 .058v32.102h127L192 76l64 64.16h126.95c26.424 0 47.962-22.048 49.05-50.05v-238z" style="line-height:normal;font-variant-ligatures:normal;font-variant-position:normal;font-variant-caps:normal;font-variant-numeric:normal;font-variant-alternates:normal;font-feature-settings:normal;text-indent:0;text-align:start;text-decoration-line:none;text-decoration-style:solid;text-decoration-color:#000;text-transform:none;text-orientation:mixed;white-space:normal;shape-padding:0;isolation:auto;mix-blend-mode:normal;solid-color:#000;solid-opacity:1" color="#000" font-weight="400" font-family="sans-serif" overflow="visible" fill="#fff"/><path d="M128 267.975l64 .05V-212h-64z" style="marker:none" opacity=".3" fill="#fff"/><path style="marker:none" d="M192 267.975l64 .05V-212h-64z" opacity=".15"/></g><g transform="matrix(.75 0 0 .75 243 -121)"><circle cx="208" cy="92" transform="matrix(0 1 1 0 0 0)" r="12" fill="url(#ah)"/><path d="M92 182a27.912 27.912 0 00-19.799 8.201c-10.934 10.935-10.934 28.663 0 39.598l19.8 19.8s13.82-13.823 19.798-19.8c10.935-10.935 10.935-28.663 0-39.598A27.912 27.912 0 0092 182zm0 18a10 10 0 0110 10 10 10 0 01-10 10 10 10 0 01-10-10 10 10 0 0110-10z" style="marker:none" fill="#a51d2d"/><path style="marker:none" d="M92 180a27.912 27.912 0 00-19.799 8.201c-10.934 10.935-10.934 28.663 0 39.598l19.8 19.8s13.82-13.823 19.798-19.8c10.935-10.935 10.935-28.663 0-39.598A27.912 27.912 0 0092 180zm0 18a10 10 0 0110 10 10 10 0 01-10 10 10 10 0 01-10-10 10 10 0 0110-10z" fill="url(#ai)"/></g></g><g transform="translate(107 -103)"><rect ry="8" rx="8" y="264" x="8" height="24" width="112" fill="url(#aj)"/><rect width="112" height="84" x="8" y="200" rx="8" ry="8.842" fill="#ed333b"/><path d="M36 282h56l-4-10H40z" fill="#5e5c64" stroke="#5e5c64" stroke-width="8" stroke-linecap="round" stroke-linejoin="round"/><path fill="#424048" d="M32 282h64v6H32z"/><path d="M24 208h80l8 8v52H16v-52z" fill="#f6f5f4"/><g transform="translate(0 8)"><path fill="#424048" d="M16 216h96v32H16z"/><circle r="6" cy="232" cx="40" fill="#f6f5f4"/><circle cx="88" cy="232" r="6" fill="#f6f5f4"/><path fill="#949390" d="M52 226h24v12H52z"/><path d="M272 28c0 61.856-50.144 112-112 112S48 89.856 48 28 98.144-84 160-84 272-33.856 272 28z" clip-path="url(#ak)" transform="matrix(.25 0 0 .25 0 225)" opacity=".5" fill="#424048"/></g></g></svg>