<svg xmlns="http://www.w3.org/2000/svg" xmlns:xlink="http://www.w3.org/1999/xlink" height="300" width="600"><defs><linearGradient id="a"><stop offset="0" stop-color="#eef4fc"/><stop offset="1" stop-color="#fff"/></linearGradient><linearGradient xlink:href="#a" id="k" x1="85" y1="107.162" x2="85" y2="86" gradientUnits="userSpaceOnUse" gradientTransform="matrix(-2.9423 0 0 2.9423 616.782 -188.258)"/><linearGradient id="c"><stop offset="0" stop-color="#ed686f"/><stop offset=".911" stop-color="#a51d2d"/><stop offset="1" stop-color="#e01b24"/></linearGradient><linearGradient id="d"><stop offset="0" stop-color="#ed686f"/><stop offset=".865" stop-color="#a51d2d"/><stop offset="1" stop-color="#e01b24"/></linearGradient><linearGradient id="b"><stop offset="0" stop-color="#fff"/><stop offset=".519" stop-color="#fff"/><stop offset=".734" stop-color="#cfcfcf"/><stop offset="1" stop-color="#dcdcdc"/></linearGradient><linearGradient y2="86" x2="85" y1="107.162" x1="85" gradientTransform="matrix(-2.14024 0 0 2.14024 914.392 -246.814)" gradientUnits="userSpaceOnUse" id="e" xlink:href="#a"/><radialGradient r="33.5" fy="48.406" fx="79.091" cy="48.406" cx="79.091" gradientTransform="matrix(.00476 1.62228 -1.43419 .00422 141.702 -82.047)" gradientUnits="userSpaceOnUse" id="g" xlink:href="#b"/><radialGradient r="14.583" fy="49.777" fx="40.152" cy="49.777" cx="40.152" gradientTransform="matrix(.87016 4.27869 -2.56693 .52204 148.394 -163.306)" gradientUnits="userSpaceOnUse" id="i" xlink:href="#c"/><radialGradient r="14.583" fy="49.777" fx="40.152" cy="49.777" cx="40.152" gradientTransform="matrix(.87016 4.27869 -2.56693 .52204 148.394 -163.306)" gradientUnits="userSpaceOnUse" id="j" xlink:href="#c"/><radialGradient r="12" fy="54.102" fx="71.474" cy="54.102" cx="71.474" gradientTransform="matrix(4.50607 0 0 4.76661 -259.306 -59.706)" gradientUnits="userSpaceOnUse" id="h" xlink:href="#d"/><clipPath id="f" clipPathUnits="userSpaceOnUse"><path d="M65 177c-18.502 0-33.5 14.998-33.5 33.5.008 7.371 4.131 15.807 11.388 23.526l12.617 13.171H75.02l12.137-13.245c6.636-7.059 11.33-16.117 11.344-23.452 0-18.502-14.998-33.5-33.5-33.5z" style="marker:none" fill="#fff" stroke-width="2"/></clipPath></defs><path d="M708.93-109.838a42.81 42.81 0 0138.862 24.972 32.11 32.11 0 0114.643-3.57c16.888.022 30.872 13.117 31.995 29.968h.109c11.82 0 21.402 9.581 21.402 21.402 0 11.82-9.582 21.402-21.402 21.402H674.686a25.683 25.683 0 01-25.683-25.683A25.683 25.683 0 01666.2-65.558c-.034-.49-.059-.981-.075-1.472 0-23.64 19.164-42.804 42.805-42.804z" fill="url(#e)" transform="matrix(.5 0 0 .5 33.03 84.593)"/><g transform="matrix(2.54377 0 0 2.39146 146.697 -378.91)" clip-path="url(#f)"><path transform="translate(-8 156)" d="M73 21c-18.502 0-33.5 14.998-33.5 33.5.008 7.371 3.5 14.422 6.94 20.379L58 98h30l11.605-23.21c3.395-5.88 6.88-12.955 6.895-20.29C106.5 35.998 91.502 21 73 21z" style="marker:none" fill="url(#g)"/><path d="M64 177s-18.332 12.132-18.332 30.989C45.668 222.56 61.842 254 61.842 254H67s1.333-31.44 1.333-46.011C68.333 189.132 64 177 64 177z" fill="url(#h)"/><path transform="translate(-8 156)" d="M71.983 21.106c-8.207.147-16.328 3.285-22.5 8.695-6.174 5.409-10.35 13.047-11.574 21.163-1.24 8.225.567 16.874 4.995 23.915L61.902 98h6.432L55.002 81.27c-4.3-5.395-8.472-11.07-10.596-17.634-2.123-6.564-2.166-13.8.003-20.348A32.824 32.824 0 0154.925 28.13a32.824 32.824 0 0117.058-7.025z" fill="url(#i)"/><path transform="matrix(-1 0 0 1 137.16 155.823)" d="M73.003 21.303c-7.709-1.547-15.97-.154-22.746 3.835-6.776 3.989-12.002 10.537-14.39 18.029a32.484 32.484 0 00-.757 16.805 32.484 32.484 0 007.794 14.907L54.11 98h13.383L54.16 74.356c-2.868-5.087-5.557-10.406-6.427-16.181-.87-5.775.036-11.771 2.374-17.123 4.173-9.55 12.836-17.022 22.895-19.748z" fill="url(#j)"/></g><path style="marker:none" d="M293.39 246.593v15.808a7.907 7.907 0 007.925 7.926h21.455c4.391 0 7.004-3.632 7.925-7.926v-15.808z" fill="#e5a50a"/><path style="marker:none" d="M293.39 243.202v15.808a7.907 7.907 0 007.925 7.925h21.455c4.391 0 7.004-3.631 7.925-7.925v-15.808z" fill="#e5a50a"/><path style="marker:none" d="M317.13 243.202v23.733h5.64c4.391 0 7.004-3.631 7.925-7.925v-15.808z" fill="#f3af0b"/><path d="M334.321.05c22.986.033 43.85 13.434 53.427 34.33a44.144 44.144 0 0120.13-4.908c23.217.033 42.442 18.033 43.986 41.198h.15c16.25 0 29.422 13.173 29.422 29.423s-13.173 29.423-29.423 29.423H287.245a35.308 35.308 0 01-35.308-35.308 35.308 35.308 0 0123.642-33.285 61.876 61.876 0 01-.103-2.022c0-32.5 26.346-58.846 58.846-58.846z" fill="url(#k)" transform="matrix(.5 0 0 .5 33.03 84.593)"/></svg>