<svg xmlns="http://www.w3.org/2000/svg" height="300" width="600"><g transform="rotate(90 -89.26 97.181)" fill="#fff" paint-order="markers fill stroke"><circle cx="269.058" cy="-358.638" r="10.787"/><circle r="10.787" cy="-325.812" cx="269.058"/><circle cx="269.058" cy="-292.985" r="10.787"/><circle r="10.787" cy="-260.158" cx="269.058"/><circle cx="269.058" cy="-227.331" r="10.787"/><circle cx="269.058" cy="-389.633" r="10.787"/><circle cx="269.058" cy="-194.525" r="10.787"/></g><g transform="translate(-329.348 25.77) scale(1.93237)" stroke-linejoin="round"><rect ry="22.841" rx="22.841" y="41.448" x="188.815" height="45.682" width="273.745" fill="#fff" stroke="#3584e4" stroke-width="3.045" paint-order="markers fill stroke"/><g transform="matrix(2 0 0 2 321.87 -314.852)" stroke="#1a5fb4" color="#000" fill="none" stroke-width="2" stroke-linecap="round"><ellipse style="marker:none" cx="-54.502" cy="188.5" rx="4.505" ry="4.5" overflow="visible"/><path d="M-50.998 192l4.005 4" style="marker:none" overflow="visible"/></g></g><path d="M143.065 154.957c0 4.297 2.517 6.503 7.433 6.503 1.2 0 3.213-.27 4.374-.62v-5.07c-1.045.31-1.82.426-2.826.426-2.013 0-2.71-.659-2.71-2.478v-7.78h5.73v-5.227h-5.73v-6.62l-6.27 1.355v5.265h-4.143v5.226h4.142zm20.672 6.542c-.697 1.742-2.09 2.632-4.065 2.632-.813 0-1.355-.038-1.935-.154v5.342c.62.155 1.587.232 2.593.232 4.917 0 7.588-1.974 9.872-7.316l9.174-21.524h-6.774l-5.265 12.89-4.529-12.89h-6.93l7.86 20.75zm17.498 7.858h6.27v-9.252c1.55.89 3.33 1.355 5.227 1.355 5.961 0 10.645-4.606 10.645-10.49 0-5.885-4.606-10.53-10.452-10.53-2.013 0-3.91.62-5.497 1.78v-1.509h-6.193zm10.606-23.575c3.02 0 5.381 2.245 5.381 5.188 0 2.942-2.322 5.187-5.38 5.187-1.704 0-3.252-.58-4.336-1.587v-7.162c1.122-1.084 2.593-1.626 4.335-1.626zm33.447 12.698l-4.142-3.678c-.968 1.006-2.4 1.548-4.104 1.548-2.361 0-4.22-1.316-5.032-3.251h14.594v-1.549c0-6.465-4.336-11.187-10.336-11.187s-10.684 4.645-10.684 10.607c0 5.961 4.877 10.606 11.149 10.606 3.406 0 5.961-.929 8.555-3.096zm-9.136-13.007c2.013 0 3.639 1.277 4.297 3.251h-8.555c.62-2.051 2.168-3.251 4.258-3.251zm23.846 9.484c0 4.297 2.516 6.503 7.433 6.503 1.2 0 3.213-.27 4.374-.62v-5.07c-1.045.31-1.82.426-2.826.426-2.013 0-2.71-.659-2.71-2.478v-7.78H252v-5.227h-5.73v-6.62l-6.27 1.355v5.265h-4.143v5.226h4.142zm13.51-3.987c0 5.961 4.878 10.606 11.11 10.606 6.233 0 11.11-4.645 11.11-10.606 0-5.962-4.877-10.646-11.11-10.646-6.232 0-11.11 4.684-11.11 10.646zm11.11 5.187c-2.825 0-4.993-2.284-4.993-5.187 0-2.943 2.206-5.226 4.994-5.226 2.787 0 4.993 2.283 4.993 5.226 0 2.903-2.168 5.187-4.993 5.187zm20.014 2.748c2.4 1.742 5.807 2.671 9.678 2.671 5.304 0 9.213-2.942 9.213-6.929 0-3.213-2.284-5.38-6.31-5.961l-4.064-.62c-1.742-.27-2.4-.697-2.4-1.548 0-.89 1.045-1.471 2.67-1.471 2.014 0 3.988.58 6.195 1.858l2.98-4.026a16.053 16.053 0 00-8.555-2.478c-5.497 0-8.826 2.517-8.826 6.659 0 3.368 2.206 5.497 6.271 6.116l4.065.62c1.432.232 2.09.696 2.09 1.47 0 1.007-1.316 1.626-3.368 1.626-2.09 0-4.064-.658-6.658-2.206zm40.26-.425l-4.142-3.678c-.968 1.006-2.4 1.548-4.104 1.548-2.361 0-4.22-1.316-5.032-3.251h14.594v-1.549c0-6.465-4.336-11.187-10.336-11.187s-10.684 4.645-10.684 10.607c0 5.961 4.878 10.606 11.149 10.606 3.406 0 5.961-.929 8.555-3.096zm-9.136-13.007c2.013 0 3.639 1.277 4.297 3.251h-8.555c.62-2.051 2.168-3.251 4.258-3.251zm19.936 16.065c2.207 0 3.988-.465 5.652-1.587v1.238h6.194v-13.123c0-4.916-3.29-7.742-8.981-7.742-3.136 0-6.233.735-9.562 2.245l2.246 4.607c2.67-1.123 4.567-1.626 6.193-1.626 2.594 0 3.91 1.006 3.91 3.058v1.007a18.628 18.628 0 00-4.645-.581c-5.342 0-8.44 2.245-8.44 6.155 0 3.755 3.059 6.349 7.433 6.349zm-1.47-6.465c0-1.278 1.238-2.013 3.406-2.013 1.277 0 2.516.155 3.716.464v2.633c-1.084.658-2.4.968-3.91.968-2.013 0-3.213-.775-3.213-2.052zm17.032 6.117h6.272v-13.008a5.585 5.585 0 014.761-2.593c1.084 0 2.168.232 2.98.62v-5.46c-.541-.348-1.16-.464-2.36-.502-2.207 0-4.027.89-5.381 2.516v-2.052h-6.272zm26.169-5.033c-2.826 0-4.916-2.207-4.916-5.187 0-2.981 2.051-5.226 4.761-5.226 1.82 0 3.252.735 4.684 2.36l3.833-3.986c-2.13-2.4-5.304-3.794-8.672-3.794-6.116 0-10.839 4.645-10.839 10.646 0 6 4.723 10.606 10.84 10.606 3.251 0 6.387-1.393 8.477-3.755l-3.716-3.87c-1.355 1.51-2.749 2.206-4.452 2.206zm10.646 5.033h6.27v-13.86c.853-1.045 2.091-1.625 3.678-1.625 2.246 0 3.717 1.47 3.717 3.716v11.768h6.271v-12.62c0-4.838-3.368-8.245-8.168-8.245-2.09 0-3.987.62-5.497 1.78v-9.367l-6.271 1.354z" aria-label="type to search" font-weight="900" font-size="38.711" font-family="Red Hat Display" letter-spacing="0" word-spacing="0" fill="#1a5fb4"/><path fill="#1a5fb4" d="M414 115h4.93v70H414z"/></svg>