<svg xmlns="http://www.w3.org/2000/svg" xmlns:xlink="http://www.w3.org/1999/xlink" width="600" height="300"><defs><linearGradient id="a"><stop offset="0" stop-color="#d5d1cc"/><stop offset=".183" stop-color="#f6f5f4"/><stop offset=".395" stop-color="#fff"/><stop offset=".784" stop-color="#d7d3ce"/><stop offset="1" stop-color="#c8c2bb"/></linearGradient><linearGradient xlink:href="#a" id="o" gradientUnits="userSpaceOnUse" gradientTransform="matrix(.26458 0 0 -.26458 633.225 479.52)" x1="37" y1="249" x2="37" y2="254"/><linearGradient xlink:href="#b" id="l" gradientUnits="userSpaceOnUse" gradientTransform="translate(804 -220.033)" x1="144.906" y1="245.525" x2="159.094" y2="298.475"/><linearGradient id="b"><stop offset="0" stop-color="#2e3436"/><stop offset="1" stop-color="#555753"/></linearGradient><linearGradient gradientTransform="translate(889.957 177.037) scale(.80683)" gradientUnits="userSpaceOnUse" y2="86" x2="85" y1="107.162" x1="85" id="k" xlink:href="#c"/><linearGradient id="c"><stop offset="0" stop-color="#eef4fc"/><stop offset="1" stop-color="#fff"/></linearGradient><linearGradient y2="254" x2="37" y1="249" x1="37" gradientTransform="matrix(.26458 0 0 .26458 633.225 349.875)" gradientUnits="userSpaceOnUse" id="n" xlink:href="#a"/><linearGradient gradientUnits="userSpaceOnUse" y2="234" x2="44" y1="234" x1="66" id="h" xlink:href="#d"/><linearGradient id="d"><stop offset="0" stop-color="#fff"/><stop offset="1" stop-color="#648cf9" stop-opacity="0"/></linearGradient><clipPath clipPathUnits="userSpaceOnUse" id="j"><path d="M96.504 52.927c10.224 13.91 20.11 38.975 12.212 57.59C101.892 126.603 85.626 134 72 134c-17.296 0-35.251-9.851-38.379-28.04-4.784-27.822 26.136-38 26.136-55.97 0-15.33-8.568-25.061-8.568-25.061 22.009 1.916 40.085 18.184 37.165 46.565 5.43-5.261 6.607-12.809 8.15-18.567z" fill="url(#radialGradient1189)" stroke-width="2.786" stroke-linecap="square" stroke-linejoin="round" stroke-dasharray="8.35714,8.35714"/></clipPath><clipPath id="m" clipPathUnits="userSpaceOnUse"><rect ry="32" rx="32" y="-116" x="32" height="358.794" width="448.707" fill="#26a269" stroke-linejoin="round" stroke-dasharray="4,2"/></clipPath><clipPath id="g" clipPathUnits="userSpaceOnUse"><rect transform="scale(-1)" style="marker:none" width="96" height="90" x="-110" y="-290" rx="0" ry="0" fill="#e66100" stroke-width=".004" enable-background="new"/></clipPath><clipPath clipPathUnits="userSpaceOnUse" id="q"><path style="marker:none" d="M64-40.445h448v32.223H96c-15.592 0-32-17.02-32-32.223z" fill="#e4e6e8" stroke-width="24"/></clipPath><clipPath id="p" clipPathUnits="userSpaceOnUse"><path d="M64-148h64l64-64 64 64h192c17.728 0 32 14.272 32 32v288c0 17.728-14.272 32-32 32H256l-64-64-64 64H64c-17.728 0-32-14.272-32-32v-288c0-17.728 14.409-34.199 32-32z" style="marker:none" fill="none" stroke="#000" stroke-width="4" stroke-linecap="round" stroke-linejoin="round" enable-background="new"/></clipPath><clipPath clipPathUnits="userSpaceOnUse" id="r"><rect ry="0" rx="0" y="-40.445" x="64" height="32.222" width="448" style="marker:none" fill="#e4e6e8" stroke-width="24"/></clipPath><filter id="e" x="-.016" width="1.032" y="-.015" height="1.03" color-interpolation-filters="sRGB"><feGaussianBlur stdDeviation="1.702"/></filter><filter height="1.037" y="-.018" width="1.468" x="-.234" id="i" color-interpolation-filters="sRGB"><feGaussianBlur stdDeviation="2.342"/></filter></defs><g transform="matrix(.5 0 0 .5 24.99 76.152)"><path d="M550.659 14.303c-21.81 0-39.523 17.713-39.524 39.524h-88.931v217.386a19.721 19.721 0 0019.763 19.764h217.385a19.721 19.721 0 0019.764-19.764V53.827h-88.932c0-21.81-17.715-39.524-39.525-39.524zm0 9.88c16.507 0 29.643 13.136 29.644 29.644h-59.287c.001-16.508 13.136-29.643 29.643-29.643z" opacity=".373" filter="url(#e)" enable-background="new"/><rect width="256.911" height="108.693" x="422.205" y="180.868" rx="19.762" ry="19.762" fill="#98c1f1" enable-background="new"/><path style="marker:none" fill="#e7f0fc" enable-background="new" d="M422.205 52.412h256.911v217.386H422.205z"/><g transform="matrix(2.4703 0 0 2.4703 392.561 -421.885)" fill="#1a5fb4"><circle cx="50" cy="201" r="5"/><circle r="5" cy="201" cx="78"/></g><path d="M516.076 72.175V52.412c0-19.16 15.425-34.584 34.584-34.584 19.16 0 34.585 15.425 34.585 34.584v19.763" fill="none" stroke="#62a0ea" stroke-width="9.881" stroke-linecap="round" stroke-linejoin="round" enable-background="new"/><path style="marker:none" d="M550.66 111.7a49.406 49.406 0 00-49.406 49.405 49.406 49.406 0 0049.406 49.406 49.406 49.406 0 0049.406-49.406A49.406 49.406 0 00550.66 111.7zm-19.762 24.702a4.94 4.94 0 014.94 4.941 4.94 4.94 0 01-4.94 4.94 4.94 4.94 0 01-4.94-4.94 4.94 4.94 0 014.94-4.94zm19.762 0a4.94 4.94 0 014.94 4.941 4.94 4.94 0 01-4.94 4.94 4.94 4.94 0 01-4.94-4.94 4.94 4.94 0 014.94-4.94zm19.763 0a4.94 4.94 0 014.94 4.941 4.94 4.94 0 01-4.94 4.94 4.94 4.94 0 01-4.94-4.94 4.94 4.94 0 014.94-4.94zm-39.525 19.763a4.94 4.94 0 014.94 4.94 4.94 4.94 0 01-4.94 4.941 4.94 4.94 0 01-4.94-4.94 4.94 4.94 0 014.94-4.941zm19.762 0a4.94 4.94 0 014.94 4.94 4.94 4.94 0 01-4.94 4.941 4.94 4.94 0 01-4.94-4.94 4.94 4.94 0 014.94-4.941zm19.763 0a4.94 4.94 0 014.94 4.94 4.94 4.94 0 01-4.94 4.941 4.94 4.94 0 01-4.94-4.94 4.94 4.94 0 014.94-4.941zm-39.525 19.762a4.94 4.94 0 014.94 4.94 4.94 4.94 0 01-4.94 4.941 4.94 4.94 0 01-4.94-4.94 4.94 4.94 0 014.94-4.94zm19.762 0a4.94 4.94 0 014.94 4.94 4.94 4.94 0 01-4.94 4.941 4.94 4.94 0 01-4.94-4.94 4.94 4.94 0 014.94-4.94zm19.763 0a4.94 4.94 0 014.94 4.94 4.94 4.94 0 01-4.94 4.941 4.94 4.94 0 01-4.94-4.94 4.94 4.94 0 014.94-4.94z" fill="#3584e4" enable-background="new"/></g><g opacity=".317" fill="#3584e4" stroke-width=".668"><path style="marker:none" d="M258.02 17.367L241.412 33.98l13.16 7.366 15.982-5.172v-5.642z" color="#000" overflow="visible" fill="#fff" enable-background="new"/><path d="M257.758 16.404a5.668 5.668 0 00-4.134 1.758l-20.566 21.205a6.257 6.257 0 00-1.757 4.241v.103c0 4.545 12.132.133 13.228 5.69.594 3.007-6.614 1.629-6.614 4.654 0 3.55 10.202 1.109 13.125 4.034 1.201 2.926-3.905 2.454-2.997 5.172 1.713 1.769 5.564.766 6.304 3.62.845 3.261 6.381 2.699 9.611.31 1.713-1.768-2.642-2.576-.93-4.344 1.713-1.769 10.17-1.41 10.232-5.275-.809-2.428-3.982-2.82-4.031-5.69-.17-2.43 2.599-1.719 11.368-4.137 3.506-1.645 3.63-2.52 3.617-4.034v-.103c-.02-1.528-.727-3.07-1.86-4.241l-20.462-21.205a5.667 5.667 0 00-4.134-1.759zm.413 4.448c1.554.013 5.812 5.27 9.611 9.206 1.069 1.43-.413 2.896-.413 2.896l-7.958-4.344-3.514 4.758-3.1-4.655-1.86 7.24-5.477-3.31 1.446-1.861 8.578-8.792c.658-.67 1.162-1.15 2.687-1.138zm23.563 31.859c-.418-.014-.84.02-1.137.103-.56.162-3.216.256-2.997 2.276 2.406 1.009 6.074 1.812 6.51-.207.33-1.514-1.122-2.126-2.376-2.172zm-41.028 6.723c-.234.027-.392.12-.62.207-1.825.694-3.048 2.155-1.344 2.793 1.705.638 2.846-.037 4.34-.828 1.495-.792 1.452-.936 1.344-1.241-.207.041-1.566-.805-2.997-.931a3.755 3.755 0 00-.723 0z" fill-rule="evenodd" stroke-width=".46"/></g><g transform="matrix(.40354 0 0 .40354 62.388 21.032)" opacity=".317" stroke-width=".505"><rect ry="4.501" rx="4.501" y="173.839" x="14.98" height="120.322" width="98.04" style="marker:none" fill="#fff" stroke="#3584e4" stroke-width="3.189"/><path style="marker:none" d="M28 183.125c-2.216 0-4 1.784-4 4V216h80v-28.875c0-2.216-1.784-4-4-4zM24 218v30h80v-30zm0 32v29c0 2.216 1.784 4 4 4h72c2.216 0 4-1.784 4-4v-29z" fill="#3584e4" enable-background="new"/><g fill="#fff"><path style="marker:none" d="M55 196c-1.662 0-3 1.338-3 3v5h4.031l-.015-2H72v2h4v-5c0-2-1.338-3-3-3zM55 229.333c-1.662 0-3 1.338-3 3v5h4.031l-.015-2H72v2h4v-5c0-2-1.338-3-3-3zM55 259.636c-1.662 0-3 1.338-3 3v5h4.031l-.015-2H72v2h4v-5c0-2-1.338-3-3-3z"/></g></g><g transform="matrix(1.67913 0 0 1.67913 -948.107 -571.592)" opacity=".317"><use xlink:href="#f" transform="matrix(-1 0 0 1 1334.712 0)" width="100%" height="100%" enable-background="new"/><path id="f" style="marker:none" display="inline" opacity="1" vector-effect="none" fill="#3584e4" fill-opacity="1" stroke="none" stroke-width=".971" stroke-linecap="butt" stroke-linejoin="miter" stroke-miterlimit="4" stroke-dasharray="none" stroke-dashoffset="0" stroke-opacity="1" enable-background="new" d="M672.648 401.204h2.117v4.233h-2.117z"/><circle r="12.171" cy="413.375" cx="667.356" style="marker:none" fill="#3584e4" enable-background="new"/><circle transform="matrix(.25557 .06848 .06848 -.25557 690.11 479.52)" r="36" cy="219.223" cx="-147.774" enable-background="new" fill="#fff"/><path d="M667.356 407.554l-1.587 3.175h3.175z" style="marker:none" fill="#3584e4" fill-rule="evenodd" enable-background="new"/><circle cx="667.356" cy="413.904" r="3.704" style="marker:none" fill="#3584e4" enable-background="new"/><g stroke="#1a5fb4" fill="none" stroke-width="2"><path d="M667.356 422.37v-1.587M667.356 405.967v-1.588M676.352 413.375h-1.588M659.948 413.375h-1.588M660.995 419.736l1.123-1.122M672.595 408.137l1.122-1.123M673.717 419.736l-1.122-1.122M662.118 408.137l-1.123-1.123" stroke-width=".52916"/></g><g opacity=".2" fill="#1a5fb4" stroke="#1a5fb4"><path d="M665.601 422.198l.207-1.038M668.905 405.59l.206-1.038M676.179 415.13l-1.038-.206M659.571 411.827l-1.038-.207M659.876 418.373l.88-.588M673.956 408.965l.88-.588M672.354 420.855l-.588-.88M662.946 406.775l-.588-.88M663.913 421.686l.405-.978M670.394 406.042l.405-.978M675.667 416.818l-.978-.405M660.023 410.338l-.978-.405M659.045 416.818l.978-.405M674.69 410.338l.977-.405M670.799 421.686l-.405-.978M664.318 406.042l-.405-.978M662.358 420.855l.588-.88M671.766 406.775l.588-.88M674.836 418.373l-.88-.588M660.756 408.965l-.88-.588M658.533 415.13l1.038-.206M675.141 411.827l1.038-.207M669.111 422.198l-.206-1.038M665.808 405.59l-.207-1.038" stroke-width=".26458"/></g><path d="M667.355 393.797c-4.079 0-7.408 3.33-7.408 7.408h2.117a5.276 5.276 0 015.291-5.293 5.278 5.278 0 015.293 5.293h2.116c0-4.079-3.33-7.408-7.409-7.408z" style="line-height:normal;font-variant-ligatures:normal;font-variant-position:normal;font-variant-caps:normal;font-variant-numeric:normal;font-variant-alternates:normal;font-feature-settings:normal;text-indent:0;text-align:start;text-decoration-line:none;text-decoration-style:solid;text-decoration-color:#000;text-transform:none;text-orientation:mixed;white-space:normal;shape-padding:0;isolation:auto;mix-blend-mode:normal;solid-color:#000;solid-opacity:1;marker:none" color="#000" font-weight="400" font-family="sans-serif" overflow="visible" fill="#3584e4" enable-background="new"/></g><g transform="matrix(2.5259 0 0 2.5259 -1573.845 -974.429)" opacity=".317" stroke-width="1.104"><path d="M683.427 394.945c-.755 0-1.364.609-1.364 1.364v12.277c0 .756.609 1.364 1.364 1.364h8.442v-15.005z" style="marker:none" fill="#3584e4" enable-background="new"/><path d="M685.219 403.13v.852h.852M685.9 403.3v1.364" style="marker:none" fill="none" stroke="#fff" stroke-width=".377" enable-background="new"/><g fill="none" stroke="#fff" stroke-width="2.208"><path style="marker:none" d="M686.753 403.13h.512v.682h-.512zM686.412 403.812h1.023v.682h-1.023z" stroke-width=".37648608"/></g><path d="M688.117 403.13h.682v.682h-.682v.682h.853M689.993 404.494h.341v-1.364h-.853v.682h.853" style="marker:none" fill="none" stroke="#fff" stroke-width=".377" enable-background="new"/><path style="marker:none" fill="#95bef1" enable-background="new" d="M684.025 406.881h5.456v1.364h-5.456z"/><path style="marker:none" fill="#deddda" enable-background="new" d="M684.025 405.517h3.41v.682h-3.41z"/><path d="M691.57 394.945v15.005h6.778v-2.046h2.728v-10.913h-2.728v-2.046z" style="marker:none" fill="#3584e4" enable-background="new"/><path style="marker:none" fill="#fff" enable-background="new" d="M692.892 402.448h2.728v2.728h-2.728z"/><path style="marker:none" fill="#deddda" enable-background="new" d="M695.62 402.448h2.728v2.728h-2.728z"/><g transform="matrix(-.1705 0 0 .1705 702.76 360.843)" clip-path="url(#g)"><path style="marker:none" fill="url(#h)" d="M32 200h34v88H32z"/><path style="line-height:normal;font-variant-ligatures:normal;font-variant-position:normal;font-variant-caps:normal;font-variant-numeric:normal;font-variant-alternates:normal;font-feature-settings:normal;text-indent:0;text-align:start;text-decoration-line:none;text-decoration-style:solid;text-decoration-color:#000;text-transform:none;text-orientation:mixed;white-space:normal;shape-padding:0;isolation:auto;mix-blend-mode:normal;solid-color:#000;solid-opacity:1" d="M372.268-113.052v304h24v-304z" transform="matrix(-.33333 0 0 -.3787 194.09 258.312)" color="#000" font-weight="400" font-family="sans-serif" overflow="visible" fill="#6bf9f4" filter="url(#i)" enable-background="new"/><path d="M68 301.125V186h-4v115.125z" style="line-height:normal;font-variant-ligatures:normal;font-variant-position:normal;font-variant-caps:normal;font-variant-numeric:normal;font-variant-alternates:normal;font-feature-settings:normal;text-indent:0;text-align:start;text-decoration-line:none;text-decoration-style:solid;text-decoration-color:#000;text-transform:none;text-orientation:mixed;white-space:normal;shape-padding:0;isolation:auto;mix-blend-mode:normal;solid-color:#000;solid-opacity:1" color="#000" font-weight="400" font-family="sans-serif" overflow="visible" fill="#fff" enable-background="new"/></g><path style="marker:none" fill="#73aaec" enable-background="new" d="M695.62 405.176h2.728v2.728h-2.728z"/><rect transform="rotate(45)" ry=".74" rx=".74" style="marker:none" y="-204.427" x="764.859" height="3.41" width="3.41" fill="#8fbbf0" enable-background="new"/><rect width="3.41" height="3.41" x="766.547" y="-206.115" rx=".74" ry=".74" transform="rotate(45)" fill="#fff" enable-background="new"/><path d="M686.583 397.479l-.744.744a.668.668 0 000 .947l.744.744.744-.744a.668.668 0 000-.947z" style="marker:none" fill="#3584e4" enable-background="new"/></g><g transform="translate(-526.662 -527.182) scale(1.52797)" opacity=".317"><rect style="marker:none" width="5.757" height="4.681" x="664.247" y="360.718" rx="1.151" ry=".78" fill="#3584e4" enable-background="new"/><rect style="marker:none" width="27.518" height="25.332" x="666.666" y="360.794" rx="2.108" ry="2.117" fill="#3584e4" enable-background="new"/><rect style="marker:none" width="27.542" height="26.484" x="666.643" y="358.59" rx="2.11" ry="2.117" fill="#3584e4" enable-background="new"/><rect style="marker:none" width="23.317" height="22.151" x="668.744" y="360.794" rx="0" ry="0" fill="#fff" enable-background="new"/><path style="marker:none" d="M676.337 364.824v6.975h-5.218l9.23 9.145 9.23-9.145h-5.182v-6.975z" fill="#3584e4" enable-background="new"/><rect style="marker:none" width="23.03" height=".576" x="668.852" y="363.097" rx="0" ry="0" fill="#aaa" enable-background="new"/><path style="marker:none" d="M667.536 358.49c8.12-1.389 16.585-1.675 25.662 0 1.165.216 2.138 1.028 2.138 2.304v4.605c0 1.276-.969 2.114-2.138 2.303-9.107 1.476-17.705 1.594-25.662 0-1.161-.232-2.138-1.027-2.138-2.303v-4.605c0-1.276.97-2.104 2.138-2.303z" fill="#3584e4" stroke-width=".643"/></g><g opacity=".317"><path style="marker:none" d="M505.797 119.871h-6.859V127.588l6.86 6.86 3.429-7.717z" fill="#c061cb" enable-background="new"/><path style="marker:none" d="M519.516 119.871l-10.29 3.43-3.429 10.289v.857l4.435 4.435a3.422 3.422 0 004.85 0l11.299-11.3v-.856l-.863-5.997z" fill="#3584e4" enable-background="new"/><path d="M505.797 106.153l1.715-5.145 5.145-1.715 3.43 6.86-3.43 6.86-6.002-.858z" style="marker:none" fill="#85b5ef" enable-background="new"/><path style="marker:none" d="M519.516 119.871l6.864 6.854 3.425-6.854-3.43-6.859-5.144 1.715z" fill="#1a5fb4" enable-background="new"/><path d="M512.657 113.012l3.43-10.289 10.288-3.43 3.43 8.575-3.43 5.144-6.86 6.86h-6.858z" style="marker:none" fill="#85b5ef" enable-background="new"/><path d="M519.516 119.871l-13.719 13.719v-13.719l1.715-5.144 5.145-1.715z" style="marker:none" fill="#84b3ef" enable-background="new"/><path d="M512.657 99.293l1.714-5.573 5.145-1.286 6.86 6.86-13.72 13.718z" style="marker:none" fill="#1c71d8" enable-background="new"/><path style="marker:none" d="M498.951 99.28l-5.744 5.744-5.696 5.71a3.406 3.406 0 00-.87 2.278h-.002v.858h.001a3.409 3.409 0 001.004 2.424l4.435 4.435v-.858l10.289-3.43 3.43-10.288-1.716-5.145z" fill="#3584e4" enable-background="new"/><path style="marker:none" d="M512.657 86.992c-.877 0-1.754.336-2.425 1.008l-11.294 11.293 6.86 3.43 6.859-3.43 6.853-6.865L515.081 88a3.418 3.418 0 00-2.424-1.008z" fill="#85b5ef" enable-background="new"/><path style="marker:none" d="M526.375 99.293l-.028 14.534 6.894 6.895 4.428-4.428a3.409 3.409 0 001.004-2.424v-.858a3.408 3.408 0 00-1.004-2.425z" fill="#3584e4" enable-background="new"/><path d="M512.657 99.293l6.859 6.86 6.86-6.86-6.86-6.859z" style="marker:none" fill="#3584e4" enable-background="new"/><path style="marker:none" d="M498.938 99.293l6.86 6.86 6.859-6.86z" fill="#fff" enable-background="new"/><path style="marker:none" d="M526.375 113.012l.007 14.57 6.853-6.853v-.85z" fill="#85b5ef" enable-background="new"/><path style="marker:none" d="M498.948 113.002l-6.87 6.87v.857l6.86 6.86v-.858l6.86-6.86-1.716-5.144z" fill="#1c71d8" enable-background="new"/><path style="marker:none" d="M512.657 113.012l-6.86 6.86-6.85-6.87 6.85-3.42z" fill="#3584e4" enable-background="new"/><path d="M512.657 113.012l-6.86-6.86-6.859 6.86z" style="marker:none" fill="#85b5ef" enable-background="new"/><path style="marker:none" d="M486.64 113.012v.858a3.409 3.409 0 001.004 2.424l22.588 22.588a3.422 3.422 0 004.85 0l22.587-22.588a3.409 3.409 0 001.004-2.424v-.858a3.408 3.408 0 01-1.004 2.425l-22.588 22.587a3.422 3.422 0 01-4.85 0l-22.587-22.587a3.409 3.409 0 01-1.004-2.425z" opacity=".2" enable-background="new"/></g><g opacity=".317" stroke-width=".755"><path d="M96.605 203.048c-7.392 0-13.384-5.653-13.384-12.624 0-6.971 5.992-12.623 13.384-12.623s13.384 5.652 13.384 12.623c0 6.971-5.992 12.624-13.384 12.624z" fill="#fff"/><path style="marker:none" d="M88.898 189.001c.098-1.77.968-3.333 2.276-4.44 1.286-1.088 3.014-1.753 4.9-1.753 1.887 0 3.614.665 4.9 1.753 1.308 1.107 2.177 2.67 2.277 4.44.1 1.822-.632 3.516-1.916 4.768-1.31 1.277-3.175 2.079-5.261 2.079-2.086 0-3.953-.802-5.262-2.079-1.284-1.253-2.014-2.946-1.913-4.768" fill="#3584e4"/><path style="marker:none" d="M77.468 192.587c.012.692.234 2.04.566 3.095.697 2.228 1.88 4.289 3.528 6.107a18.239 18.239 0 006.171 4.43 19.842 19.842 0 008.106 1.687 19.903 19.903 0 008.103-1.713c2.402-1.075 4.48-2.58 6.169-4.45 1.644-1.824 2.826-3.891 3.524-6.12a15.557 15.557 0 00.662-3.415c.088-1.13.051-2.262-.109-3.392a15.774 15.774 0 00-2.249-6.156 17.25 17.25 0 00-4.103-4.524l.003-.003-16.604-12.75-.043-.035c-1.091-.835-2.923-.833-4.12.006-1.213.848-1.35 2.249-.273 3.134l-.003.004 6.925 5.633-21.11.022h-.03c-1.745 0-3.42 1.148-3.754 2.593-.34 1.475.847 2.697 2.659 2.705v.004l10.698-.02-19.094 14.656-.073.055c-1.8 1.378-2.383 3.673-1.25 5.124 1.153 1.477 3.6 1.479 5.421.007l10.42-8.526s-.15 1.152-.14 1.842zm26.776 3.853c-2.146 2.19-5.15 3.43-8.406 3.436-3.255.007-6.26-1.224-8.408-3.409a9.99 9.99 0 01-2.296-3.592 9.345 9.345 0 01-.528-4.013 9.492 9.492 0 011.152-3.78 10.439 10.439 0 012.555-3.038c2.086-1.702 4.742-2.622 7.523-2.625 2.782-.004 5.437.909 7.524 2.604a10.39 10.39 0 012.554 3.027 9.513 9.513 0 011.153 3.778 9.352 9.352 0 01-.528 4.012 10.044 10.044 0 01-2.295 3.6" fill="#3584e4"/></g><g opacity=".317"><path style="marker:none" d="M439.698 174.541c4.957 6.745 9.75 18.898 5.921 27.925-3.309 7.8-11.196 11.386-17.803 11.386-8.387 0-17.093-4.777-18.61-13.596-2.319-13.49 12.674-18.426 12.674-27.14 0-7.432-4.155-12.15-4.155-12.15 10.672.929 19.437 8.816 18.02 22.578 2.633-2.551 3.205-6.21 3.953-9.003z" fill="#3584e4"/><g clip-path="url(#j)" transform="matrix(.48488 0 0 .48488 392.904 148.878)"><path style="marker:none" d="M70.441 135.596c6.19-11.614-30.82-15.722-15.6-46.13 4.782-9.555 18.874-14.95 19.445-29.37 13.223 13.444 3.023 27.078 12.32 37.77 17.896 20.584-13.794 41.825-16.165 37.73z" fill="#9fc5f2"/><path style="marker:none" d="M73.186 133.812c14.48-11.366-8.729-8.355-2.515-29.162 3.735-12.506 15.826-3.73 24.697-17.677 2.144 7.573 2.357 18.743.345 25.12-2.9 9.194-21.34 26.129-22.527 21.72z" opacity=".442" fill="#afcef4"/><path d="M70.5 136.64s1.474-8.705-5.564-17.437c-11.284-15.353-2.989-27.06 10.375-35.375-.001 0-4.136 11.26 3.917 20.25 15.739 17.573-6.874 36.27-8.728 32.561z" fill="#fff" fill-opacity=".551"/></g></g><g transform="matrix(.10195 0 0 .10195 232.61 254.213)" opacity=".317"><rect style="marker:none" width="448" height="240" x="32" y="4" rx="32" ry="32" fill="#3584e4"/><rect ry="32" rx="32" y="-116" x="32" height="240" width="448" style="marker:none" fill="#acccf4"/><path style="marker:none" fill="#3584e4" d="M64-84h384V92H64z"/><circle r="56" cy="4" cx="256" fill="#57e389"/><g fill="#acccf4"><circle r="32" cy="-84" cx="64" style="marker:none"/><circle style="marker:none" cx="64" cy="92" r="32"/><circle style="marker:none" cx="448" cy="-84" r="32"/><circle r="32" cy="92" cx="448" style="marker:none"/></g><rect ry="24" rx="24" y="-36" x="160" height="80" width="192" style="marker:none" fill="#acccf4"/><g fill="#f6f5f4" stroke-width="1.414"><path d="M208-116h96v360h-96z"/><path fill="#d5d3cf" d="M208 124h96v120h-96z"/></g><path d="M440 68c-17.673 0-37.589 15.234-32 32l8 24 56-56z" opacity=".1" enable-background="new"/><path d="M448 60c-17.673 0-32 14.327-32 32v32l64-64z" fill="#fff" enable-background="new"/></g><g transform="matrix(.5 0 0 .5 40.584 76.152)" opacity=".317"><path style="marker:none" fill="#3584e4" enable-background="new" d="M910.934 189.946h71.001v71.001h-71.001z"/><path style="marker:none" fill="#3584e4" enable-background="new" d="M996.459 225.447l-50.024 50.024-50.023-50.024 50.023-50.023z"/><circle style="marker:none" cx="946.435" cy="225.447" fill="#9cc3f2" enable-background="new" r="38.728"/><path d="M967.413 231.902a16.133 16.133 0 00-14.65 9.414 12.104 12.104 0 00-5.521-1.346c-6.366.005-11.638 4.945-12.061 11.297h-.042a8.067 8.067 0 00-7.393 4.84h-.676v3.228a8.068 8.068 0 008.069 8.068h45.182a9.682 9.682 0 009.682-9.682v-3.227h-.57a9.682 9.682 0 00-5.913-5.9l.028-.555c0-8.912-7.224-16.137-16.136-16.137z" style="marker:none" fill="#fff" enable-background="new"/><path d="M967.413 228.674a16.133 16.133 0 00-14.65 9.414 12.104 12.104 0 00-5.521-1.345c-6.366.005-11.638 4.945-12.061 11.297l-.042-.001a8.068 8.068 0 000 16.137h45.182a9.682 9.682 0 009.682-9.683 9.682 9.682 0 00-6.483-9.127l.028-.554c0-8.912-7.224-16.137-16.136-16.137z" fill="url(#k)" enable-background="new"/></g><g opacity=".317"><path style="marker:none" d="M148.013 193.17c3.054 10.187 12.5 17.609 23.68 17.609 13.653 0 24.72-11.067 24.72-24.72 0-13.65-11.067-24.718-24.72-24.718-13.099 0-23.82 10.19-24.666 23.077 1.601 2.686 2.225 4.347.986 8.75z" fill="#3584e4"/><path d="M170.422 179.868v.122l-6.048 8.787a6.776 6.776 0 00-2.896.512 6.726 6.726 0 00-1.155.61l-13.285-5.468s-.307 5.057.975 8.825l9.389 3.875a6.849 6.849 0 0013.012 1.15 6.885 6.885 0 00.528-2.824l8.655-6.185.213.003c5.18 0 9.39-4.221 9.39-9.407 0-5.185-4.21-9.405-9.39-9.405-5.178 0-9.39 4.219-9.39 9.405zm-1.453 17.806a5.293 5.293 0 01-6.916 2.853 5.259 5.259 0 01-2.723-2.597l3.058 1.268a3.9 3.9 0 002.995-7.198l-3.16-1.311a5.257 5.257 0 013.9.06 5.25 5.25 0 012.856 2.872 5.272 5.272 0 01-.01 4.053m10.841-11.539a6.269 6.269 0 01-6.256-6.267c0-3.453 2.807-6.266 6.256-6.266 3.45 0 6.257 2.813 6.257 6.266 0 3.455-2.806 6.267-6.257 6.267m-4.687-6.277a4.705 4.705 0 014.697-4.707 4.705 4.705 0 014.7 4.707 4.704 4.704 0 01-4.7 4.707 4.702 4.702 0 01-4.697-4.705z" fill="#fff"/></g><g transform="matrix(.1173 0 0 .1173 303.442 250.349)" opacity=".317"><path d="M1260 76c13.255 0 24 10.745 24 24v48l-24 24h-24v-72c0-13.255 10.745-24 24-24zM1148 76c-13.255 0-24 10.745-24 24v48l24 24h24v-72c0-13.255-10.745-24-24-24z" style="marker:none" fill="#3584e4" enable-background="new"/><rect ry="48" rx="48" y="-20.033" x="1156" height="112" width="96" style="marker:none" fill="#3584e4"/><rect ry="72" rx="72" y="-156.033" x="1020" height="160" width="144" style="marker:none" fill="#3584e4"/><rect ry="88" rx="88" y="-36.033" x="868" height="192" width="176" style="marker:none" fill="#3584e4"/><path d="M1077.373-129.287l-11.314 11.314L894.746 53.34l67.88 67.88 182.628-182.626zm0 45.256L1100-61.406 962.627 75.967 940 53.34z" style="line-height:normal;font-variant-ligatures:normal;font-variant-position:normal;font-variant-caps:normal;font-variant-numeric:normal;font-variant-alternates:normal;font-feature-settings:normal;text-indent:0;text-align:start;text-decoration-line:none;text-decoration-style:solid;text-decoration-color:#000;text-transform:none;text-orientation:mixed;white-space:normal;shape-padding:0;isolation:auto;mix-blend-mode:normal;solid-color:#000;solid-opacity:1;marker:none" color="#000" font-weight="400" font-family="sans-serif" overflow="visible" fill="#3584e4" enable-background="new"/><path style="marker:none" fill="#3584e4" enable-background="new" d="M860 203.967h192v32H860z"/><g fill="#3584e4"><path d="M908 19.967v128c0 17.673-14.327 32-32 32h-16v32h192v-32h-16c-17.673 0-32-14.327-32-32v-128z" style="line-height:normal;font-variant-ligatures:normal;font-variant-position:normal;font-variant-caps:normal;font-variant-numeric:normal;font-variant-alternates:normal;font-feature-settings:normal;text-indent:0;text-align:start;text-decoration-line:none;text-decoration-style:solid;text-decoration-color:#000;text-transform:none;text-orientation:mixed;white-space:normal;shape-padding:0;isolation:auto;mix-blend-mode:normal;solid-color:#000;solid-opacity:1;marker:none" color="#000" font-weight="400" font-family="sans-serif" overflow="visible" enable-background="accumulate"/><path style="marker:none" enable-background="new" d="M860 179.967h192v32H860z"/></g><path d="M1204 18.996l-72.484 72.486 16.968 16.971L1204 52.937l55.516 55.516 16.968-16.97z" style="line-height:normal;font-variant-ligatures:normal;font-variant-position:normal;font-variant-caps:normal;font-variant-numeric:normal;font-variant-alternates:normal;font-feature-settings:normal;text-indent:0;text-align:start;text-decoration-line:none;text-decoration-style:solid;text-decoration-color:#000;text-transform:none;text-orientation:mixed;white-space:normal;shape-padding:0;isolation:auto;mix-blend-mode:normal;solid-color:#000;solid-opacity:1;marker:none" color="#000" font-weight="400" font-family="sans-serif" overflow="visible" fill="#619fea" enable-background="accumulate"/><circle style="marker:none" cx="1204" cy="35.967" r="48" fill="#3584e4" enable-background="new"/><path d="M1260 68c13.255 0 24 10.745 24 24v48l-24 24h-24V92c0-13.255 10.745-24 24-24z" style="marker:none" fill="#3584e4" enable-background="new"/><path d="M1077.373-137.287l-11.314 11.314L894.746 45.34l67.88 67.88 182.628-182.626zm0 45.256L1100-69.406 962.627 67.967 940 45.34z" style="line-height:normal;font-variant-ligatures:normal;font-variant-position:normal;font-variant-caps:normal;font-variant-numeric:normal;font-variant-alternates:normal;font-feature-settings:normal;text-indent:0;text-align:start;text-decoration-line:none;text-decoration-style:solid;text-decoration-color:#000;text-transform:none;text-orientation:mixed;white-space:normal;shape-padding:0;isolation:auto;mix-blend-mode:normal;solid-color:#000;solid-opacity:1;marker:none" color="#000" font-weight="400" font-family="sans-serif" overflow="visible" fill="#a3c7f3" enable-background="new"/><circle r="88" cy="59.967" cx="956" style="marker:none" fill="#3584e4" enable-background="new"/><circle r="88" cy="51.967" cx="956" style="marker:none" fill="#a3c7f3"/><path d="M1107.143-98.176l-28.286 28.285 128 128 28.286-28.285z" style="line-height:normal;font-variant-ligatures:normal;font-variant-position:normal;font-variant-caps:normal;font-variant-numeric:normal;font-variant-alternates:normal;font-feature-settings:normal;text-indent:0;text-align:start;text-decoration-line:none;text-decoration-style:solid;text-decoration-color:#000;text-transform:none;text-orientation:mixed;white-space:normal;shape-padding:0;isolation:auto;mix-blend-mode:normal;solid-color:#000;solid-opacity:1;marker:none" color="#000" font-weight="400" font-family="sans-serif" overflow="visible" fill="#619fea" enable-background="new"/><circle r="72" cy="-76.033" cx="1092" style="marker:none" fill="#3584e4" enable-background="new"/><circle r="72" cy="-84.033" cx="1092" style="marker:none" fill="#a3c7f3" enable-background="new"/><circle style="marker:none" cx="1204" cy="27.967" r="48" fill="#a3c7f3"/><circle cy="-84.033" cx="1092" style="marker:none" fill="#3584e4" enable-background="new" r="48"/><circle r="56" cy="51.967" cx="956" style="marker:none" fill="#3584e4" enable-background="new"/><circle r="32" cy="51.967" cx="956" style="marker:none" fill="url(#l)" enable-background="new"/><circle r="32" cy="51.967" cx="956" style="marker:none" fill="#619fea" enable-background="new"/><circle r="24" cy="-84.033" cx="1092" style="marker:none" fill="#619fea" enable-background="new"/><circle cy="27.967" cx="1204" style="marker:none" fill="#3584e4" enable-background="new" r="32"/><circle r="16" cy="27.967" cx="1204" style="marker:none" fill="#619fea" enable-background="new"/><circle cy="92" cx="1260" style="marker:none" r="8" fill="#a3c7f3" enable-background="new"/><path d="M1148 68c-13.255 0-24 10.745-24 24v48l24 24h24V92c0-13.255-10.745-24-24-24z" style="marker:none" fill="#3584e4" enable-background="new"/><circle transform="scale(-1 1)" cy="92" cx="-1148" style="marker:none" r="8" fill="#a3c7f3" enable-background="new"/></g><g transform="matrix(1.65983 0 0 1.65983 -888.117 -428.818)" opacity=".317"><rect transform="matrix(.06615 0 0 .06604 622.772 412.422)" style="marker:none" width="448" height="328.574" x="30.021" y="-85.781" rx="32" ry="32.051" fill="#3584e4" enable-background="new"/><path style="marker:none" d="M626.872 404.644c-1.171 0-2.114.947-2.114 2.124v19.035c0 1.177.943 2.124 2.114 2.124h25.406c1.17 0 2.113-.947 2.113-2.124v-19.035a2.114 2.114 0 00-2.113-2.124h-1.062a2.117 2.117 0 01-2.116 2.116 2.117 2.117 0 01-2.117-2.116z" fill="#3584e4" enable-background="new"/><path style="line-height:normal;font-variant-ligatures:normal;font-variant-position:normal;font-variant-caps:normal;font-variant-numeric:normal;font-variant-alternates:normal;font-feature-settings:normal;text-indent:0;text-align:start;text-decoration-line:none;text-decoration-style:solid;text-decoration-color:#000;text-transform:none;text-orientation:mixed;white-space:normal;shape-padding:0;isolation:auto;mix-blend-mode:normal;solid-color:#000;solid-opacity:1" d="M632.166 417.31v3.1l-1.168 1.167h-1.323l-1.742 1.743v3.25h.53v-3.031l1.432-1.433h1.323l1.478-1.478v-3.317z" color="#000" font-weight="400" font-family="sans-serif" overflow="visible" fill="#fff" enable-background="accumulate"/><path style="line-height:normal;font-variant-ligatures:normal;font-variant-position:normal;font-variant-caps:normal;font-variant-numeric:normal;font-variant-alternates:normal;font-feature-settings:normal;text-indent:0;text-align:start;text-decoration-line:none;text-decoration-style:solid;text-decoration-color:#000;text-transform:none;text-orientation:mixed;white-space:normal;shape-padding:0;isolation:auto;mix-blend-mode:normal;solid-color:#000;solid-opacity:1" d="M633.225 418.366v2.837l-2.646 2.646v2.226h.53v-2.007l2.645-2.646v-3.056z" color="#000" font-weight="400" font-family="sans-serif" overflow="visible" fill="#fff" enable-background="accumulate"/><g transform="matrix(.06615 0 0 .06604 622.772 412.422)" clip-path="url(#m)" fill="#fff" stroke-width="1.001" paint-order="markers fill stroke"><path d="M402.021 182.22c6.648 0 12 5.351 12 12v56c0 6.647-5.352 12-12 12s-12-5.353-12-12v-56c0-6.649 5.352-12 12-12zm-40 0c6.648 0 12 5.351 12 12v56c0 6.647-5.352 12-12 12s-12-5.353-12-12v-56c0-6.649 5.352-12 12-12zm-40 0c6.648 0 12 5.351 12 12v56c0 6.647-5.352 12-12 12s-12-5.353-12-12v-56c0-6.649 5.352-12 12-12zm-40 0c6.648 0 12 5.351 12 12v56c0 6.647-5.352 12-12 12s-12-5.353-12-12v-56c0-6.649 5.352-12 12-12zm-40 0c6.648 0 12 5.351 12 12v56c0 6.647-5.352 12-12 12s-12-5.353-12-12v-56c0-6.649 5.352-12 12-12zm-40 0c6.648 0 12 5.351 12 12v56c0 6.647-5.352 12-12 12s-12-5.353-12-12v-56c0-6.649 5.352-12 12-12zm-40 0c6.648 0 12 5.351 12 12v56c0 6.647-5.352 12-12 12s-12-5.353-12-12v-56c0-6.649 5.352-12 12-12zm-40 0c6.648 0 12 5.351 12 12v56c0 6.647-5.352 12-12 12s-12-5.353-12-12v-56c0-6.649 5.352-12 12-12zm-40 0c6.648 0 12 5.351 12 12v56c0 6.647-5.352 12-12 12s-12-5.353-12-12v-56c0-6.649 5.352-12 12-12z"/><path d="M350.021 234.781h24v16h-24zm-40 0h24v16h-24zm-40 0h24v16h-24zm-40 0h24v16h-24zm-40 0h24v16h-24zm-40 0h24v16h-24zm-40 0h24v16h-24zm-40 0h24v16h-24z" enable-background="new"/><rect width="24" height="16" x="390.021" y="234.219" rx="0" ry="0" enable-background="new"/></g><path d="M624.758 425.539v.264c0 1.177.943 2.124 2.114 2.124h25.406c1.17 0 2.113-.947 2.113-2.124v-.264a2.114 2.114 0 01-2.113 2.124h-25.406a2.114 2.114 0 01-2.114-2.124z" fill="#fff" fill-opacity=".126" enable-background="new"/><path style="line-height:normal;font-variant-ligatures:normal;font-variant-position:normal;font-variant-caps:normal;font-variant-numeric:normal;font-variant-alternates:normal;font-feature-settings:normal;text-indent:0;text-align:start;text-decoration-line:none;text-decoration-style:solid;text-decoration-color:#000;text-transform:none;text-orientation:mixed;white-space:normal;shape-padding:0;isolation:auto;mix-blend-mode:normal;solid-color:#000;solid-opacity:1" d="M636.4 418.402v3.55l2.116 2.116v1.213h.529v-1.431l-2.115-2.118v-3.33zM635.342 418.402v4.608l.53.53v1.741h.528v-1.96l-.529-.53v-4.389zM634.283 418.402v3.33l-1.058 1.059v2.49h.529v-2.271l1.058-1.059v-3.549z" color="#000" font-weight="400" font-family="sans-serif" overflow="visible" fill="#fff" enable-background="new"/><rect style="marker:none" width="7.938" height="6.085" x="631.108" y="412.317" rx=".794" ry=".794" fill="#3584e4" enable-background="new"/><path style="line-height:normal;font-variant-ligatures:normal;font-variant-position:normal;font-variant-caps:normal;font-variant-numeric:normal;font-variant-alternates:normal;font-feature-settings:normal;text-indent:0;text-align:start;text-decoration-line:none;text-decoration-style:solid;text-decoration-color:#000;text-transform:none;text-orientation:mixed;white-space:normal;shape-padding:0;isolation:auto;mix-blend-mode:normal;solid-color:#000;solid-opacity:1" d="M634.018 407.818v.53h2.802l.639.638v3.067h.527v-3.285l-.947-.95z" color="#000" font-weight="400" font-family="sans-serif" overflow="visible" fill="#fff" enable-background="new"/><path style="line-height:normal;font-variant-ligatures:normal;font-variant-position:normal;font-variant-caps:normal;font-variant-numeric:normal;font-variant-alternates:normal;font-feature-settings:normal;text-indent:0;text-align:start;text-decoration-line:none;text-decoration-style:solid;text-decoration-color:#000;text-transform:none;text-orientation:mixed;white-space:normal;shape-padding:0;isolation:auto;mix-blend-mode:normal;solid-color:#000;solid-opacity:1" d="M635.793 407.896l-.373.374.98.982v2.8h.53v-3.02z" color="#000" font-weight="400" font-family="sans-serif" overflow="visible" fill="#fff" enable-background="new"/><path style="line-height:normal;font-variant-ligatures:normal;font-variant-position:normal;font-variant-caps:normal;font-variant-numeric:normal;font-variant-alternates:normal;font-feature-settings:normal;text-indent:0;text-align:start;text-decoration-line:none;text-decoration-style:solid;text-decoration-color:#000;text-transform:none;text-orientation:mixed;white-space:normal;shape-padding:0;isolation:auto;mix-blend-mode:normal;solid-color:#000;solid-opacity:1" d="M634.47 407.896l-.374.374 1.246 1.246v2.537h.53v-2.756z" color="#000" font-weight="400" font-family="sans-serif" overflow="visible" fill="#fff" enable-background="new"/><path style="line-height:normal;font-variant-ligatures:normal;font-variant-position:normal;font-variant-caps:normal;font-variant-numeric:normal;font-variant-alternates:normal;font-feature-settings:normal;text-indent:0;text-align:start;text-decoration-line:none;text-decoration-style:solid;text-decoration-color:#000;text-transform:none;text-orientation:mixed;white-space:normal;shape-padding:0;isolation:auto;mix-blend-mode:normal;solid-color:#000;solid-opacity:1" d="M631.107 409.406v.53h2.801l.375.375v1.742h.53v-1.963l-.684-.684z" color="#000" font-weight="400" font-family="sans-serif" overflow="visible" fill="#fff" enable-background="new"/><path style="line-height:normal;font-variant-ligatures:normal;font-variant-position:normal;font-variant-caps:normal;font-variant-numeric:normal;font-variant-alternates:normal;font-feature-settings:normal;text-indent:0;text-align:start;text-decoration-line:none;text-decoration-style:solid;text-decoration-color:#000;text-transform:none;text-orientation:mixed;white-space:normal;shape-padding:0;isolation:auto;mix-blend-mode:normal;solid-color:#000;solid-opacity:1" d="M633.225 409.936v2.117h.529v-2.117zM632.166 409.936v2.117h.53v-2.117z" color="#000" font-weight="400" font-family="sans-serif" overflow="visible" fill="#fff" enable-background="new"/><path d="M632.431 410.728a.264.264 0 00-.265.265v1.06h.53v-1.06a.264.264 0 00-.265-.265zm1.058 0a.264.264 0 00-.264.265v1.06h.529v-1.06a.264.264 0 00-.265-.265zm1.059 0a.264.264 0 00-.265.265v1.06h.53v-1.06a.264.264 0 00-.265-.265zm1.058 0a.264.264 0 00-.265.265v1.06h.53v-1.06a.264.264 0 00-.265-.265zm1.058 0a.264.264 0 00-.264.265v1.06h.529v-1.06a.264.264 0 00-.265-.265zm1.059 0a.264.264 0 00-.265.265v1.06h.53v-1.06a.264.264 0 00-.265-.265z" fill="#fff" paint-order="markers fill stroke" enable-background="new"/><rect ry=".794" rx=".794" y="411.523" x="631.108" height="6.35" width="7.938" style="marker:none" fill="#a3c7f3" enable-background="new"/><path style="line-height:normal;font-variant-ligatures:normal;font-variant-position:normal;font-variant-caps:normal;font-variant-numeric:normal;font-variant-alternates:normal;font-feature-settings:normal;text-indent:0;text-align:start;text-decoration-line:none;text-decoration-style:solid;text-decoration-color:#000;text-transform:none;text-orientation:mixed;white-space:normal;shape-padding:0;isolation:auto;mix-blend-mode:normal;solid-color:#000;solid-opacity:1" d="M637.459 418.402v1.961l3.703 3.705v.95h.53v-1.168l-3.706-3.705v-1.743z" color="#000" font-weight="400" font-family="sans-serif" overflow="visible" fill="#fff" enable-background="new"/><rect ry="0" rx="0" y="413.11" x="632.166" height=".529" width="3.969" paint-order="markers fill stroke" enable-background="new" fill="none"/><rect width="2.117" height="1.058" x="632.166" y="414.169" rx="0" ry="0" paint-order="markers fill stroke" enable-background="new" fill="none"/><rect ry="0" rx="0" y="414.169" x="634.548" height="1.058" width="2.91" paint-order="markers fill stroke" enable-background="new" fill="none"/><path style="line-height:normal;font-variant-ligatures:normal;font-variant-position:normal;font-variant-caps:normal;font-variant-numeric:normal;font-variant-alternates:normal;font-feature-settings:normal;text-indent:0;text-align:start;text-decoration-line:none;text-decoration-style:solid;text-decoration-color:#000;text-transform:none;text-orientation:mixed;white-space:normal;shape-padding:0;isolation:auto;mix-blend-mode:normal;solid-color:#000;solid-opacity:1" d="M642.484 417.873a.796.796 0 00-.793.793c0 .435.358.795.793.795a.8.8 0 00.795-.795.798.798 0 00-.795-.793zm0 .53a.26.26 0 01.266.263c0 .15-.116.266-.266.266a.26.26 0 01-.263-.266.26.26 0 01.263-.264zM644.602 417.873a.796.796 0 00-.793.793c0 .435.357.795.793.795a.8.8 0 00.794-.795.798.798 0 00-.794-.793zm0 .53a.26.26 0 01.265.263c0 .15-.116.266-.265.266a.26.26 0 01-.264-.266.26.26 0 01.264-.264zM647.777 417.873a.798.798 0 00-.795.793.8.8 0 00.795.795c.436 0 .793-.36.793-.795a.796.796 0 00-.793-.793zm0 .53a.26.26 0 01.264.263.26.26 0 01-.264.266.262.262 0 01-.265-.266.26.26 0 01.265-.264zM647.777 415.756a.8.8 0 00-.795.795c0 .435.36.793.795.793a.796.796 0 00.793-.793.798.798 0 00-.793-.795zm0 .53a.26.26 0 01.264.265.26.26 0 01-.264.263.26.26 0 01-.265-.263c0-.15.116-.266.265-.266z" color="#000" font-weight="400" font-family="sans-serif" overflow="visible" fill="#fff" paint-order="markers fill stroke" enable-background="new"/><path style="line-height:normal;font-variant-ligatures:normal;font-variant-position:normal;font-variant-caps:normal;font-variant-numeric:normal;font-variant-alternates:normal;font-feature-settings:normal;text-indent:0;text-align:start;text-decoration-line:none;text-decoration-style:solid;text-decoration-color:#000;text-transform:none;text-orientation:mixed;white-space:normal;shape-padding:0;isolation:auto;mix-blend-mode:normal;solid-color:#000;solid-opacity:1" d="M642.22 419.195v.639l1.589 1.588v3.86h.529v-4.079l-1.588-1.588v-.42zM644.338 419.195v.639l.683.686h2.336l.684-.686v-.639h-.53v.42l-.372.375h-1.899l-.373-.375v-.42z" color="#000" font-weight="400" font-family="sans-serif" overflow="visible" fill="#fff" enable-background="new"/><path style="line-height:normal;font-variant-ligatures:normal;font-variant-position:normal;font-variant-caps:normal;font-variant-numeric:normal;font-variant-alternates:normal;font-feature-settings:normal;text-indent:0;text-align:start;text-decoration-line:none;text-decoration-style:solid;text-decoration-color:#000;text-transform:none;text-orientation:mixed;white-space:normal;shape-padding:0;isolation:auto;mix-blend-mode:normal;solid-color:#000;solid-opacity:1" d="M633.49 407.29a.8.8 0 00-.795.794c0 .435.36.793.795.793a.796.796 0 00.793-.793.798.798 0 00-.793-.795zm0 .528a.26.26 0 01.264.266.26.26 0 01-.264.264.26.26 0 01-.265-.264c0-.15.116-.266.265-.266zM630.578 408.877a.798.798 0 00-.793.795c0 .435.358.793.793.793a.798.798 0 00.795-.793.8.8 0 00-.795-.795zm0 .53c.15 0 .266.116.266.265a.26.26 0 01-.266.264.26.26 0 01-.264-.264.26.26 0 01.264-.266z" color="#000" font-weight="400" font-family="sans-serif" overflow="visible" fill="#fff" paint-order="markers fill stroke" enable-background="new"/><path fill="#fff" paint-order="markers fill stroke" enable-background="new" d="M625.816 418.931h2.117v1.587h-2.117zM625.816 417.873h2.117v.529h-2.117zM627.933 414.698h2.117v.529h-2.117zM627.933 412.581h2.117v1.587h-2.117zM627.933 411.523h2.117v.529h-2.117z"/><path style="line-height:normal;font-variant-ligatures:normal;font-variant-position:normal;font-variant-caps:normal;font-variant-numeric:normal;font-variant-alternates:normal;font-feature-settings:normal;text-indent:0;text-align:start;text-decoration-line:none;text-decoration-style:solid;text-decoration-color:#000;text-transform:none;text-orientation:mixed;white-space:normal;shape-padding:0;isolation:auto;mix-blend-mode:normal;solid-color:#000;solid-opacity:1" d="M646.982 412.844a.8.8 0 00.795.795c.436 0 .793-.36.793-.795a.796.796 0 00-.793-.793.798.798 0 00-.795.793zm.53 0a.26.26 0 01.265-.264.26.26 0 01.264.264.26.26 0 01-.264.265.262.262 0 01-.265-.265zM646.982 409.67c0 .435.36.793.795.793a.796.796 0 00.793-.793.798.798 0 00-.793-.795.8.8 0 00-.795.795zm.53 0c0-.15.116-.266.265-.266a.26.26 0 01.264.266.26.26 0 01-.264.264.26.26 0 01-.265-.264zM644.867 409.67c0 .435.358.793.793.793a.796.796 0 00.793-.793.798.798 0 00-.793-.795.798.798 0 00-.793.795zm.53 0a.26.26 0 01.263-.266.26.26 0 01.264.266.26.26 0 01-.264.264.26.26 0 01-.264-.264z" color="#000" font-weight="400" font-family="sans-serif" overflow="visible" fill="#fff" paint-order="markers fill stroke" enable-background="new"/><path style="line-height:normal;font-variant-ligatures:normal;font-variant-position:normal;font-variant-caps:normal;font-variant-numeric:normal;font-variant-alternates:normal;font-feature-settings:normal;text-indent:0;text-align:start;text-decoration-line:none;text-decoration-style:solid;text-decoration-color:#000;text-transform:none;text-orientation:mixed;white-space:normal;shape-padding:0;isolation:auto;mix-blend-mode:normal;solid-color:#000;solid-opacity:1" d="M648.307 409.404v.53h.42l.373.375v1.896l-.373.375h-.42v.53h.638l.684-.684v-2.336l-.684-.686z" color="#000" font-weight="400" font-family="sans-serif" overflow="visible" fill="#fff" enable-background="new"/><rect style="marker:none" width="3.704" height="2.91" x="642.221" y="413.375" rx=".529" ry=".529" fill="#3584e4" enable-background="new"/><path d="M642.75 416.02v.795a.264.264 0 10.529 0v-.794zm1.058 0v.795a.264.264 0 10.53 0v-.794zm1.058 0v.795a.264.264 0 10.53 0v-.794z" fill="url(#n)" paint-order="markers fill stroke" enable-background="new"/><path d="M642.75 413.375v-.794a.264.264 0 11.529 0v.794zm1.058 0v-.794a.264.264 0 11.53 0v.794zm1.058 0v-.794a.264.264 0 11.53 0v.794z" fill="url(#o)" paint-order="markers fill stroke" enable-background="new"/><rect ry=".529" rx=".529" y="412.581" x="642.221" height="3.175" width="3.704" style="marker:none" fill="#a3c7f3" enable-background="new"/><rect width="2.117" height=".529" x="642.75" y="413.11" rx="0" ry="0" paint-order="markers fill stroke" enable-background="new" fill="none"/><rect ry="0" rx="0" y="414.169" x="642.75" height=".529" width="1.058" paint-order="markers fill stroke" enable-background="new" fill="none"/><g fill="#fff" paint-order="markers fill stroke"><path d="M650.158 421.048h1.588v1.587h-1.588z"/><path d="M650.158 421.048h1.588v1.058h-1.588z"/><path d="M650.158 421.048h.53v1.058h-.53zM650.158 422.635h.53v-.529h-.53zM651.746 421.048h.529v1.058h-.53zM651.746 422.635h.529v-.529h-.53z"/></g><g fill="#fff" paint-order="markers fill stroke"><path d="M650.158 419.46h1.588v1.588h-1.588z"/><path d="M650.158 419.46h1.588v1.059h-1.588z"/><path d="M650.158 419.46h.53v1.059h-.53z"/><path d="M650.158 421.048h.53v-.53h-.53zM651.746 419.46h.529v1.059h-.53z"/><path d="M651.746 421.048h.529v-.53h-.53z"/></g><g fill="#fff" paint-order="markers fill stroke"><path d="M650.158 417.873h1.588v1.587h-1.588z"/><path d="M650.158 417.873h1.588v1.058h-1.588z"/><path d="M650.158 417.873h.53v1.058h-.53zM650.158 419.46h.53v-.529h-.53zM651.746 417.873h.529v1.058h-.53zM651.746 419.46h.529v-.529h-.53z"/></g><g fill="#fff" paint-order="markers fill stroke"><path d="M640.633 407.819v-2.117h1.058v2.117z"/><path d="M640.633 407.819v-2.117h.53v2.117z"/><path d="M640.633 407.819v-.53h1.058v.53zM640.633 406.231v-.529h1.058v.53z"/></g><g fill="#fff" paint-order="markers fill stroke"><path d="M643.808 407.819v-2.117h1.058v2.117z"/><path d="M643.808 407.819v-2.117h.53v2.117z"/><path d="M643.808 407.819v-.53h1.058v.53zM643.808 406.231v-.529h1.058v.53z"/></g><g fill="#fff" paint-order="markers fill stroke"><path d="M642.22 407.819v-2.117h1.059v2.117z"/><path d="M642.22 407.819v-2.117h.53v2.117z"/><path d="M642.22 407.819v-.53h1.059v.53zM642.22 406.231v-.529h1.059v.53z"/></g><path d="M632.166 418.138v1.058a.264.264 0 10.53 0v-1.058zm1.059 0v1.058a.264.264 0 10.529 0v-1.058zm1.058 0v1.058a.264.264 0 10.53 0v-1.058zm1.058 0v1.058a.264.264 0 10.53 0v-1.058zm1.059 0v1.058a.264.264 0 10.529 0v-1.058zm1.058 0v1.058a.264.264 0 10.53 0v-1.058z" fill="#fff" paint-order="markers fill stroke" enable-background="new"/></g><g opacity=".317"><path d="M86.491 261.921h24.275v17.286c0 2.432-1.122 4.39-3.757 4.39H86.49z" style="marker:none" fill="#3584e4"/><path style="marker:none" d="M107.316 238.512a3.46 3.46 0 013.468 3.468v36.414a3.46 3.46 0 01-3.468 3.469H86.507v-43.351z" fill="#a3c7f3" enable-background="new"/><path style="marker:none" opacity=".1" enable-background="new" d="M95.16 268.857v1.734h8.67v-1.734zM95.16 272.325v1.734h8.67v-1.734z"/><path style="marker:none" fill="#fff" enable-background="new" d="M95.16 267.99v1.734h8.67v-1.734zM95.16 271.458v1.734h8.67v-1.734z"/><path style="marker:none" d="M69.167 240.246a3.46 3.46 0 00-3.468 3.468v36.414a3.46 3.46 0 003.468 3.469H88.24v-43.351z" fill="#3584e4" enable-background="new"/><path d="M69.167 238.512a3.46 3.46 0 00-3.468 3.468v36.414a3.46 3.46 0 003.468 3.469H88.24v-43.351z" style="marker:none" fill="#3584e4" enable-background="new"/><path d="M76.086 267.123v3.468h-3.468v1.734h3.468v3.468h1.734v-3.468h3.468v-1.734H77.82v-3.468z" style="marker:none" opacity=".2" enable-background="new"/><path style="marker:none" d="M76.086 266.256v3.468h-3.468v1.734h3.468v3.468h1.734v-3.468h3.468v-1.734H77.82v-3.468z" fill="#fff" enable-background="new"/><path style="marker:none" opacity=".1" enable-background="new" d="M72.618 249.783v1.734h8.67v-1.734z"/><path style="marker:none" fill="#fff" enable-background="new" d="M72.618 248.916v1.734h8.67v-1.734z"/><path d="M65.681 260.187v.867h22.527v-.867z" style="line-height:normal;font-variant-ligatures:normal;font-variant-position:normal;font-variant-caps:normal;font-variant-numeric:normal;font-variant-alternates:normal;font-feature-settings:normal;text-indent:0;text-align:start;text-decoration-line:none;text-decoration-style:solid;text-decoration-color:#000;text-transform:none;text-orientation:mixed;white-space:normal;shape-padding:0;isolation:auto;mix-blend-mode:normal;solid-color:#000;solid-opacity:1;marker:none" color="#000" font-weight="400" font-family="sans-serif" overflow="visible" fill="#a3c7f3" fill-rule="evenodd" enable-background="accumulate"/></g><path style="line-height:normal;font-variant-ligatures:normal;font-variant-position:normal;font-variant-caps:normal;font-variant-numeric:normal;font-variant-alternates:normal;font-feature-settings:normal;text-indent:0;text-align:start;text-decoration-line:none;text-decoration-style:solid;text-decoration-color:#000;text-transform:none;text-orientation:mixed;white-space:normal;shape-padding:0;isolation:auto;mix-blend-mode:normal;solid-color:#000;solid-opacity:1;marker:none" d="M409.523 20.181a4.843 4.843 0 00-4.843 4.843 4.843 4.843 0 003.229 4.56v26.392a4.843 4.843 0 00-3.229 4.56 4.843 4.843 0 004.843 4.842 4.843 4.843 0 004.189-2.421h27.136a4.843 4.843 0 004.187 2.421 4.843 4.843 0 004.842-4.842 4.843 4.843 0 00-3.228-4.56V29.583a4.843 4.843 0 003.228-4.56 4.843 4.843 0 00-4.842-4.842 4.843 4.843 0 00-4.77 4.036h-25.968a4.843 4.843 0 00-4.774-4.036zm4.189 7.264h27.136a4.843 4.843 0 00.106.184l-4.185 4.185a3.228 3.228 0 00-1.419-.333 3.228 3.228 0 00-3.121 2.42h-9.897a3.228 3.228 0 00-3.124-2.42 3.228 3.228 0 00-1.42.331l-4.187-4.186a4.843 4.843 0 00.112-.18zm-2.575 2.282l4.849 4.85a3.228 3.228 0 00-.005.131 3.228 3.228 0 001.614 2.793v10.558a3.228 3.228 0 00-1.614 2.791 3.228 3.228 0 00.332 1.421l-4.186 4.186a4.843 4.843 0 00-.989-.481zm32.283 0v26.249a4.843 4.843 0 00-.991.478l-4.184-4.184a3.228 3.228 0 00.333-1.42 3.228 3.228 0 00-1.614-2.792V37.5a3.228 3.228 0 001.614-2.791 3.228 3.228 0 00-.005-.134zm-22.083 7.403h11.881a3.228 3.228 0 00.517.371V48.06a3.228 3.228 0 00-1.507 1.984h-9.897a3.228 3.228 0 00-1.509-1.985V37.5a3.228 3.228 0 00.515-.37zm0 16.142h11.881a3.228 3.228 0 002.132.807 3.228 3.228 0 00.134-.005l4.953 4.953a4.843 4.843 0 00-.171.702h-25.969a4.843 4.843 0 00-.178-.7l4.957-4.956a3.228 3.228 0 00.133.004 3.228 3.228 0 002.13-.807z" color="#000" font-weight="400" font-family="sans-serif" overflow="visible" opacity=".317" fill="#3584e4" enable-background="new"/><g opacity=".317"><path d="M537.502 268.536v2.74a3.29 3.29 0 01-3.297 3.297h-9.067a9.89 9.89 0 00-8.992 5.77h-3.448a9.89 9.89 0 00-8.992-5.77h-9.067a3.29 3.29 0 01-3.297-3.298v-2.739z" style="font-variation-settings:normal;marker:none" fill="#3584e4" enable-background="new"/><path style="font-variation-settings:normal;marker:none" d="M515.38 251.912c-.064.407-.111.817-.134 1.23h-.824v25.964h1.724a9.89 9.89 0 018.992-5.77h9.067a3.29 3.29 0 003.297-3.297v-14.692a3.29 3.29 0 00-3.297-3.297zM513.463 251.912c.065.407.112.817.135 1.23h.824v25.964h-1.724a9.89 9.89 0 00-8.992-5.77h-9.067a3.29 3.29 0 01-3.297-3.297v-14.692a3.29 3.29 0 013.297-3.297z" fill="#a3c7f3" enable-background="new"/><g opacity=".1"><path d="M537.502 267.424a3.078 3.078 0 01-3.088 3.027h-.206v.412h.206a3.498 3.498 0 003.088-1.847zm-13.189 3.027l9.892.412v-.412z" enable-background="new"/><path d="M537.502 268.66a3.078 3.078 0 01-3.088 3.028h-.206v.412h.206a3.498 3.498 0 003.076-1.825c.005-.078.012-.156.012-.236zm-10.716 3.028l7.419.412v-.412z" enable-background="new"/></g><path d="M534.205 238.304a3.29 3.29 0 013.297 3.297v24.317a3.29 3.29 0 01-3.297 3.297h-9.892c-5.463 0-9.891 4.428-9.891 9.891V249.02c0-5.463 4.428-10.716 9.891-10.716zM494.639 238.304a3.29 3.29 0 00-3.297 3.297v24.317a3.29 3.29 0 003.297 3.297h9.891c5.463 0 9.892 4.428 9.892 9.891V249.02c0-5.463-4.429-10.716-9.892-10.716z" style="marker:none" fill="#fff" enable-background="new"/><path style="marker:none" d="M530.083 242.837v2.473h-4.945c-1.803.075-3.49.534-4.946 1.353v-2.288c1.455-.963 3.143-1.538 4.946-1.538z" fill="#3684e3" enable-background="new"/><path d="M532.556 247.783v1.649h-7.418c-1.803.075-3.49.534-4.946 1.353v-1.464c1.455-.963 3.143-1.538 4.946-1.538zM532.556 251.08v1.649h-7.418c-1.803.075-3.49.534-4.946 1.353v-1.464c1.455-.963 3.143-1.538 4.946-1.538zM532.556 254.377v1.65h-7.418c-1.803.074-3.49.533-4.946 1.352v-1.464c1.455-.963 3.143-1.538 4.946-1.538z" style="marker:none" fill="#a3c7f3" enable-background="new"/><path fill="#a3c7f3" enable-background="new" d="M502.882 260.972h-6.595v1.648h6.595z"/><path style="marker:none" d="M496.288 247.783v1.649h8.242c1.473.061 2.866.383 4.122.944v-1.54c-1.255-.665-2.649-1.053-4.122-1.053zM496.288 251.08v1.649h8.242c1.473.061 2.866.383 4.122.944v-1.539c-1.255-.665-2.649-1.054-4.122-1.054zM496.288 254.377v1.65h8.242c1.473.06 2.866.382 4.122.943v-1.539c-1.255-.665-2.649-1.054-4.122-1.054zM496.288 244.486v1.649h8.242c1.473.061 2.866.383 4.122.944v-1.54c-1.255-.665-2.649-1.053-4.122-1.053zM496.288 257.675v1.648h8.242c1.473.062 2.866.383 4.122.944v-1.539c-1.255-.665-2.649-1.053-4.122-1.053zM529.26 257.675v1.648h-4.122c-1.803.075-3.49.534-4.946 1.353v-1.464c1.455-.963 3.143-1.537 4.946-1.537z" fill="#a3c7f3" enable-background="new"/><g><path d="M502.236 229.65s-3.393 8.422-3.383 12.853c.008 3.297.454 7.017 2.56 9.554 1.619 1.95 6.854 3.284 6.854 3.284l1.593-.427s3.866-3.774 4.293-6.27c.555-3.25-.918-6.696-2.56-9.555-2.207-3.842-9.357-9.44-9.357-9.44z" fill="#3684e3" enable-background="new"/><path d="M503.482 234.183c.716 3.007 1.19 5.25 1.654 7.464-2.075-1.164-2.816-1.4-3.626-1.838.828.513 1.388 1.031 3.746 2.407.22 1.045.437 2.084.689 3.24-2.876-1.613-3.832-1.89-4.955-2.498 1.14.706 1.925 1.427 5.136 3.303.224 1.014.483 2.143.773 3.368-2.925-1.631-3.914-1.922-5.083-2.554 1.194.739 1.983 1.475 5.287 3.412a431.97 431.97 0 002.873 11.235l1.593-.427a492.402 492.402 0 00-3.117-11.186c1.882-3.314 2.197-4.345 2.86-5.579-.694 1.129-1.403 1.873-3.111 4.73-.36-1.213-.695-2.327-1.004-3.322 1.818-3.192 2.14-4.21 2.772-5.386-.666 1.082-1.349 1.797-3.015 4.597-.356-1.133-.686-2.146-1.016-3.167 1.32-2.315 1.55-3.048 2.007-3.897-.477.775-.997 1.351-2.185 3.343a332.895 332.895 0 01-2.278-7.245z" fill="#fff"/></g></g><g opacity=".33" stroke-width="1.167"><g clip-path="url(#p)" transform="matrix(.10714 0 0 .10714 316.784 260.66)"><path d="M256 124h160v-272h96v384H256l-64-64-64 64H0V124h128l64-64z" style="font-variation-settings:normal;marker:none" fill="#3584e4"/><path style="marker:none" d="M0 123.975l128 .05V-148H0z" fill="#3584e4" enable-background="new"/><path d="M144-164v272l48-48 64 64.058h144L416 108v-256H256l-64-64z" style="font-variation-settings:normal;marker:none" fill="#3584e4" enable-background="new"/><path d="M399.898-147.89v238c0 10.027-9.373 17.948-16.949 17.948H256L192 44.59l-39.375 39.535L152-211.942h-24V108l-128 .058v32.102h127L192 76l64 64.16h126.95c26.424 0 47.962-22.048 49.05-50.05v-238z" style="line-height:normal;font-variant-ligatures:normal;font-variant-position:normal;font-variant-caps:normal;font-variant-numeric:normal;font-variant-alternates:normal;font-feature-settings:normal;text-indent:0;text-align:start;text-decoration-line:none;text-decoration-style:solid;text-decoration-color:#000;text-transform:none;text-orientation:mixed;white-space:normal;shape-padding:0;isolation:auto;mix-blend-mode:normal;solid-color:#000;solid-opacity:1" color="#000" font-weight="400" font-family="sans-serif" overflow="visible" fill="#cdd5e2" enable-background="accumulate"/></g><g transform="translate(316.784 159.09) scale(.42857)"><circle cx="208" cy="92" transform="matrix(0 1 1 0 0 0)" r="12" fill="#1a5fb4" enable-background="new"/><path d="M92 182a27.912 27.912 0 00-19.799 8.201c-10.934 10.935-10.934 28.663 0 39.598l19.8 19.8s13.82-13.823 19.798-19.8c10.935-10.935 10.935-28.663 0-39.598A27.912 27.912 0 0092 182zm0 18a10 10 0 0110 10 10 10 0 01-10 10 10 10 0 01-10-10 10 10 0 0110-10z" style="marker:none" fill="#fff" enable-background="new"/></g></g><g opacity=".396" stroke-width="1.245"><path d="M450.437 114.255a24.098 24.098 0 01-24.098 24.098 24.098 24.098 0 01-24.098-24.098 24.098 24.098 0 0124.098-24.098 24.098 24.098 0 0124.098 24.098z" style="marker:none" fill="#5799e9" enable-background="new"/><path d="M411.882 114.656a14.459 25.303 0 003.148 15.364 17.672 10.844 0 00-3.962 2.876 24.098 24.098 0 01-8.824-18.24z" style="marker:none" fill="#64a1eb" enable-background="new"/><path style="marker:none" d="M426.34 127.51v10.843a24.098 24.098 0 01-5.374-.607 14.459 25.303 0 01-5.936-7.726 17.672 10.844 0 0111.31-2.51z" fill="#468cd8" enable-background="new"/><path style="marker:none" d="M440.797 114.657a14.459 25.303 0 01-3.148 15.363 17.672 10.844 0 013.961 2.876 24.098 24.098 0 008.824-18.24z" fill="#2f7cd9" enable-background="new"/><path d="M426.34 114.657v23.696a24.098 24.098 0 005.372-.607 14.459 25.303 0 009.085-23.09z" style="marker:none" fill="#3684e3" enable-background="new"/><path d="M426.34 127.51v10.843a24.098 24.098 0 005.372-.607 14.459 25.303 0 005.937-7.726 17.672 10.844 0 00-11.31-2.51z" style="marker:none" fill="#2f7cd9" enable-background="new"/><path style="marker:none" d="M437.649 130.02a14.459 25.303 0 01-5.937 7.726 24.098 24.098 0 009.898-4.85 17.672 10.844 0 00-3.961-2.876z" fill="#236ac0" enable-background="new"/><g><path d="M426.34 90.157a24.098 24.098 0 00-24.1 24.098 24.098 24.098 0 00.004.402h24.095z" fill="#7db0ee"/><path d="M420.968 90.763a24.098 24.098 0 00-9.9 4.85 17.672 10.844 0 003.962 2.877 14.459 25.303 0 015.938-7.727z" fill="#9dc3f2"/><path d="M426.34 90.157a24.098 24.098 0 00-5.372.606 14.459 25.303 0 00-9.088 23.492 14.459 25.303 0 00.002.402h14.457z" fill="#63a0eb"/><path d="M426.34 90.157a24.098 24.098 0 00-5.372.606 14.459 25.303 0 00-5.938 7.727 17.672 10.844 0 0011.31 2.51z" fill="#7db0ee"/></g><g><path d="M426.34 90.157a24.098 24.098 0 0124.098 24.098 24.098 24.098 0 01-.004.402H426.34z" fill="#3784e5"/><path d="M431.71 90.763a24.098 24.098 0 019.901 4.85 17.672 10.844 0 01-3.962 2.877 14.459 25.303 0 00-5.939-7.727z" fill="#4a92e8"/><path d="M426.34 90.157a24.098 24.098 0 015.37.606 14.459 25.303 0 019.088 23.492 14.459 25.303 0 01-.001.402h-14.458z" fill="#4e93e8"/><path d="M426.34 90.157a24.098 24.098 0 015.37.606 14.459 25.303 0 015.938 7.727 17.672 10.844 0 01-11.309 2.51z" fill="#63a0eb"/></g></g><g transform="matrix(.42623 0 0 .42623 -148.947 3.332)" opacity=".33" stroke-width="1.173"><rect ry="65.692" rx="65.692" y="38.815" x="1096.939" height="114" width="112" style="marker:none" fill="#d5d3cf" enable-background="new"/><path d="M1212.94 94.815a60 60 0 01-60 60 60 60 0 01-60-60 60 60 0 0160-60 60 60 0 0160 60z" style="marker:none" fill="#f6f5f4" enable-background="new"/><circle cy="94.815" cx="1152.939" style="font-variation-settings:normal;marker:none" r="54" fill="#3584e4" enable-background="new"/><path d="M1152.94 94.815l-18-20" fill="#fff" fill-rule="evenodd" stroke="#fff" stroke-width="4.7" stroke-linecap="round" enable-background="new"/><path d="M1152.94 94.815l26-28M1152.94 94.815l-14 36" fill="none" stroke="#fff" stroke-width="2.35" stroke-linecap="round" enable-background="new"/><circle transform="rotate(-24.04)" style="marker:none" cx="1014.319" cy="556.252" r="6" color="#000" overflow="visible" fill="#fff" enable-background="accumulate"/><circle cy="94.815" cx="1152.968" style="marker:none" r="2.003" color="#000" overflow="visible" fill="#131c1a" enable-background="accumulate"/><circle style="marker:none" cx="1152.968" cy="94.815" r="2" color="#000" overflow="visible" fill="#1a5fb4" enable-background="accumulate"/></g><g transform="translate(60.565 -63.65) scale(.4375)" opacity=".33" stroke-width="1.143"><rect ry="9.143" rx="9.143" y="201.97" x="8" height="82.03" width="112" fill="#1c71d8"/><g transform="translate(.019 .028)"><g transform="matrix(.25 0 0 -.25 -8.019 197.917)" clip-path="url(#q)"><rect style="marker:none" width="448" height="56.232" x="64" y="-48.454" rx="0" ry="0" fill="#fff"/><rect ry="0" rx="0" transform="scale(1 -1) rotate(-30)" y="-26.738" x="62.535" height="135.764" width="45.414" style="marker:none" fill="#1c71d8" enable-background="new"/><rect style="marker:none" width="45.414" height="135.764" x="149.138" y="23.262" transform="scale(1 -1) rotate(-30)" rx="0" ry="0" fill="#1c71d8" enable-background="new"/><rect ry="0" rx="0" transform="scale(1 -1) rotate(-30)" y="73.262" x="235.74" height="135.764" width="45.414" style="marker:none" fill="#1c71d8" enable-background="new"/><rect style="marker:none" width="45.414" height="135.764" x="322.343" y="123.262" transform="scale(1 -1) rotate(-30)" rx="0" ry="0" fill="#1c71d8" enable-background="new"/><rect ry="0" rx="0" transform="scale(1 -1) rotate(-30)" y="173.262" x="408.945" height="135.764" width="45.414" style="marker:none" fill="#1c71d8" enable-background="new"/></g><g clip-path="url(#r)" transform="matrix(.25 0 0 .25 -8.019 218.083)"><rect ry="0" rx="0" y="-48.454" x="64" height="56.232" width="448" style="marker:none" fill="#fff"/><rect style="marker:none" width="45.414" height="135.764" x="62.535" y="-26.738" transform="scale(1 -1) rotate(-30)" rx="0" ry="0" fill="#1c71d8" enable-background="new"/><rect ry="0" rx="0" transform="scale(1 -1) rotate(-30)" y="23.262" x="149.138" height="135.764" width="45.414" style="marker:none" fill="#1c71d8" enable-background="new"/><rect style="marker:none" width="45.414" height="135.764" x="235.74" y="73.262" transform="scale(1 -1) rotate(-30)" rx="0" ry="0" fill="#1c71d8" enable-background="new"/><rect ry="0" rx="0" transform="scale(1 -1) rotate(-30)" y="123.262" x="322.343" height="135.764" width="45.414" style="marker:none" fill="#1c71d8" enable-background="new"/><rect style="marker:none" width="45.414" height="135.764" x="408.945" y="173.262" transform="scale(1 -1) rotate(-30)" rx="0" ry="0" fill="#1c71d8" enable-background="new"/></g><path d="M7.981 205.306c0-2.668 2.745-5.334 5.334-5.334 0 0 10.666 10.59 10.666 10.667v5.333h-16z" fill="#62a0ea" enable-background="new"/><circle r="1.25" cy="213.249" cx="10.997" style="marker:none" fill="#241f31" enable-background="new"/><circle style="marker:none" cx="10.997" cy="205.266" r="1.25" fill="#241f31" enable-background="new"/><circle style="marker:none" cx="10.997" cy="212.943" r="1.25" fill="#f6f5f4" enable-background="new"/><circle r="1.25" cy="204.961" cx="10.997" style="marker:none" fill="#f6f5f4" enable-background="new"/><circle style="marker:none" cx="20.888" cy="213.222" r="1.25" fill="#241f31" enable-background="new"/><circle r="1.25" cy="212.917" cx="20.888" style="marker:none" fill="#f6f5f4" enable-background="new"/></g><g fill="#f6f5f4"><path style="marker:none" d="M26 244h76c1.062 0 2 .936 2 2H24c0-1.108.983-2 2-2z" enable-background="new"/><path style="marker:none" enable-background="new" d="M48 232v14h-2v-14zM82 232v14h-2v-14zM24 262h80c0 1.054-.913 2-2 2H26c-.985 0-2-1.03-2-2z"/></g></g></svg>

