<svg xmlns="http://www.w3.org/2000/svg" xmlns:xlink="http://www.w3.org/1999/xlink" width="1200" height="600"><defs><linearGradient id="a"><stop offset="0" stop-color="#d5d1cc"/><stop offset=".183" stop-color="#f6f5f4"/><stop offset=".395" stop-color="#fff"/><stop offset=".784" stop-color="#d7d3ce"/><stop offset="1" stop-color="#c8c2bb"/></linearGradient><linearGradient xlink:href="#a" id="o" gradientUnits="userSpaceOnUse" gradientTransform="matrix(.26458 0 0 -.26458 633.225 479.52)" x1="37" y1="249" x2="37" y2="254"/><linearGradient xlink:href="#b" id="l" gradientUnits="userSpaceOnUse" gradientTransform="translate(804 -220.033)" x1="144.906" y1="245.525" x2="159.094" y2="298.475"/><linearGradient id="b"><stop offset="0" stop-color="#2e3436"/><stop offset="1" stop-color="#555753"/></linearGradient><linearGradient gradientTransform="translate(889.957 177.037) scale(.80683)" gradientUnits="userSpaceOnUse" y2="86" x2="85" y1="107.162" x1="85" id="k" xlink:href="#c"/><linearGradient id="c"><stop offset="0" stop-color="#eef4fc"/><stop offset="1" stop-color="#fff"/></linearGradient><linearGradient y2="254" x2="37" y1="249" x1="37" gradientTransform="matrix(.26458 0 0 .26458 633.225 349.875)" gradientUnits="userSpaceOnUse" id="n" xlink:href="#a"/><linearGradient gradientUnits="userSpaceOnUse" y2="234" x2="44" y1="234" x1="66" id="h" xlink:href="#d"/><linearGradient id="d"><stop offset="0" stop-color="#fff"/><stop offset="1" stop-color="#648cf9" stop-opacity="0"/></linearGradient><clipPath clipPathUnits="userSpaceOnUse" id="j"><path d="M96.504 52.927c10.224 13.91 20.11 38.975 12.212 57.59C101.892 126.603 85.626 134 72 134c-17.296 0-35.251-9.851-38.379-28.04-4.784-27.822 26.136-38 26.136-55.97 0-15.33-8.568-25.061-8.568-25.061 22.009 1.916 40.085 18.184 37.165 46.565 5.43-5.261 6.607-12.809 8.15-18.567z" fill="url(#radialGradient1189)" stroke-width="2.786" stroke-linecap="square" stroke-linejoin="round" stroke-dasharray="8.35714285,8.35714285"/></clipPath><clipPath id="m" clipPathUnits="userSpaceOnUse"><rect ry="32" rx="32" y="-116" x="32" height="358.794" width="448.707" fill="#26a269" stroke-linejoin="round" stroke-dasharray="4,2"/></clipPath><clipPath id="g" clipPathUnits="userSpaceOnUse"><rect transform="scale(-1)" style="marker:none" width="96" height="90" x="-110" y="-290" rx="0" ry="0" fill="#e66100" stroke-width=".004" enable-background="new"/></clipPath><clipPath clipPathUnits="userSpaceOnUse" id="q"><path style="marker:none" d="M64-40.445h448v32.223H96c-15.592 0-32-17.02-32-32.223z" fill="#e4e6e8" stroke-width="24"/></clipPath><clipPath id="p" clipPathUnits="userSpaceOnUse"><path d="M64-148h64l64-64 64 64h192c17.728 0 32 14.272 32 32v288c0 17.728-14.272 32-32 32H256l-64-64-64 64H64c-17.728 0-32-14.272-32-32v-288c0-17.728 14.409-34.199 32-32z" style="marker:none" fill="none" stroke="#000" stroke-width="4" stroke-linecap="round" stroke-linejoin="round" enable-background="new"/></clipPath><clipPath clipPathUnits="userSpaceOnUse" id="r"><rect ry="0" rx="0" y="-40.445" x="64" height="32.222" width="448" style="marker:none" fill="#e4e6e8" stroke-width="24"/></clipPath><filter id="e" x="-.016" width="1.032" y="-.015" height="1.03" color-interpolation-filters="sRGB"><feGaussianBlur stdDeviation="1.702"/></filter><filter height="1.037" y="-.018" width="1.468" x="-.234" id="i" color-interpolation-filters="sRGB"><feGaussianBlur stdDeviation="2.342"/></filter></defs><g transform="translate(49.34 156.185)"><path d="M550.659 14.303c-21.81 0-39.523 17.713-39.524 39.524h-88.931v217.386a19.721 19.721 0 0019.763 19.764h217.385a19.721 19.721 0 0019.764-19.764V53.827h-88.932c0-21.81-17.715-39.524-39.525-39.524zm0 9.88c16.507 0 29.643 13.136 29.644 29.644h-59.287c.001-16.508 13.136-29.643 29.643-29.643z" opacity=".373" filter="url(#e)" enable-background="new"/><rect ry="19.762" rx="19.762" y="180.868" x="422.205" height="108.693" width="256.911" fill="#98c1f1" enable-background="new"/><path style="marker:none" fill="#e7f0fc" enable-background="new" d="M422.205 52.412h256.911v217.386H422.205z"/><g transform="matrix(2.4703 0 0 2.4703 392.561 -421.885)" fill="#1a5fb4"><circle r="5" cy="201" cx="50"/><circle cx="78" cy="201" r="5"/></g><path d="M516.076 72.175V52.412c0-19.16 15.425-34.584 34.584-34.584 19.16 0 34.585 15.425 34.585 34.584v19.763" fill="none" stroke="#62a0ea" stroke-width="9.881" stroke-linecap="round" stroke-linejoin="round" enable-background="new"/><path d="M550.66 111.7a49.406 49.406 0 00-49.406 49.405 49.406 49.406 0 0049.406 49.406 49.406 49.406 0 0049.406-49.406A49.406 49.406 0 00550.66 111.7zm-19.762 24.702a4.94 4.94 0 014.94 4.941 4.94 4.94 0 01-4.94 4.94 4.94 4.94 0 01-4.94-4.94 4.94 4.94 0 014.94-4.94zm19.762 0a4.94 4.94 0 014.94 4.941 4.94 4.94 0 01-4.94 4.94 4.94 4.94 0 01-4.94-4.94 4.94 4.94 0 014.94-4.94zm19.763 0a4.94 4.94 0 014.94 4.941 4.94 4.94 0 01-4.94 4.94 4.94 4.94 0 01-4.94-4.94 4.94 4.94 0 014.94-4.94zm-39.525 19.763a4.94 4.94 0 014.94 4.94 4.94 4.94 0 01-4.94 4.941 4.94 4.94 0 01-4.94-4.94 4.94 4.94 0 014.94-4.941zm19.762 0a4.94 4.94 0 014.94 4.94 4.94 4.94 0 01-4.94 4.941 4.94 4.94 0 01-4.94-4.94 4.94 4.94 0 014.94-4.941zm19.763 0a4.94 4.94 0 014.94 4.94 4.94 4.94 0 01-4.94 4.941 4.94 4.94 0 01-4.94-4.94 4.94 4.94 0 014.94-4.941zm-39.525 19.762a4.94 4.94 0 014.94 4.94 4.94 4.94 0 01-4.94 4.941 4.94 4.94 0 01-4.94-4.94 4.94 4.94 0 014.94-4.94zm19.762 0a4.94 4.94 0 014.94 4.94 4.94 4.94 0 01-4.94 4.941 4.94 4.94 0 01-4.94-4.94 4.94 4.94 0 014.94-4.94zm19.763 0a4.94 4.94 0 014.94 4.94 4.94 4.94 0 01-4.94 4.941 4.94 4.94 0 01-4.94-4.94 4.94 4.94 0 014.94-4.94z" style="marker:none" fill="#3584e4" enable-background="new"/></g><g opacity=".317" fill="#3584e4" stroke-width=".668"><path d="M515.399 38.615l-33.215 33.227 26.321 14.732 31.962-10.344V64.946z" style="marker:none" color="#000" overflow="visible" fill="#fff" enable-background="new"/><path d="M514.875 36.69c-3.018 0-5.955 1.128-8.268 3.516l-41.131 42.41a12.515 12.515 0 00-3.514 8.482v.206c0 9.089 24.264.266 26.456 11.378 1.187 6.014-13.228 3.26-13.228 9.31 0 7.098 20.404 2.217 26.25 8.068 2.401 5.851-7.811 4.907-5.994 10.344 3.425 3.537 11.128 1.531 12.608 7.24 1.69 6.522 12.762 5.397 19.222.62 3.425-3.537-5.284-5.152-1.86-8.689 3.425-3.537 20.34-2.822 20.463-10.55-1.617-4.856-7.964-5.64-8.061-11.379-.34-4.86 5.197-3.438 22.736-8.275 7.012-3.29 7.26-5.039 7.234-8.068v-.206c-.04-3.055-1.454-6.142-3.72-8.482l-40.925-42.41c-2.313-2.388-5.25-3.517-8.268-3.517zm.827 8.895c3.107.027 11.624 10.54 19.222 18.412 2.137 2.86-.827 5.793-.827 5.793l-15.915-8.69-7.028 9.517-6.2-9.31-3.72 14.482-10.955-6.62 2.893-3.724 17.156-17.584c1.316-1.338 2.323-2.3 5.374-2.276zm47.125 63.718c-.836-.027-1.679.04-2.273.206-1.121.324-6.432.512-5.994 4.551 4.811 2.019 12.147 3.626 13.021-.413.657-3.028-2.246-4.251-4.754-4.344zm-82.056 13.447c-.467.053-.784.24-1.24.413-3.649 1.389-6.096 4.31-2.687 5.586 3.41 1.276 5.692-.073 8.68-1.655 2.99-1.584 2.904-1.872 2.688-2.483-.414.083-3.132-1.61-5.994-1.862a7.51 7.51 0 00-1.447 0z" fill-rule="evenodd" stroke-width=".46"/></g><g transform="matrix(.80709 0 0 .80709 124.136 45.945)" opacity=".317" stroke-width=".505"><rect style="marker:none" width="98.04" height="120.322" x="14.98" y="173.839" rx="4.501" ry="4.501" fill="#fff" stroke="#3584e4" stroke-width="3.189"/><path d="M28 183.125c-2.216 0-4 1.784-4 4V216h80v-28.875c0-2.216-1.784-4-4-4zM24 218v30h80v-30zm0 32v29c0 2.216 1.784 4 4 4h72c2.216 0 4-1.784 4-4v-29z" style="marker:none" fill="#3584e4" enable-background="new"/><g fill="#fff"><path d="M55 196c-1.662 0-3 1.338-3 3v5h4.031l-.015-2H72v2h4v-5c0-2-1.338-3-3-3zM55 229.333c-1.662 0-3 1.338-3 3v5h4.031l-.015-2H72v2h4v-5c0-2-1.338-3-3-3zM55 259.636c-1.662 0-3 1.338-3 3v5h4.031l-.015-2H72v2h4v-5c0-2-1.338-3-3-3z" style="marker:none"/></g></g><g transform="matrix(3.35827 0 0 3.35827 -1896.854 -1139.302)" opacity=".317"><use height="100%" width="100%" transform="matrix(-1 0 0 1 1334.712 0)" xlink:href="#f" enable-background="new"/><path style="marker:none" id="f" display="inline" opacity="1" vector-effect="none" fill="#3584e4" fill-opacity="1" stroke="none" stroke-width=".971" stroke-linecap="butt" stroke-linejoin="miter" stroke-miterlimit="4" stroke-dasharray="none" stroke-dashoffset="0" stroke-opacity="1" enable-background="new" d="M672.648 401.204h2.117v4.233h-2.117z"/><circle style="marker:none" cx="667.356" cy="413.375" r="12.171" fill="#3584e4" enable-background="new"/><circle cx="-147.774" cy="219.223" r="36" transform="matrix(.25557 .06848 .06848 -.25557 690.11 479.52)" enable-background="new" fill="#fff"/><path style="marker:none" d="M667.356 407.554l-1.587 3.175h3.175z" fill="#3584e4" fill-rule="evenodd" enable-background="new"/><circle style="marker:none" r="3.704" cy="413.904" cx="667.356" fill="#3584e4" enable-background="new"/><g stroke="#1a5fb4" fill="none" stroke-width="2"><path d="M667.356 422.37v-1.587M667.356 405.967v-1.588M676.352 413.375h-1.588M659.948 413.375h-1.588M660.995 419.736l1.123-1.122M672.595 408.137l1.122-1.123M673.717 419.736l-1.122-1.122M662.118 408.137l-1.123-1.123" stroke-width=".52916"/></g><g opacity=".2" fill="#1a5fb4" stroke="#1a5fb4"><path d="M665.601 422.198l.207-1.038M668.905 405.59l.206-1.038M676.179 415.13l-1.038-.206M659.571 411.827l-1.038-.207M659.876 418.373l.88-.588M673.956 408.965l.88-.588M672.354 420.855l-.588-.88M662.946 406.775l-.588-.88M663.913 421.686l.405-.978M670.394 406.042l.405-.978M675.667 416.818l-.978-.405M660.023 410.338l-.978-.405M659.045 416.818l.978-.405M674.69 410.338l.977-.405M670.799 421.686l-.405-.978M664.318 406.042l-.405-.978M662.358 420.855l.588-.88M671.766 406.775l.588-.88M674.836 418.373l-.88-.588M660.756 408.965l-.88-.588M658.533 415.13l1.038-.206M675.141 411.827l1.038-.207M669.111 422.198l-.206-1.038M665.808 405.59l-.207-1.038" stroke-width=".26458"/></g><path style="line-height:normal;font-variant-ligatures:normal;font-variant-position:normal;font-variant-caps:normal;font-variant-numeric:normal;font-variant-alternates:normal;font-feature-settings:normal;text-indent:0;text-align:start;text-decoration-line:none;text-decoration-style:solid;text-decoration-color:#000;text-transform:none;text-orientation:mixed;white-space:normal;shape-padding:0;isolation:auto;mix-blend-mode:normal;solid-color:#000;solid-opacity:1;marker:none" d="M667.355 393.797c-4.079 0-7.408 3.33-7.408 7.408h2.117a5.276 5.276 0 015.291-5.293 5.278 5.278 0 015.293 5.293h2.116c0-4.079-3.33-7.408-7.409-7.408z" color="#000" font-weight="400" font-family="sans-serif" overflow="visible" fill="#3584e4" enable-background="new"/></g><g transform="matrix(5.05182 0 0 5.05182 -3148.33 -1944.976)" opacity=".317" stroke-width="1.104"><path style="marker:none" d="M683.427 394.945c-.755 0-1.364.609-1.364 1.364v12.277c0 .756.609 1.364 1.364 1.364h8.442v-15.005z" fill="#3584e4" enable-background="new"/><path style="marker:none" d="M685.219 403.13v.852h.852M685.9 403.3v1.364" fill="none" stroke="#fff" stroke-width=".377" enable-background="new"/><g fill="none" stroke="#fff" stroke-width="2.208"><path style="marker:none" d="M686.753 403.13h.512v.682h-.512zM686.412 403.812h1.023v.682h-1.023z" stroke-width=".37648608"/></g><path style="marker:none" d="M688.117 403.13h.682v.682h-.682v.682h.853M689.993 404.494h.341v-1.364h-.853v.682h.853" fill="none" stroke="#fff" stroke-width=".377" enable-background="new"/><path style="marker:none" fill="#95bef1" enable-background="new" d="M684.025 406.881h5.456v1.364h-5.456z"/><path style="marker:none" fill="#deddda" enable-background="new" d="M684.025 405.517h3.41v.682h-3.41z"/><path style="marker:none" d="M691.57 394.945v15.005h6.778v-2.046h2.728v-10.913h-2.728v-2.046z" fill="#3584e4" enable-background="new"/><path style="marker:none" fill="#fff" enable-background="new" d="M692.892 402.448h2.728v2.728h-2.728z"/><path style="marker:none" fill="#deddda" enable-background="new" d="M695.62 402.448h2.728v2.728h-2.728z"/><g clip-path="url(#g)" transform="matrix(-.1705 0 0 .1705 702.76 360.843)"><path style="marker:none" fill="url(#h)" d="M32 200h34v88H32z"/><path transform="matrix(-.33333 0 0 -.3787 194.09 258.312)" d="M372.268-113.052v304h24v-304z" style="line-height:normal;font-variant-ligatures:normal;font-variant-position:normal;font-variant-caps:normal;font-variant-numeric:normal;font-variant-alternates:normal;font-feature-settings:normal;text-indent:0;text-align:start;text-decoration-line:none;text-decoration-style:solid;text-decoration-color:#000;text-transform:none;text-orientation:mixed;white-space:normal;shape-padding:0;isolation:auto;mix-blend-mode:normal;solid-color:#000;solid-opacity:1" color="#000" font-weight="400" font-family="sans-serif" overflow="visible" fill="#6bf9f4" filter="url(#i)" enable-background="new"/><path style="line-height:normal;font-variant-ligatures:normal;font-variant-position:normal;font-variant-caps:normal;font-variant-numeric:normal;font-variant-alternates:normal;font-feature-settings:normal;text-indent:0;text-align:start;text-decoration-line:none;text-decoration-style:solid;text-decoration-color:#000;text-transform:none;text-orientation:mixed;white-space:normal;shape-padding:0;isolation:auto;mix-blend-mode:normal;solid-color:#000;solid-opacity:1" d="M68 301.125V186h-4v115.125z" color="#000" font-weight="400" font-family="sans-serif" overflow="visible" fill="#fff" enable-background="new"/></g><path style="marker:none" fill="#73aaec" enable-background="new" d="M695.62 405.176h2.728v2.728h-2.728z"/><rect width="3.41" height="3.41" x="764.859" y="-204.427" style="marker:none" rx=".74" ry=".74" transform="rotate(45)" fill="#8fbbf0" enable-background="new"/><rect transform="rotate(45)" ry=".74" rx=".74" y="-206.115" x="766.547" height="3.41" width="3.41" fill="#fff" enable-background="new"/><path style="marker:none" d="M686.583 397.479l-.744.744a.668.668 0 000 .947l.744.744.744-.744a.668.668 0 000-.947z" fill="#3584e4" enable-background="new"/></g><g transform="translate(-1053.965 -1050.483) scale(3.05594)" opacity=".317"><rect ry=".78" rx="1.151" y="360.718" x="664.247" height="4.681" width="5.757" style="marker:none" fill="#3584e4" enable-background="new"/><rect ry="2.117" rx="2.108" y="360.794" x="666.666" height="25.332" width="27.518" style="marker:none" fill="#3584e4" enable-background="new"/><rect ry="2.117" rx="2.11" y="358.59" x="666.643" height="26.484" width="27.542" style="marker:none" fill="#3584e4" enable-background="new"/><rect ry="0" rx="0" y="360.794" x="668.744" height="22.151" width="23.317" style="marker:none" fill="#fff" enable-background="new"/><path d="M676.337 364.824v6.975h-5.218l9.23 9.145 9.23-9.145h-5.182v-6.975z" style="marker:none" fill="#3584e4" enable-background="new"/><rect ry="0" rx="0" y="363.097" x="668.852" height=".576" width="23.03" style="marker:none" fill="#aaa" enable-background="new"/><path d="M667.536 358.49c8.12-1.389 16.585-1.675 25.662 0 1.165.216 2.138 1.028 2.138 2.304v4.605c0 1.276-.969 2.114-2.138 2.303-9.107 1.476-17.705 1.594-25.662 0-1.161-.232-2.138-1.027-2.138-2.303v-4.605c0-1.276.97-2.104 2.138-2.303z" style="marker:none" fill="#3584e4" stroke-width=".643"/></g><g opacity=".317"><path d="M1010.954 243.624h-13.719v15.434l13.72 13.718 6.858-15.433z" style="marker:none" fill="#c061cb" enable-background="new"/><path d="M1038.391 243.624l-20.578 6.86-6.859 20.577v1.715l8.869 8.869a6.843 6.843 0 009.7 0l22.599-22.6-.002-1.712-1.725-11.994z" style="marker:none" fill="#3584e4" enable-background="new"/><path style="marker:none" d="M1010.954 216.187l3.43-10.289 10.289-3.43 6.859 13.719-6.86 13.719-12.003-1.715z" fill="#85b5ef" enable-background="new"/><path d="M1038.391 243.624l13.73 13.708 6.848-13.708-6.86-13.718-10.288 3.43z" style="marker:none" fill="#fff" enable-background="new"/><path style="marker:none" d="M1024.673 229.906l6.859-20.578 20.578-6.86 6.86 17.149-6.86 10.289-13.719 13.718h-13.718z" fill="#85b5ef" enable-background="new"/><path style="marker:none" d="M1038.391 243.624l-27.437 27.437v-27.437l3.43-10.289 10.289-3.43z" fill="#fff" enable-background="new"/><path style="marker:none" d="M1024.673 202.468l3.43-11.146 10.288-2.572 13.719 13.718-27.437 27.438z" fill="#fff" enable-background="new"/><path d="M997.262 202.442l-11.488 11.488-11.392 11.42a6.811 6.811 0 00-1.742 4.556h-.002v1.714h.002a6.818 6.818 0 002.008 4.85l8.869 8.869v-1.715l20.578-6.86 6.86-20.577-3.43-10.289z" style="marker:none" fill="#3584e4" enable-background="new"/><path d="M1024.673 177.866a6.836 6.836 0 00-4.85 2.015l-22.588 22.587 13.72 6.86 13.718-6.86 13.707-13.73-8.858-8.857a6.836 6.836 0 00-4.85-2.015z" style="marker:none" fill="#85b5ef" enable-background="new"/><path d="M1052.11 202.468l-.057 29.067 13.789 13.79 8.855-8.855a6.818 6.818 0 002.008-4.85h.002v-1.714h-.002a6.817 6.817 0 00-2.008-4.85z" style="marker:none" fill="#3584e4" enable-background="new"/><path style="marker:none" d="M1024.673 202.468l13.718 13.719 13.719-13.719-13.719-13.718z" fill="#3584e4" enable-background="new"/><path d="M997.235 202.468l13.72 13.719 13.718-13.719z" style="marker:none" fill="#fff" enable-background="new"/><path d="M1052.11 229.906l.013 29.14 13.707-13.707v-1.7z" style="marker:none" fill="#85b5ef" enable-background="new"/><path d="M997.256 229.885l-13.74 13.74v1.714l13.72 13.719v-1.715l13.718-13.719-3.43-10.289z" style="marker:none" fill="#fff" enable-background="new"/><path d="M1024.673 229.906l-13.719 13.718-13.699-13.738 13.7-6.84z" style="marker:none" fill="#3584e4" enable-background="new"/><path style="marker:none" d="M1024.673 229.906l-13.719-13.72-13.719 13.72z" fill="#85b5ef" enable-background="new"/><path d="M972.638 229.906v1.714h.002a6.818 6.818 0 002.008 4.85l45.175 45.175a6.843 6.843 0 009.7 0l45.174-45.175a6.818 6.818 0 002.008-4.85h.002v-1.714h-.002a6.817 6.817 0 01-2.008 4.85l-45.175 45.174a6.843 6.843 0 01-9.699 0l-45.175-45.175a6.818 6.818 0 01-2.008-4.85z" style="marker:none" opacity=".2" enable-background="new"/></g><g opacity=".317" stroke-width=".755"><path d="M192.569 409.976c-14.784 0-26.768-11.304-26.768-25.247 0-13.942 11.984-25.247 26.768-25.247 14.785 0 26.769 11.305 26.769 25.247 0 13.943-11.984 25.247-26.77 25.247z" fill="#fff"/><path d="M177.156 381.884c.196-3.542 1.935-6.667 4.552-8.88 2.572-2.177 6.027-3.506 9.8-3.506 3.773 0 7.228 1.329 9.799 3.505 2.617 2.214 4.354 5.34 4.554 8.88.2 3.645-1.264 7.032-3.832 9.537-2.618 2.553-6.349 4.157-10.521 4.157-4.173 0-7.906-1.604-10.524-4.157-2.568-2.507-4.03-5.892-3.827-9.536" style="marker:none" fill="#3584e4"/><path d="M154.296 389.056c.024 1.384.468 4.08 1.131 6.189 1.395 4.456 3.762 8.578 7.057 12.214a36.478 36.478 0 0012.342 8.861 39.683 39.683 0 0016.211 3.373 39.806 39.806 0 0016.206-3.427c4.804-2.15 8.96-5.158 12.338-8.9 3.288-3.647 5.652-7.78 7.05-12.238a31.114 31.114 0 001.323-6.831 31.09 31.09 0 00-.218-6.784 31.548 31.548 0 00-4.498-12.311 34.501 34.501 0 00-8.206-9.05l.005-.004-33.208-25.502-.085-.068c-2.183-1.67-5.847-1.666-8.242.011-2.425 1.697-2.698 4.498-.544 6.27l-.006.006 13.849 11.267-42.221.043h-.06c-3.488.001-6.839 2.295-7.507 5.186-.678 2.95 1.694 5.394 5.318 5.41v.01l21.397-.04-38.188 29.31-.146.11c-3.6 2.757-4.767 7.346-2.5 10.249 2.306 2.954 7.2 2.957 10.842.014l20.84-17.053s-.301 2.304-.28 3.685zm53.552 7.706c-4.293 4.38-10.3 6.859-16.812 6.87-6.51.015-12.522-2.446-16.817-6.816a19.979 19.979 0 01-4.592-7.185 18.69 18.69 0 01-1.055-8.027 18.984 18.984 0 012.304-7.56 20.878 20.878 0 015.11-6.075c4.172-3.403 9.483-5.243 15.046-5.25 5.563-.007 10.875 1.818 15.047 5.207a20.78 20.78 0 015.11 6.055 19.027 19.027 0 012.304 7.555 18.704 18.704 0 01-1.056 8.026 20.088 20.088 0 01-4.59 7.2" style="marker:none" fill="#3584e4"/></g><g opacity=".317"><path d="M878.755 352.964c9.915 13.49 19.501 37.796 11.843 55.849-6.618 15.6-22.393 22.772-35.606 22.772-16.774 0-34.186-9.553-37.219-27.192-4.639-26.981 25.346-36.851 25.346-54.278 0-14.866-8.309-24.303-8.309-24.303 21.343 1.858 38.873 17.634 36.041 45.157 5.265-5.102 6.408-12.421 7.904-18.005z" style="marker:none" fill="#3584e4"/><g clip-path="url(#j)" transform="matrix(.96977 0 0 .96977 785.168 301.637)"><path d="M70.441 135.596c6.19-11.614-30.82-15.722-15.6-46.13 4.782-9.555 18.874-14.95 19.445-29.37 13.223 13.444 3.023 27.078 12.32 37.77 17.896 20.584-13.794 41.825-16.165 37.73z" style="marker:none" fill="#9fc5f2"/><path d="M73.186 133.812c14.48-11.366-8.729-8.355-2.515-29.162 3.735-12.506 15.826-3.73 24.697-17.677 2.144 7.573 2.357 18.743.345 25.12-2.9 9.194-21.34 26.129-22.527 21.72z" style="marker:none" opacity=".442" fill="#afcef4"/><path d="M70.5 136.64s1.474-8.705-5.564-17.437c-11.284-15.353-2.989-27.06 10.375-35.375-.001 0-4.136 11.26 3.917 20.25 15.739 17.573-6.874 36.27-8.728 32.561z" fill="#fff" fill-opacity=".551"/></g></g><g transform="matrix(.2039 0 0 .2039 464.578 512.307)" opacity=".317"><rect ry="32" rx="32" y="4" x="32" height="240" width="448" style="marker:none" fill="#3584e4"/><rect style="marker:none" width="448" height="240" x="32" y="-116" rx="32" ry="32" fill="#acccf4"/><path style="marker:none" fill="#3584e4" d="M64-84h384V92H64z"/><circle cx="256" cy="4" r="56" fill="#57e389"/><g fill="#acccf4"><circle style="marker:none" cx="64" cy="-84" r="32"/><circle r="32" cy="92" cx="64" style="marker:none"/><circle r="32" cy="-84" cx="448" style="marker:none"/><circle style="marker:none" cx="448" cy="92" r="32"/></g><rect style="marker:none" width="192" height="80" x="160" y="-36" rx="24" ry="24" fill="#acccf4"/><g fill="#f6f5f4" stroke-width="1.414"><path d="M208-116h96v360h-96z"/><path fill="#d5d3cf" d="M208 124h96v120h-96z"/></g><path d="M440 68c-17.673 0-37.589 15.234-32 32l8 24 56-56z" opacity=".1" enable-background="new"/><path d="M448 60c-17.673 0-32 14.327-32 32v32l64-64z" fill="#fff" enable-background="new"/></g><g transform="translate(80.527 156.185)" opacity=".317"><path style="marker:none" fill="#3584e4" enable-background="new" d="M910.934 189.946h71.001v71.001h-71.001z"/><path style="marker:none" fill="#3584e4" enable-background="new" d="M996.459 225.447l-50.024 50.024-50.023-50.024 50.023-50.023z"/><circle cy="225.447" cx="946.435" style="marker:none" fill="#9cc3f2" enable-background="new" r="38.728"/><path style="marker:none" d="M967.413 231.902a16.133 16.133 0 00-14.65 9.414 12.104 12.104 0 00-5.521-1.346c-6.366.005-11.638 4.945-12.061 11.297h-.042a8.067 8.067 0 00-7.393 4.84h-.676v3.228a8.068 8.068 0 008.069 8.068h45.182a9.682 9.682 0 009.682-9.682v-3.227h-.57a9.682 9.682 0 00-5.913-5.9l.028-.555c0-8.912-7.224-16.137-16.136-16.137z" fill="#fff" enable-background="new"/><path d="M967.413 228.674a16.133 16.133 0 00-14.65 9.414 12.104 12.104 0 00-5.521-1.345c-6.366.005-11.638 4.945-12.061 11.297l-.042-.001a8.068 8.068 0 000 16.137h45.182a9.682 9.682 0 009.682-9.683 9.682 9.682 0 00-6.483-9.127l.028-.554c0-8.912-7.224-16.137-16.136-16.137z" fill="url(#k)" enable-background="new"/></g><g opacity=".317"><path d="M295.385 390.222c6.108 20.374 25 35.217 47.361 35.217 27.305 0 49.44-22.134 49.44-49.44 0-27.301-22.135-49.435-49.44-49.435-26.198 0-47.639 20.38-49.333 46.153 3.203 5.373 4.451 8.695 1.972 17.501z" style="marker:none" fill="#3584e4"/><path d="M340.204 363.617v.244l-12.096 17.574a13.552 13.552 0 00-5.792 1.024 13.453 13.453 0 00-2.311 1.221l-26.569-10.936s-.614 10.114 1.949 17.65l18.779 7.75a13.697 13.697 0 0026.023 2.298 13.77 13.77 0 001.057-5.647l17.31-12.37.425.007c10.36 0 18.78-8.443 18.78-18.815 0-10.369-8.42-18.809-18.78-18.809-10.355 0-18.778 8.437-18.778 18.809zm-2.906 35.613a10.586 10.586 0 01-13.832 5.706 10.517 10.517 0 01-5.446-5.194l6.116 2.536a7.8 7.8 0 005.99-14.397l-6.32-2.622a10.514 10.514 0 017.8.119 10.5 10.5 0 015.712 5.745 10.544 10.544 0 01-.02 8.107m21.681-23.078a12.538 12.538 0 01-12.511-12.535c0-6.905 5.613-12.532 12.511-12.532 6.902 0 12.515 5.627 12.515 12.532 0 6.911-5.613 12.535-12.515 12.535m-9.374-12.555a9.41 9.41 0 019.394-9.414 9.41 9.41 0 019.401 9.414 9.408 9.408 0 01-9.4 9.414 9.404 9.404 0 01-9.395-9.41z" fill="#fff"/></g><g transform="matrix(.2346 0 0 .2346 606.244 504.58)" opacity=".317"><path style="marker:none" d="M1260 76c13.255 0 24 10.745 24 24v48l-24 24h-24v-72c0-13.255 10.745-24 24-24zM1148 76c-13.255 0-24 10.745-24 24v48l24 24h24v-72c0-13.255-10.745-24-24-24z" fill="#3584e4" enable-background="new"/><rect style="marker:none" width="96" height="112" x="1156" y="-20.033" rx="48" ry="48" fill="#3584e4"/><rect style="marker:none" width="144" height="160" x="1020" y="-156.033" rx="72" ry="72" fill="#3584e4"/><rect style="marker:none" width="176" height="192" x="868" y="-36.033" rx="88" ry="88" fill="#3584e4"/><path style="line-height:normal;font-variant-ligatures:normal;font-variant-position:normal;font-variant-caps:normal;font-variant-numeric:normal;font-variant-alternates:normal;font-feature-settings:normal;text-indent:0;text-align:start;text-decoration-line:none;text-decoration-style:solid;text-decoration-color:#000;text-transform:none;text-orientation:mixed;white-space:normal;shape-padding:0;isolation:auto;mix-blend-mode:normal;solid-color:#000;solid-opacity:1;marker:none" d="M1077.373-129.287l-11.314 11.314L894.746 53.34l67.88 67.88 182.628-182.626zm0 45.256L1100-61.406 962.627 75.967 940 53.34z" color="#000" font-weight="400" font-family="sans-serif" overflow="visible" fill="#3584e4" enable-background="new"/><path style="marker:none" fill="#3584e4" enable-background="new" d="M860 203.967h192v32H860z"/><g fill="#3584e4"><path style="line-height:normal;font-variant-ligatures:normal;font-variant-position:normal;font-variant-caps:normal;font-variant-numeric:normal;font-variant-alternates:normal;font-feature-settings:normal;text-indent:0;text-align:start;text-decoration-line:none;text-decoration-style:solid;text-decoration-color:#000;text-transform:none;text-orientation:mixed;white-space:normal;shape-padding:0;isolation:auto;mix-blend-mode:normal;solid-color:#000;solid-opacity:1;marker:none" d="M908 19.967v128c0 17.673-14.327 32-32 32h-16v32h192v-32h-16c-17.673 0-32-14.327-32-32v-128z" color="#000" font-weight="400" font-family="sans-serif" overflow="visible" enable-background="accumulate"/><path style="marker:none" enable-background="new" d="M860 179.967h192v32H860z"/></g><path style="line-height:normal;font-variant-ligatures:normal;font-variant-position:normal;font-variant-caps:normal;font-variant-numeric:normal;font-variant-alternates:normal;font-feature-settings:normal;text-indent:0;text-align:start;text-decoration-line:none;text-decoration-style:solid;text-decoration-color:#000;text-transform:none;text-orientation:mixed;white-space:normal;shape-padding:0;isolation:auto;mix-blend-mode:normal;solid-color:#000;solid-opacity:1;marker:none" d="M1204 18.996l-72.484 72.486 16.968 16.971L1204 52.937l55.516 55.516 16.968-16.97z" color="#000" font-weight="400" font-family="sans-serif" overflow="visible" fill="#619fea" enable-background="accumulate"/><circle r="48" cy="35.967" cx="1204" style="marker:none" fill="#3584e4" enable-background="new"/><path style="marker:none" d="M1260 68c13.255 0 24 10.745 24 24v48l-24 24h-24V92c0-13.255 10.745-24 24-24z" fill="#3584e4" enable-background="new"/><path style="line-height:normal;font-variant-ligatures:normal;font-variant-position:normal;font-variant-caps:normal;font-variant-numeric:normal;font-variant-alternates:normal;font-feature-settings:normal;text-indent:0;text-align:start;text-decoration-line:none;text-decoration-style:solid;text-decoration-color:#000;text-transform:none;text-orientation:mixed;white-space:normal;shape-padding:0;isolation:auto;mix-blend-mode:normal;solid-color:#000;solid-opacity:1;marker:none" d="M1077.373-137.287l-11.314 11.314L894.746 45.34l67.88 67.88 182.628-182.626zm0 45.256L1100-69.406 962.627 67.967 940 45.34z" color="#000" font-weight="400" font-family="sans-serif" overflow="visible" fill="#a3c7f3" enable-background="new"/><circle style="marker:none" cx="956" cy="59.967" r="88" fill="#3584e4" enable-background="new"/><circle style="marker:none" cx="956" cy="51.967" r="88" fill="#a3c7f3"/><path style="line-height:normal;font-variant-ligatures:normal;font-variant-position:normal;font-variant-caps:normal;font-variant-numeric:normal;font-variant-alternates:normal;font-feature-settings:normal;text-indent:0;text-align:start;text-decoration-line:none;text-decoration-style:solid;text-decoration-color:#000;text-transform:none;text-orientation:mixed;white-space:normal;shape-padding:0;isolation:auto;mix-blend-mode:normal;solid-color:#000;solid-opacity:1;marker:none" d="M1107.143-98.176l-28.286 28.285 128 128 28.286-28.285z" color="#000" font-weight="400" font-family="sans-serif" overflow="visible" fill="#619fea" enable-background="new"/><circle style="marker:none" cx="1092" cy="-76.033" r="72" fill="#3584e4" enable-background="new"/><circle style="marker:none" cx="1092" cy="-84.033" r="72" fill="#a3c7f3" enable-background="new"/><circle r="48" cy="27.967" cx="1204" style="marker:none" fill="#a3c7f3"/><circle style="marker:none" cx="1092" cy="-84.033" fill="#3584e4" enable-background="new" r="48"/><circle style="marker:none" cx="956" cy="51.967" r="56" fill="#3584e4" enable-background="new"/><circle style="marker:none" cx="956" cy="51.967" r="32" fill="url(#l)" enable-background="new"/><circle style="marker:none" cx="956" cy="51.967" r="32" fill="#619fea" enable-background="new"/><circle style="marker:none" cx="1092" cy="-84.033" r="24" fill="#619fea" enable-background="new"/><circle style="marker:none" cx="1204" cy="27.967" fill="#3584e4" enable-background="new" r="32"/><circle style="marker:none" cx="1204" cy="27.967" r="16" fill="#619fea" enable-background="new"/><circle r="8" style="marker:none" cx="1260" cy="92" fill="#a3c7f3" enable-background="new"/><path style="marker:none" d="M1148 68c-13.255 0-24 10.745-24 24v48l24 24h24V92c0-13.255-10.745-24-24-24z" fill="#3584e4" enable-background="new"/><circle r="8" style="marker:none" cx="-1148" cy="92" transform="scale(-1 1)" fill="#a3c7f3" enable-background="new"/></g><g transform="matrix(3.31967 0 0 3.31967 -1776.875 -853.755)" opacity=".317"><rect ry="32.051" rx="32" y="-85.781" x="30.021" height="328.574" width="448" style="marker:none" transform="matrix(.06615 0 0 .06604 622.772 412.422)" fill="#3584e4" enable-background="new"/><path d="M626.872 404.644c-1.171 0-2.114.947-2.114 2.124v19.035c0 1.177.943 2.124 2.114 2.124h25.406c1.17 0 2.113-.947 2.113-2.124v-19.035a2.114 2.114 0 00-2.113-2.124h-1.062a2.117 2.117 0 01-2.116 2.116 2.117 2.117 0 01-2.117-2.116z" style="marker:none" fill="#3584e4" enable-background="new"/><path d="M632.166 417.31v3.1l-1.168 1.167h-1.323l-1.742 1.743v3.25h.53v-3.031l1.432-1.433h1.323l1.478-1.478v-3.317z" style="line-height:normal;font-variant-ligatures:normal;font-variant-position:normal;font-variant-caps:normal;font-variant-numeric:normal;font-variant-alternates:normal;font-feature-settings:normal;text-indent:0;text-align:start;text-decoration-line:none;text-decoration-style:solid;text-decoration-color:#000;text-transform:none;text-orientation:mixed;white-space:normal;shape-padding:0;isolation:auto;mix-blend-mode:normal;solid-color:#000;solid-opacity:1" color="#000" font-weight="400" font-family="sans-serif" overflow="visible" fill="#fff" enable-background="accumulate"/><path d="M633.225 418.366v2.837l-2.646 2.646v2.226h.53v-2.007l2.645-2.646v-3.056z" style="line-height:normal;font-variant-ligatures:normal;font-variant-position:normal;font-variant-caps:normal;font-variant-numeric:normal;font-variant-alternates:normal;font-feature-settings:normal;text-indent:0;text-align:start;text-decoration-line:none;text-decoration-style:solid;text-decoration-color:#000;text-transform:none;text-orientation:mixed;white-space:normal;shape-padding:0;isolation:auto;mix-blend-mode:normal;solid-color:#000;solid-opacity:1" color="#000" font-weight="400" font-family="sans-serif" overflow="visible" fill="#fff" enable-background="accumulate"/><g clip-path="url(#m)" transform="matrix(.06615 0 0 .06604 622.772 412.422)" fill="#fff" stroke-width="1.001" paint-order="markers fill stroke"><path d="M402.021 182.22c6.648 0 12 5.351 12 12v56c0 6.647-5.352 12-12 12s-12-5.353-12-12v-56c0-6.649 5.352-12 12-12zm-40 0c6.648 0 12 5.351 12 12v56c0 6.647-5.352 12-12 12s-12-5.353-12-12v-56c0-6.649 5.352-12 12-12zm-40 0c6.648 0 12 5.351 12 12v56c0 6.647-5.352 12-12 12s-12-5.353-12-12v-56c0-6.649 5.352-12 12-12zm-40 0c6.648 0 12 5.351 12 12v56c0 6.647-5.352 12-12 12s-12-5.353-12-12v-56c0-6.649 5.352-12 12-12zm-40 0c6.648 0 12 5.351 12 12v56c0 6.647-5.352 12-12 12s-12-5.353-12-12v-56c0-6.649 5.352-12 12-12zm-40 0c6.648 0 12 5.351 12 12v56c0 6.647-5.352 12-12 12s-12-5.353-12-12v-56c0-6.649 5.352-12 12-12zm-40 0c6.648 0 12 5.351 12 12v56c0 6.647-5.352 12-12 12s-12-5.353-12-12v-56c0-6.649 5.352-12 12-12zm-40 0c6.648 0 12 5.351 12 12v56c0 6.647-5.352 12-12 12s-12-5.353-12-12v-56c0-6.649 5.352-12 12-12zm-40 0c6.648 0 12 5.351 12 12v56c0 6.647-5.352 12-12 12s-12-5.353-12-12v-56c0-6.649 5.352-12 12-12z"/><path d="M350.021 234.781h24v16h-24zm-40 0h24v16h-24zm-40 0h24v16h-24zm-40 0h24v16h-24zm-40 0h24v16h-24zm-40 0h24v16h-24zm-40 0h24v16h-24zm-40 0h24v16h-24z" enable-background="new"/><rect ry="0" rx="0" y="234.219" x="390.021" height="16" width="24" enable-background="new"/></g><path d="M624.758 425.539v.264c0 1.177.943 2.124 2.114 2.124h25.406c1.17 0 2.113-.947 2.113-2.124v-.264a2.114 2.114 0 01-2.113 2.124h-25.406a2.114 2.114 0 01-2.114-2.124z" fill="#fff" fill-opacity=".126" enable-background="new"/><path d="M636.4 418.402v3.55l2.116 2.116v1.213h.529v-1.431l-2.115-2.118v-3.33zM635.342 418.402v4.608l.53.53v1.741h.528v-1.96l-.529-.53v-4.389zM634.283 418.402v3.33l-1.058 1.059v2.49h.529v-2.271l1.058-1.059v-3.549z" style="line-height:normal;font-variant-ligatures:normal;font-variant-position:normal;font-variant-caps:normal;font-variant-numeric:normal;font-variant-alternates:normal;font-feature-settings:normal;text-indent:0;text-align:start;text-decoration-line:none;text-decoration-style:solid;text-decoration-color:#000;text-transform:none;text-orientation:mixed;white-space:normal;shape-padding:0;isolation:auto;mix-blend-mode:normal;solid-color:#000;solid-opacity:1" color="#000" font-weight="400" font-family="sans-serif" overflow="visible" fill="#fff" enable-background="new"/><rect ry=".794" rx=".794" y="412.317" x="631.108" height="6.085" width="7.938" style="marker:none" fill="#3584e4" enable-background="new"/><path d="M634.018 407.818v.53h2.802l.639.638v3.067h.527v-3.285l-.947-.95z" style="line-height:normal;font-variant-ligatures:normal;font-variant-position:normal;font-variant-caps:normal;font-variant-numeric:normal;font-variant-alternates:normal;font-feature-settings:normal;text-indent:0;text-align:start;text-decoration-line:none;text-decoration-style:solid;text-decoration-color:#000;text-transform:none;text-orientation:mixed;white-space:normal;shape-padding:0;isolation:auto;mix-blend-mode:normal;solid-color:#000;solid-opacity:1" color="#000" font-weight="400" font-family="sans-serif" overflow="visible" fill="#fff" enable-background="new"/><path d="M635.793 407.896l-.373.374.98.982v2.8h.53v-3.02z" style="line-height:normal;font-variant-ligatures:normal;font-variant-position:normal;font-variant-caps:normal;font-variant-numeric:normal;font-variant-alternates:normal;font-feature-settings:normal;text-indent:0;text-align:start;text-decoration-line:none;text-decoration-style:solid;text-decoration-color:#000;text-transform:none;text-orientation:mixed;white-space:normal;shape-padding:0;isolation:auto;mix-blend-mode:normal;solid-color:#000;solid-opacity:1" color="#000" font-weight="400" font-family="sans-serif" overflow="visible" fill="#fff" enable-background="new"/><path d="M634.47 407.896l-.374.374 1.246 1.246v2.537h.53v-2.756z" style="line-height:normal;font-variant-ligatures:normal;font-variant-position:normal;font-variant-caps:normal;font-variant-numeric:normal;font-variant-alternates:normal;font-feature-settings:normal;text-indent:0;text-align:start;text-decoration-line:none;text-decoration-style:solid;text-decoration-color:#000;text-transform:none;text-orientation:mixed;white-space:normal;shape-padding:0;isolation:auto;mix-blend-mode:normal;solid-color:#000;solid-opacity:1" color="#000" font-weight="400" font-family="sans-serif" overflow="visible" fill="#fff" enable-background="new"/><path d="M631.107 409.406v.53h2.801l.375.375v1.742h.53v-1.963l-.684-.684z" style="line-height:normal;font-variant-ligatures:normal;font-variant-position:normal;font-variant-caps:normal;font-variant-numeric:normal;font-variant-alternates:normal;font-feature-settings:normal;text-indent:0;text-align:start;text-decoration-line:none;text-decoration-style:solid;text-decoration-color:#000;text-transform:none;text-orientation:mixed;white-space:normal;shape-padding:0;isolation:auto;mix-blend-mode:normal;solid-color:#000;solid-opacity:1" color="#000" font-weight="400" font-family="sans-serif" overflow="visible" fill="#fff" enable-background="new"/><path d="M633.225 409.936v2.117h.529v-2.117zM632.166 409.936v2.117h.53v-2.117z" style="line-height:normal;font-variant-ligatures:normal;font-variant-position:normal;font-variant-caps:normal;font-variant-numeric:normal;font-variant-alternates:normal;font-feature-settings:normal;text-indent:0;text-align:start;text-decoration-line:none;text-decoration-style:solid;text-decoration-color:#000;text-transform:none;text-orientation:mixed;white-space:normal;shape-padding:0;isolation:auto;mix-blend-mode:normal;solid-color:#000;solid-opacity:1" color="#000" font-weight="400" font-family="sans-serif" overflow="visible" fill="#fff" enable-background="new"/><path d="M632.431 410.728a.264.264 0 00-.265.265v1.06h.53v-1.06a.264.264 0 00-.265-.265zm1.058 0a.264.264 0 00-.264.265v1.06h.529v-1.06a.264.264 0 00-.265-.265zm1.059 0a.264.264 0 00-.265.265v1.06h.53v-1.06a.264.264 0 00-.265-.265zm1.058 0a.264.264 0 00-.265.265v1.06h.53v-1.06a.264.264 0 00-.265-.265zm1.058 0a.264.264 0 00-.264.265v1.06h.529v-1.06a.264.264 0 00-.265-.265zm1.059 0a.264.264 0 00-.265.265v1.06h.53v-1.06a.264.264 0 00-.265-.265z" fill="#fff" paint-order="markers fill stroke" enable-background="new"/><rect style="marker:none" width="7.938" height="6.35" x="631.108" y="411.523" rx=".794" ry=".794" fill="#a3c7f3" enable-background="new"/><path d="M637.459 418.402v1.961l3.703 3.705v.95h.53v-1.168l-3.706-3.705v-1.743z" style="line-height:normal;font-variant-ligatures:normal;font-variant-position:normal;font-variant-caps:normal;font-variant-numeric:normal;font-variant-alternates:normal;font-feature-settings:normal;text-indent:0;text-align:start;text-decoration-line:none;text-decoration-style:solid;text-decoration-color:#000;text-transform:none;text-orientation:mixed;white-space:normal;shape-padding:0;isolation:auto;mix-blend-mode:normal;solid-color:#000;solid-opacity:1" color="#000" font-weight="400" font-family="sans-serif" overflow="visible" fill="#fff" enable-background="new"/><rect width="3.969" height=".529" x="632.166" y="413.11" rx="0" ry="0" paint-order="markers fill stroke" enable-background="new" fill="none"/><rect ry="0" rx="0" y="414.169" x="632.166" height="1.058" width="2.117" paint-order="markers fill stroke" enable-background="new" fill="none"/><rect width="2.91" height="1.058" x="634.548" y="414.169" rx="0" ry="0" paint-order="markers fill stroke" enable-background="new" fill="none"/><path d="M642.484 417.873a.796.796 0 00-.793.793c0 .435.358.795.793.795a.8.8 0 00.795-.795.798.798 0 00-.795-.793zm0 .53a.26.26 0 01.266.263c0 .15-.116.266-.266.266a.26.26 0 01-.263-.266.26.26 0 01.263-.264zM644.602 417.873a.796.796 0 00-.793.793c0 .435.357.795.793.795a.8.8 0 00.794-.795.798.798 0 00-.794-.793zm0 .53a.26.26 0 01.265.263c0 .15-.116.266-.265.266a.26.26 0 01-.264-.266.26.26 0 01.264-.264zM647.777 417.873a.798.798 0 00-.795.793.8.8 0 00.795.795c.436 0 .793-.36.793-.795a.796.796 0 00-.793-.793zm0 .53a.26.26 0 01.264.263.26.26 0 01-.264.266.262.262 0 01-.265-.266.26.26 0 01.265-.264zM647.777 415.756a.8.8 0 00-.795.795c0 .435.36.793.795.793a.796.796 0 00.793-.793.798.798 0 00-.793-.795zm0 .53a.26.26 0 01.264.265.26.26 0 01-.264.263.26.26 0 01-.265-.263c0-.15.116-.266.265-.266z" style="line-height:normal;font-variant-ligatures:normal;font-variant-position:normal;font-variant-caps:normal;font-variant-numeric:normal;font-variant-alternates:normal;font-feature-settings:normal;text-indent:0;text-align:start;text-decoration-line:none;text-decoration-style:solid;text-decoration-color:#000;text-transform:none;text-orientation:mixed;white-space:normal;shape-padding:0;isolation:auto;mix-blend-mode:normal;solid-color:#000;solid-opacity:1" color="#000" font-weight="400" font-family="sans-serif" overflow="visible" fill="#fff" paint-order="markers fill stroke" enable-background="new"/><path d="M642.22 419.195v.639l1.589 1.588v3.86h.529v-4.079l-1.588-1.588v-.42zM644.338 419.195v.639l.683.686h2.336l.684-.686v-.639h-.53v.42l-.372.375h-1.899l-.373-.375v-.42z" style="line-height:normal;font-variant-ligatures:normal;font-variant-position:normal;font-variant-caps:normal;font-variant-numeric:normal;font-variant-alternates:normal;font-feature-settings:normal;text-indent:0;text-align:start;text-decoration-line:none;text-decoration-style:solid;text-decoration-color:#000;text-transform:none;text-orientation:mixed;white-space:normal;shape-padding:0;isolation:auto;mix-blend-mode:normal;solid-color:#000;solid-opacity:1" color="#000" font-weight="400" font-family="sans-serif" overflow="visible" fill="#fff" enable-background="new"/><path d="M633.49 407.29a.8.8 0 00-.795.794c0 .435.36.793.795.793a.796.796 0 00.793-.793.798.798 0 00-.793-.795zm0 .528a.26.26 0 01.264.266.26.26 0 01-.264.264.26.26 0 01-.265-.264c0-.15.116-.266.265-.266zM630.578 408.877a.798.798 0 00-.793.795c0 .435.358.793.793.793a.798.798 0 00.795-.793.8.8 0 00-.795-.795zm0 .53c.15 0 .266.116.266.265a.26.26 0 01-.266.264.26.26 0 01-.264-.264.26.26 0 01.264-.266z" style="line-height:normal;font-variant-ligatures:normal;font-variant-position:normal;font-variant-caps:normal;font-variant-numeric:normal;font-variant-alternates:normal;font-feature-settings:normal;text-indent:0;text-align:start;text-decoration-line:none;text-decoration-style:solid;text-decoration-color:#000;text-transform:none;text-orientation:mixed;white-space:normal;shape-padding:0;isolation:auto;mix-blend-mode:normal;solid-color:#000;solid-opacity:1" color="#000" font-weight="400" font-family="sans-serif" overflow="visible" fill="#fff" paint-order="markers fill stroke" enable-background="new"/><path fill="#fff" paint-order="markers fill stroke" enable-background="new" d="M625.816 418.931h2.117v1.587h-2.117zM625.816 417.873h2.117v.529h-2.117zM627.933 414.698h2.117v.529h-2.117zM627.933 412.581h2.117v1.587h-2.117zM627.933 411.523h2.117v.529h-2.117z"/><path d="M646.982 412.844a.8.8 0 00.795.795c.436 0 .793-.36.793-.795a.796.796 0 00-.793-.793.798.798 0 00-.795.793zm.53 0a.26.26 0 01.265-.264.26.26 0 01.264.264.26.26 0 01-.264.265.262.262 0 01-.265-.265zM646.982 409.67c0 .435.36.793.795.793a.796.796 0 00.793-.793.798.798 0 00-.793-.795.8.8 0 00-.795.795zm.53 0c0-.15.116-.266.265-.266a.26.26 0 01.264.266.26.26 0 01-.264.264.26.26 0 01-.265-.264zM644.867 409.67c0 .435.358.793.793.793a.796.796 0 00.793-.793.798.798 0 00-.793-.795.798.798 0 00-.793.795zm.53 0a.26.26 0 01.263-.266.26.26 0 01.264.266.26.26 0 01-.264.264.26.26 0 01-.264-.264z" style="line-height:normal;font-variant-ligatures:normal;font-variant-position:normal;font-variant-caps:normal;font-variant-numeric:normal;font-variant-alternates:normal;font-feature-settings:normal;text-indent:0;text-align:start;text-decoration-line:none;text-decoration-style:solid;text-decoration-color:#000;text-transform:none;text-orientation:mixed;white-space:normal;shape-padding:0;isolation:auto;mix-blend-mode:normal;solid-color:#000;solid-opacity:1" color="#000" font-weight="400" font-family="sans-serif" overflow="visible" fill="#fff" paint-order="markers fill stroke" enable-background="new"/><path d="M648.307 409.404v.53h.42l.373.375v1.896l-.373.375h-.42v.53h.638l.684-.684v-2.336l-.684-.686z" style="line-height:normal;font-variant-ligatures:normal;font-variant-position:normal;font-variant-caps:normal;font-variant-numeric:normal;font-variant-alternates:normal;font-feature-settings:normal;text-indent:0;text-align:start;text-decoration-line:none;text-decoration-style:solid;text-decoration-color:#000;text-transform:none;text-orientation:mixed;white-space:normal;shape-padding:0;isolation:auto;mix-blend-mode:normal;solid-color:#000;solid-opacity:1" color="#000" font-weight="400" font-family="sans-serif" overflow="visible" fill="#fff" enable-background="new"/><rect ry=".529" rx=".529" y="413.375" x="642.221" height="2.91" width="3.704" style="marker:none" fill="#3584e4" enable-background="new"/><path d="M642.75 416.02v.795a.264.264 0 10.529 0v-.794zm1.058 0v.795a.264.264 0 10.53 0v-.794zm1.058 0v.795a.264.264 0 10.53 0v-.794z" fill="url(#n)" paint-order="markers fill stroke" enable-background="new"/><path d="M642.75 413.375v-.794a.264.264 0 11.529 0v.794zm1.058 0v-.794a.264.264 0 11.53 0v.794zm1.058 0v-.794a.264.264 0 11.53 0v.794z" fill="url(#o)" paint-order="markers fill stroke" enable-background="new"/><rect style="marker:none" width="3.704" height="3.175" x="642.221" y="412.581" rx=".529" ry=".529" fill="#a3c7f3" enable-background="new"/><rect ry="0" rx="0" y="413.11" x="642.75" height=".529" width="2.117" paint-order="markers fill stroke" enable-background="new" fill="none"/><rect width="1.058" height=".529" x="642.75" y="414.169" rx="0" ry="0" paint-order="markers fill stroke" enable-background="new" fill="none"/><g fill="#fff" paint-order="markers fill stroke"><path d="M650.158 421.048h1.588v1.587h-1.588z"/><path d="M650.158 421.048h1.588v1.058h-1.588z"/><path d="M650.158 421.048h.53v1.058h-.53zM650.158 422.635h.53v-.529h-.53zM651.746 421.048h.529v1.058h-.53zM651.746 422.635h.529v-.529h-.53z"/></g><g fill="#fff" paint-order="markers fill stroke"><path d="M650.158 419.46h1.588v1.588h-1.588z"/><path d="M650.158 419.46h1.588v1.059h-1.588z"/><path d="M650.158 419.46h.53v1.059h-.53z"/><path d="M650.158 421.048h.53v-.53h-.53zM651.746 419.46h.529v1.059h-.53z"/><path d="M651.746 421.048h.529v-.53h-.53z"/></g><g fill="#fff" paint-order="markers fill stroke"><path d="M650.158 417.873h1.588v1.587h-1.588z"/><path d="M650.158 417.873h1.588v1.058h-1.588z"/><path d="M650.158 417.873h.53v1.058h-.53zM650.158 419.46h.53v-.529h-.53zM651.746 417.873h.529v1.058h-.53zM651.746 419.46h.529v-.529h-.53z"/></g><g fill="#fff" paint-order="markers fill stroke"><path d="M640.633 407.819v-2.117h1.058v2.117z"/><path d="M640.633 407.819v-2.117h.53v2.117z"/><path d="M640.633 407.819v-.53h1.058v.53zM640.633 406.231v-.529h1.058v.53z"/></g><g fill="#fff" paint-order="markers fill stroke"><path d="M643.808 407.819v-2.117h1.058v2.117z"/><path d="M643.808 407.819v-2.117h.53v2.117z"/><path d="M643.808 407.819v-.53h1.058v.53zM643.808 406.231v-.529h1.058v.53z"/></g><g fill="#fff" paint-order="markers fill stroke"><path d="M642.22 407.819v-2.117h1.059v2.117z"/><path d="M642.22 407.819v-2.117h.53v2.117z"/><path d="M642.22 407.819v-.53h1.059v.53zM642.22 406.231v-.529h1.059v.53z"/></g><path d="M632.166 418.138v1.058a.264.264 0 10.53 0v-1.058zm1.059 0v1.058a.264.264 0 10.529 0v-1.058zm1.058 0v1.058a.264.264 0 10.53 0v-1.058zm1.058 0v1.058a.264.264 0 10.53 0v-1.058zm1.059 0v1.058a.264.264 0 10.529 0v-1.058zm1.058 0v1.058a.264.264 0 10.53 0v-1.058z" fill="#fff" paint-order="markers fill stroke" enable-background="new"/></g><g opacity=".317"><path style="marker:none" d="M172.342 527.724h48.55v34.572c0 4.863-2.245 8.778-7.514 8.778h-41.042z" fill="#3584e4"/><path d="M213.99 480.905a6.921 6.921 0 016.937 6.936v72.83a6.921 6.921 0 01-6.936 6.935h-41.617v-86.701z" style="marker:none" fill="#a3c7f3" enable-background="new"/><path style="marker:none" opacity=".1" enable-background="new" d="M189.68 541.596v3.468h17.34v-3.468zM189.68 548.532V552h17.34v-3.468z"/><path style="marker:none" fill="#fff" enable-background="new" d="M189.68 539.862v3.468h17.34v-3.468zM189.68 546.798v3.468h17.34v-3.468z"/><path d="M137.693 484.373a6.921 6.921 0 00-6.936 6.936v72.83a6.921 6.921 0 006.936 6.935h38.149v-86.701z" style="marker:none" fill="#3584e4" enable-background="new"/><path style="marker:none" d="M137.693 480.905a6.921 6.921 0 00-6.936 6.936v72.83a6.921 6.921 0 006.936 6.935h38.149v-86.701z" fill="#3584e4" enable-background="new"/><path style="marker:none" d="M151.532 538.128v6.936h-6.937v3.468h6.937v6.936H155v-6.936h6.936v-3.468H155v-6.936z" opacity=".2" enable-background="new"/><path d="M151.532 536.394v6.936h-6.937v3.468h6.937v6.936H155v-6.936h6.936v-3.468H155v-6.936z" style="marker:none" fill="#fff" enable-background="new"/><path style="marker:none" opacity=".1" enable-background="new" d="M144.595 503.447v3.468h17.34v-3.468z"/><path style="marker:none" fill="#fff" enable-background="new" d="M144.595 501.713v3.468h17.34v-3.468z"/><path style="line-height:normal;font-variant-ligatures:normal;font-variant-position:normal;font-variant-caps:normal;font-variant-numeric:normal;font-variant-alternates:normal;font-feature-settings:normal;text-indent:0;text-align:start;text-decoration-line:none;text-decoration-style:solid;text-decoration-color:#000;text-transform:none;text-orientation:mixed;white-space:normal;shape-padding:0;isolation:auto;mix-blend-mode:normal;solid-color:#000;solid-opacity:1;marker:none" d="M130.722 524.256v1.734h45.053v-1.734z" color="#000" font-weight="400" font-family="sans-serif" overflow="visible" fill="#a3c7f3" fill-rule="evenodd" enable-background="accumulate"/></g><path d="M818.405 44.244a9.685 9.685 0 00-9.685 9.685 9.685 9.685 0 006.457 9.119v52.785a9.685 9.685 0 00-6.457 9.12 9.685 9.685 0 009.685 9.685 9.685 9.685 0 008.378-4.843h54.272a9.685 9.685 0 008.374 4.843 9.685 9.685 0 009.685-9.685 9.685 9.685 0 00-6.457-9.12V63.048a9.685 9.685 0 006.457-9.12 9.685 9.685 0 00-9.685-9.684 9.685 9.685 0 00-9.539 8.07h-51.937a9.685 9.685 0 00-9.548-8.07zm8.378 14.527h54.272a9.685 9.685 0 00.212.37l-8.368 8.368a6.457 6.457 0 00-2.84-.667 6.457 6.457 0 00-6.242 4.843h-19.794a6.457 6.457 0 00-6.247-4.843 6.457 6.457 0 00-2.842.664l-8.372-8.372a9.685 9.685 0 00.223-.362zm-5.15 4.565l9.698 9.698a6.457 6.457 0 00-.01.264 6.457 6.457 0 003.228 5.585V100a6.457 6.457 0 00-3.228 5.582 6.457 6.457 0 00.664 2.842l-8.372 8.372a9.685 9.685 0 00-1.977-.963zm64.567 0v52.497a9.685 9.685 0 00-1.983.957l-8.368-8.369a6.457 6.457 0 00.666-2.839 6.457 6.457 0 00-3.228-5.585V78.881a6.457 6.457 0 003.228-5.582 6.457 6.457 0 00-.01-.269zm-44.166 14.805h23.762a6.457 6.457 0 001.034.743V100a6.457 6.457 0 00-3.014 3.968h-19.794a6.457 6.457 0 00-3.018-3.97V78.88a6.457 6.457 0 001.03-.74zm0 32.284h23.762a6.457 6.457 0 004.263 1.614 6.457 6.457 0 00.268-.009l9.906 9.906a9.685 9.685 0 00-.342 1.403h-51.937a9.685 9.685 0 00-.356-1.398l9.914-9.914a6.457 6.457 0 00.265.009 6.457 6.457 0 004.26-1.614z" style="line-height:normal;font-variant-ligatures:normal;font-variant-position:normal;font-variant-caps:normal;font-variant-numeric:normal;font-variant-alternates:normal;font-feature-settings:normal;text-indent:0;text-align:start;text-decoration-line:none;text-decoration-style:solid;text-decoration-color:#000;text-transform:none;text-orientation:mixed;white-space:normal;shape-padding:0;isolation:auto;mix-blend-mode:normal;solid-color:#000;solid-opacity:1;marker:none" color="#000" font-weight="400" font-family="sans-serif" overflow="visible" opacity=".317" fill="#3584e4" enable-background="new"/><g opacity=".317"><path style="font-variation-settings:normal;marker:none" d="M1074.364 540.954v5.478a6.58 6.58 0 01-6.595 6.594h-18.134c-7.983 0-14.857 4.732-17.983 11.54h-6.897c-3.126-6.808-10-11.54-17.983-11.54h-18.134a6.58 6.58 0 01-6.595-6.594v-5.478z" fill="#3584e4" enable-background="new"/><path d="M1030.12 507.705c-.13.815-.223 1.635-.268 2.458h-1.649v51.93h3.449c3.126-6.808 10-11.54 17.983-11.54h18.134a6.58 6.58 0 006.595-6.594v-29.383a6.58 6.58 0 00-6.595-6.594zM1026.286 507.705c.13.815.224 1.635.269 2.458h1.648v51.93h-3.448c-3.126-6.808-10-11.54-17.983-11.54h-18.134a6.58 6.58 0 01-6.595-6.594v-29.383a6.58 6.58 0 016.595-6.594z" style="font-variation-settings:normal;marker:none" fill="#a3c7f3" enable-background="new"/><g opacity=".1"><path d="M1074.364 538.729a6.156 6.156 0 01-6.176 6.055h-.412v.824h.412a6.996 6.996 0 006.176-3.695zm-26.378 6.055l19.783.824v-.824z" enable-background="new"/><path d="M1074.364 541.201a6.156 6.156 0 01-6.176 6.055h-.412v.825h.412a6.996 6.996 0 006.151-3.65c.011-.156.025-.312.025-.472zm-21.432 6.055l14.837.825v-.825z" enable-background="new"/></g><path style="marker:none" d="M1067.77 480.49a6.58 6.58 0 016.594 6.593v48.633a6.58 6.58 0 01-6.595 6.595h-19.783c-10.925 0-19.783 8.857-19.783 19.783V501.92c0-10.926 8.858-21.432 19.783-21.432zM988.638 480.49a6.58 6.58 0 00-6.595 6.593v48.633a6.58 6.58 0 006.595 6.595h19.782c10.926 0 19.783 8.857 19.783 19.783V501.92c0-10.926-8.857-21.432-19.783-21.432z" fill="#fff" enable-background="new"/><path d="M1059.526 489.556v4.946h-9.891c-3.605.15-6.979 1.068-9.892 2.706v-4.577c2.91-1.926 6.287-3.075 9.892-3.075z" style="marker:none" fill="#3684e3" enable-background="new"/><path style="marker:none" d="M1064.472 499.448v3.297h-14.837c-3.605.15-6.979 1.068-9.892 2.706v-2.928c2.91-1.926 6.287-3.075 9.892-3.075zM1064.472 506.042v3.297h-14.837c-3.605.15-6.979 1.068-9.892 2.706v-2.928c2.91-1.926 6.287-3.075 9.892-3.075zM1064.472 512.636v3.297h-14.837c-3.605.15-6.979 1.068-9.892 2.707v-2.929c2.91-1.925 6.287-3.075 9.892-3.075z" fill="#a3c7f3" enable-background="new"/><path fill="#a3c7f3" enable-background="new" d="M1005.123 525.825h-13.189v3.297h13.189z"/><path d="M991.935 499.448v3.297h16.485c2.946.123 5.732.766 8.243 1.888v-3.078c-2.51-1.33-5.297-2.107-8.243-2.107zM991.935 506.042v3.297h16.485c2.946.123 5.732.767 8.243 1.889v-3.079c-2.51-1.33-5.297-2.107-8.243-2.107zM991.935 512.636v3.297h16.485c2.946.123 5.732.767 8.243 1.889v-3.078c-2.51-1.331-5.297-2.108-8.243-2.108zM991.935 492.853v3.298h16.485c2.946.122 5.732.766 8.243 1.888v-3.078c-2.51-1.331-5.297-2.108-8.243-2.108zM991.935 519.23v3.298h16.485c2.946.123 5.732.766 8.243 1.888v-3.078c-2.51-1.33-5.297-2.107-8.243-2.107zM1057.878 519.23v3.298h-8.243c-3.605.15-6.979 1.067-9.892 2.706v-2.928c2.91-1.926 6.287-3.075 9.892-3.075z" style="marker:none" fill="#a3c7f3" enable-background="new"/><g><path fill="#3684e3" d="M1003.832 463.18s-6.786 16.846-6.766 25.707c.015 6.594.908 14.035 5.12 19.109 3.237 3.898 13.708 6.567 13.708 6.567l3.185-.854s7.732-7.547 8.586-12.54c1.11-6.5-1.836-13.392-5.12-19.11-4.413-7.683-18.713-18.88-18.713-18.88z" enable-background="new"/><path d="M1006.323 472.248c1.433 6.013 2.381 10.499 3.31 14.928-4.152-2.328-5.633-2.8-7.253-3.676 1.656 1.024 2.775 2.061 7.492 4.813.438 2.09.873 4.17 1.377 6.48-5.752-3.225-7.663-3.781-9.91-4.996 2.281 1.411 3.851 2.855 10.272 6.607.448 2.027.967 4.284 1.546 6.735-5.849-3.262-7.828-3.844-10.166-5.108 2.388 1.478 3.966 2.95 10.575 6.824 1.38 5.76 3.146 12.77 5.746 22.471l3.185-.855c-2.602-9.713-4.566-16.68-6.234-22.371 3.765-6.628 4.394-8.69 5.72-11.159-1.388 2.258-2.806 3.746-6.222 9.46a540.386 540.386 0 00-2.008-6.643c3.636-6.385 4.281-8.422 5.545-10.774-1.332 2.165-2.698 3.596-6.031 9.196-.712-2.267-1.37-4.294-2.031-6.334 2.639-4.63 3.1-6.097 4.013-7.795-.954 1.551-1.994 2.703-4.369 6.687-1.387-4.28-2.79-8.622-4.557-14.49z" fill="#fff"/></g></g><g stroke-width="1.167" opacity=".33"><g transform="matrix(.21429 0 0 .21429 632.927 525.202)" clip-path="url(#p)"><path style="marker:none;font-variation-settings:normal" d="M256 124h160v-272h96v384H256l-64-64-64 64H0V124h128l64-64z" fill="#3584e4"/><path d="M0 123.975l128 .05V-148H0z" style="marker:none" fill="#3584e4" enable-background="new"/><path style="font-variation-settings:normal;marker:none" d="M144-164v272l48-48 64 64.058h144L416 108v-256H256l-64-64z" fill="#3584e4" enable-background="new"/><path style="line-height:normal;font-variant-ligatures:normal;font-variant-position:normal;font-variant-caps:normal;font-variant-numeric:normal;font-variant-alternates:normal;font-feature-settings:normal;text-indent:0;text-align:start;text-decoration-line:none;text-decoration-style:solid;text-decoration-color:#000;text-transform:none;text-orientation:mixed;white-space:normal;shape-padding:0;isolation:auto;mix-blend-mode:normal;solid-color:#000;solid-opacity:1" d="M399.898-147.89v238c0 10.027-9.373 17.948-16.949 17.948H256L192 44.59l-39.375 39.535L152-211.942h-24V108l-128 .058v32.102h127L192 76l64 64.16h126.95c26.424 0 47.962-22.048 49.05-50.05v-238z" color="#000" font-weight="400" font-family="sans-serif" overflow="visible" fill="#cdd5e2" enable-background="accumulate"/></g><g transform="matrix(.85714 0 0 .85714 632.927 322.06)"><circle r="12" transform="matrix(0 1 1 0 0 0)" cy="92" cx="208" fill="#1a5fb4" enable-background="new"/><path style="marker:none" d="M92 182a27.912 27.912 0 00-19.799 8.201c-10.934 10.935-10.934 28.663 0 39.598l19.8 19.8s13.82-13.823 19.798-19.8c10.935-10.935 10.935-28.663 0-39.598A27.912 27.912 0 0092 182zm0 18a10 10 0 0110 10 10 10 0 01-10 10 10 10 0 01-10-10 10 10 0 0110-10z" fill="#fff" enable-background="new"/></g></g><g stroke-width="1.245" opacity=".396"><path style="marker:none" d="M900.234 232.391a48.197 48.197 0 01-48.196 48.197 48.197 48.197 0 01-48.197-48.197 48.197 48.197 0 0148.197-48.196 48.197 48.197 0 0148.196 48.196z" fill="#5799e9" enable-background="new"/><path style="marker:none" d="M823.123 233.194a28.918 50.607 0 006.296 30.727 35.344 21.689 0 00-7.923 5.751 48.197 48.197 0 01-17.649-36.478z" fill="#64a1eb" enable-background="new"/><path d="M852.038 258.9v21.688a48.197 48.197 0 01-10.746-1.214 28.918 50.607 0 01-11.873-15.452 35.344 21.689 0 0122.619-5.023z" style="marker:none" fill="#468cd8" enable-background="new"/><path d="M880.953 233.195a28.918 50.607 0 01-6.296 30.727 35.344 21.689 0 017.923 5.751 48.197 48.197 0 0017.648-36.478z" style="marker:none" fill="#2f7cd9" enable-background="new"/><path style="marker:none" d="M852.038 233.195v47.393a48.197 48.197 0 0010.745-1.214 28.918 50.607 0 0018.17-46.18z" fill="#3684e3" enable-background="new"/><path style="marker:none" d="M852.038 258.9v21.688a48.197 48.197 0 0010.745-1.214 28.918 50.607 0 0011.874-15.452 35.344 21.689 0 00-22.62-5.023z" fill="#2f7cd9" enable-background="new"/><path d="M874.657 263.92a28.918 50.607 0 01-11.874 15.453 48.197 48.197 0 0019.797-9.7 35.344 21.689 0 00-7.923-5.752z" style="marker:none" fill="#236ac0" enable-background="new"/><g><path d="M852.038 184.195a48.197 48.197 0 00-48.197 48.196 48.197 48.197 0 00.006.804h48.19z" fill="#7db0ee"/><path d="M841.295 185.407a48.197 48.197 0 00-19.8 9.7 35.344 21.689 0 007.924 5.754 28.918 50.607 0 0111.876-15.454z" fill="#9dc3f2"/><path d="M852.038 184.195a48.197 48.197 0 00-10.743 1.212 28.918 50.607 0 00-18.175 46.984 28.918 50.607 0 00.003.804h28.915z" fill="#63a0eb"/><path d="M852.038 184.195a48.197 48.197 0 00-10.743 1.212 28.918 50.607 0 00-11.875 15.454 35.344 21.689 0 0022.618 5.022z" fill="#7db0ee"/></g><g><path d="M852.038 184.195a48.197 48.197 0 0148.197 48.196 48.197 48.197 0 01-.007.804h-48.19z" fill="#3784e5"/><path d="M862.78 185.407a48.197 48.197 0 0119.801 9.7 35.344 21.689 0 01-7.924 5.754 28.918 50.607 0 00-11.877-15.454z" fill="#4a92e8"/><path d="M852.038 184.195a48.197 48.197 0 0110.742 1.212 28.918 50.607 0 0118.176 46.984 28.918 50.607 0 01-.003.804h-28.915z" fill="#4e93e8"/><path d="M852.038 184.195a48.197 48.197 0 0110.742 1.212 28.918 50.607 0 0111.875 15.454 35.344 21.689 0 01-22.617 5.022z" fill="#63a0eb"/></g></g><g transform="matrix(.85246 0 0 .85246 -298.534 10.544)" opacity=".33" stroke-width="1.173"><rect style="marker:none" width="112" height="114" x="1096.939" y="38.815" rx="65.692" ry="65.692" fill="#d5d3cf" enable-background="new"/><path style="marker:none" d="M1212.94 94.815a60 60 0 01-60 60 60 60 0 01-60-60 60 60 0 0160-60 60 60 0 0160 60z" fill="#f6f5f4" enable-background="new"/><circle r="54" style="marker:none;font-variation-settings:normal" cx="1152.939" cy="94.815" fill="#3584e4" enable-background="new"/><path d="M1152.94 94.815l-18-20" fill="#fff" fill-rule="evenodd" stroke="#fff" stroke-width="4.7" stroke-linecap="round" enable-background="new"/><path d="M1152.94 94.815l26-28M1152.94 94.815l-14 36" fill="none" stroke="#fff" stroke-width="2.35" stroke-linecap="round" enable-background="new"/><circle r="6" cy="556.252" cx="1014.319" style="marker:none" transform="rotate(-24.04)" color="#000" overflow="visible" fill="#fff" enable-background="accumulate"/><circle r="2.003" style="marker:none" cx="1152.968" cy="94.815" color="#000" overflow="visible" fill="#131c1a" enable-background="accumulate"/><circle r="2" cy="94.815" cx="1152.968" style="marker:none" color="#000" overflow="visible" fill="#1a5fb4" enable-background="accumulate"/></g><g transform="matrix(.875 0 0 .875 120.489 -123.42)" stroke-width="1.143" opacity=".33"><rect width="112" height="82.03" x="8" y="201.97" rx="9.143" ry="9.143" fill="#1c71d8"/><g transform="translate(.019 .028)"><g clip-path="url(#q)" transform="matrix(.25 0 0 -.25 -8.019 197.917)"><rect ry="0" rx="0" y="-48.454" x="64" height="56.232" width="448" style="marker:none" fill="#fff"/><rect style="marker:none" width="45.414" height="135.764" x="62.535" y="-26.738" transform="scale(1 -1) rotate(-30)" rx="0" ry="0" fill="#1c71d8" enable-background="new"/><rect ry="0" rx="0" transform="scale(1 -1) rotate(-30)" y="23.262" x="149.138" height="135.764" width="45.414" style="marker:none" fill="#1c71d8" enable-background="new"/><rect style="marker:none" width="45.414" height="135.764" x="235.74" y="73.262" transform="scale(1 -1) rotate(-30)" rx="0" ry="0" fill="#1c71d8" enable-background="new"/><rect ry="0" rx="0" transform="scale(1 -1) rotate(-30)" y="123.262" x="322.343" height="135.764" width="45.414" style="marker:none" fill="#1c71d8" enable-background="new"/><rect style="marker:none" width="45.414" height="135.764" x="408.945" y="173.262" transform="scale(1 -1) rotate(-30)" rx="0" ry="0" fill="#1c71d8" enable-background="new"/></g><g transform="matrix(.25 0 0 .25 -8.019 218.083)" clip-path="url(#r)"><rect style="marker:none" width="448" height="56.232" x="64" y="-48.454" rx="0" ry="0" fill="#fff"/><rect ry="0" rx="0" transform="scale(1 -1) rotate(-30)" y="-26.738" x="62.535" height="135.764" width="45.414" style="marker:none" fill="#1c71d8" enable-background="new"/><rect style="marker:none" width="45.414" height="135.764" x="149.138" y="23.262" transform="scale(1 -1) rotate(-30)" rx="0" ry="0" fill="#1c71d8" enable-background="new"/><rect ry="0" rx="0" transform="scale(1 -1) rotate(-30)" y="73.262" x="235.74" height="135.764" width="45.414" style="marker:none" fill="#1c71d8" enable-background="new"/><rect style="marker:none" width="45.414" height="135.764" x="322.343" y="123.262" transform="scale(1 -1) rotate(-30)" rx="0" ry="0" fill="#1c71d8" enable-background="new"/><rect ry="0" rx="0" transform="scale(1 -1) rotate(-30)" y="173.262" x="408.945" height="135.764" width="45.414" style="marker:none" fill="#1c71d8" enable-background="new"/></g><path d="M7.981 205.306c0-2.668 2.745-5.334 5.334-5.334 0 0 10.666 10.59 10.666 10.667v5.333h-16z" fill="#62a0ea" enable-background="new"/><circle style="marker:none" cx="10.997" cy="213.249" r="1.25" fill="#241f31" enable-background="new"/><circle r="1.25" cy="205.266" cx="10.997" style="marker:none" fill="#241f31" enable-background="new"/><circle r="1.25" cy="212.943" cx="10.997" style="marker:none" fill="#f6f5f4" enable-background="new"/><circle style="marker:none" cx="10.997" cy="204.961" r="1.25" fill="#f6f5f4" enable-background="new"/><circle r="1.25" cy="213.222" cx="20.888" style="marker:none" fill="#241f31" enable-background="new"/><circle style="marker:none" cx="20.888" cy="212.917" r="1.25" fill="#f6f5f4" enable-background="new"/></g><g fill="#f6f5f4"><path d="M26 244h76c1.062 0 2 .936 2 2H24c0-1.108.983-2 2-2z" style="marker:none" enable-background="new"/><path style="marker:none" enable-background="new" d="M48 232v14h-2v-14zM82 232v14h-2v-14zM24 262h80c0 1.054-.913 2-2 2H26c-.985 0-2-1.03-2-2z"/></g></g></svg>