<?xml version="1.0" encoding="UTF-8" standalone="no"?>
<svg
   xmlns:dc="http://purl.org/dc/elements/1.1/"
   xmlns:cc="http://creativecommons.org/ns#"
   xmlns:rdf="http://www.w3.org/1999/02/22-rdf-syntax-ns#"
   xmlns:svg="http://www.w3.org/2000/svg"
   xmlns="http://www.w3.org/2000/svg"
   xmlns:xlink="http://www.w3.org/1999/xlink"
   xmlns:sodipodi="http://sodipodi.sourceforge.net/DTD/sodipodi-0.dtd"
   xmlns:inkscape="http://www.inkscape.org/namespaces/inkscape"
   inkscape:version="1.0.2 (e86c870879, 2021-01-15)"
   id="svg8"
   version="1.1"
   viewBox="0 0 600 400"
   height="400"
   width="600"
   sodipodi:docname="start-bg-bg.svg">
  <defs
     id="defs2">
    <linearGradient
       inkscape:collect="always"
       id="linearGradient923">
      <stop
         style="stop-color:#b2d0f4;stop-opacity:1"
         offset="0"
         id="stop919" />
      <stop
         style="stop-color:#ffffff;stop-opacity:1"
         offset="1"
         id="stop921" />
    </linearGradient>
    <linearGradient
       id="a">
      <stop
         offset="0"
         stop-color="#eef4fc"
         id="stop3"
         style="stop-color:#b2cdf1;stop-opacity:1" />
      <stop
         offset="1"
         stop-color="#fff"
         id="stop5" />
    </linearGradient>
    <linearGradient
       inkscape:collect="always"
       xlink:href="#linearGradient923"
       id="linearGradient925"
       x1="85"
       y1="195"
       x2="85"
       y2="165"
       gradientUnits="userSpaceOnUse" />
    <linearGradient
       inkscape:collect="always"
       xlink:href="#a"
       id="linearGradient933"
       x1="245"
       y1="195"
       x2="245"
       y2="170"
       gradientUnits="userSpaceOnUse"
       gradientTransform="translate(670,20.562812)" />
  </defs>
  <sodipodi:namedview
     units="px"
     borderlayer="true"
     inkscape:showpageshadow="false"
     showgrid="false"
     inkscape:document-rotation="0"
     inkscape:current-layer="layer1"
     inkscape:document-units="px"
     inkscape:cy="75.603256"
     inkscape:cx="199.00314"
     inkscape:zoom="0.98994949"
     inkscape:pageshadow="2"
     inkscape:pageopacity="0"
     borderopacity="1"
     bordercolor="#383838"
     pagecolor="#1f1f1f"
     id="base"
     fit-margin-top="0"
     fit-margin-left="0"
     fit-margin-right="0"
     fit-margin-bottom="0"
     inkscape:window-width="1920"
     inkscape:window-height="1011"
     inkscape:window-x="0"
     inkscape:window-y="0"
     inkscape:window-maximized="1"
     inkscape:snap-bbox="true"
     inkscape:object-paths="true"
     inkscape:snap-intersection-paths="true"
     inkscape:snap-smooth-nodes="true"
     inkscape:snap-midpoints="true">
    <inkscape:grid
       type="xygrid"
       id="grid900" />
  </sodipodi:namedview>
  <metadata
     id="metadata5">
    <rdf:RDF>
      <cc:Work
         rdf:about="">
        <dc:format>image/svg+xml</dc:format>
        <dc:type
           rdf:resource="http://purl.org/dc/dcmitype/StillImage" />
        <dc:title />
        <cc:license
           rdf:resource="http://creativecommons.org/licenses/by-sa/4.0/" />
      </cc:Work>
      <cc:License
         rdf:about="http://creativecommons.org/licenses/by-sa/4.0/">
        <cc:permits
           rdf:resource="http://creativecommons.org/ns#Reproduction" />
        <cc:permits
           rdf:resource="http://creativecommons.org/ns#Distribution" />
        <cc:requires
           rdf:resource="http://creativecommons.org/ns#Notice" />
        <cc:requires
           rdf:resource="http://creativecommons.org/ns#Attribution" />
        <cc:permits
           rdf:resource="http://creativecommons.org/ns#DerivativeWorks" />
        <cc:requires
           rdf:resource="http://creativecommons.org/ns#ShareAlike" />
      </cc:License>
    </rdf:RDF>
  </metadata>
  <g
     id="layer1"
     inkscape:groupmode="layer"
     inkscape:label="Layer 1"
     transform="translate(-620,9.4371882)">
    <path
       id="path833"
       style="fill:url(#linearGradient925);stroke:none;stroke-width:2;stroke-linecap:round;stroke-linejoin:round;fill-opacity:1;opacity:0.5"
       d="M 97.5 140 A 27.499996 27.499996 0 0 0 70.5625 161.96875 A 17.5 17.5 0 0 0 62.5 160 A 17.5 17.5 0 0 0 45 177.5 A 17.5 17.5 0 0 0 62.5 195 A 17.5 17.5 0 0 0 62.550781 195 L 155 195 A 9.999999 9.999999 0 0 0 165 185 A 9.999999 9.999999 0 0 0 155 175 A 9.999999 9.999999 0 0 0 147.12891 178.83008 A 20 20 0 0 0 147.5 175 A 20 20 0 0 0 127.5 155 A 20 20 0 0 0 122.33008 155.67969 A 27.499996 27.499996 0 0 0 97.5 140 z "
       transform="translate(620,-9.4371882)" />
    <path
       id="circle849"
       style="opacity:0.5;fill:url(#linearGradient933);fill-opacity:1;stroke:none;stroke-width:1.42858;stroke-linecap:round;stroke-linejoin:round"
       d="m 905,175.56281 a 19.999998,19.999998 0 0 0 -20,20 19.999998,19.999998 0 0 0 20,20 h 27.5 a 12.499999,12.499999 0 0 0 12.5,-12.5 12.499999,12.499999 0 0 0 -12.5,-12.5 12.499999,12.499999 0 0 0 -7.64258,2.61133 A 19.999998,19.999998 0 0 0 905,175.56281 Z" />
  </g>
</svg>
