<?xml version="1.0" encoding="UTF-8" standalone="no"?>
<svg
   xmlns:dc="http://purl.org/dc/elements/1.1/"
   xmlns:cc="http://creativecommons.org/ns#"
   xmlns:rdf="http://www.w3.org/1999/02/22-rdf-syntax-ns#"
   xmlns:svg="http://www.w3.org/2000/svg"
   xmlns="http://www.w3.org/2000/svg"
   xmlns:xlink="http://www.w3.org/1999/xlink"
   xmlns:sodipodi="http://sodipodi.sourceforge.net/DTD/sodipodi-0.dtd"
   xmlns:inkscape="http://www.inkscape.org/namespaces/inkscape"
   height="400"
   width="1400"
   version="1.1"
   id="svg16"
   sodipodi:docname="start-bg.svg"
   inkscape:version="1.0.2 (e86c870879, 2021-01-15)">
  <metadata
     id="metadata20">
    <rdf:RDF>
      <cc:Work
         rdf:about="">
        <dc:format>image/svg+xml</dc:format>
        <dc:type
           rdf:resource="http://purl.org/dc/dcmitype/StillImage" />
        <dc:title></dc:title>
      </cc:Work>
    </rdf:RDF>
  </metadata>
  <sodipodi:namedview
     pagecolor="#494949"
     bordercolor="#666666"
     borderopacity="1"
     objecttolerance="10"
     gridtolerance="10"
     guidetolerance="10"
     inkscape:pageopacity="0"
     inkscape:pageshadow="2"
     inkscape:window-width="1920"
     inkscape:window-height="1011"
     id="namedview18"
     showgrid="true"
     inkscape:zoom="0.71013723"
     inkscape:cx="565.47281"
     inkscape:cy="175.03783"
     inkscape:window-x="0"
     inkscape:window-y="0"
     inkscape:window-maximized="1"
     inkscape:current-layer="g14"
     inkscape:document-rotation="0"
     inkscape:object-paths="true"
     inkscape:snap-intersection-paths="true"
     inkscape:snap-smooth-nodes="true"
     inkscape:snap-midpoints="true">
    <inkscape:grid
       type="xygrid"
       id="grid15" />
  </sodipodi:namedview>
  <defs
     id="defs8">
    <linearGradient
       id="linearGradient866">
      <stop
         offset="0"
         stop-color="#eef4fc"
         id="stop862"
         style="stop-color:#99c1f1;stop-opacity:1" />
      <stop
         offset="1"
         stop-color="#fff"
         id="stop864" />
    </linearGradient>
    <linearGradient
       id="linearGradient860">
      <stop
         offset="0"
         stop-color="#eef4fc"
         id="stop856"
         style="stop-color:#c5dcf7;stop-opacity:1" />
      <stop
         offset="1"
         stop-color="#fff"
         id="stop858" />
    </linearGradient>
    <linearGradient
       xlink:href="#a"
       id="b"
       x1="85"
       y1="107.162"
       x2="85"
       y2="86"
       gradientUnits="userSpaceOnUse"
       gradientTransform="matrix(-3.35406,0,0,3.35406,1487.997,-204.114)" />
    <linearGradient
       id="a">
      <stop
         offset="0"
         stop-color="#eef4fc"
         id="stop3" />
      <stop
         offset="1"
         stop-color="#fff"
         id="stop5" />
    </linearGradient>
    <linearGradient
       inkscape:collect="always"
       xlink:href="#linearGradient860"
       id="linearGradient22"
       gradientUnits="userSpaceOnUse"
       gradientTransform="matrix(-2.7271922,0,0,2.7271922,1434.7133,-153.97824)"
       x1="85"
       y1="107.162"
       x2="85"
       y2="86" />
    <linearGradient
       inkscape:collect="always"
       xlink:href="#linearGradient860"
       id="linearGradient24"
       gradientUnits="userSpaceOnUse"
       gradientTransform="matrix(-2.5731365,0,0,2.5731365,1337.4119,-173.26406)"
       x1="85"
       y1="110.30392"
       x2="85"
       y2="86.986084" />
    <linearGradient
       inkscape:collect="always"
       xlink:href="#linearGradient860"
       id="linearGradient23"
       gradientUnits="userSpaceOnUse"
       gradientTransform="matrix(1.5463767,0,0,1.5463767,1495.8308,-136.44822)"
       x1="85"
       y1="107.162"
       x2="85"
       y2="82.13472" />
  </defs>
  <g
     transform="translate(-620,199.437)"
     fill="url(#b)"
     id="g14"
     style="fill:url(#b);stroke-width:0.999999">
    <path
       d="m 1172.9035,20.563 c 21.3049,0.03008 40.6437,12.451841 49.5204,31.819925 a 40.916908,40.916908 0 0 1 18.6582,-4.549304 c 21.5196,0.0309 39.3395,16.714933 40.7706,38.186509 h 0.139 c 15.0619,0 27.2714,12.20954 27.2714,27.27144 0,15.06189 -12.2103,27.27143 -27.2722,27.27143 h -152.7217 a 32.727347,32.727347 0 0 1 -32.7273,-32.72572 32.727347,32.727347 0 0 1 21.9139,-30.85152 57.352134,57.352134 0 0 1 -0.097,-1.8742 c 0,-30.123796 24.4199,-54.543681 54.5445,-54.543681 z"
       id="path10"
       style="fill:url(#linearGradient22);stroke-width:1" />
    <path
       style="font-variation-settings:normal;fill:url(#linearGradient24);stroke-width:0.999999;fill-opacity:1.0"
       d="M 840.69502,0.56223327 A 45.132651,45.132651 0 0 0 795.76337,43.273693 c -16.20495,2.541637 -28.52648,16.495704 -28.52648,33.436367 0,18.754254 15.09792,33.85294 33.85294,33.85294 h 87.95919 c 14.50643,0 26.18507,-11.677872 26.18507,-26.184302 0,-14.506431 -11.67864,-26.185837 -26.18507,-26.185837 h -4.84852 a 45.132651,45.132651 0 0 0 1.76449,-12.49721 45.132651,45.132651 0 0 0 -45.13265,-45.13265056 45.132651,45.132651 0 0 0 -0.13655,0 z"
       id="path12" />
    <path
       d="m 1644.2826,-37.479582 c -12.0804,0.01707 -23.0459,7.060461 -28.0791,18.042582 a 23.200767,23.200767 0 0 0 -10.5796,-2.579553 c -12.2021,0.01752 -22.3064,9.477726 -23.1179,21.652572 h -0.079 c -8.5404,0 -15.4634,6.923072 -15.4634,15.463493 0,8.540416 6.9235,15.463488 15.4639,15.463488 h 86.5965 a 18.55711,18.55711 0 0 0 18.5571,-18.556188 18.55711,18.55711 0 0 0 -12.4257,-17.493475 32.519894,32.519894 0 0 0 0.055,-1.062712 c 0,-17.080841 -13.8466,-30.92744 -30.9279,-30.92744 z"
       id="path21"
       style="fill:url(#linearGradient23);stroke-width:0.999999;fill-opacity:1.0" />
  </g>
</svg>
