<svg xmlns="http://www.w3.org/2000/svg" xmlns:xlink="http://www.w3.org/1999/xlink" height="400" width="600"><defs><linearGradient id="a"><stop offset="0" stop-color="#3584e4"/><stop offset=".93" stop-color="#1b61b7"/><stop offset="1" stop-color="#1a5fb4"/></linearGradient><linearGradient xlink:href="#a" id="b" x1="1220" y1="370.563" x2="1220" y2="-9.437" gradientUnits="userSpaceOnUse" gradientTransform="matrix(.57692 0 0 .85333 262.308 -1.384)"/></defs><path d="M620-9.437h600v320H620z" fill="url(#b)" transform="translate(-620 9.437)"/><path d="M98.923 45.405c-17.046 0-30.77 13.722-30.77 30.768 0 .586.02 1.166.053 1.744a15.374 15.374 0 00-9.466-3.242 15.403 15.403 0 00-15.437 15.437c0 2.33.527 4.53 1.444 6.507h122.235c.276-1.484.415-2.991.415-4.501 0-13.584-11.01-24.596-24.594-24.597a24.597 24.597 0 00-13.457 4.011c-2.226-14.828-14.956-26.127-30.423-26.127zm119.317 24.24a19.602 19.602 0 00-19.646 19.644c0 2.582.508 5.038 1.406 7.293h35.428c.351 0 .694.02 1.04.032a19.661 19.661 0 001.418-7.324 19.602 19.602 0 00-19.646-19.645z" fill="#99c1f1"/></svg>