<svg xmlns="http://www.w3.org/2000/svg" xmlns:xlink="http://www.w3.org/1999/xlink" height="400" width="600"><defs><linearGradient id="a"><stop offset="0" stop-color="#b2d0f4"/><stop offset="1" stop-color="#fff"/></linearGradient><linearGradient id="b"><stop offset="0" stop-color="#b2cdf1"/><stop offset="1" stop-color="#fff"/></linearGradient><linearGradient xlink:href="#a" id="c" x1="85" y1="195" x2="85" y2="165" gradientUnits="userSpaceOnUse"/><linearGradient xlink:href="#b" id="d" x1="245" y1="195" x2="245" y2="170" gradientUnits="userSpaceOnUse" gradientTransform="translate(670 20.563)"/></defs><path d="M97.5 140a27.5 27.5 0 00-26.938 21.969A17.5 17.5 0 0062.5 160 17.5 17.5 0 0045 177.5 17.5 17.5 0 0062.5 195a17.5 17.5 0 00.05 0H155a10 10 0 0010-10 10 10 0 00-10-10 10 10 0 00-7.871 3.83 20 20 0 00.371-3.83 20 20 0 00-20-20 20 20 0 00-5.17.68A27.5 27.5 0 0097.5 140z" fill="url(#c)" opacity=".5"/><path d="M905 175.563a20 20 0 00-20 20 20 20 0 0020 20h27.5a12.5 12.5 0 0012.5-12.5 12.5 12.5 0 00-12.5-12.5 12.5 12.5 0 00-7.643 2.611A20 20 0 00905 175.563z" opacity=".5" fill="url(#d)" transform="translate(-620 9.437)"/></svg>