<svg xmlns="http://www.w3.org/2000/svg" xmlns:xlink="http://www.w3.org/1999/xlink" height="400" width="1400"><defs><linearGradient xlink:href="#a" id="b" x1="85" y1="107.162" x2="85" y2="86" gradientUnits="userSpaceOnUse" gradientTransform="matrix(-3.35406 0 0 3.35406 1487.997 -204.114)"/><linearGradient id="a"><stop offset="0" stop-color="#eef4fc"/><stop offset="1" stop-color="#fff"/></linearGradient></defs><g transform="translate(-620 9.437)" fill="url(#b)"><path d="M1166.008 10.547c26.202.037 49.986 15.314 60.903 39.134a50.322 50.322 0 0122.947-5.595c26.466.038 48.382 20.557 50.142 46.964h.171c18.524 0 33.54 15.016 33.54 33.54s-15.017 33.54-33.541 33.54h-187.826a40.25 40.25 0 01-40.25-40.248 40.25 40.25 0 0126.951-37.943 70.535 70.535 0 01-.119-2.305c0-37.048 30.033-67.081 67.082-67.081z"/><path style="font-variation-settings:normal" d="M840.531 22.467a58.83 58.83 0 00-58.568 55.674c-21.123 3.313-37.184 21.502-37.184 43.584 0 24.446 19.68 44.127 44.127 44.127H903.56c18.909 0 34.132-15.222 34.132-34.131s-15.223-34.133-34.132-34.133h-6.32a58.83 58.83 0 002.3-16.29 58.83 58.83 0 00-58.83-58.83 58.83 58.83 0 00-.178 0z"/></g></svg>