<svg xmlns="http://www.w3.org/2000/svg" xmlns:xlink="http://www.w3.org/1999/xlink" width="600" height="300"><defs><linearGradient id="a"><stop offset="0" stop-color="#f6f5f4"/><stop offset="1" stop-color="#fff"/></linearGradient><linearGradient xlink:href="#a" id="c" x1="528.343" y1="97.273" x2="528.343" y2="40.253" gradientUnits="userSpaceOnUse"/><clipPath clipPathUnits="userSpaceOnUse" id="d"><path style="font-variation-settings:normal" d="M210.32 87.069c-2.581 7.554-10.978 13.208-21.172 13.584-10.213.377-19.234-4.653-22.653-12.006-1.16-2.492.877-4.87 3.636-4.972l36.014-1.33c2.758-.101 5.063 2.123 4.175 4.724z" fill="#9141ac" stroke-linejoin="round"/></clipPath><clipPath clipPathUnits="userSpaceOnUse" id="b"><path d="M478.634 30.837h100.05a28.735 28.735 19.87 0118.372 6.64l24.825 20.64a17.992 17.992 87.893 01.985 26.787l-26.32 25.377a25.733 25.733 158.022 01-17.861 7.208H478.634a10.385 10.385 45 01-10.385-10.385V41.222a10.385 10.385 135 0110.385-10.385z" fill="#c061cb" stroke-linejoin="round"/></clipPath></defs><path style="marker:none" d="M152.62.225c-16.325 0-29.193 12.867-29.193 29.192 0 16.324 12.868 29.194 29.192 29.194h33.429a8.763 8.763 0 010 17.524c-16.325 0-29.194 12.866-29.194 29.19 0 12.363 7.48 22.695 18.113 27.031 8.893 3.635 6.298 16.865-3.31 16.873h-51.88c-16.324 0-29.191 12.868-29.191 29.192 0 16.326 12.867 29.194 29.191 29.194H261.26c9.153.502 11.485 13.286 2.763 16.85-10.633 4.336-18.112 14.667-18.112 27.03 0 16.326 12.868 29.194 29.192 29.194h174.71c16.325 0 29.193-12.868 29.193-29.193 0-16.324-12.867-29.192-29.192-29.192h-51.881c-9.608-.01-12.202-13.24-3.308-16.874 10.632-4.336 18.113-14.668 18.113-27.03 0-16.325-12.87-29.193-29.194-29.193a8.763 8.763 0 010-17.522h72.695c16.324 0 29.192-12.87 29.192-29.194 0-16.325-12.868-29.192-29.192-29.192H281.53c-.228 0-.452.012-.679.017-4.692-4.954-2.382-14.705 7.21-14.705 16.323 0 29.193-12.87 29.193-29.194 0-16.324-12.87-29.192-29.194-29.192z" fill="#3584e4"/><path style="line-height:normal;font-variant-ligatures:normal;font-variant-position:normal;font-variant-caps:normal;font-variant-numeric:normal;font-variant-alternates:normal;font-variant-east-asian:normal;font-feature-settings:normal;font-variation-settings:normal;text-indent:0;text-align:start;text-decoration-line:none;text-decoration-style:solid;text-decoration-color:#000;text-transform:none;text-orientation:mixed;white-space:normal;shape-padding:0;shape-margin:0;inline-size:0;isolation:auto;mix-blend-mode:normal;solid-color:#000;solid-opacity:1" d="M224.48 106.171l-.072.001a3.1 3.1 133.421 00-3.059 3.232l.124 2.889a3.493 3.493 117.893 01-1.651 3.119l-.006.004a2.232 2.232 10.727 01-2.962-.562l-1.416-1.893-6.656-11.936a3.212 3.212 15.651 00-4.39-1.23 3.03 3.03 103.579 00-1.039 4.3l6.517 9.922a2.184 2.184 99.097 01-.466 2.908 1.87 1.87 8.933 01-2.671-.42l-7.028-9.708a3.065 3.065 7.554 00-4.411-.585 3.171 3.171 95.217 00-.41 4.493l7.406 8.925a2.007 2.007 95.13 01-.253 2.817 1.915 1.915 10.362 01-2.533-.463l-4.174-4.09a2.826 2.826 175.562 00-4.243.329 3.142 3.142 76.931 00.953 4.106l6.52 5.961 7.43 8.282a8.158 8.158 4.556 0011.207.893l5.338-4.322a15.455 15.455 114.352 005.717-12.63l-.45-11.189a3.285 3.285 43.496 00-3.322-3.152z" color="#000" font-weight="400" font-family="sans-serif" overflow="visible"/><path d="M219.167 133.753c2.85 6.12 7.865 11.205 13.943 14.141 6.079 2.937 13.179 3.704 19.745 2.134 7.03-1.68 13.383-6.04 17.482-11.993 4.099-5.954 5.903-13.445 4.965-20.612" fill="none" stroke="#000" stroke-width="5"/><path style="font-variation-settings:normal" fill="#77767b" d="M291.125 109.195h8.391v171.143h-8.391z"/><path d="M334.056 225.11c-5.572-1.783-11.785-1.48-17.156.839-5.37 2.318-9.853 6.631-12.377 11.909-2.109 4.41-2.848 9.338-3.323 14.202a149.269 149.269 0 00-.082 28.104" fill="none" stroke="#26a269" stroke-width="4"/><g transform="translate(-1069.036 -82.296) scale(.3438)"><circle style="marker:none" cx="4050.5" cy="823" r="24.5" fill="#fff"/><circle transform="rotate(60)" r="24.5" cy="-3113.836" cx="2768.3" style="marker:none" fill="#fff"/><circle style="marker:none" cx="-1282.2" cy="-3971.835" r="24.5" transform="rotate(120)" fill="#fff"/><circle transform="scale(-1)" r="24.5" cy="-893" cx="-4050.5" style="marker:none" fill="#fff"/><circle style="marker:none" cx="-2768.3" cy="3043.836" r="24.5" transform="rotate(-120)" fill="#fff"/><circle transform="rotate(-60)" r="24.5" cy="3901.836" cx="1282.2" style="marker:none" fill="#fff"/><circle r="24.5" cy="857" cx="4050.5" style="marker:none" fill="#f5c211"/></g><path d="M243.432 35.629a10.52 10.52 0 00-3.996.814 10.526 10.526 0 00-3.385 2.278 10.512 10.512 0 00-3.053 7.394v65.883c0 1.373.274 2.744.799 4.012a10.523 10.523 0 002.273 3.402c.97.97 2.135 1.748 3.403 2.274 1.268.525 2.639.798 4.011.798h100.051c3.303 0 6.605-.642 9.668-1.879a25.915 25.915 0 008.264-5.359l26.32-25.377a18.157 18.157 0 004.22-6.256 18.157 18.157 0 001.302-7.433 18.158 18.158 0 00-1.844-7.319 18.163 18.163 0 00-4.67-5.93l-24.824-20.64a28.91 28.91 0 00-8.635-4.945 28.906 28.906 0 00-9.8-1.717H243.431z" fill="#deddda"/><path d="M346.506 57.188v65.117a25.922 25.922 0 006.697-1.7 25.914 25.914 0 008.264-5.359l26.32-25.377a18.157 18.157 0 004.22-6.256 18.157 18.157 0 001.302-7.433 18.158 18.158 0 00-1.844-7.319 18.163 18.163 0 00-4.67-5.93l-6.908-5.743h-33.381z" fill="#ebe8e5"/><path style="font-variation-settings:normal" d="M346.46 63.705l40.857 22.701.009 3.908.46-.445a18.157 18.157 0 004.221-6.256 18.157 18.157 0 001.301-7.433 18.158 18.158 0 00-1.844-7.319 18.166 18.166 0 00-3.804-5.156z" fill="#c01c28"/><g clip-path="url(#b)" transform="translate(-235.15 .893)"><path d="M478.634 30.837h100.05a28.735 28.735 19.87 0118.372 6.64l24.825 20.64a17.992 17.992 87.893 01.985 26.787l-26.32 25.377a25.733 25.733 158.022 01-17.861 7.208H478.634a10.385 10.385 45 01-10.385-10.385V41.222a10.385 10.385 135 0110.385-10.385z" fill="url(#c)"/><circle cx="512.57" cy="59.295" r="4.701"/><circle cx="538.943" cy="59.295" r="4.701"/><g clip-path="url(#d)" transform="translate(338.794 -5.931)"><path style="font-variation-settings:normal" d="M210.32 87.069c-2.581 7.554-10.978 13.208-21.172 13.584-10.213.377-19.234-4.653-22.653-12.006-1.16-2.492.877-4.87 3.636-4.972l36.014-1.33c2.758-.101 5.063 2.123 4.175 4.724z"/><path style="font-variation-settings:normal" d="M162.496 74.422h55.2l1.202 14.834-56.402 3.002z" fill="#fff"/><path style="font-variation-settings:normal" d="M210.32 88.016c-2.581 7.554-10.978 13.208-21.172 13.584-10.213.377-19.234-4.653-22.653-12.006-1.16-2.492.877-4.87 3.636-4.972l36.014-1.33c2.758-.101 5.063 2.124 4.175 4.724z" fill="none" stroke="#000" stroke-width="2" stroke-linejoin="round" stroke-opacity=".139"/></g><path style="font-variation-settings:normal" fill="#fff" d="M581.57 15.522h81.229v136.944H581.57z"/><path style="font-variation-settings:normal" fill="#ed333b" d="M581.611 58.813h86.339v26.608h-86.339z"/></g><path d="M324.678 267.872c0 6.984-6.228 12.739-12.646 12.646l-12.515-.18-.13-12.466c-.074-6.984 5.661-12.646 12.645-12.646s12.646 5.662 12.646 12.646zm-50.347-19.367c0 6.984 6.229 12.738 12.646 12.646l12.516-.18.13-12.466c.074-6.984-5.661-12.646-12.646-12.646-6.984 0-12.646 5.661-12.646 12.646z" fill="#26a269"/></svg>