<svg xmlns="http://www.w3.org/2000/svg" xmlns:xlink="http://www.w3.org/1999/xlink" height="400" width="1400"><defs><linearGradient id="b"><stop offset="0" stop-color="#c5dcf7"/><stop offset="1" stop-color="#fff"/></linearGradient><linearGradient xlink:href="#a" id="c" x1="85" y1="107.162" x2="85" y2="86" gradientUnits="userSpaceOnUse" gradientTransform="matrix(-3.35406 0 0 3.35406 1487.997 -204.114)"/><linearGradient id="a"><stop offset="0" stop-color="#eef4fc"/><stop offset="1" stop-color="#fff"/></linearGradient><linearGradient xlink:href="#b" id="d" gradientUnits="userSpaceOnUse" gradientTransform="matrix(-2.7272 0 0 2.7272 1434.713 -153.978)" x1="85" y1="107.162" x2="85" y2="86"/><linearGradient xlink:href="#b" id="e" gradientUnits="userSpaceOnUse" gradientTransform="matrix(-2.57314 0 0 2.57314 1337.412 -173.264)" x1="85" y1="110.304" x2="85" y2="86.986"/><linearGradient xlink:href="#b" id="f" gradientUnits="userSpaceOnUse" gradientTransform="translate(1495.83 -136.448) scale(1.54638)" x1="85" y1="107.162" x2="85" y2="82.135"/></defs><g transform="translate(-620 199.437)" fill="url(#c)"><path d="M1172.903 20.563c21.305.03 40.644 12.452 49.52 31.82a40.917 40.917 0 0118.66-4.55c21.519.032 39.339 16.716 40.77 38.187h.139c15.062 0 27.271 12.21 27.271 27.272 0 15.061-12.21 27.271-27.272 27.271h-152.722a32.727 32.727 0 01-32.727-32.726 32.727 32.727 0 0121.914-30.851 57.352 57.352 0 01-.097-1.874c0-30.124 24.42-54.544 54.544-54.544z" fill="url(#d)"/><path style="font-variation-settings:normal" d="M840.695.562a45.133 45.133 0 00-44.932 42.712c-16.205 2.541-28.526 16.495-28.526 33.436 0 18.754 15.098 33.853 33.853 33.853h87.959a26.127 26.127 0 0026.185-26.184 26.129 26.129 0 00-26.185-26.186h-4.848a45.133 45.133 0 001.764-12.497A45.133 45.133 0 00840.832.563a45.133 45.133 0 00-.136 0z" fill="url(#e)"/><path d="M1644.283-37.48a30.932 30.932 0 00-28.08 18.043 23.2 23.2 0 00-10.58-2.58c-12.201.018-22.305 9.478-23.117 21.653h-.079c-8.54 0-15.463 6.923-15.463 15.464 0 8.54 6.923 15.463 15.464 15.463h86.596a18.557 18.557 0 0018.557-18.556 18.557 18.557 0 00-12.426-17.494 32.52 32.52 0 00.055-1.062c0-17.081-13.846-30.928-30.927-30.928z" fill="url(#f)"/></g></svg>