<svg xmlns="http://www.w3.org/2000/svg" height="400" width="1400"><path d="M596.267 43.286c-31.915.025-61.063 18.122-75.242 46.714a67.45 67.45 0 00-6.394-.307c-37.254-.001-67.455 30.2-67.454 67.454 0 5.305.625 10.591 1.863 15.75h282.306c-1.25-28.233-23.197-51.184-51.346-53.694-4.192-43.067-40.394-75.916-83.664-75.917h-.068zM341.745 94.494c-18.223.001-34.407 11.646-40.2 28.924a35.635 35.635 0 00-13.477-2.651c-19.682 0-35.638 15.955-35.637 35.637 0 6.091 1.56 12.081 4.534 17.398h105.65a42.402 42.402 0 0021.532-36.906c0-23.418-18.984-42.402-42.402-42.402z" fill="#fff"/></svg>