<svg xmlns="http://www.w3.org/2000/svg" xmlns:xlink="http://www.w3.org/1999/xlink" height="400" width="1000"><defs><linearGradient id="a"><stop offset="0" stop-color="#3584e4"/><stop offset="1" stop-color="#1a5fb4"/></linearGradient><linearGradient xlink:href="#a" id="b" x1="1220" y1="370.563" x2="1220" y2="70.563" gradientUnits="userSpaceOnUse" gradientTransform="matrix(.96154 0 0 .85333 23.846 -1.384)"/></defs><path d="M620-9.437h1000v320H620z" fill="url(#b)" transform="translate(-620 9.437)"/><path d="M234.228 23.725c-24.262 0-43.796 19.531-43.796 43.793 0 .834.03 1.66.075 2.482a21.883 21.883 0 00-13.472-4.615 21.924 21.924 0 00-21.971 21.972c0 3.318.749 6.448 2.055 9.262h173.98c.393-2.113.59-4.257.59-6.407 0-19.334-15.671-35.008-35.005-35.008a35.005 35.005 0 00-19.154 5.708c-3.168-21.105-21.287-37.187-43.302-37.187zM404.055 58.226a27.9 27.9 0 00-27.962 27.96c0 3.675.723 7.17 2 10.38h50.427c.5 0 .987.029 1.48.046a27.984 27.984 0 002.017-10.425 27.9 27.9 0 00-27.962-27.96z" fill="#99c1f1"/></svg>