<svg xmlns="http://www.w3.org/2000/svg" height="400" width="1400"><g fill="#fff"><path d="M596.267 79.868a84.062 84.062 0 00-75.242 46.714 67.453 67.453 0 00-6.394-.307 67.453 67.453 0 00-67.454 67.454 67.453 67.453 0 001.863 15.75h282.306A56.41 56.41 0 00680 155.785a84.062 84.062 0 00-83.664-75.917 84.062 84.062 0 00-.068 0zM341.745 131.076a42.402 42.402 0 00-40.2 28.924 35.635 35.635 0 00-13.477-2.651 35.635 35.635 0 00-35.637 35.637 35.635 35.635 0 004.534 17.398h62.197a35.635 35.635 0 00.416-.76 42.402 42.402 0 001.29.76h41.747a42.402 42.402 0 0021.532-36.906 42.402 42.402 0 00-42.402-42.402z"/></g></svg>