<svg xmlns="http://www.w3.org/2000/svg" height="300" width="600"><defs><clipPath id="a" clipPathUnits="userSpaceOnUse"><path style="marker:none" d="M228.46 29.202h833.574V319.49c-330.237 0-408.683 175.77-833.574 175.77z" color="#000" overflow="visible" fill="#babdb6"/></clipPath><clipPath id="b" clipPathUnits="userSpaceOnUse"><path style="marker:none" color="#bebebe" overflow="visible" fill="#bebebe" stroke-width="2" d="M26.85 220.75h3.825v6.375H26.85z"/></clipPath><clipPath id="c" clipPathUnits="userSpaceOnUse"><path style="marker:none" color="#bebebe" overflow="visible" fill="#bebebe" stroke-width="2" d="M26.966 221.33h2.898v5.216h-2.898z"/></clipPath><clipPath id="d" clipPathUnits="userSpaceOnUse"><path style="marker:none" color="#bebebe" overflow="visible" fill="#bebebe" stroke-width="2" d="M26.999 221.502h1.876v4.873h-1.876z"/></clipPath></defs><g clip-path="url(#a)" transform="matrix(.59339 0 0 .59339 -79.99 -13.822)"><g transform="matrix(4 0 0 4 172 -591)"><path style="marker:none" color="#bebebe" overflow="visible" fill="none" d="M20 276h16v16H20z"/><rect style="marker:none" width="2" height="2" x="23.062" y="279" rx=".385" ry=".379" color="#000" overflow="visible"/><rect ry=".379" rx=".385" y="279" x="27.062" height="2" width="2" style="marker:none" color="#000" overflow="visible"/><rect style="marker:none" width="2" height="2" x="31.062" y="279" rx=".385" ry=".379" color="#000" overflow="visible"/><rect ry=".379" rx=".385" y="283.016" x="23.062" height="2" width="2" style="marker:none" color="#000" overflow="visible"/><rect style="marker:none" width="2" height="2" x="27.062" y="283.016" rx=".385" ry=".379" color="#000" overflow="visible"/><rect ry=".379" rx=".385" y="283.016" x="31.062" height="2" width="2" style="marker:none" color="#000" overflow="visible"/><rect style="marker:none" width="2" height="2" x="23.062" y="287" rx=".385" ry=".379" color="#000" overflow="visible"/><rect ry=".379" rx=".385" y="287" x="27.062" height="2" width="2" style="marker:none" color="#000" overflow="visible"/><rect style="marker:none" width="2" height="2" x="31.062" y="287" rx=".385" ry=".379" color="#000" overflow="visible"/></g><path style="marker:none" d="M239.06 57.414h800.88V108.9s-4.029-10.606-11.1-10.96L249 99c-4.596-.354-9.94 5.5-9.94 5.5z" color="#000" overflow="visible" fill="#fff"/><path style="marker:none" color="#000" overflow="visible" fill="#fff" stroke="#3584e4" stroke-width="3.372" d="M240.001 58.15h800.743v599.998H240.001z"/><path d="M1039.199 108.555c0-5.898-4.781-10.68-10.68-10.68H250.52c-5.898 0-10.68 4.782-10.68 10.68" fill="none" stroke="#3584e4" stroke-width="1.685" stroke-linecap="round"/><text y="86.187" x="628.846" style="line-height:0%;-inkscape-font-specification:'Cantarell Bold';text-align:center" font-weight="700" font-family="Cantarell" letter-spacing="0" word-spacing="0" text-anchor="middle" fill="#3584e4" transform="translate(11)"><tspan style="line-height:1.25" y="86.187" x="628.846" font-size="21.262">14:30</tspan></text><path d="M915.778 96.192h113.146c5.899 0 10.68 4.781 10.68 10.68" fill="none" stroke="#3584e4" stroke-width="5" stroke-linecap="square"/><text y="86.187" x="238.059" style="line-height:0%;-inkscape-font-specification:'Cantarell Bold';text-align:start" font-weight="700" font-family="Cantarell" letter-spacing="0" word-spacing="0" fill="#3584e4" transform="translate(11)"><tspan style="line-height:1.25" y="86.187" x="238.059" font-size="21.262">Activities</tspan></text><path style="marker:none" color="#000" overflow="visible" opacity=".706" fill="none" d="M733.912 129.896h32.362v32.362h-32.362z"/></g><g fill="#3584e4"><path style="marker:none" d="M488.249 30.825h1.993l2.383-2.408.439.013v8.827h-.382l-2.44-2.42h-1.993z" color="#bebebe" overflow="visible"/><path style="line-height:normal;font-variant-ligatures:normal;font-variant-position:normal;font-variant-caps:normal;font-variant-numeric:normal;font-variant-alternates:normal;font-feature-settings:normal;text-indent:0;text-align:start;text-decoration-line:none;text-decoration-style:solid;text-decoration-color:#000;text-transform:none;text-orientation:mixed;white-space:normal;shape-padding:0;isolation:auto;mix-blend-mode:normal;solid-color:#000;solid-opacity:1" d="M27.178 220.396a1.275 1.275 0 00-.889 2.19 1.91 1.91 0 010 2.703 1.276 1.276 0 101.805 1.805 4.466 4.466 0 000-6.313 1.275 1.275 0 00-.916-.385z" clip-path="url(#b)" transform="matrix(.62939 0 0 .62939 476.967 -108.112)" color="#000" font-weight="400" font-family="sans-serif" overflow="visible"/><path style="line-height:normal;font-variant-ligatures:normal;font-variant-position:normal;font-variant-caps:normal;font-variant-numeric:normal;font-variant-alternates:normal;font-feature-settings:normal;text-indent:0;text-align:start;text-decoration-line:none;text-decoration-style:solid;text-decoration-color:#000;text-transform:none;text-orientation:mixed;white-space:normal;shape-padding:0;isolation:auto;mix-blend-mode:normal;solid-color:#000;solid-opacity:1" d="M27.186 221.098a.58.58 0 00-.405.996 2.606 2.606 0 010 3.687.58.58 0 10.82.82 3.769 3.769 0 000-5.328.58.58 0 00-.415-.175z" clip-path="url(#c)" transform="matrix(1.38465 0 0 1.38465 458.132 -277.244)" color="#000" font-weight="400" font-family="sans-serif" overflow="visible"/><path style="line-height:normal;font-variant-ligatures:normal;font-variant-position:normal;font-variant-caps:normal;font-variant-numeric:normal;font-variant-alternates:normal;font-feature-settings:normal;text-indent:0;text-align:start;text-decoration-line:none;text-decoration-style:solid;text-decoration-color:#000;text-transform:none;text-orientation:mixed;white-space:normal;shape-padding:0;isolation:auto;mix-blend-mode:normal;solid-color:#000;solid-opacity:1" d="M27.188 221.305a.375.375 0 00-.262.644 2.811 2.811 0 010 3.977.376.376 0 10.531.531 3.564 3.564 0 000-5.039.375.375 0 00-.27-.113z" clip-path="url(#d)" transform="matrix(2.13992 0 0 2.13992 439.298 -446.375)" color="#000" font-weight="400" font-family="sans-serif" overflow="visible" opacity=".35"/><path style="line-height:normal;font-variant-ligatures:normal;font-variant-position:normal;font-variant-caps:normal;font-variant-numeric:normal;font-variant-alternates:normal;font-feature-settings:normal;text-indent:0;text-align:start;text-decoration-line:none;text-decoration-style:solid;text-decoration-color:#000;text-transform:none;text-orientation:mixed;white-space:normal;shape-padding:0;isolation:auto;mix-blend-mode:normal;solid-color:#000;solid-opacity:1;marker:none" d="M508.342 28.257a.803.803 0 00-.437.113 5.625 5.625 0 00-2.613 6.315 5.624 5.624 0 005.418 4.164 5.622 5.622 0 005.429-4.148 5.626 5.626 0 00-2.595-6.323.803.803 0 10-.807 1.387 4.007 4.007 0 011.853 4.516 4.004 4.004 0 01-3.878 2.964 4.004 4.004 0 01-3.869-2.975 4.006 4.006 0 011.866-4.511.803.803 0 00-.367-1.502z" color="#000" font-weight="400" font-family="sans-serif" overflow="visible"/><path style="line-height:normal;font-variant-ligatures:normal;font-variant-position:normal;font-variant-caps:normal;font-variant-numeric:normal;font-variant-alternates:normal;font-feature-settings:normal;text-indent:0;text-align:start;text-decoration-line:none;text-decoration-style:solid;text-decoration-color:#000;text-transform:none;text-orientation:mixed;white-space:normal;shape-padding:0;isolation:auto;mix-blend-mode:normal;solid-color:#000;solid-opacity:1" d="M510.705 26.8a.803.803 0 00-.79.815v4.013a.803.803 0 101.605 0v-4.013a.803.803 0 00-.815-.814z" color="#000" font-weight="400" font-family="sans-serif" overflow="visible"/><path style="line-height:normal;-inkscape-font-specification:Sans;text-indent:0;text-align:start;text-decoration-line:none;text-transform:none;marker:none" d="M473.662 27.681a1.42 1.42 0 00-1.404 1.404v3.611c0 .765.64 1.405 1.404 1.405h.1l-.627 1.254-.577 1.153h7.423l-.576-1.153-.627-1.254h.1a1.42 1.42 0 001.404-1.405v-3.61a1.42 1.42 0 00-1.404-1.405zm.2 1.605h4.815v3.21h-4.815z" color="#bebebe" font-weight="400" font-family="Sans" overflow="visible"/><path style="line-height:normal;font-variant-ligatures:normal;font-variant-position:normal;font-variant-caps:normal;font-variant-numeric:normal;font-variant-alternates:normal;font-feature-settings:normal;text-indent:0;text-align:start;text-decoration-line:none;text-decoration-style:solid;text-decoration-color:#000;text-transform:none;text-orientation:mixed;white-space:normal;shape-padding:0;isolation:auto;mix-blend-mode:normal;solid-color:#000;solid-opacity:1;marker:none" d="M475.467 34.904v3.21h1.606v-3.21z" color="#bebebe" font-weight="400" font-family="sans-serif" overflow="visible"/><path style="line-height:normal;font-variant-ligatures:normal;font-variant-position:normal;font-variant-caps:normal;font-variant-numeric:normal;font-variant-alternates:normal;font-feature-settings:normal;text-indent:0;text-align:start;text-decoration-line:none;text-decoration-style:solid;text-decoration-color:#000;text-transform:none;text-orientation:mixed;white-space:normal;shape-padding:0;isolation:auto;mix-blend-mode:normal;solid-color:#000;solid-opacity:1;marker:none" d="M471.455 38.113v1.605h9.63v-1.605z" color="#bebebe" font-weight="400" font-family="sans-serif" overflow="visible"/><path d="M528.458 33.566l-3.01 3.01-3.008-3.01z" style="marker:none" color="#000" overflow="visible"/></g><path style="marker:none" d="M538.272 175.362c-196.154 0-223.372 104.707-475.75 104.707" color="#000" overflow="visible" fill="none" stroke="#3584e4" stroke-dasharray="2,4" stroke-width=".5"/><path d="M496.913 49.208l-9.573 9.573H365.25a8.307 8.307 0 00-8.327 8.328v152.26c0 4.616 3.713 8.354 8.328 8.354h152.26a8.351 8.351 0 008.355-8.353V67.109c0-4.616-3.739-8.328-8.354-8.328H506.46z" style="marker:none" color="#000" overflow="visible" fill="#3584e4"/></svg>