<?xml version="1.0" encoding="UTF-8" standalone="no"?>
<svg
   xmlns:dc="http://purl.org/dc/elements/1.1/"
   xmlns:cc="http://creativecommons.org/ns#"
   xmlns:rdf="http://www.w3.org/1999/02/22-rdf-syntax-ns#"
   xmlns:svg="http://www.w3.org/2000/svg"
   xmlns="http://www.w3.org/2000/svg"
   xmlns:sodipodi="http://sodipodi.sourceforge.net/DTD/sodipodi-0.dtd"
   xmlns:inkscape="http://www.inkscape.org/namespaces/inkscape"
   width="600"
   height="300"
   version="1.1"
   id="svg5831"
   sodipodi:docname="touch.svg"
   inkscape:version="1.0.1 (3bc2e813f5, 2020-09-07)">
  <metadata
     id="metadata5835">
    <rdf:RDF>
      <cc:Work
         rdf:about="">
        <dc:format>image/svg+xml</dc:format>
        <dc:type
           rdf:resource="http://purl.org/dc/dcmitype/StillImage" />
      </cc:Work>
    </rdf:RDF>
  </metadata>
  <sodipodi:namedview
     pagecolor="#ffffff"
     bordercolor="#666666"
     borderopacity="1"
     objecttolerance="10"
     gridtolerance="10"
     guidetolerance="10"
     inkscape:pageopacity="0"
     inkscape:pageshadow="2"
     inkscape:window-width="640"
     inkscape:window-height="480"
     id="namedview5833"
     showgrid="false"
     inkscape:current-layer="svg5831">
    <inkscape:grid
       type="xygrid"
       id="grid6655" />
  </sodipodi:namedview>
  <defs
     id="defs5677">
    <clipPath
       clipPathUnits="userSpaceOnUse"
       id="a">
      <rect
         y="-101.694"
         x="508.542"
         height="80.287"
         width="271.154"
         rx="0"
         ry="0"
         fill="#1a5fb4"
         stroke-width="2.793"
         stroke-linecap="round"
         id="rect5674" />
    </clipPath>
    <inkscape:path-effect
       effect="fillet_chamfer"
       id="path-effect5947"
       is_visible="true"
       lpeversion="1"
       satellites_param="F,0,0,1,0,0,0,1 @ F,0,0,1,0,7,0,1 @ F,0,0,1,0,7,0,1 @ F,0,0,1,0,0,0,1 @ F,0,0,1,0,7,0,1 @ F,0,0,1,0,7,0,1 @ F,0,0,1,0,0,0,1 @ F,0,0,1,0,7,0,1 @ F,0,0,1,0,7,0,1 @ F,0,0,1,0,0,0,1 @ F,0,0,1,0,10,0,1 @ F,0,0,1,0,49.934383,0,1 @ F,0,0,1,0,10.249995,0,1 @ F,0,1,1,0,20.00002,0,1 @ F,0,0,1,0,7,0,1 @ F,0,0,1,0,7,0,1"
       unit="px"
       method="auto"
       mode="F"
       radius="0"
       chamfer_steps="1"
       flexible="false"
       use_knot_distance="true"
       apply_no_radius="true"
       apply_with_radius="true"
       only_selected="false"
       hide_knots="false" />
  </defs>
  <rect
     style="opacity:0.5;fill:#62a0ea;fill-opacity:1;stroke:#1c71d8;stroke-width:4;stroke-linecap:round;stroke-linejoin:round;stroke-opacity:1"
     id="rect5937"
     width="89.392761"
     height="69.076294"
     x="175.42412"
     y="128.47729"
     rx="10.000045"
     ry="10.000045" />
  <g
     id="g5943"
     style="stroke:#62a0ea;stroke-width:1.23052;stroke-opacity:1"
     transform="matrix(0.81266145,0,0,0.81266145,-172.7036,-1050.7511)">
    <path
       style="fill:none;stroke:#62a0ea;stroke-width:4.9221;stroke-linecap:butt;stroke-linejoin:miter;stroke-opacity:1"
       d="m 485,1434.5198 v -30"
       id="path5939"
       sodipodi:nodetypes="cc" />
    <path
       style="fill:none;stroke:#62a0ea;stroke-width:4.9221;stroke-linecap:butt;stroke-linejoin:miter;stroke-opacity:1"
       d="m 475,1414.5198 10,-10 10,10"
       id="path5941"
       sodipodi:nodetypes="ccc" />
  </g>
  <g
     id="g6029"
     style="opacity:1;stroke-width:1.23052"
     transform="matrix(0.81266145,0,0,0.81266145,5.0874053,55.088081)">
    <path
       style="color:#000000;font-style:normal;font-variant:normal;font-weight:normal;font-stretch:normal;font-size:medium;line-height:normal;font-family:sans-serif;font-variant-ligatures:normal;font-variant-position:normal;font-variant-caps:normal;font-variant-numeric:normal;font-variant-alternates:normal;font-variant-east-asian:normal;font-feature-settings:normal;font-variation-settings:normal;text-indent:0;text-align:start;text-decoration:none;text-decoration-line:none;text-decoration-style:solid;text-decoration-color:#000000;letter-spacing:normal;word-spacing:normal;text-transform:none;writing-mode:lr-tb;direction:ltr;text-orientation:mixed;dominant-baseline:auto;baseline-shift:baseline;text-anchor:start;white-space:normal;shape-padding:0;shape-margin:0;inline-size:0;clip-rule:nonzero;display:inline;overflow:visible;visibility:visible;isolation:auto;mix-blend-mode:normal;color-interpolation:sRGB;color-interpolation-filters:linearRGB;solid-color:#000000;solid-opacity:1;vector-effect:none;fill:#ffffff;fill-opacity:1;fill-rule:nonzero;stroke:none;stroke-width:4.9221;stroke-linecap:round;stroke-linejoin:miter;stroke-miterlimit:4;stroke-dasharray:none;stroke-dashoffset:0;stroke-opacity:1;color-rendering:auto;image-rendering:auto;shape-rendering:auto;text-rendering:auto;enable-background:accumulate;stop-color:#000000;stop-opacity:1"
       d="m 291.13138,186.9918 v -38 c 0,-3.86599 -3.13401,-7 -7,-7 -3.86599,0 -7,3.13401 -7,7 v 38 -49 c 0,-3.86599 -3.13401,-7 -7,-7 -3.86599,0 -7,3.13401 -7,7 v 49 -38 c 0,-3.86599 -3.13401,-7 -7,-7 -3.86599,0 -7,3.13401 -7,7 v 48 c 0,3.97106 -4.63156,6.14037 -7.68221,3.59816 l -13.95713,-11.63095 c -5.57907,-4.64922 -13.20074,2.49848 -8.9188,8.36416 l 19.26463,26.38994 c 3.79794,5.20266 9.85208,8.27879 16.2935,8.27879 h 30.99999 c 11.04571,0 20.00002,-8.95431 20.00002,-20.00002 V 186.9918 c 0,-3.86599 -3.13401,-7 -7,-7 -3.86599,0 -7,3.13401 -7,7 z"
       id="path6031" />
    <path
       style="color:#000000;font-style:normal;font-variant:normal;font-weight:normal;font-stretch:normal;font-size:medium;line-height:normal;font-family:sans-serif;font-variant-ligatures:normal;font-variant-position:normal;font-variant-caps:normal;font-variant-numeric:normal;font-variant-alternates:normal;font-variant-east-asian:normal;font-feature-settings:normal;font-variation-settings:normal;text-indent:0;text-align:start;text-decoration:none;text-decoration-line:none;text-decoration-style:solid;text-decoration-color:#000000;letter-spacing:normal;word-spacing:normal;text-transform:none;writing-mode:lr-tb;direction:ltr;text-orientation:mixed;dominant-baseline:auto;baseline-shift:baseline;text-anchor:start;white-space:normal;shape-padding:0;shape-margin:0;inline-size:0;clip-rule:nonzero;display:inline;overflow:visible;visibility:visible;isolation:auto;mix-blend-mode:normal;color-interpolation:sRGB;color-interpolation-filters:linearRGB;solid-color:#000000;solid-opacity:1;vector-effect:none;fill:#62a0ea;fill-opacity:1;fill-rule:nonzero;stroke:none;stroke-width:4.9221;stroke-linecap:round;stroke-linejoin:miter;stroke-miterlimit:4;stroke-dasharray:none;stroke-dashoffset:0;stroke-opacity:1;color-rendering:auto;image-rendering:auto;shape-rendering:auto;text-rendering:auto;enable-background:accumulate;stop-color:#000000;stop-opacity:1"
       d="m 270.13086,128.99219 c -4.94687,0 -9,4.05312 -9,9 v 3.72851 c -1.45181,-1.00471 -3.11243,-1.72851 -5,-1.72851 -4.94687,0 -9,4.05312 -9,9 v 48 c 0,2.41595 -2.5444,3.6072 -4.40039,2.06054 l -13.95899,-11.63085 c -3.52085,-2.93405 -8.11886,-2.2024 -10.80468,0.3164 -2.68583,2.5188 -3.71203,7.06194 -1.00977,10.76367 l 19.26563,26.39063 c 4.17336,5.71694 10.83003,9.09961 17.9082,9.09961 h 31 c 12.12659,0 22,-9.87342 22,-22 v -25 c 0,-4.94688 -4.05313,-9 -9,-9 -1.88785,0 -3.54807,0.72354 -5,1.72851 v -30.72851 c 0,-4.94688 -4.05313,-9 -9,-9 -1.88785,0 -3.54807,0.72354 -5,1.72851 v -3.72851 c 0,-4.94688 -4.05313,-9 -9,-9 z m 0,4 c 2.78511,0 5,2.21488 5,5 v 11 38 h 4 v -38 c 0,-2.78512 2.21489,-5 5,-5 2.78511,0 5,2.21488 5,5 v 38 h 4 c 0,-2.78512 2.21489,-5 5,-5 2.78511,0 5,2.21488 5,5 v 25 c 0,9.96482 -8.03517,18 -18,18 h -31 c -5.80469,0 -11.25523,-2.77061 -14.67774,-7.45899 l -19.26367,-26.38867 c -1.57967,-2.16394 -0.93562,-4.12912 0.51367,-5.48828 1.4493,-1.35916 3.44961,-1.87533 5.50782,-0.16016 l 13.95703,11.63086 c 4.24532,3.53777 10.96289,0.3914 10.96289,-5.13476 v -48 c 0,-2.78512 2.21489,-5 5,-5 2.78511,0 5,2.21488 5,5 v 38 h 4 v -38 -11 c 0,-2.78512 2.21489,-5 5,-5 z"
       id="path6033" />
  </g>
  <path
     fill="#3584e4"
     d="M 29.204106,185.68886 H 146.32429 v 64.975 H 29.204837 Z"
     id="path6005"
     style="stroke-width:1.128" />
  <path
     fill="#1a5fb4"
     d="M 29.204106,185.76891 H 146.32429 v 3.58988 H 29.204837 Z"
     id="path6007"
     style="stroke-width:1.128" />
  <rect
     ry="3.207"
     rx="3.207"
     width="53.12471"
     height="35.186272"
     x="43.228111"
     y="207.2128"
     fill="#ffffff"
     id="rect6009"
     style="stroke-width:0.999996" />
  <rect
     y="197.92848"
     x="108.90536"
     height="27.875536"
     width="27.609917"
     rx="2.839"
     ry="2.5510001"
     fill="#ffffff"
     id="rect6011"
     style="stroke-width:0.999996" />
  <path
     fill="#1a5fb4"
     d="M 29.204106,113.72348 H 146.32429 v 65.10808 H 29.204837 Z"
     id="path6015"
     style="stroke-width:1.128" />
  <rect
     style="fill:#3584e4;fill-opacity:1;stroke:none;stroke-width:2;stroke-linecap:round;stroke-opacity:0.501961;stop-color:#000000"
     id="rect6092"
     width="73.120186"
     height="40.565121"
     x="51.204105"
     y="121.84839"
     rx="4.3195367"
     ry="4.3195367" />
  <rect
     ry="3.2069998"
     rx="3.2069998"
     width="33.498676"
     height="22.187292"
     x="61.269337"
     y="131.58572"
     fill="#ffffff"
     id="rect6017"
     style="stroke-width:0.999997" />
  <rect
     y="133.58572"
     x="98.768013"
     height="17.577385"
     width="17.409895"
     rx="2.839"
     ry="2.5510001"
     fill="#ffffff"
     id="rect6019"
     style="stroke-width:0.999997" />
  <path
     fill="#3584e4"
     d="M 29.204106,40.287109 H 146.32429 V 105.2621 H 29.204837 Z"
     id="path6021"
     style="stroke-width:1.128;fill:#1a5fb4;fill-opacity:1" />
  <rect
     style="opacity:0.5;fill:#62a0ea;fill-opacity:1;stroke:#1c71d8;stroke-width:4;stroke-linecap:round;stroke-linejoin:round;stroke-opacity:1"
     id="rect6035"
     width="89.392761"
     height="69.076294"
     x="403.08487"
     y="128.47762"
     rx="10.000045"
     ry="10.000045" />
  <g
     id="g6041"
     style="stroke:#62a0ea;stroke-width:1.23052;stroke-opacity:1"
     transform="matrix(0,0.81266145,-0.81266145,0,1674.3527,-232.31151)">
    <path
       style="fill:none;stroke:#62a0ea;stroke-width:4.9221;stroke-linecap:butt;stroke-linejoin:miter;stroke-opacity:1"
       d="m 485,1434.5198 v -30"
       id="path6037"
       sodipodi:nodetypes="cc" />
    <path
       style="fill:none;stroke:#62a0ea;stroke-width:4.9221;stroke-linecap:butt;stroke-linejoin:miter;stroke-opacity:1"
       d="m 475,1414.5198 10,-10 10,10"
       id="path6039"
       sodipodi:nodetypes="ccc" />
  </g>
  <g
     id="g6047"
     style="opacity:1;stroke-width:1.23052"
     transform="matrix(0.81266145,0,0,0.81266145,245.56031,60.642597)">
    <path
       style="color:#000000;font-style:normal;font-variant:normal;font-weight:normal;font-stretch:normal;font-size:medium;line-height:normal;font-family:sans-serif;font-variant-ligatures:normal;font-variant-position:normal;font-variant-caps:normal;font-variant-numeric:normal;font-variant-alternates:normal;font-variant-east-asian:normal;font-feature-settings:normal;font-variation-settings:normal;text-indent:0;text-align:start;text-decoration:none;text-decoration-line:none;text-decoration-style:solid;text-decoration-color:#000000;letter-spacing:normal;word-spacing:normal;text-transform:none;writing-mode:lr-tb;direction:ltr;text-orientation:mixed;dominant-baseline:auto;baseline-shift:baseline;text-anchor:start;white-space:normal;shape-padding:0;shape-margin:0;inline-size:0;clip-rule:nonzero;display:inline;overflow:visible;visibility:visible;isolation:auto;mix-blend-mode:normal;color-interpolation:sRGB;color-interpolation-filters:linearRGB;solid-color:#000000;solid-opacity:1;vector-effect:none;fill:#ffffff;fill-opacity:1;fill-rule:nonzero;stroke:none;stroke-width:4.9221;stroke-linecap:round;stroke-linejoin:miter;stroke-miterlimit:4;stroke-dasharray:none;stroke-dashoffset:0;stroke-opacity:1;color-rendering:auto;image-rendering:auto;shape-rendering:auto;text-rendering:auto;enable-background:accumulate;stop-color:#000000;stop-opacity:1"
       d="m 291.13138,186.9918 v -38 c 0,-3.86599 -3.13401,-7 -7,-7 -3.86599,0 -7,3.13401 -7,7 v 38 -49 c 0,-3.86599 -3.13401,-7 -7,-7 -3.86599,0 -7,3.13401 -7,7 v 49 -38 c 0,-3.86599 -3.13401,-7 -7,-7 -3.86599,0 -7,3.13401 -7,7 v 48 c 0,3.97106 -4.63156,6.14037 -7.68221,3.59816 l -13.95713,-11.63095 c -5.57907,-4.64922 -13.20074,2.49848 -8.9188,8.36416 l 19.26463,26.38994 c 3.79794,5.20266 9.85208,8.27879 16.2935,8.27879 h 30.99999 c 11.04571,0 20.00002,-8.95431 20.00002,-20.00002 V 186.9918 c 0,-3.86599 -3.13401,-7 -7,-7 -3.86599,0 -7,3.13401 -7,7 z"
       id="path6043" />
    <path
       style="color:#000000;font-style:normal;font-variant:normal;font-weight:normal;font-stretch:normal;font-size:medium;line-height:normal;font-family:sans-serif;font-variant-ligatures:normal;font-variant-position:normal;font-variant-caps:normal;font-variant-numeric:normal;font-variant-alternates:normal;font-variant-east-asian:normal;font-feature-settings:normal;font-variation-settings:normal;text-indent:0;text-align:start;text-decoration:none;text-decoration-line:none;text-decoration-style:solid;text-decoration-color:#000000;letter-spacing:normal;word-spacing:normal;text-transform:none;writing-mode:lr-tb;direction:ltr;text-orientation:mixed;dominant-baseline:auto;baseline-shift:baseline;text-anchor:start;white-space:normal;shape-padding:0;shape-margin:0;inline-size:0;clip-rule:nonzero;display:inline;overflow:visible;visibility:visible;isolation:auto;mix-blend-mode:normal;color-interpolation:sRGB;color-interpolation-filters:linearRGB;solid-color:#000000;solid-opacity:1;vector-effect:none;fill:#62a0ea;fill-opacity:1;fill-rule:nonzero;stroke:none;stroke-width:4.9221;stroke-linecap:round;stroke-linejoin:miter;stroke-miterlimit:4;stroke-dasharray:none;stroke-dashoffset:0;stroke-opacity:1;color-rendering:auto;image-rendering:auto;shape-rendering:auto;text-rendering:auto;enable-background:accumulate;stop-color:#000000;stop-opacity:1"
       d="m 270.13086,128.99219 c -4.94687,0 -9,4.05312 -9,9 v 3.72851 c -1.45181,-1.00471 -3.11243,-1.72851 -5,-1.72851 -4.94687,0 -9,4.05312 -9,9 v 48 c 0,2.41595 -2.5444,3.6072 -4.40039,2.06054 l -13.95899,-11.63085 c -3.52085,-2.93405 -8.11886,-2.2024 -10.80468,0.3164 -2.68583,2.5188 -3.71203,7.06194 -1.00977,10.76367 l 19.26563,26.39063 c 4.17336,5.71694 10.83003,9.09961 17.9082,9.09961 h 31 c 12.12659,0 22,-9.87342 22,-22 v -25 c 0,-4.94688 -4.05313,-9 -9,-9 -1.88785,0 -3.54807,0.72354 -5,1.72851 v -30.72851 c 0,-4.94688 -4.05313,-9 -9,-9 -1.88785,0 -3.54807,0.72354 -5,1.72851 v -3.72851 c 0,-4.94688 -4.05313,-9 -9,-9 z m 0,4 c 2.78511,0 5,2.21488 5,5 v 11 38 h 4 v -38 c 0,-2.78512 2.21489,-5 5,-5 2.78511,0 5,2.21488 5,5 v 38 h 4 c 0,-2.78512 2.21489,-5 5,-5 2.78511,0 5,2.21488 5,5 v 25 c 0,9.96482 -8.03517,18 -18,18 h -31 c -5.80469,0 -11.25523,-2.77061 -14.67774,-7.45899 l -19.26367,-26.38867 c -1.57967,-2.16394 -0.93562,-4.12912 0.51367,-5.48828 1.4493,-1.35916 3.44961,-1.87533 5.50782,-0.16016 l 13.95703,11.63086 c 4.24532,3.53777 10.96289,0.3914 10.96289,-5.13476 v -48 c 0,-2.78512 2.21489,-5 5,-5 2.78511,0 5,2.21488 5,5 v 38 h 4 v -38 -11 c 0,-2.78512 2.21489,-5 5,-5 z"
       id="path6045" />
  </g>
  <path
     fill="#3584e4"
     d="M 325.75893,40.367159 H 442.87911 V 105.34216 H 325.75966 Z"
     id="path6049"
     style="stroke-width:1.128" />
  <path
     fill="#1a5fb4"
     d="m 325.75893,40.447209 h 117.12018 v 3.58988 H 325.75966 Z"
     id="path6051"
     style="stroke-width:1.128" />
  <rect
     ry="3.207"
     rx="3.207"
     width="53.12471"
     height="35.186272"
     x="339.78293"
     y="61.891098"
     fill="#ffffff"
     id="rect6053"
     style="stroke-width:0.999996" />
  <rect
     y="52.606781"
     x="405.46017"
     height="27.875536"
     width="27.609917"
     rx="2.839"
     ry="2.5510001"
     fill="#ffffff"
     id="rect6055"
     style="stroke-width:0.999996" />
  <path
     fill="#3584e4"
     d="M 450.47642,40.078169 H 567.5966 V 105.05317 H 450.47715 Z"
     id="path6057"
     style="stroke-width:1.128" />
  <path
     fill="#1a5fb4"
     d="M 450.47642,40.158219 H 567.5966 v 3.58987 H 450.47715 Z"
     id="path6059"
     style="stroke-width:1.128" />
  <rect
     y="51.160442"
     x="506.95914"
     height="37.864689"
     width="37.503887"
     rx="2.8389997"
     ry="2.5510001"
     fill="#ffffff"
     id="rect6063"
     style="stroke-width:0.999996" />
  <g
     id="g6081"
     style="stroke:#62a0ea;stroke-width:1.23052;stroke-opacity:1"
     transform="matrix(0,0.81266145,0.81266145,0,-782.34415,-232.31151)">
    <path
       style="fill:none;stroke:#62a0ea;stroke-width:4.9221;stroke-linecap:butt;stroke-linejoin:miter;stroke-opacity:1"
       d="m 485,1434.5198 v -30"
       id="path6077"
       sodipodi:nodetypes="cc" />
    <path
       style="fill:none;stroke:#62a0ea;stroke-width:4.9221;stroke-linecap:butt;stroke-linejoin:miter;stroke-opacity:1"
       d="m 475,1414.5198 10,-10 10,10"
       id="path6079"
       sodipodi:nodetypes="ccc" />
  </g>
  <path
     fill="#3584e4"
     d="m 136,121.84839 h 10.3768 v 40.56512 H 136.07588 C 133.81248,162.41351 132,160.88136 132,159 l -7e-5,-33.17916 c 0,-1.89789 2.08467,-3.97245 4.00007,-3.97245 z"
     id="path6083"
     style="stroke-width:1.128"
     sodipodi:nodetypes="ccccccc" />
  <path
     id="rect6085"
     style="fill:#ffffff;stroke-width:0.999997"
     d="M 140.33008 129.13672 C 138.75728 129.13672 137.49023 130.2762 137.49023 131.68945 L 137.49023 151.22656 C 137.49023 152.63981 138.75728 153.77734 140.33008 153.77734 L 146.36523 153.77734 L 146.36523 129.13672 L 140.33008 129.13672 z " />
  <g
     id="g6700">
    <rect
       style="fill:#3584e4;fill-opacity:1;stroke:none;stroke-width:2;stroke-linecap:round;stroke-opacity:0.501961;stop-color:#000000"
       id="rect6690"
       width="56.209465"
       height="8.7794485"
       x="61.824886"
       y="167.1624"
       rx="2.6836593"
       ry="2.6836593" />
    <circle
       transform="rotate(90)"
       r="2.501847"
       cy="-105.42975"
       cx="171.36914"
       fill="#ffffff"
       paint-order="markers fill stroke"
       id="circle5769-2"
       style="stroke-width:0.491289" />
    <circle
       transform="rotate(90)"
       cx="171.36914"
       cy="-97.816193"
       r="2.501847"
       fill="#ffffff"
       paint-order="markers fill stroke"
       id="circle5771-6"
       style="stroke-width:0.491289" />
    <circle
       transform="rotate(90)"
       r="2.501847"
       cy="-90.202286"
       cx="171.36914"
       fill="#ffffff"
       paint-order="markers fill stroke"
       id="circle5773-1"
       style="stroke-width:0.491289" />
    <circle
       transform="rotate(90)"
       cx="171.36914"
       cy="-82.588409"
       r="2.501847"
       fill="#ffffff"
       paint-order="markers fill stroke"
       id="circle5775-8"
       style="stroke-width:0.491289" />
    <circle
       transform="rotate(90)"
       r="2.501847"
       cy="-74.974861"
       cx="171.36914"
       fill="#ffffff"
       paint-order="markers fill stroke"
       id="circle5777-7"
       style="stroke-width:0.491289" />
    <circle
       r="2.501847"
       cy="-112.6188"
       cx="171.36914"
       transform="rotate(90)"
       fill="#ffffff"
       paint-order="markers fill stroke"
       id="circle5779-9"
       style="stroke-width:0.491289" />
    <circle
       transform="rotate(90)"
       r="2.501847"
       cy="-67.365555"
       cx="171.36914"
       fill="#ffffff"
       paint-order="markers fill stroke"
       id="circle5781-2"
       style="stroke-width:0.491289" />
  </g>
  <g
     id="g6718"
     transform="translate(0,-73.46729)">
    <rect
       style="fill:#3584e4;fill-opacity:1;stroke:none;stroke-width:2;stroke-linecap:round;stroke-opacity:0.501961;stop-color:#000000"
       id="rect6702"
       width="56.209465"
       height="8.7794485"
       x="61.824886"
       y="167.1624"
       rx="2.6836593"
       ry="2.6836593" />
    <circle
       transform="rotate(90)"
       r="2.501847"
       cy="-105.42975"
       cx="171.36914"
       fill="#ffffff"
       paint-order="markers fill stroke"
       id="circle6704"
       style="stroke-width:0.491289" />
    <circle
       transform="rotate(90)"
       cx="171.36914"
       cy="-97.816193"
       r="2.501847"
       fill="#ffffff"
       paint-order="markers fill stroke"
       id="circle6706"
       style="stroke-width:0.491289" />
    <circle
       transform="rotate(90)"
       r="2.501847"
       cy="-90.202286"
       cx="171.36914"
       fill="#ffffff"
       paint-order="markers fill stroke"
       id="circle6708"
       style="stroke-width:0.491289" />
    <circle
       transform="rotate(90)"
       cx="171.36914"
       cy="-82.588409"
       r="2.501847"
       fill="#ffffff"
       paint-order="markers fill stroke"
       id="circle6710"
       style="stroke-width:0.491289" />
    <circle
       transform="rotate(90)"
       r="2.501847"
       cy="-74.974861"
       cx="171.36914"
       fill="#ffffff"
       paint-order="markers fill stroke"
       id="circle6712"
       style="stroke-width:0.491289" />
    <circle
       r="2.501847"
       cy="-112.6188"
       cx="171.36914"
       transform="rotate(90)"
       fill="#ffffff"
       paint-order="markers fill stroke"
       id="circle6714"
       style="stroke-width:0.491289" />
    <circle
       transform="rotate(90)"
       r="2.501847"
       cy="-67.365555"
       cx="171.36914"
       fill="#ffffff"
       paint-order="markers fill stroke"
       id="circle6716"
       style="stroke-width:0.491289" />
  </g>
  <rect
     style="fill:#3584e4;fill-opacity:1;stroke:none;stroke-width:2;stroke-linecap:round;stroke-opacity:0.501961;stop-color:#000000"
     id="rect6720"
     width="24.454113"
     height="13.566487"
     x="47.437935"
     y="44.70055"
     rx="1.4980164"
     ry="1.4980164" />
  <rect
     style="fill:#3584e4;fill-opacity:1;stroke:none;stroke-width:2;stroke-linecap:round;stroke-opacity:0.501961;stop-color:#000000"
     id="rect6722"
     width="24.454113"
     height="13.566487"
     x="75.602974"
     y="44.70055"
     rx="1.4980164"
     ry="1.4980164" />
  <rect
     style="fill:#3584e4;fill-opacity:1;stroke:none;stroke-width:2;stroke-linecap:round;stroke-opacity:0.501961;stop-color:#000000"
     id="rect6724"
     width="24.454113"
     height="13.566487"
     x="104.05708"
     y="44.70055"
     rx="1.4980164"
     ry="1.4980164" />
  <g
     id="g6798">
    <circle
       transform="rotate(90)"
       r="2.9094019"
       cy="-110.53009"
       cx="66.59864"
       fill="#ffffff"
       paint-order="markers fill stroke"
       id="circle6704-0"
       style="stroke-width:0.491289" />
    <circle
       transform="rotate(90)"
       cx="66.59864"
       cy="-101.67629"
       r="2.9094019"
       fill="#ffffff"
       paint-order="markers fill stroke"
       id="circle6706-2"
       style="stroke-width:0.491289" />
    <circle
       transform="rotate(90)"
       r="2.9094019"
       cy="-92.822067"
       cx="66.59864"
       fill="#ffffff"
       paint-order="markers fill stroke"
       id="circle6708-3"
       style="stroke-width:0.491289" />
    <circle
       transform="rotate(90)"
       cx="66.59864"
       cy="-83.96788"
       r="2.9094019"
       fill="#ffffff"
       paint-order="markers fill stroke"
       id="circle6710-7"
       style="stroke-width:0.491289" />
    <circle
       transform="rotate(90)"
       r="2.9094019"
       cy="-75.114075"
       cx="66.59864"
       fill="#ffffff"
       paint-order="markers fill stroke"
       id="circle6712-5"
       style="stroke-width:0.491289" />
    <circle
       transform="rotate(90)"
       r="2.9094019"
       cy="-66.265198"
       cx="66.59864"
       fill="#ffffff"
       paint-order="markers fill stroke"
       id="circle6716-9"
       style="stroke-width:0.491289" />
    <circle
       transform="rotate(90)"
       r="2.9094019"
       cy="-110.53009"
       cx="75.901855"
       fill="#ffffff"
       paint-order="markers fill stroke"
       id="circle6756"
       style="stroke-width:0.491289" />
    <circle
       transform="rotate(90)"
       cx="75.901855"
       cy="-101.67629"
       r="2.9094019"
       fill="#ffffff"
       paint-order="markers fill stroke"
       id="circle6758"
       style="stroke-width:0.491289" />
    <circle
       transform="rotate(90)"
       r="2.9094019"
       cy="-92.822067"
       cx="75.901855"
       fill="#ffffff"
       paint-order="markers fill stroke"
       id="circle6760"
       style="stroke-width:0.491289" />
    <circle
       transform="rotate(90)"
       cx="75.901855"
       cy="-83.96788"
       r="2.9094019"
       fill="#ffffff"
       paint-order="markers fill stroke"
       id="circle6762"
       style="stroke-width:0.491289" />
    <circle
       transform="rotate(90)"
       r="2.9094019"
       cy="-75.114075"
       cx="75.901855"
       fill="#ffffff"
       paint-order="markers fill stroke"
       id="circle6764"
       style="stroke-width:0.491289" />
    <circle
       transform="rotate(90)"
       r="2.9094019"
       cy="-66.265198"
       cx="75.901855"
       fill="#ffffff"
       paint-order="markers fill stroke"
       id="circle6766"
       style="stroke-width:0.491289" />
    <circle
       transform="rotate(90)"
       r="2.9094019"
       cy="-110.53009"
       cx="85.20507"
       fill="#ffffff"
       paint-order="markers fill stroke"
       id="circle6768"
       style="stroke-width:0.491289" />
    <circle
       transform="rotate(90)"
       cx="85.20507"
       cy="-101.67629"
       r="2.9094019"
       fill="#ffffff"
       paint-order="markers fill stroke"
       id="circle6770"
       style="stroke-width:0.491289" />
    <circle
       transform="rotate(90)"
       r="2.9094019"
       cy="-92.822067"
       cx="85.20507"
       fill="#ffffff"
       paint-order="markers fill stroke"
       id="circle6772"
       style="stroke-width:0.491289" />
    <circle
       transform="rotate(90)"
       cx="85.20507"
       cy="-83.96788"
       r="2.9094019"
       fill="#ffffff"
       paint-order="markers fill stroke"
       id="circle6774"
       style="stroke-width:0.491289" />
    <circle
       transform="rotate(90)"
       r="2.9094019"
       cy="-75.114075"
       cx="85.20507"
       fill="#ffffff"
       paint-order="markers fill stroke"
       id="circle6776"
       style="stroke-width:0.491289" />
    <circle
       transform="rotate(90)"
       r="2.9094019"
       cy="-66.265198"
       cx="85.20507"
       fill="#ffffff"
       paint-order="markers fill stroke"
       id="circle6778"
       style="stroke-width:0.491289" />
  </g>
</svg>
