<svg xmlns="http://www.w3.org/2000/svg" xmlns:xlink="http://www.w3.org/1999/xlink" width="600" height="300"><defs><linearGradient id="a"><stop offset="0" stop-color="#9141ac"/><stop offset="1" stop-color="#ed333b"/></linearGradient><linearGradient xlink:href="#a" id="b" x1="260" y1="0" x2="260" y2="300" gradientUnits="userSpaceOnUse"/></defs><path d="M269.171 293.4l78.644-78.643a16 16 0 0122.627 0l41.083 41.083a16 16 0 0022.628 0l58.789-58.789a16 16 90 000-22.627l-41.083-41.083a16 16 90 010-22.627l23.096-23.097a16 16 90 000-22.627L416.166 6.2a16 16 180 00-22.627 0L269.314 130.426a16 16 180 01-22.627 0l-45.625-45.624a16 16 180 00-22.627 0l-58.79 58.789a16.015 16.015 90.027 00-.01 22.638l126.92 127.162a15.985 15.985.027 0022.616.011z" fill="url(#b)"/><rect width="324.179" height="195.739" x="145.536" y="48.014" rx="26.854" ry="26.854" fill="#c0bfbc"/><path d="M452.244 219.785l-8.563 8.563-8.563-8.563m8.563 8.563v-17.126m8.563-136.228l-8.563-8.563-8.563 8.563m8.563-8.563v17.125" stroke-width="5.138" fill="none" stroke="#fff" stroke-linecap="round"/></svg>