<?xml version="1.0" encoding="UTF-8" standalone="no"?>
<svg
   xmlns:dc="http://purl.org/dc/elements/1.1/"
   xmlns:cc="http://creativecommons.org/ns#"
   xmlns:rdf="http://www.w3.org/1999/02/22-rdf-syntax-ns#"
   xmlns:svg="http://www.w3.org/2000/svg"
   xmlns="http://www.w3.org/2000/svg"
   xmlns:xlink="http://www.w3.org/1999/xlink"
   xmlns:sodipodi="http://sodipodi.sourceforge.net/DTD/sodipodi-0.dtd"
   xmlns:inkscape="http://www.inkscape.org/namespaces/inkscape"
   width="600"
   height="300"
   version="1.1"
   id="svg14"
   sodipodi:docname="updown-bg.svg"
   inkscape:version="1.0.2 (e86c870879, 2021-01-15)">
  <metadata
     id="metadata20">
    <rdf:RDF>
      <cc:Work
         rdf:about="">
        <dc:format>image/svg+xml</dc:format>
        <dc:type
           rdf:resource="http://purl.org/dc/dcmitype/StillImage" />
      </cc:Work>
    </rdf:RDF>
  </metadata>
  <defs
     id="defs18">
    <linearGradient
       inkscape:collect="always"
       id="linearGradient849">
      <stop
         style="stop-color:#9141ac;stop-opacity:1"
         offset="0"
         id="stop845" />
      <stop
         style="stop-color:#ed333b;stop-opacity:1"
         offset="1"
         id="stop847" />
    </linearGradient>
    <linearGradient
       inkscape:collect="always"
       xlink:href="#linearGradient849"
       id="linearGradient851"
       x1="260"
       y1="0"
       x2="260"
       y2="300"
       gradientUnits="userSpaceOnUse" />
  </defs>
  <sodipodi:namedview
     pagecolor="#ffffff"
     bordercolor="#666666"
     borderopacity="1"
     objecttolerance="10"
     gridtolerance="10"
     guidetolerance="10"
     inkscape:pageopacity="0"
     inkscape:pageshadow="2"
     inkscape:window-width="1920"
     inkscape:window-height="1011"
     id="namedview16"
     showgrid="false"
     inkscape:zoom="1.6569869"
     inkscape:cx="327.35201"
     inkscape:cy="96.542485"
     inkscape:window-x="0"
     inkscape:window-y="0"
     inkscape:window-maximized="1"
     inkscape:current-layer="svg14">
    <inkscape:grid
       type="xygrid"
       id="grid853" />
  </sodipodi:namedview>
  <path
     d="M269.171 293.4l78.644-78.643a16 16 0 0122.627 0l41.083 41.083a16 16 0 0022.628 0l58.789-58.789a16 16 90 000-22.627l-41.083-41.083a16 16 90 010-22.627l23.096-23.097a16 16 90 000-22.627L416.166 6.2a16 16 180 00-22.627 0L269.314 130.426a16 16 180 01-22.627 0l-45.625-45.624a16 16 180 00-22.627 0l-58.79 58.789a16.015 16.015 90.027 00-.01 22.638l126.92 127.162a15.985 15.985.027 0022.616.011z"
     fill="#2ec27e"
     id="path2"
     style="fill-opacity:1;fill:url(#linearGradient851)" />
  <rect
     width="324.179"
     height="195.739"
     x="145.536"
     y="48.014"
     rx="26.854"
     ry="26.854"
     fill="#c0bfbc"
     id="rect4" />
  <g
     fill="none"
     stroke="#fff"
     stroke-width="6"
     stroke-linecap="round"
     id="g8">
    <path
       d="M452.244 219.785l-8.563 8.563-8.563-8.563M443.681 228.348v-17.126"
       stroke-width="5.13762"
       id="path6" />
  </g>
  <g
     fill="none"
     stroke="#fff"
     stroke-width="6"
     stroke-linecap="round"
     id="g12">
    <path
       d="M452.244 74.994l-8.563-8.563-8.563 8.563M443.681 66.431v17.125"
       stroke-width="5.13762"
       id="path10" />
  </g>
</svg>
