<svg xmlns="http://www.w3.org/2000/svg" width="600" height="300"><rect width="378.596" height="228.596" x="118.18" y="30.621" rx="31.362" ry="31.362" fill="#c0bfbc"/><circle cx="269.116" cy="112.652" r="30.326" fill="#26a269"/><circle cx="308.194" cy="103.547" r="30.326" fill="#26a269"/><circle cx="346.976" cy="117.315" r="30.326" fill="#26a269"/><g fill="#f6f5f4"><path style="font-variation-settings:normal;marker:none" d="M258.057 167.804v57.492a5.046 5.046 0 01-8.33 3.832l-19.918-17.073a14.993 14.993 0 00-20.36.782 13.86 13.86 0 001.48 17.902l28.981 40.202a60.624 60.624 0 0049.178 25.173h77.579a31.031 31.031 0 0031.031-31.032v-79.906a11.299 11.299 0 00-11.299-11.299h-.676a11.299 11.299 0 00-11.298 11.3 6.696 6.696 0 01-7.758 5.43 7.758 7.758 0 01-7.758-7.758v-6.982a11.299 11.299 0 00-11.3-11.299h-.675a11.299 11.299 0 00-11.299 11.299v3.879a7.758 7.758 0 01-7.758 7.758 7.758 7.758 0 01-7.757-7.758v-3.879a11.299 11.299 0 00-11.3-11.299h-.675a11.299 11.299 0 00-11.3 11.299v3.879a7.758 7.758 0 01-7.757 7.758 7.758 7.758 0 01-7.758-7.758v-11.942a11.637 11.637 0 00-11.637-11.637 11.637 11.637 0 00-11.636 11.637z" fill="#000" fill-opacity=".102"/><path d="M258.057 113.165v107.493a5.046 5.046 0 01-8.33 3.83l-19.918-17.072a14.993 14.993 0 00-20.36.782 13.86 13.86 0 001.48 17.902l28.981 40.202a60.624 60.624 0 0049.178 25.173h77.579a31.031 31.031 0 0031.031-31.031V180.538a11.299 11.299 0 00-11.299-11.3h-.676a11.299 11.299 0 00-11.298 11.3 6.696 6.696 0 01-7.758 5.43 7.758 7.758 0 01-7.758-7.758v-58.982a11.299 11.299 0 00-11.3-11.299h-.675a11.299 11.299 0 00-11.299 11.3v55.878a7.758 7.758 0 01-7.758 7.758 7.758 7.758 0 01-7.757-7.758v-67.879a11.299 11.299 0 00-11.3-11.299h-.675a11.299 11.299 0 00-11.3 11.3v67.878a7.758 7.758 0 01-7.757 7.758 7.758 7.758 0 01-7.758-7.758v-61.942a11.637 11.637 0 00-11.637-11.636 11.637 11.637 0 00-11.636 11.636z"/><path d="M207.297 212.788a13.86 13.86 0 003.632 13.312l28.982 40.203a60.624 60.624 0 0049.177 25.172h77.579a31.031 31.031 0 0031.03-31.031v-6.866a31.031 31.031 0 01-31.03 30.916h-77.58a60.624 60.624 0 01-49.176-25.173l-28.982-40.203a13.86 13.86 0 01-3.632-6.33z" fill="#deddda"/></g><g transform="translate(-4 4)"><circle cx="494.793" cy="31.016" r="24.109" fill="#1c71d8"/><path d="M485.25 31.5l10-10 10 10M495.25 21.5v20" fill="none" stroke="#fff" stroke-width="6" stroke-linecap="round"/></g><g transform="matrix(1 0 0 -1 -4 284.031)"><circle cx="494.793" cy="31.016" r="24.109" fill="#1c71d8"/><path d="M485.25 31.5l10-10 10 10M495.25 21.5v20" fill="none" stroke="#fff" stroke-width="6" stroke-linecap="round"/></g><path d="M308.145 82.128a11.299 11.299 0 00-11.299 11.298v13.803a11.299 11.299 0 0111.3-11.3h.675a11.299 11.299 0 0111.299 11.3V93.426a11.299 11.299 0 00-11.299-11.298zm-38.45 5.6a11.637 11.637 0 00-11.638 11.636v13.8a11.637 11.637 0 0111.637-11.636 11.637 11.637 0 0111.637 11.637V99.364a11.637 11.637 0 00-11.637-11.637zm77.24 6.4a11.299 11.299 0 00-11.3 11.298v13.803a11.299 11.299 0 0111.3-11.3h.675a11.299 11.299 0 0111.299 11.3v-13.803a11.299 11.299 0 00-11.299-11.298zm38.788 61.31a11.299 11.299 0 00-11.298 11.299 6.696 6.696 0 01-7.758 5.43 7.758 7.758 0 01-7.758-7.75v13.793a7.758 7.758 0 007.758 7.757 6.696 6.696 0 007.758-5.43 11.299 11.299 0 0111.298-11.298h.676a11.299 11.299 0 0111.299 11.299v-13.801a11.299 11.299 0 00-11.299-11.299zm-88.877 5.867a7.758 7.758 0 01-7.757 7.76 7.758 7.758 0 01-7.758-7.752v13.795a7.758 7.758 0 007.758 7.758 7.758 7.758 0 007.757-7.758zm38.79 0a7.758 7.758 0 01-7.758 7.76 7.758 7.758 0 01-7.758-7.752v13.795a7.758 7.758 0 007.758 7.758 7.758 7.758 0 007.757-7.758zm-115.704 28.701a14.993 14.993 0 00-10.482 4.391 13.86 13.86 0 00-.758 14.982 13.86 13.86 0 01.758-1.181 14.993 14.993 0 0120.36-.781l19.917 17.072a5.046 5.046 0 008.33-3.832v-13.801a5.046 5.046 0 01-8.33 3.832l-19.918-17.072a14.993 14.993 0 00-9.877-3.61z" fill="#fff" fill-opacity=".511"/><path d="M308.145 68.128a11.299 11.299 0 00-11.299 11.298V93.23a11.299 11.299 0 0111.3-11.3h.675a11.299 11.299 0 0111.299 11.3V79.426a11.299 11.299 0 00-11.299-11.298zm-38.45 5.6a11.637 11.637 0 00-11.638 11.636v13.8a11.637 11.637 0 0111.637-11.636 11.637 11.637 0 0111.637 11.637V85.364a11.637 11.637 0 00-11.637-11.637zm77.24 6.4a11.299 11.299 0 00-11.3 11.298v13.803a11.299 11.299 0 0111.3-11.3h.675a11.299 11.299 0 0111.299 11.3V91.426a11.299 11.299 0 00-11.299-11.298zm38.788 61.31a11.299 11.299 0 00-11.298 11.299 6.696 6.696 0 01-7.758 5.43 7.758 7.758 0 01-7.758-7.75v13.793a7.758 7.758 0 007.758 7.757 6.696 6.696 0 007.758-5.43 11.299 11.299 0 0111.298-11.298h.676a11.299 11.299 0 0111.299 11.299v-13.801a11.299 11.299 0 00-11.299-11.299zm-88.877 5.867a7.758 7.758 0 01-7.757 7.76 7.758 7.758 0 01-7.758-7.752v13.795a7.758 7.758 0 007.758 7.758 7.758 7.758 0 007.757-7.758zm38.79 0a7.758 7.758 0 01-7.758 7.76 7.758 7.758 0 01-7.758-7.752v13.795a7.758 7.758 0 007.758 7.758 7.758 7.758 0 007.757-7.758zm-115.704 28.701a14.993 14.993 0 00-10.482 4.391 13.86 13.86 0 00-.758 14.982 13.86 13.86 0 01.758-1.181 14.993 14.993 0 0120.36-.781l19.917 17.072a5.046 5.046 0 008.33-3.832v-13.801a5.046 5.046 0 01-8.33 3.832l-19.918-17.072a14.993 14.993 0 00-9.877-3.61z" fill="#fff" fill-opacity=".248"/><path d="M308.145 54.128a11.299 11.299 0 00-11.299 11.298V79.23a11.299 11.299 0 0111.3-11.3h.675a11.299 11.299 0 0111.299 11.3V65.426a11.299 11.299 0 00-11.299-11.298zm-38.45 5.6a11.637 11.637 0 00-11.638 11.636v13.8a11.637 11.637 0 0111.637-11.636 11.637 11.637 0 0111.637 11.637V71.364a11.637 11.637 0 00-11.637-11.637zm77.24 6.4a11.299 11.299 0 00-11.3 11.298V91.23a11.299 11.299 0 0111.3-11.3h.675a11.299 11.299 0 0111.299 11.3V77.426a11.299 11.299 0 00-11.299-11.298zm38.788 61.31a11.299 11.299 0 00-11.298 11.299 6.696 6.696 0 01-7.758 5.43 7.758 7.758 0 01-7.758-7.75v13.793a7.758 7.758 0 007.758 7.757 6.696 6.696 0 007.758-5.43 11.299 11.299 0 0111.298-11.298h.676a11.299 11.299 0 0111.299 11.299v-13.801a11.299 11.299 0 00-11.299-11.299zm-88.877 5.867a7.758 7.758 0 01-7.757 7.76 7.758 7.758 0 01-7.758-7.752v13.795a7.758 7.758 0 007.758 7.758 7.758 7.758 0 007.757-7.758zm38.79 0a7.758 7.758 0 01-7.758 7.76 7.758 7.758 0 01-7.758-7.752v13.795a7.758 7.758 0 007.758 7.758 7.758 7.758 0 007.757-7.758zm-115.704 28.701a14.993 14.993 0 00-10.482 4.391 13.86 13.86 0 00-.758 14.982 13.86 13.86 0 01.758-1.181 14.993 14.993 0 0120.36-.781l19.917 17.072a5.046 5.046 0 008.33-3.832v-13.801a5.046 5.046 0 01-8.33 3.832l-19.918-17.072a14.993 14.993 0 00-9.877-3.61z" fill="#fff" fill-opacity=".068"/></svg>