<svg xmlns="http://www.w3.org/2000/svg" width="600" height="300"><circle cx="269.116" cy="115.33" r="30.326" fill="#3584e4"/><circle cx="308.194" cy="106.226" r="30.326" fill="#3584e4"/><circle cx="346.976" cy="119.993" r="30.326" fill="#3584e4"/><g fill="#f6f5f4"><path style="font-variation-settings:normal;marker:none" d="M258.057 167.804v57.492a5.046 5.046 0 01-8.33 3.832l-19.918-17.073a14.993 14.993 0 00-20.36.782 13.86 13.86 0 001.48 17.902l28.981 40.202a60.624 60.624 0 0049.178 25.173h77.579a31.031 31.031 0 0031.031-31.032v-79.906a11.299 11.299 0 00-11.299-11.299h-.676a11.299 11.299 0 00-11.298 11.3 6.696 6.696 0 01-7.758 5.43 7.758 7.758 0 01-7.758-7.758v-6.982a11.299 11.299 0 00-11.3-11.299h-.675a11.299 11.299 0 00-11.299 11.299v3.879a7.758 7.758 0 01-7.758 7.758 7.758 7.758 0 01-7.757-7.758v-3.879a11.299 11.299 0 00-11.3-11.299h-.675a11.299 11.299 0 00-11.3 11.299v3.879a7.758 7.758 0 01-7.757 7.758 7.758 7.758 0 01-7.758-7.758v-11.942a11.637 11.637 0 00-11.637-11.637 11.637 11.637 0 00-11.636 11.637z" fill="#000" fill-opacity=".102"/><path d="M258.057 113.165v107.493a5.046 5.046 0 01-8.33 3.83l-19.918-17.072a14.993 14.993 0 00-20.36.782 13.86 13.86 0 001.48 17.902l28.981 40.202a60.624 60.624 0 0049.178 25.173h77.579a31.031 31.031 0 0031.031-31.031v-79.906a11.299 11.299 0 00-11.299-11.3h-.676a11.299 11.299 0 00-11.298 11.3 6.696 6.696 0 01-7.758 5.43 7.758 7.758 0 01-7.758-7.758v-58.982a11.299 11.299 0 00-11.3-11.299h-.675a11.299 11.299 0 00-11.299 11.3v55.878a7.758 7.758 0 01-7.758 7.758 7.758 7.758 0 01-7.757-7.758v-67.879a11.299 11.299 0 00-11.3-11.299h-.675a11.299 11.299 0 00-11.3 11.3v67.878a7.758 7.758 0 01-7.757 7.758 7.758 7.758 0 01-7.758-7.758v-61.942a11.637 11.637 0 00-11.637-11.636 11.637 11.637 0 00-11.636 11.636z"/><path d="M207.297 212.788a13.86 13.86 0 003.632 13.312l28.982 40.203a60.624 60.624 0 0049.177 25.172h77.579a31.031 31.031 0 0031.03-31.031v-6.866a31.031 31.031 0 01-31.03 30.916h-77.58a60.624 60.624 0 01-49.176-25.173l-28.982-40.203a13.86 13.86 0 01-3.632-6.33z" fill="#deddda"/></g><defs id="defs5677"><clipPath clipPathUnits="userSpaceOnUse" id="a"><rect y="-101.694" x="508.542" height="80.287" width="271.154" rx="0" ry="0" fill="#1a5fb4" stroke-width="2.793" stroke-linecap="round" id="rect5674"/></clipPath></defs></svg>