<svg xmlns="http://www.w3.org/2000/svg" width="600" height="300"><path d="M269.171 293.4l78.644-78.643a16 16 0 0122.627 0l41.083 41.083a16 16 0 0022.628 0l58.789-58.789a16 16 90 000-22.627l-41.083-41.083a16 16 90 010-22.627l23.096-23.097a16 16 90 000-22.627L416.166 6.2a16 16 180 00-22.627 0L269.314 130.426a16 16 180 01-22.627 0l-45.625-45.624a16 16 180 00-22.627 0l-58.79 58.789a16.015 16.015 90.027 00-.01 22.638l126.92 127.162a15.985 15.985.027 0022.616.011z" fill="#2ec27e"/><rect width="324.179" height="195.739" x="145.536" y="48.014" rx="26.854" ry="26.854" fill="#c0bfbc"/><g fill="none" stroke="#fff" stroke-width="6" stroke-linecap="round"><path d="M452.244 219.785l-8.563 8.563-8.563-8.563M443.681 228.348v-17.126" stroke-width="5.13762"/></g><g fill="none" stroke="#fff" stroke-width="6" stroke-linecap="round"><path d="M452.244 74.994l-8.563-8.563-8.563 8.563M443.681 66.431v17.125" stroke-width="5.13762"/></g></svg>