<svg xmlns="http://www.w3.org/2000/svg" xmlns:xlink="http://www.w3.org/1999/xlink" height="300" width="600"><defs><linearGradient id="m"><stop offset="0" stop-color="#3f8ae6"/><stop offset="1" stop-color="#1a5fb4"/></linearGradient><linearGradient id="l"><stop offset="0" stop-color="#a3a3a3"/><stop offset=".472" stop-color="#e8e7e6"/><stop offset="1" stop-color="#aeaeae"/></linearGradient><linearGradient id="k"><stop offset="0" stop-color="#c0bfbc"/><stop offset=".407" stop-color="#d1d0ce"/><stop offset="1" stop-color="#c0bfbc"/></linearGradient><linearGradient id="j"><stop offset="0" stop-color="#77767b"/><stop offset=".317" stop-color="#a2a2a6"/><stop offset="1" stop-color="#77767b"/></linearGradient><linearGradient id="i"><stop offset="0" stop-color="#f66151"/><stop offset="1" stop-color="#f8e45c"/></linearGradient><linearGradient id="h"><stop offset="0" stop-color="#1b744c"/><stop offset=".042" stop-color="#26a269"/><stop offset=".084" stop-color="#1b744c"/><stop offset=".888" stop-color="#1a6e48"/><stop offset=".977" stop-color="#26a269"/><stop offset="1" stop-color="#1b744c"/></linearGradient><linearGradient id="g"><stop offset="0" stop-color="#26a269"/><stop offset="1" stop-color="#208758"/></linearGradient><linearGradient xlink:href="#a" id="s" gradientUnits="userSpaceOnUse" gradientTransform="matrix(.27273 0 0 .27273 16.112 15.667)" x1="175.59" y1="822.553" x2="175.59" y2="881.22"/><linearGradient id="a" x1="147.31" x2="185.85" y1="830.88" y2="869.42" gradientTransform="translate(351.45 336.28)" gradientUnits="userSpaceOnUse"><stop offset="0" stop-color="#f2f2f2"/><stop offset="1" stop-color="gray" stop-opacity=".8"/></linearGradient><linearGradient xlink:href="#b" id="t" gradientUnits="userSpaceOnUse" gradientTransform="matrix(.15612 -.1104 .15612 .1104 46.966 104.47)" x1="128.817" y1="-97.698" x2="158.518" y2="-127.399"/><linearGradient id="b"><stop offset="0" stop-color="#d0bb8e"/><stop offset="1" stop-color="#fff"/></linearGradient><linearGradient xlink:href="#c" id="u" gradientUnits="userSpaceOnUse" gradientTransform="matrix(1.58 0 0 1 -97.106 -104)" x1="115" y1="183" x2="115" y2="174"/><linearGradient id="c"><stop offset="0" stop-color="#5e5c64"/><stop offset="1" stop-color="#9a9996"/></linearGradient><linearGradient xlink:href="#d" id="v" gradientUnits="userSpaceOnUse" gradientTransform="translate(-29.333 -104)" x1="110" y1="182" x2="110" y2="174"/><linearGradient id="d"><stop offset="0" stop-color="#9a9996"/><stop offset=".533" stop-color="#deddda"/><stop offset="1" stop-color="#f6f5f4"/></linearGradient><linearGradient xlink:href="#e" id="q" x1="58" y1="189" x2="70" y2="189" gradientUnits="userSpaceOnUse" gradientTransform="matrix(.90637 0 0 .90637 6.715 16.34)"/><linearGradient id="e"><stop offset="0" stop-color="#77767b"/><stop offset=".075" stop-color="#9a9996"/><stop offset=".445" stop-color="#deddda"/><stop offset=".834" stop-color="#b9b8b8"/><stop offset="1" stop-color="#77767b"/></linearGradient><linearGradient xlink:href="#f" id="p" x1="60" y1="199.856" x2="68" y2="199.856" gradientUnits="userSpaceOnUse" gradientTransform="matrix(.89344 0 0 .89344 7.505 20.47)"/><linearGradient id="f"><stop offset="0" stop-color="#9a9996"/><stop offset=".119" stop-color="#c0bfbc"/><stop offset=".351" stop-color="#deddda"/><stop offset=".602" stop-color="#d2d1ce"/><stop offset=".853" stop-color="#bbbab7"/><stop offset="1" stop-color="#9a9996"/></linearGradient><linearGradient xlink:href="#g" id="y" x1="-1257.475" y1="960.833" x2="-949.943" y2="960.833" gradientUnits="userSpaceOnUse"/><linearGradient xlink:href="#h" id="x" x1="-1297.668" y1="953.346" x2="-892.289" y2="953.346" gradientUnits="userSpaceOnUse"/><linearGradient xlink:href="#i" id="n" x1="1760" y1="760" x2="400" y2="760" gradientUnits="userSpaceOnUse" gradientTransform="matrix(.3 0 0 .3 4.6 -20.628)"/><linearGradient xlink:href="#j" id="E" x1="1589.498" y1="211.155" x2="1690.939" y2="211.155" gradientUnits="userSpaceOnUse"/><linearGradient xlink:href="#j" id="F" gradientUnits="userSpaceOnUse" x1="1574.435" y1="213.236" x2="1648.121" y2="213.236" gradientTransform="translate(24.42)"/><linearGradient xlink:href="#k" id="H" x1="1575.074" y1="300.139" x2="1663.814" y2="300.139" gradientUnits="userSpaceOnUse" gradientTransform="translate(24.42)"/><linearGradient xlink:href="#l" id="J" x1="1592.402" y1="350.835" x2="1637.724" y2="350.835" gradientUnits="userSpaceOnUse"/><linearGradient xlink:href="#j" id="B" gradientUnits="userSpaceOnUse" x1="1574.435" y1="213.236" x2="1648.121" y2="213.236"/><linearGradient xlink:href="#j" id="C" gradientUnits="userSpaceOnUse" x1="1574.435" y1="213.236" x2="1648.121" y2="213.236"/><linearGradient xlink:href="#j" id="D" gradientUnits="userSpaceOnUse" x1="1574.435" y1="213.236" x2="1648.121" y2="213.236"/><linearGradient xlink:href="#k" id="G" gradientUnits="userSpaceOnUse" x1="1575.074" y1="300.139" x2="1663.814" y2="300.139" gradientTransform="translate(24.42)"/><clipPath id="o" clipPathUnits="userSpaceOnUse"><path style="marker:none" d="M-416-180l-64 64h-136c-17.728 0-32 14.272-32 32v256c0 17.728 14.272 32 32 32h136l64-64 64 64h249c17.729 0 32-14.272 32-32V-84c0-17.728-14.271-32-32-32h-249z" fill="#ebedea" stroke-width=".045"/></clipPath><clipPath clipPathUnits="userSpaceOnUse" id="A"><rect width="440" height="180" x="-1320" y="500" rx="41.022" ry="41.022" fill="#e01b24" stroke-width="1.897" stroke-opacity=".957"/></clipPath><clipPath clipPathUnits="userSpaceOnUse" id="z"><rect width="400" height="400" x="-1300" y="540" rx="48.664" ry="48.664" fill="#c01c28" stroke-width="2" stroke-opacity=".957"/></clipPath><clipPath clipPathUnits="userSpaceOnUse" id="w"><rect width="400" height="230" x="-1299.199" y="742.831" rx="58.746" ry="58.746" fill="#e01b24" stroke-width="2" stroke-opacity=".957"/></clipPath><clipPath clipPathUnits="userSpaceOnUse" id="I"><ellipse cx="1615.072" cy="332.343" rx="34.171" ry="24.497" fill="#9141ac" stroke-width="2" stroke-opacity=".957"/></clipPath><radialGradient xlink:href="#m" id="K" cx="1614.563" cy="343.175" fx="1614.563" fy="343.175" r="34.171" gradientTransform="matrix(1 0 0 .7169 0 92.203)" gradientUnits="userSpaceOnUse"/><filter id="r" x="-.06" y="-.06" width="1.12" height="1.12" color-interpolation-filters="sRGB"><feGaussianBlur stdDeviation="1.2"/></filter></defs><path d="M136.6 51.732v.56a35.08 35.08 45 0035.08 35.08h17.948a8 8 45 018 8v3.28a8 8 135 01-8 8H105.68a35.08 35.08 135 00-35.08 35.08v.56a35.08 35.08 45 0035.08 35.08H128a8 8 45 018 8v2a8 8 135 01-8 8h-4.32a35.08 35.08 135 00-35.08 35.08v.56a35.08 35.08 45 0035.08 35.08h397.84a35.08 35.08 135 0035.08-35.08v-.56a35.08 35.08 45 00-35.08-35.08H296a8 8 45 01-8-8v-2a8 8 135 018-8h59.52a35.08 35.08 135 0035.08-35.08v-.56a35.08 35.08 45 00-35.08-35.08h-21.303a9.617 9.617 45 01-9.617-9.617v-.046a9.617 9.617 135 019.617-9.617h7.303a35.08 35.08 135 0035.08-35.08v-.56a35.08 35.08 45 00-35.08-35.08H171.68a35.08 35.08 135 00-35.08 35.08z" fill="url(#n)"/><path fill="#c0bfbc" d="M-534.371 87.372h271.029v22.72h-271.029z"/><path fill="#c0bfbc" d="M-619.4 106.652h420v70.72h-420zM-553.4 16.652h420v70.72h-420z"/><path fill="#c0bfbc" d="M-571.4 172.652h300v22.72h-300zM-601.4 195.372h360v70.72h-360z"/><g><g transform="matrix(.3564 0 0 .3564 540.836 137.544)" clip-path="url(#o)" stroke-width="3.333"><path style="marker:none" d="M-416.566-179.89l-64 64h-136c-17.728 0-32 14.271-32 32v256c0 17.727 14.272 32 32 32h136l64-64 64 64h251.27c17.727 0 32-14.273 32-32v-256c0-17.729-14.273-32-32-32h-251.27z" fill="#d6d9dc" enable-background="new"/><path d="M-594.566-133.89v146l67 67v45H-658v-260z" fill="#61a1d2" enable-background="new"/><path style="line-height:normal;font-variant-ligatures:normal;font-variant-position:normal;font-variant-caps:normal;font-variant-numeric:normal;font-variant-alternates:normal;font-feature-settings:normal;text-indent:0;text-align:start;text-decoration-line:none;text-decoration-style:solid;text-decoration-color:#000;text-transform:none;text-orientation:mixed;white-space:normal;shape-padding:0;isolation:auto;mix-blend-mode:normal;solid-color:#000;solid-opacity:1" d="M-608.566-123.89a8 8 0 00-8 8v136a8 8 0 002.343 5.655l61.657 61.659v12.681l-95.996-.047a8 8 0 00-8.004 8v32.102a8 8 0 008 8h167.25a8 8 0 005.423-2.12l59.295-54.689 58.575 54.659a8 8 0 005.457 2.15h71c30.87 0 57.05-25.72 57.05-58.05v-206a8 8 0 00-8-8h-32.101a8 8 0 00-8 8v206c0 2.52-1.236 5.057-3.242 7.029-2.006 1.971-4.708 2.92-5.707 2.92h-67.873l-61.704-56.91a8 8 0 00-10.847 0l-61.707 56.915-20.87.034V76.109a8 8 0 00-2.343-5.656l-61.656-61.658v-124.686a8 8 0 00-8-8z" color="#000" font-weight="400" font-family="sans-serif" overflow="visible" fill="#fff" enable-background="accumulate"/><path d="M-584.566-35.89h104l64-64 64 64h88" fill="none" stroke="#fff" stroke-width="53.333" enable-background="new"/><path style="line-height:normal;font-variant-ligatures:normal;font-variant-position:normal;font-variant-caps:normal;font-variant-numeric:normal;font-variant-alternates:normal;font-feature-settings:normal;text-indent:0;text-align:start;text-decoration-line:none;text-decoration-style:solid;text-decoration-color:#000;text-transform:none;text-orientation:mixed;white-space:normal;shape-padding:0;isolation:auto;mix-blend-mode:normal;solid-color:#000;solid-opacity:1" d="M-264.617-115.89v206c0 10.027-9.374 17.948-16.95 17.948h-71l-64-59.029-64 59.03-32 .05v-32l-64-64v-128h-32v136l64 64v24l-104-.05v32.101h167.25l64.75-59.72 64 59.72h71c26.425 0 49.051-22.026 49.051-50.05v-206z" color="#000" font-weight="400" font-family="sans-serif" overflow="visible" fill="#d5c370" enable-background="accumulate"/><path d="M-416.566-179.89v320l64 64v-320z" fill="#12121c" fill-opacity=".161" enable-background="new"/><path d="M-416.566-179.89v320l-64 64v-320z" fill="#fff" fill-opacity=".382" enable-background="new"/><path d="M-89.223-129.78v52.176a16 16 135 01-16 16h-1.67a16 16 135 00-16 16v1.67a16 16 135 01-16 16h-53.86a16 16 45 01-16-16v-35.34a16 16 135 0116-16h1.67a16 16 135 0016-16v-18.506a16 16 135 0116-16h53.86a16 16 45 0116 16zM30.393 26.758v133.82a16 16 135 01-16 16h-34.328a16 16 135 00-16 16v34.327a16 16 135 01-16 16h-137.136a16 16 45 01-16-16V126.25a16 16 135 0116-16h34.328a16 16 135 0016-16V26.758a16 16 135 0116-16H14.393a16 16 45 0116 16z" fill="#61a1d2"/><path fill="#fff" d="M-228.767-13.183h192.882v8.418h-192.882z"/></g><g transform="matrix(.74954 0 0 .74954 277.628 -114.688)" stroke-width="3.333"><circle r="12.689" cy="186.738" cx="64.723" fill="none" stroke="#d6d9dc" stroke-width="5.337" stroke-linejoin="round" enable-background="new"/><path fill="url(#p)" enable-background="new" d="M61.111 190.222h7.148v17.869h-7.148z"/><path fill="url(#q)" enable-background="new" d="M59.284 183.113H70.16v9.064H59.284z"/><path opacity=".2" enable-background="new" d="M61.097 192.177h7.251v1.813h-7.251zM62.91 183.113v7.251h-1.813v-7.251zM66.535 183.113v7.251h-1.813v-7.251zM70.161 183.113v7.251h-1.813v-7.251z"/><circle cx="64" cy="258.117" r="46" fill-opacity=".239" enable-background="new"/><circle cx="64" cy="253.887" r="46" fill="#a9a8aa" enable-background="new"/><circle r="46" cy="250" cx="64" fill="#d6d9dc" enable-background="new"/><circle cx="64" cy="250" r="42" fill="#d6d9dc" enable-background="new"/><g transform="matrix(1 0 0 -1 150 500)"><circle transform="rotate(-15)" r="39.682" cy="219.223" cx="-147.774" fill="#fff" enable-background="new"/></g><g transform="rotate(30 64 250.305)"><g fill="#fff" fill-rule="evenodd"><path d="M64.03 285.651l8.306-31.225H55.723z" fill="#deddda" enable-background="new"/><path d="M64.032 285.643l8.304-31.217h-8.304z" fill="#5e5c64" fill-opacity=".373" enable-background="new"/></g><g fill-rule="evenodd"><path transform="matrix(.24993 0 0 .31164 -67.726 -117.645)" d="M527.04 1123.5l-24 48h48z" fill="#1a1a1a" fill-opacity=".4" filter="url(#r)" enable-background="new"/><path d="M64 214.958l-8.307 31.225h16.614z" fill="#ed333b" enable-background="new"/><path d="M63.998 214.967l-8.305 31.216h8.305z" fill="#fff" fill-opacity=".373" enable-background="new"/></g><circle r="12" cy="250" cx="64" fill="url(#s)" enable-background="new"/><circle r="11" cy="-249" cx="64" transform="scale(1 -1)" fill="#ccc" enable-background="new"/></g></g><path style="marker:none" d="M470.692 157.964l-6.238.891-6.236.89-58.537 58.538-2.39 2.388-2.374 2.375a5.03 5.03 0 000 7.13l3.564 3.562a5.028 5.028 0 007.127 0l4.135-4.133 1.805-1.806 57.361-57.362.89-6.236z" fill-opacity=".159" enable-background="new"/><g stroke-width="3.333"><path style="marker:none" d="M48 77v-6l4-3v12z" fill="url(#t)" enable-background="new" transform="matrix(-.89099 .89099 .89099 .89099 443.44 45.823)"/><path d="M118.406 68h4.64c2.216 0 4 1.784 4 4v4c0 2.216-1.784 4-4 4h-4.64c-2.216 0-4-1.784-4-4v-4c0-2.216 1.784-4 4-4z" fill="url(#u)" transform="matrix(-.89099 .89099 .89099 .89099 443.44 45.823)"/><path style="marker:none" d="M470.17 150.96l-6.238.891 5.346 5.346z" fill="#424048" enable-background="new"/><g stroke-width="4.26"><path d="M466.962 162.009l-7.841-7.841-58.522 58.522 7.84 7.84z" fill="#ff7800" enable-background="new"/><path d="M461.26 156.306l-3.565-3.564-58.536 58.537 3.578 3.549z" fill="#ffa348" enable-background="new"/><path d="M464.823 159.87l3.564 3.564-58.536 58.537-3.55-3.58z" fill="#c64600" enable-background="new"/></g><path d="M116.379 68h4v12h-4z" fill="url(#v)" transform="matrix(-.89099 .89099 .89099 .89099 443.44 45.823)"/></g><g transform="matrix(.41754 0 0 .41754 650.26 -123.458)" stroke-width="1.008"><path d="M-1148.867 440c-17.248 0-31.133 13.885-31.133 31.133v77.734a31.059 31.059 0 0020 29.09V475.25c0-8.448 6.801-15.25 15.25-15.25h89.5c8.448 0 15.25 6.801 15.25 15.25v102.707a31.059 31.059 0 0020-29.09v-77.734c0-17.248-13.885-31.133-31.133-31.133z" fill="#0e3b26"/><g clip-path="url(#w)"><rect width="400" height="230" x="-1299.199" y="742.831" rx="59.195" ry="59.195" fill="url(#x)"/><rect width="320" height="75" x="-1259.199" y="912.831" rx="0" ry="0" fill="url(#y)"/></g><g clip-path="url(#z)"><rect width="400" height="400" x="-1300" y="540" rx="8.84" ry="8.84" fill="#26a269"/><rect width="320" height="222.169" x="-1259.199" y="817.831" rx="39.345" ry="39.345" fill="#2ec27e"/><rect width="240" height="20" x="-1220" y="857.831" rx="10.076" ry="10.076" fill="#26a269"/><path d="M-1174.842 864.266c-5.02 0-9.357 3.51-10.406 8.42h-.01l-4.824 18.078a10.645 10.645 0 00-.522 3.289c0 5.877 4.765 10.642 10.643 10.642h9.594c5.877 0 10.642-4.765 10.642-10.642 0-1.122-.177-2.237-.525-3.303l-4.162-18.049h-.02a10.643 10.643 0 00-10.408-8.435zm-.076 5.246a5.397 5.397 0 01.078 0 5.397 5.397 0 015.397 5.398 5.397 5.397 0 01-5.397 5.397 5.397 5.397 0 01-5.396-5.397 5.397 5.397 0 015.318-5.398z" fill="#0e3b26"/><rect width="440" height="180" x="-1320" y="520" rx="41.335" ry="41.335" opacity=".227"/></g><g clip-path="url(#A)"><rect width="440" height="180" x="-1320" y="500" rx="41.335" ry="41.335" fill="#57e389"/><rect width="400" height="280" x="-1300" y="380" rx="25.552" ry="25.552" fill="#2ec27e"/><rect width="400" height="260" x="-1300" y="320" rx="90.971" ry="90.971" fill="#26a269"/></g><rect width="110" height="90" x="-1150" y="640" rx="17.736" ry="17.736" fill="#57e389"/><rect width="70" height="50" x="-1130" y="660" rx="0" ry="0" fill="#0e3b26"/><path d="M-1130 730h70v11.544a14.559 14.559 120.15 01-7.345 12.646l-20.372 11.62a14.798 14.798.044 01-14.684-.011l-20.26-11.598a14.585 14.585 59.895 01-7.339-12.657z" fill="#0e3b26"/><rect width="30" height="60" x="-1110" y="690" rx="15.115" ry="15.115" fill="#57e389"/></g><path d="M487.688 8.077c-6.779 0-12.274 3.838-12.273 8.572.081.059.164.117.248.174h-.248v10.25c-2.416.409-4.605 1.256-6.365 2.441-3.996 2.763-15.329 8.951-15.329 8.951-2.671 1.543-4.609 4.385-4.609 7.285v33.428c0 3.46 2.445 6.51 6.162 8.313v1.213h.018c.014 1.081.257 2.121.67 3.111a16.92 16.92 0 00-2.862 2.05l.145.104h-.115v2.966a4.75 4.75 0 00-.03.021l.03.021v1.067l1.488 4.935c.717 6.47 7.884 11.61 16.91 12.123 9.025-.515 16.191-5.653 16.908-12.123l1.547-4.935v-4.075h-.174l.145-.103a16.919 16.919 0 00-2.746-1.969c.376-.878.595-1.8.66-2.754h1.719c.53.044 1.063.067 1.597.066 7.728 0 13.994-4.49 13.994-10.03h.11V67.77a5.65 5.65 0 00.818-.014v11.422h.11c0 5.54 6.264 10.031 13.992 10.031.534 0 1.069-.022 1.6-.066h.849c-.805 1.508-1.218 3.108-1.219 4.723v.103h-.03v9.01h.09c.79 6.851 8.777 12.123 18.366 12.123s17.574-5.272 18.363-12.123h.036v-.367a8.99 8.99 0 000-1.441v-6.585c.018-.24.028-.48.03-.72 0-2.171-.748-4.308-2.175-6.223v-.152c3.718-1.803 6.162-4.853 6.162-8.313V45.75c0-2.9-1.937-5.742-4.609-7.285 0 0-11.333-6.188-15.328-8.95-1.76-1.186-3.95-2.033-6.365-2.442v-10.25h-.006c0-.058.004-.116.004-.174 0-4.734-5.494-8.572-12.272-8.572-6.779 0-12.274 3.837-12.273 8.572v.174h-.026v20.066h.024c.006.392.049.784.13 1.172l-1.779 1.303c-.963-1.2-2.517-1.912-4.174-1.912-1.616 0-3.139.679-4.107 1.832l-2.482-1.815c.289-.184.565-.377.828-.58h.134V16.822h-.27c.085-.056.167-.114.249-.173 0-4.734-5.495-8.573-12.274-8.572z" fill-opacity=".219"/><g transform="matrix(.4095 0 0 .4095 -158.707 -39.028)" stroke-width="2.442"><g id="L" transform="translate(65.484)" stroke-width="4.884" stroke-opacity=".957"><ellipse cx="1600.026" cy="124.179" rx="29.971" ry="20.932" fill="#c0bfbc"/><ellipse style="font-variation-settings:normal" cx="1600.012" cy="173.41" rx="29.957" ry="21.025" fill="url(#B)"/><path fill="#c0bfbc" d="M1570 124.605h60v25h-60z"/><path style="font-variation-settings:normal" fill="url(#C)" d="M1570 145.605h60v28h-60z"/><ellipse style="font-variation-settings:normal" cx="1599.997" cy="145.581" rx="29.942" ry="21.025" fill="url(#D)"/><path d="M1622.143 148.953c-8.324 0-16.008 2.146-21.973 5.738l-34.77 25.418c-3.983 3.649-8.351 8.698-8.351 14.458v82.31h137.181v-81.629c0-7.083-4.729-14.026-11.253-17.793 0 0-27.677-15.11-37.434-21.857-6.142-4.137-14.4-6.645-23.4-6.645z" fill="url(#E)"/><path d="M1622.143 230.582c-8.324 0-16.008 2.145-21.973 5.737l-34.77 25.418c-4.683 3.76-8.007 10.188-8.084 15.14.001 13.529 15.3 24.496 34.17 24.496a47.54 47.54 0 003.905-.16h60.773c1.294.106 2.595.16 3.897.16 18.87 0 34.169-10.967 34.17-24.496-.932-8.63-5.519-14.149-11.255-17.793 0 0-27.676-15.11-37.433-21.857-6.143-4.137-14.4-6.645-23.4-6.645z" fill="#6c6b70"/><path style="font-variation-settings:normal" d="M1639.297 252.018c-21.983 0-39.802 12.514-39.802 27.95V280h-.074v20.139h.074c.203 15.334 17.974 27.69 39.824 27.69 21.849-.002 39.617-12.357 39.82-27.69h.043V280h-.08v-.031c0-15.437-17.82-27.952-39.804-27.951z" fill="url(#F)"/><ellipse cx="1639.492" cy="312.744" rx="45" ry="32.261" fill="url(#G)"/><path style="font-variation-settings:normal" fill="url(#H)" d="M1594.42 313h90v22h-90z"/><ellipse cx="1639.492" cy="332.343" rx="45" ry="32.261" fill="#a7a7ab"/><g clip-path="url(#I)" transform="translate(24.42)"><ellipse cx="1615.072" cy="332.343" rx="34.171" ry="24.497" fill="url(#J)"/><ellipse cx="1615.391" cy="325.694" rx="34.171" ry="24.497" fill="url(#K)"/></g></g><use xlink:href="#L" transform="matrix(-1 0 0 1 3243.066 0)" width="100%" height="100%"/><ellipse cx="1621.324" cy="186.14" rx="12.528" ry="11.158" fill="#d0cfcd"/><path fill="#d0cfcd" d="M1608.772 185.082h25.081v40.062h-25.081z"/><path fill="#cfcecc" d="M1608.772 223.012h25.081v14.926h-25.081z"/><ellipse cx="1621.312" cy="222.999" rx="12.516" ry="11.208" fill="#cfcecb"/><ellipse cx="1621.318" cy="237.833" rx="12.523" ry="11.208" fill="#a7a7ab"/></g></g></svg>