<svg xmlns="http://www.w3.org/2000/svg" xmlns:xlink="http://www.w3.org/1999/xlink" height="300" width="600"><defs><linearGradient id="d"><stop offset="0" stop-color="#cacac9"/><stop offset=".311" stop-color="#b0aeab" stop-opacity=".941"/><stop offset=".688" stop-color="#6c6b66" stop-opacity=".949"/><stop offset="1" stop-color="#d6d6d4" stop-opacity=".966"/></linearGradient><linearGradient id="a"><stop offset="0" stop-color="#a09f9c"/><stop offset=".078" stop-color="#a09f9c" stop-opacity=".996"/><stop offset=".104" stop-color="#d0d0ce" stop-opacity=".992"/><stop offset=".12" stop-color="#a09f9c" stop-opacity=".992"/><stop offset=".285" stop-color="#787773" stop-opacity=".984"/><stop offset=".5" stop-color="#908f8b" stop-opacity=".976"/><stop offset=".762" stop-color="#b5b4b1" stop-opacity=".965"/><stop offset=".874" stop-color="#a09f9c" stop-opacity=".965"/><stop offset=".905" stop-color="#cbcac9" stop-opacity=".965"/><stop offset=".949" stop-color="#a09f9c" stop-opacity=".965"/><stop offset="1" stop-color="#a09f9c" stop-opacity=".966"/></linearGradient><linearGradient xlink:href="#a" id="o" gradientUnits="userSpaceOnUse" gradientTransform="translate(-21.238 3.877) scale(1.0734)" x1="137.616" y1="-138.586" x2="426.655" y2="-138.586"/><linearGradient id="b"><stop offset="0" stop-color="#ebeae8"/><stop offset="1" stop-color="#deddda" stop-opacity=".983"/></linearGradient><linearGradient id="h"><stop offset="0" stop-color="#b0afab"/><stop offset="1" stop-color="#dcdbd8" stop-opacity=".961"/></linearGradient><linearGradient id="c"><stop offset="0" stop-color="#9d9da1"/><stop offset="1" stop-color="#77767b" stop-opacity=".95"/></linearGradient><linearGradient id="f"><stop offset="0" stop-color="#3d3846" stop-opacity="0"/><stop offset="1" stop-color="#3d3846" stop-opacity=".252"/></linearGradient><linearGradient id="e"><stop offset="0" stop-color="#fff"/><stop offset="1" stop-color="#fff" stop-opacity="0"/></linearGradient><linearGradient xlink:href="#a" id="n" gradientUnits="userSpaceOnUse" gradientTransform="translate(-20.488 5.127) scale(1.0734)" x1="137.616" y1="-138.586" x2="426.655" y2="-138.586"/><linearGradient id="g"><stop offset="0" stop-color="#eae9e7"/><stop offset=".208" stop-color="#cac8c4" stop-opacity=".953"/><stop offset=".745" stop-color="#ebeae9" stop-opacity=".972"/><stop offset="1" stop-color="#d5d3cf" stop-opacity=".925"/></linearGradient><linearGradient xlink:href="#a" id="p" x1="137.616" y1="-138.586" x2="426.655" y2="-138.586" gradientUnits="userSpaceOnUse" gradientTransform="translate(-20.488 5.127) scale(1.0734)"/><linearGradient id="i"><stop offset="0" stop-color="#eae9e7"/><stop offset=".649" stop-color="#b5b3ad"/><stop offset="1" stop-color="#fcfcfc"/></linearGradient><radialGradient xlink:href="#b" id="q" cx="281.386" cy="-269.137" fx="281.386" fy="-269.137" r="144.518" gradientTransform="matrix(1.0734 0 0 .39182 -20.488 -87.757)" gradientUnits="userSpaceOnUse"/><radialGradient xlink:href="#c" id="s" gradientUnits="userSpaceOnUse" gradientTransform="translate(-1.712 16.292) scale(.98254)" cx="81.936" cy="33.185" fx="81.936" fy="33.185" r="57.276"/><radialGradient xlink:href="#d" id="v" gradientUnits="userSpaceOnUse" gradientTransform="matrix(4.90055 .15043 -.23602 7.68903 -638.535 -2206.847)" cx="183.525" cy="320.794" fx="183.525" fy="320.794" r="20.486"/><radialGradient xlink:href="#e" id="w" gradientUnits="userSpaceOnUse" gradientTransform="matrix(37.75863 0 0 19.7392 -7268.898 -1304.003)" cx="197.719" cy="68.107" fx="197.719" fy="68.107" r="2.5"/><radialGradient xlink:href="#f" id="t" gradientUnits="userSpaceOnUse" gradientTransform="matrix(3.93323 0 0 3.47932 -222.925 -173.555)" cx="76" cy="65.977" fx="76" fy="65.977" r="13.221"/><radialGradient xlink:href="#g" id="m" gradientUnits="userSpaceOnUse" gradientTransform="matrix(3.78687 .00907 -.02231 9.31966 8.698 -871.191)" cx="64.224" cy="105.853" fx="64.224" fy="105.853" r="60"/><radialGradient xlink:href="#e" id="y" gradientUnits="userSpaceOnUse" gradientTransform="matrix(37.75863 0 0 19.7392 -7375.666 -1304.003)" cx="197.747" cy="69.253" fx="197.747" fy="69.253" r="2.5"/><radialGradient xlink:href="#h" id="r" cx="282.138" cy="-218.921" fx="282.138" fy="-218.921" r="128.519" gradientTransform="matrix(1.1812 .0389 -.01999 .60689 -55.277 -45.478)" gradientUnits="userSpaceOnUse"/><radialGradient xlink:href="#i" id="u" gradientUnits="userSpaceOnUse" gradientTransform="matrix(2.81505 .01106 -.01047 2.6661 -242.36 -102.503)" cx="134.309" cy="55.279" fx="134.309" fy="55.279" r="58.46"/><radialGradient xlink:href="#g" id="A" cx="64.224" cy="105.853" fx="64.224" fy="105.853" r="60" gradientTransform="matrix(3.78687 .00907 -.02231 9.31966 8.698 -871.191)" gradientUnits="userSpaceOnUse"/><clipPath clipPathUnits="userSpaceOnUse" id="l"><path d="M64 176.414a60 60 0 00-60 60 60 60 0 0060 60 60 60 0 0060-60 60 60 0 00-60-60zm0 48a12 12 0 0112 12 12 12 0 01-12 12 12 12 0 01-12-12 12 12 0 0112-12z" style="marker:none" fill="#dc8add" stroke-width=".011" enable-background="new"/></clipPath><clipPath clipPathUnits="userSpaceOnUse" id="B"><rect ry="32" rx="32" y="-116" x="32.5" height="320" width="447" fill="#fb8c14" stroke-linejoin="round" stroke-dasharray="4,2"/></clipPath><clipPath id="C" clipPathUnits="userSpaceOnUse"><circle style="marker:none" cx="239.051" cy="77.264" r="19.711" fill="#9141ac" stroke-width=".529" stroke-linecap="round"/></clipPath><clipPath clipPathUnits="userSpaceOnUse" id="j"><rect width="106.417" height="96.355" x="512.925" y="-137.026" rx="6.076" ry="6.076" fill="#9141ac" stroke-width="0" stroke-linejoin="round"/></clipPath><filter id="x" x="-1.468" width="3.936" y="-.058" height="1.116" color-interpolation-filters="sRGB"><feGaussianBlur stdDeviation="3.059"/></filter></defs><rect width="224.688" height="147.741" x="-170.072" y="80.988" rx="31.088" ry="31.049" fill="#3584e4"/><rect width="224.688" height="147.741" x="70.864" y="80.988" rx="31.088" ry="31.049" fill="#3584e4"/><rect width="224.688" height="147.741" x="311.83" y="80.988" rx="31.088" ry="31.049" fill="#3584e4"/><g transform="rotate(-14.411 564.469 -238.112) scale(.72551)"><rect style="font-variation-settings:normal" width="123.659" height="134.953" x="266.406" y="195.21" rx="12.184" ry="12.184" transform="rotate(-18.996)" fill="#f6f5f4"/><g clip-path="url(#j)" transform="rotate(-18.97 1138.557 544.45)"><rect width="106.417" height="96.355" x="512.925" y="-137.026" rx="0" ry="0" fill="#1c71d8"/><path style="font-variation-settings:normal" d="M592.247-78.44l26.067 37.77H566.18z" fill="#77767b"/><path style="font-variation-settings:normal" d="M550.767-95.503L588.61-40.67h-75.683l-.233-38.469z" fill="#57e389"/><circle style="font-variation-settings:normal" cx="590.43" cy="-113.756" r="8.831" fill="#f9f06b"/></g></g><g transform="translate(106.862 22.848) scale(.72551)"><rect style="font-variation-settings:normal" width="123.659" height="134.953" x="266.406" y="195.21" rx="12.184" ry="12.184" transform="rotate(-18.996)" fill="#fff"/><g clip-path="url(#j)" transform="rotate(-18.97 1138.557 544.45)"><rect width="106.417" height="96.355" x="512.925" y="-137.026" rx="0" ry="0" fill="#62a0ea"/><path style="font-variation-settings:normal" d="M592.247-78.44l26.067 37.77H566.18z" fill="#77767b"/><path style="font-variation-settings:normal" d="M550.767-95.503L588.61-40.67h-75.683z" fill="#c0bfbc"/><circle style="font-variation-settings:normal" cx="590.43" cy="-113.756" r="8.831" fill="#f9f06b"/></g></g><rect width="224.688" height="147.741" x="552.766" y="80.988" rx="31.088" ry="31.049" fill="#3584e4"/><g transform="matrix(.25187 .94 .94 -.25187 235.252 116.375)"><path d="M71.188 197.56c-2.251 2.117-4.37 6.102-4.37 13.602l-.015 34.5-10.179 10.178a1.92 1.92 0 00-1.343.158l-12.125 6.088c-4.633-2.888-10.848-2.327-14.864 1.689-4.671 4.671-4.672 12.32 0 16.992 4.67 4.671 12.321 4.671 16.993 0l.042-.044.005.045 15.556-15.556.018.017 5.891-5.896-.004 7.829h.025v21.999l.035-.028v.06c0 6.607 5.41 12.016 12.016 12.016s12.014-5.409 12.014-12.015c0-5.68-3.998-10.471-9.317-11.705l-4.269-12.878a1.92 1.92 0 00-.838-1.061v-13.89l24.028-24.047c11.313-11.314 4.496-18.132 4.496-18.132l-28.524 28.523V195.16s-2.72 0-5.271 2.399zm-39.36 69.75a6.978 6.978 0 019.921 0 6.979 6.979 0 010 9.921 6.979 6.979 0 01-9.922 0 6.978 6.978 0 010-9.92zm42.068 16.91a6.994 6.994 0 014.972-2.043 6.979 6.979 0 017.015 7.017 6.978 6.978 0 01-7.015 7.015 6.979 6.979 0 01-7.016-7.016c0-1.952.778-3.706 2.044-4.972z" style="marker:none" fill-opacity=".102" fill-rule="evenodd"/><path d="M65.995 268.962h6v-72l-1.415-1.414s-6.585 5.061-6.585 17.414l.005 27.19.097 2.723 1.898 2.087z" fill="#9a9996" fill-rule="evenodd"/><use xlink:href="#k" transform="scale(-1 1) rotate(-45 -.464 413.359)" width="100%" height="100%" enable-background="new"/><g id="k" display="inline"><path d="M55.975 290h9.667v-72S56 218 56 234z" fill="#fff" fill-rule="evenodd" transform="scale(-1 1) rotate(-45 -31.3 415.202)"/><g transform="scale(-1 1) rotate(-45 -32.3 412.788)"><path d="M54 312v-24c0-2 2-2 2-2h6.037s1.918-.136 2.444 1.45l4.397 13.27z" fill="#ed333b" fill-rule="evenodd"/><circle r="9.516" cy="312.033" cx="-66.05" transform="scale(-1 1)" fill="none" stroke="#ed333b" stroke-width="5" stroke-linecap="round" stroke-linejoin="round"/><circle cx="-66" cy="312" r="7" transform="scale(-1 1)" fill="none" stroke="#e01b24" stroke-width="2" stroke-linecap="round" stroke-linejoin="round"/></g></g><circle transform="scale(-1 1) rotate(-45)" cx="-223.446" cy="125.865" r="2" fill="#3d3846" enable-background="new"/></g><g transform="matrix(0 3.28694 3.28694 0 -115.015 -377.275)" stroke-width="1.502"><path style="font-variation-settings:normal;marker:none" d="M174.888 199.154v-33.812c0-.78 1.408-7.946 1.408-7.946h.46s1.408 7.165 1.408 7.946v33.812c0 .78-.628 1.409-1.409 1.409h-.459c-.78 0-1.408-.629-1.408-1.409z" fill-opacity=".102"/><rect style="marker:none" width="3.44" height="2.117" x="173.567" y="198.702" rx=".703" ry=".703" fill="#1a5fb4"/><path style="marker:none" d="M174.805 157.427h.963c.1 0 .164.083.18.184l1.058 6.482c.043.261-.208.478-.467.478h-2.505c-.259 0-.51-.217-.467-.478l1.058-6.482c.016-.1.08-.184.18-.184z" fill="#1a5fb4"/><path style="marker:none" fill="#fff" d="M173.302 164.042h3.969v35.719h-3.969z"/><rect style="marker:none" width=".794" height="2.381" x="174.89" y="155.84" rx=".596" ry=".703" fill="#1a5fb4"/><rect style="marker:none" width="1.323" height="1.058" x="174.625" y="156.633" rx="0" ry="0" fill="#fff"/><path style="marker:none" fill="#f6f5f4" d="M175.948 164.042h1.323v35.719h-1.323z"/></g><g transform="translate(155.39 57.272) scale(.50045)" clip-path="url(#l)"><rect style="marker:none" width="112" height="114" x="8" y="180.415" rx="56" ry="56" fill="#d5d3cf" enable-background="new"/><path d="M64 176.414a60 60 0 00-60 60 60 60 0 0060 60 60 60 0 0060-60 60 60 0 00-60-60zm0 48a12 12 0 0112 12 12 12 0 01-12 12 12 12 0 01-12-12 12 12 0 0112-12z" style="marker:none" fill="#f6f5f4" enable-background="new"/><circle r="23.96" cy="236.5" cx="64" style="marker:none" opacity=".488" fill="none" stroke="#9a9996" stroke-width="4.493"/><path style="marker:none" d="M128 209.712l-64 26.702 73.664 23.15M9.114 278.94l54.908-42.357-77.145-3.295" opacity=".05" fill-opacity=".929"/></g><path style="marker:none" d="M279-28.23a45.443 45.443 0 00-45.442 45.443 45.443 45.443 0 00.134 3.395A45.443 45.443 0 01279-22.224a45.443 45.443 0 0145.31 42.048 45.443 45.443 0 00.133-2.61A45.443 45.443 0 00279-28.23zM51.98 21a229.812 229.812 0 00-.192 3.787C51.788 150.273 153.514 252 279 252c125.486 0 227.213-101.727 227.213-227.213A229.948 229.948 0 00506.08 21C504.014 144.953 402.97 244.37 279 244.426 155.053 244.34 54.046 144.93 51.98 21z" opacity=".74" fill="url(#m)" enable-background="new" transform="translate(150.548 173.31) scale(.13215)"/><g transform="rotate(-15 569.513 -204.465) scale(.24878)" opacity=".96" stroke-width="4.02"><path style="line-height:normal;font-variant-ligatures:normal;font-variant-position:normal;font-variant-caps:normal;font-variant-numeric:normal;font-variant-alternates:normal;font-feature-settings:normal;text-indent:0;text-align:start;text-decoration-line:none;text-decoration-style:solid;text-decoration-color:#000;text-transform:none;text-orientation:mixed;white-space:normal;shape-padding:0;isolation:auto;mix-blend-mode:normal;solid-color:#000;solid-opacity:1;marker:none" d="M282.355-200.016c-57.004 0-110.71 20.307-144.047 64.27-7.11 9.395-11.016 32.296 3.523 40.69l11.96 6.62a8.873 8.873 0 0012.119-3.247c24.035-41.632 67.097-71.687 116.445-71.687 49.349 0 92.413 30.056 116.448 71.687a8.873 8.873 0 0012.119 3.247l11.273-5.74c17.087-9.865 9.187-32.881 4.745-40.574-33.265-44.59-87.203-65.266-144.585-65.266z" color="#000" font-weight="400" font-family="sans-serif" overflow="visible" fill="url(#n)" enable-background="accumulate"/><path style="marker:none" d="M135.057-34.968a147.078 147.078 0 01147.079-147.078A147.078 147.078 0 01429.214-34.968" fill="none" stroke="#77767b" stroke-width="40.196" stroke-linejoin="bevel"/><path style="marker:none" d="M429.257-35.675V39.28m-294.25-74.955V39.28" fill="none" stroke="#70727b" stroke-width="40.196" stroke-linejoin="bevel"/><path style="line-height:normal;font-variant-ligatures:normal;font-variant-position:normal;font-variant-caps:normal;font-variant-numeric:normal;font-variant-alternates:normal;font-feature-settings:normal;text-indent:0;text-align:start;text-decoration-line:none;text-decoration-style:solid;text-decoration-color:#000;text-transform:none;text-orientation:mixed;white-space:normal;shape-padding:0;isolation:auto;mix-blend-mode:normal;solid-color:#000;solid-opacity:1;marker:none" d="M390.31-125.355A154.394 154.394 0 01411.333-92.3c2.69-2.4 6.28-4.341 9.89-5.113a163.911 163.911 0 00-16.814-27.942z" color="#000" font-weight="400" font-family="sans-serif" overflow="visible" fill="url(#o)" enable-background="accumulate"/><path d="M174.886-126.94a159.711 159.711 0 00-21.746 34.194c-2.782-2.482-6.497-4.491-10.23-5.29 4.838-10.243 10.689-19.91 17.393-28.904z" style="line-height:normal;font-variant-ligatures:normal;font-variant-position:normal;font-variant-caps:normal;font-variant-numeric:normal;font-variant-alternates:normal;font-feature-settings:normal;text-indent:0;text-align:start;text-decoration-line:none;text-decoration-style:solid;text-decoration-color:#000;text-transform:none;text-orientation:mixed;white-space:normal;shape-padding:0;isolation:auto;mix-blend-mode:normal;solid-color:#000;solid-opacity:1;marker:none" color="#000" font-weight="400" font-family="sans-serif" overflow="visible" fill="url(#p)" enable-background="accumulate"/><path style="line-height:normal;font-variant-ligatures:normal;font-variant-position:normal;font-variant-caps:normal;font-variant-numeric:normal;font-variant-alternates:normal;font-feature-settings:normal;text-indent:0;text-align:start;text-decoration-line:none;text-decoration-style:solid;text-decoration-color:#000;text-transform:none;text-orientation:mixed;white-space:normal;shape-padding:0;isolation:auto;mix-blend-mode:normal;solid-color:#000;solid-opacity:1;marker:none" d="M282.355-210.121c-56.307 0-108.874 26.684-142.175 71.089 0 0-15.959 25.842 3.869 37.29l6.327 3.653a9.109 9.109 0 0012.44-3.334 137.949 137.949 0 01119.54-69.016c49.348 0 94.867 26.28 119.54 69.016a9.109 9.109 0 0012.441 3.334l6.511-3.76c18.963-10.261 3.644-37.237 3.644-37.237-33.303-44.372-85.852-71.035-142.137-71.035z" color="#000" font-weight="400" font-family="sans-serif" overflow="visible" fill="url(#q)" enable-background="accumulate"/><path style="line-height:normal;font-variant-ligatures:normal;font-variant-position:normal;font-variant-caps:normal;font-variant-numeric:normal;font-variant-alternates:normal;font-feature-settings:normal;text-indent:0;text-align:start;text-decoration-line:none;text-decoration-style:solid;text-decoration-color:#000;text-transform:none;text-orientation:mixed;white-space:normal;shape-padding:0;isolation:auto;mix-blend-mode:normal;solid-color:#000;solid-opacity:1;marker:none" d="M282.355-186.332c-67.033 0-109.072 34.558-137.4 83.624a8.132 8.132 0 00-.548 1.172l5.969 3.447a9.109 9.109 0 0012.44-3.334 137.949 137.949 0 01119.54-69.016c49.348 0 94.867 26.28 119.54 69.016a9.109 9.109 0 0012.441 3.334l5.973-3.45a8.133 8.133 0 00-.551-1.169c-28.329-49.067-70.37-83.625-137.404-83.624z" color="#000" font-weight="400" font-family="sans-serif" overflow="visible" fill="url(#r)" enable-background="accumulate"/><g id="z" stroke-width="4.02" stroke-linejoin="bevel"><circle r="57.276" cy="70.897" cx="118.794" style="marker:none" fill="url(#s)"/><path style="marker:none" d="M86.03 24.002a57.276 57.276 0 00-1.93 1.379A2 2 0 0084 26a2 2 0 002 2 2 2 0 002-2 2 2 0 00-1.97-1.998zM82 28a2 2 0 00-2 2 2 2 0 002 2 2 2 0 002-2 2 2 0 00-2-2zm-4 4a2 2 0 00-2 2 2 2 0 002 2 2 2 0 002-2 2 2 0 00-2-2zm8 0a2 2 0 00-2 2 2 2 0 002 2 2 2 0 002-2 2 2 0 00-2-2zm-12 4a2 2 0 00-.607.098 57.276 57.276 0 00-1.39 1.824A2 2 0 0072 38a2 2 0 002 2 2 2 0 002-2 2 2 0 00-2-2zm8 0a2 2 0 00-2 2 2 2 0 002 2 2 2 0 002-2 2 2 0 00-2-2zm-4 4a2 2 0 00-2 2 2 2 0 002 2 2 2 0 002-2 2 2 0 00-2-2zm8 0a2 2 0 00-2 2 2 2 0 002 2 2 2 0 002-2 2 2 0 00-2-2zm-15.418.088a57.276 57.276 0 00-2.021 3.299A2 2 0 0070 44a2 2 0 002-2 2 2 0 00-1.418-1.912zM74 44a2 2 0 00-2 2 2 2 0 002 2 2 2 0 002-2 2 2 0 00-2-2zm8 0a2 2 0 00-2 2 2 2 0 002 2 2 2 0 002-2 2 2 0 00-2-2zm-14.246 1.043a57.276 57.276 0 00-1.414 2.928A2 2 0 0068 46a2 2 0 00-.246-.957zM70 48a2 2 0 00-2 2 2 2 0 002 2 2 2 0 002-2 2 2 0 00-2-2zm8 0a2 2 0 00-2 2 2 2 0 002 2 2 2 0 002-2 2 2 0 00-2-2zm8 0a2 2 0 00-2 2 2 2 0 002 2 2 2 0 002-2 2 2 0 00-2-2zm-20 4a2 2 0 00-1.422.596 57.276 57.276 0 00-.564 1.617A2 2 0 0066 56a2 2 0 002-2 2 2 0 00-2-2zm8 0a2 2 0 00-2 2 2 2 0 002 2 2 2 0 002-2 2 2 0 00-2-2zm8 0a2 2 0 00-2 2 2 2 0 002 2 2 2 0 002-2 2 2 0 00-2-2zm-12 4a2 2 0 00-2 2 2 2 0 002 2 2 2 0 002-2 2 2 0 00-2-2zm8 0a2 2 0 00-2 2 2 2 0 002 2 2 2 0 002-2 2 2 0 00-2-2zm8 0a2 2 0 00-2 2 2 2 0 002 2 2 2 0 002-2 2 2 0 00-2-2zm-22.59.582a57.276 57.276 0 00-.808 3.322A2 2 0 0064 58a2 2 0 00-.59-1.418zM66 60a2 2 0 00-2 2 2 2 0 002 2 2 2 0 002-2 2 2 0 00-2-2zm8 0a2 2 0 00-2 2 2 2 0 002 2 2 2 0 002-2 2 2 0 00-2-2zm8 0a2 2 0 00-2 2 2 2 0 002 2 2 2 0 002-2 2 2 0 00-2-2zm-20.018 4a57.276 57.276 0 00-.318 3.97A2 2 0 0062 68a2 2 0 002-2 2 2 0 00-2-2 2 2 0 00-.018 0zM70 64a2 2 0 00-2 2 2 2 0 002 2 2 2 0 002-2 2 2 0 00-2-2zm8 0a2 2 0 00-2 2 2 2 0 002 2 2 2 0 002-2 2 2 0 00-2-2zm8 0a2 2 0 00-2 2 2 2 0 002 2 2 2 0 002-2 2 2 0 00-2-2zm-20 4a2 2 0 00-2 2 2 2 0 002 2 2 2 0 002-2 2 2 0 00-2-2zm8 0a2 2 0 00-2 2 2 2 0 002 2 2 2 0 002-2 2 2 0 00-2-2zm8 0a2 2 0 00-2 2 2 2 0 002 2 2 2 0 002-2 2 2 0 00-2-2zm-20 4a2 2 0 00-.441.05 57.276 57.276 0 00.23 3.938A2 2 0 0062 76a2 2 0 002-2 2 2 0 00-2-2zm8 0a2 2 0 00-2 2 2 2 0 002 2 2 2 0 002-2 2 2 0 00-2-2zm8 0a2 2 0 00-2 2 2 2 0 002 2 2 2 0 002-2 2 2 0 00-2-2zm8 0a2 2 0 00-2 2 2 2 0 002 2 2 2 0 002-2 2 2 0 00-2-2zm-20 4a2 2 0 00-2 2 2 2 0 002 2 2 2 0 002-2 2 2 0 00-2-2zm8 0a2 2 0 00-2 2 2 2 0 002 2 2 2 0 002-2 2 2 0 00-2-2zm8 0a2 2 0 00-2 2 2 2 0 002 2 2 2 0 002-2 2 2 0 00-2-2zm-12 4a2 2 0 00-2 2 2 2 0 002 2 2 2 0 002-2 2 2 0 00-2-2zm8 0a2 2 0 00-2 2 2 2 0 002 2 2 2 0 002-2 2 2 0 00-2-2zm8 0a2 2 0 00-2 2 2 2 0 002 2 2 2 0 002-2 2 2 0 00-2-2zm-23.723.022a57.276 57.276 0 00.764 3.683A2 2 0 0064 82a2 2 0 00-1.723-1.979zM66 84a2 2 0 00-2 2 2 2 0 002 2 2 2 0 002-2 2 2 0 00-2-2zm8 0a2 2 0 00-2 2 2 2 0 002 2 2 2 0 002-2 2 2 0 00-2-2zm8 0a2 2 0 00-2 2 2 2 0 002 2 2 2 0 002-2 2 2 0 00-2-2zm-12 4a2 2 0 00-2 2 2 2 0 002 2 2 2 0 002-2 2 2 0 00-2-2zm8 0a2 2 0 00-2 2 2 2 0 002 2 2 2 0 002-2 2 2 0 00-2-2zm8 0a2 2 0 00-2 2 2 2 0 002 2 2 2 0 002-2 2 2 0 00-2-2zm-20 4a2 2 0 00-.414.045 57.276 57.276 0 001.598 3.564A2 2 0 0068 94a2 2 0 00-2-2zm8 0a2 2 0 00-2 2 2 2 0 002 2 2 2 0 002-2 2 2 0 00-2-2zm8 0a2 2 0 00-2 2 2 2 0 002 2 2 2 0 002-2 2 2 0 00-2-2zm-12 4a2 2 0 00-1.922 1.451 57.276 57.276 0 001.426 2.485A2 2 0 0070 100a2 2 0 002-2 2 2 0 00-2-2zm8 0a2 2 0 00-2 2 2 2 0 002 2 2 2 0 002-2 2 2 0 00-2-2zm8 0a2 2 0 00-2 2 2 2 0 002 2 2 2 0 002-2 2 2 0 00-2-2zm-12 4a2 2 0 00-2 2 2 2 0 002 2 2 2 0 002-2 2 2 0 00-2-2zm8 0a2 2 0 00-2 2 2 2 0 002 2 2 2 0 002-2 2 2 0 00-2-2zm-4 4a2 2 0 00-2 2 2 2 0 002 2 2 2 0 002-2 2 2 0 00-2-2zm8 0a2 2 0 00-2 2 2 2 0 002 2 2 2 0 002-2 2 2 0 00-2-2zm-4 4a2 2 0 00-2 2 2 2 0 002 2 2 2 0 002-2 2 2 0 00-2-2zm4 4a2 2 0 00-2 2 2 2 0 002 2 2 2 0 002-2 2 2 0 00-2-2z" fill="url(#t)" stroke-width="80.391" enable-background="new"/><path d="M143.894-22.56c-17.103 0-34.177 5.007-48.57 14.246a18.78 18.78 0 00-8.636 15.803v125.66a18.78 18.78 0 008.6 15.78c14.382 9.277 31.457 14.322 48.57 14.355h.058c20.634-.024 36.942-7.417 52.862-20.544a18.78 18.78 0 006.83-14.488v-115.8a18.78 18.78 0 00-6.837-14.493c-15.923-13.118-32.23-20.502-52.862-20.519h-.014z" style="marker:none" fill="url(#u)"/><path transform="translate(0 -260)" d="M162.635 239.707v181.305c12.375-3.12 23.35-9.373 34.142-18.272a18.78 18.78 0 006.83-14.488V272.453a18.78 18.78 0 00-6.836-14.494c-10.791-8.89-21.765-15.138-34.136-18.252z" style="marker:none" fill="url(#v)"/><path style="line-height:normal;font-variant-ligatures:normal;font-variant-position:normal;font-variant-caps:normal;font-variant-numeric:normal;font-variant-alternates:normal;font-feature-settings:normal;text-indent:0;text-align:start;text-decoration-line:none;text-decoration-style:solid;text-decoration-color:#000;text-transform:none;text-orientation:mixed;white-space:normal;shape-padding:0;isolation:auto;mix-blend-mode:normal;solid-color:#000;solid-opacity:1;marker:none" d="M196.963 5.215A2.5 2.5 0 00194.5 7.75v121.5a2.5 2.5 0 105 0V7.75a2.5 2.5 0 00-2.537-2.535z" color="#000" font-weight="400" font-family="sans-serif" overflow="visible" opacity=".462" fill="url(#w)" fill-opacity=".987" stroke-width="20.098" stroke-linecap="round" filter="url(#x)" enable-background="accumulate"/><path d="M90.232 7.75v121.5" style="marker:none" opacity=".187" fill="none" fill-opacity=".252" stroke="url(#y)" stroke-width="20.098" stroke-linecap="round" stroke-opacity=".987"/></g><use xlink:href="#z" transform="matrix(-1 0 0 1 565.127 0)" width="100%" height="100%"/></g><g transform="translate(121.846 75.473) scale(.50045)" clip-path="url(#l)"><rect style="marker:none" width="112" height="114" x="8" y="180.415" rx="56" ry="56" fill="#d5d3cf" enable-background="new"/><path d="M64 176.414a60 60 0 00-60 60 60 60 0 0060 60 60 60 0 0060-60 60 60 0 00-60-60zm0 48a12 12 0 0112 12 12 12 0 01-12 12 12 12 0 01-12-12 12 12 0 0112-12z" style="marker:none" fill="#f6f5f4" enable-background="new"/><circle r="23.96" cy="236.5" cx="64" style="marker:none" opacity=".488" fill="none" stroke="#9a9996" stroke-width="4.493"/><path style="marker:none" d="M128 209.712l-64 26.702 73.664 23.15M9.114 278.94l54.908-42.357-77.145-3.295" opacity=".05" fill-opacity=".929"/></g><path style="marker:none" d="M279-28.23a45.443 45.443 0 00-45.442 45.443 45.443 45.443 0 00.134 3.395A45.443 45.443 0 01279-22.224a45.443 45.443 0 0145.31 42.048 45.443 45.443 0 00.133-2.61A45.443 45.443 0 00279-28.23zM51.98 21a229.812 229.812 0 00-.192 3.787C51.788 150.273 153.514 252 279 252c125.486 0 227.213-101.727 227.213-227.213A229.948 229.948 0 00506.08 21C504.014 144.953 402.97 244.37 279 244.426 155.053 244.34 54.046 144.93 51.98 21z" opacity=".74" fill="url(#A)" enable-background="new" transform="translate(117.004 191.511) scale(.13215)"/><g transform="rotate(57.948 -64.872 858.666) scale(.78517)"><rect ry="8" rx="8" y="217.775" x="-686.787" height="80" width="111.75" fill="#d5d3cf" enable-background="new"/><rect ry="4" rx="4" y="225.775" x="-678.912" height="56" width="96" fill="#ed333b" enable-background="new"/><rect ry="7.988" rx="7.988" y="245.775" x="-658.9" height="15.975" width="55.975" fill="#d5d3cf" stroke="#d5d3cf" stroke-width="8" stroke-linejoin="round" stroke-dashoffset="11.2" enable-background="new"/><circle r="7.988" cy="253.762" cx="-650.912" fill="#424048" enable-background="new"/><circle cx="-610.912" cy="253.762" r="7.988" fill="#424048" enable-background="new"/><g transform="matrix(.25 0 0 .25 -694.912 246.775)" clip-path="url(#B)" fill="#949390" stroke="#949390"><path d="M128 236h256l-32-96H160z" stroke-width="32" stroke-linecap="round" stroke-linejoin="round"/></g><g transform="matrix(.25 0 0 .25 -694.912 246.775)" fill="#424048"><circle cx="56" cy="-92" r="8"/><circle r="8" cy="164" cx="56"/><circle r="8" cy="-92" cx="456"/><circle cx="456" cy="164" r="8"/></g><path fill="#949390" enable-background="new" d="M-640.162 247.416h17.634v12.334h-17.634z"/><path d="M-686.787 285.775v4c0 4.432 3.568 8 8 8h95.75c4.432 0 8-3.568 8-8v-4c0 4.432-3.568 8-8 8h-95.75c-4.432 0-8-3.568-8-8z" fill="#68676b" enable-background="new"/></g><g stroke-width=".25"><path d="M-42.626 75.38h54.084l32.496 32.36.002 80.11c0 4.794-3.908 8.677-8.702 8.677h-77.88a8.634 8.634 0 01-8.654-8.653V84.033a8.634 8.634 0 018.654-8.654z" fill="#f6f5f4" enable-background="new"/><path d="M11.458 75.38v23.796c0 4.794 3.905 8.57 8.699 8.57l23.797-.005z" fill="#deddda" enable-background="new"/></g><g stroke-width=".25"><path d="M-94.68 110.379l48.852-23.208 43.24 15.286 34.376 72.359c2.057 4.33.194 9.514-4.136 11.571l-70.346 33.42a8.634 8.634 0 01-11.53-4.104l-44.558-93.795a8.634 8.634 0 014.103-11.53z" fill="#fff" enable-background="new"/><path d="M-45.828 87.171l10.212 21.495c2.057 4.33 7.205 6.065 11.535 4.008l21.493-10.217z" fill="#deddda" enable-background="new"/></g><g transform="translate(369.789 -30.879) scale(.80932)"><rect ry="7.673" rx="7.673" y="152.889" x="254.983" height="26.458" width="27.359" style="marker:none" fill="none" stroke="#fff" stroke-width="4.233" stroke-linecap="round"/><circle style="marker:none" cx="251.486" cy="152.003" r="21.299" fill="#fff"/><path d="M251.369 160.999a21.84 21.84 0 00-21.84 21.84 21.84 21.84 0 0021.84 21.84 21.84 21.84 0 0021.42-17.594h5.54c1.329 0 2.4-1.07 2.4-2.4a2.395 2.395 0 00-2.4-2.399h-5.139A21.84 21.84 0 00251.37 161z" style="marker:none" fill-opacity=".102"/><path style="marker:none" fill="#fff" d="M230.187 148.96h42.333v32.015h-42.333z"/><circle r="21.299" cy="180.843" cx="251.486" style="marker:none" fill="#fff"/><g clip-path="url(#C)" transform="translate(34.094 81.74) scale(.9094)"><circle style="marker:none" cx="239.051" cy="77.264" r="19.711" fill="#deddda"/><circle r="19.711" cy="85.201" cx="239.051" style="marker:none" fill="#241f31"/></g></g><g opacity=".42" fill="none" stroke="#fff" stroke-width="3.939" stroke-linecap="round"><path d="M555.766 66.988h39.443m-39.443-8.008h26.005m-24.494-7.728h23.937m-1.229 38.285V77.605c0-1.671 1.02-2.674 2.972-2.674h11.996"/><path style="marker:none" d="M555.726 66.915a3.939 3.939 0 01-3.41-1.969 3.939 3.939 0 010-3.939 3.939 3.939 0 013.41-1.97m39.492 15.888a3.939 3.939 0 003.411-1.969 3.939 3.939 0 000-3.939 3.939 3.939 0 00-3.41-1.97m-14.484-7.997a3.939 3.939 0 003.411-1.97 3.939 3.939 0 000-3.938 3.939 3.939 0 00-3.41-1.97m-24.359-.012a3.939 3.939 0 01-2.785-1.153 3.939 3.939 0 01-1.154-2.785"/><path d="M552.387 46.73V36.252"/></g><g transform="translate(-839.661 2525.02) scale(.3879)"><circle style="marker:none" cx="3649.456" cy="-6053.328" r="24.749" fill="#3d3846"/><path d="M3651.108-6078.014l-.594 49.412 132.049-13.801v-21.404z" fill="#3d3846"/><path d="M3755.251-6066.953v27.695l27.56-2.95v-21.795z" fill="#c0bfbc"/><path style="marker:none" d="M3773.198-6071.557v41.194a9.79 9.79 0 009.811 9.81h59.753a9.79 9.79 0 009.81-9.81v-41.025h-77.59a9.87 9.87 0 01-1.783-.169z" fill="#deddda"/><path style="line-height:normal;font-variant-ligatures:normal;font-variant-position:normal;font-variant-caps:normal;font-variant-numeric:normal;font-variant-alternates:normal;font-feature-settings:normal;text-indent:0;text-align:start;text-decoration-line:none;text-decoration-style:solid;text-decoration-color:#000;text-transform:none;text-orientation:mixed;white-space:normal;shape-padding:0;isolation:auto;mix-blend-mode:normal;solid-color:#000;solid-opacity:1;marker:none" d="M3798.393-6017.126c-4.25 0-7.755 3.505-7.755 7.756v9.778l9.052 1.898v-7.217c0-1.424 1.063-2.488 2.487-2.488h21.416c1.424 0 2.488 1.064 2.488 2.488v6.661l8.86-2.305.192.2v-9.015c0-4.251-3.505-7.756-7.756-7.756z" color="#000" font-weight="400" font-family="sans-serif" overflow="visible" fill="#deddda" enable-background="accumulate"/><path style="marker:none" d="M3798.932-6011.75a3.44 3.44 0 00-3.448 3.447v9.727l4.205.88v-7.216c0-1.424 1.063-2.486 2.487-2.486h21.418c1.423 0 2.488 1.062 2.488 2.486v6.662l4.05-1.055v-8.998a3.44 3.44 0 00-3.447-3.447zm-25.732-59.806v.167h1.782a9.88 9.88 0 01-1.783-.167zm63.122.167v41.026c0 2.408-2.163 6.31-5.166 6.31h-48.146a9.79 9.79 0 01-9.81-9.81v3.5a9.79 9.79 0 009.81 9.81h59.752a9.79 9.79 0 009.81-9.81v-41.025z" fill="#c0bfbc" fill-opacity=".445"/><rect style="marker:none" width="92.305" height="13.824" x="3766.733" y="-6084.766" rx="6.912" ry="6.912" fill="#f6f5f4"/><circle r="5.125" cy="-6067.355" cx="3645.25" style="marker:none" fill="#5e5c64"/></g></svg>